<?xml version="1.0" encoding="UTF-8"?>
<svg width="114px" height="114px" viewBox="0 0 114 114" version="1.1" xmlns="http://www.w3.org/2000/svg" xmlns:xlink="http://www.w3.org/1999/xlink">
    <!-- Generator: Sketch 51.2 (57519) - http://www.bohemiancoding.com/sketch -->
    <title>Fill 1 Copy 3</title>
    <desc>Created with Sketch.</desc>
    <defs></defs>
    <g id="Welcome" stroke="none" stroke-width="1" fill="none" fill-rule="evenodd">
        <g id="1440" transform="translate(-530.000000, -1308.000000)" fill="#FFCA05">
            <g id="Group" transform="translate(530.000000, 1308.000000)">
                <path d="M114,51.9051913 C113.924116,53.3812146 113.899478,54.7787781 113.587073,56.2283213 C113.291421,57.6033277 113.716174,58.8204339 113.42545,60.1895558 C113.107132,61.6881363 113.157393,63.0562774 113.039132,64.5774151 C112.911016,66.221146 112.175829,67.6628431 111.673221,69.2104609 C111.253396,70.5030846 111.206092,71.8280729 110.748817,73.1128507 C110.230441,74.5702397 109.891427,76.0550897 109.238037,77.4712875 C107.874097,80.4262763 106.332766,83.2223842 104.672189,86.0165306 C101.693006,91.0271637 98.5226345,96.145679 94.2682068,100.227545 C91.9798628,102.422456 89.0499546,104.061283 86.3161621,105.635381 C85.1079322,106.331711 83.930253,107.107481 82.7052695,107.770466 C81.3245762,108.516814 79.8206946,108.98561 78.4449288,109.763342 C75.9456866,111.175617 73.9569363,112.525124 71.0447672,112.897808 C69.7665665,113.061592 68.6164814,113.5706 67.3451792,113.724577 C65.7496456,113.917784 64.0417644,114.086472 62.4363758,113.951129 C59.5163227,113.705943 56.5174291,113.040997 53.6653759,112.386839 C52.1112336,112.030828 50.607352,111.895485 49.014775,111.838602 C47.3128068,111.778776 45.8325774,111.325671 44.1877685,110.950045 C41.2953096,110.290003 38.3614594,109.216086 35.6601885,107.987211 C30.1709223,105.49023 23.9356284,102.996192 19.7068238,98.5504691 C17.7545372,96.4987477 15.5913524,94.6098302 13.5001095,92.6875673 C12.5215025,91.7882229 11.5074172,90.8623983 10.8609255,89.6874642 C10.1395354,88.3781678 9.81628958,86.8678184 9.1697979,85.5163499 C6.50400524,79.9486528 3.58099562,74.4682421 1.89972306,68.4974583 C1.06795633,65.5454117 0.900420377,62.5041172 0.345580722,59.5216676 C0.0666826359,58.0250486 -0.194476349,57.3601026 0.203667915,55.8762333 C0.597870156,54.408056 0.688536672,52.9369365 1.12413015,51.4628747 C1.5547961,50.0054856 1.78638991,48.4696368 2.17763564,46.9887098 C2.60435957,45.3724398 3.19566293,43.9003395 3.80766191,42.3487987 C4.36348707,40.9394662 4.7212256,39.4644237 5.27113773,38.0541104 C5.80133975,36.6928345 6.69420782,35.5188811 7.1652795,34.1370094 C7.58806141,32.893423 7.72011916,31.5909919 8.31930656,30.4062503 C9.00620397,29.0498781 10.0064922,27.8465023 10.8195343,26.5627053 C11.5911852,25.3436375 12.3795897,24.332488 13.4252111,23.3438957 C14.553615,22.2758629 15.3124543,20.9793162 16.1934963,19.7121919 C17.9201022,17.2289421 19.6959833,14.8467092 21.8946463,12.7528157 C24.1593381,10.5971352 26.7255947,9.32903018 29.4298221,7.85202616 C32.2276725,6.32304258 34.8914942,4.69009988 37.8016922,3.34941961 C40.6034846,2.05875739 43.6575665,1.15843223 46.6318224,0.342451257 C49.5843972,-0.468625986 52.451233,0.362066184 55.3663586,0.77299891 C58.255861,1.18000865 61.0083782,1.89693424 63.9244893,2.21665756 C66.6681369,2.51774669 69.5418712,2.89435329 72.1672581,3.85450398 C75.0055143,4.89311438 77.8142052,6.12297032 80.7037077,7.02917996 C83.2157615,7.81770004 85.6775544,8.84944521 87.709667,10.454927 C89.639287,11.9790069 92.3109927,12.1339648 94.2534242,13.7580808 C95.3463499,14.6711556 96.06774,15.8519742 96.9891878,16.916084 C97.9520267,18.0262889 99.057764,18.7912711 99.9457046,19.9897431 C101.653586,22.2964586 103.924191,24.1108394 105.357116,26.6313575 C106.944765,29.4235424 108.384589,32.3128212 109.466674,35.3345007 C109.962384,36.7163724 110.6276,37.9844774 111.254381,39.308485 C111.868351,40.6050317 112.051655,41.9310008 112.514843,43.2687388 C113.539769,46.2286313 113.874841,48.7746489 114,51.9051913" id="Fill-1-Copy-3"></path>
            </g>
        </g>
    </g>
</svg>