<?xml version="1.0" encoding="UTF-8"?>
<svg width="111px" height="111px" viewBox="0 0 111 111" version="1.1" xmlns="http://www.w3.org/2000/svg" xmlns:xlink="http://www.w3.org/1999/xlink">
    <!-- Generator: Sketch 51.2 (57519) - http://www.bohemiancoding.com/sketch -->
    <title>Fill 1 Copy 4</title>
    <desc>Created with Sketch.</desc>
    <defs></defs>
    <g id="Welcome" stroke="none" stroke-width="1" fill="none" fill-rule="evenodd">
        <g id="1440" transform="translate(-609.000000, -1308.000000)" fill="#231F20">
            <g id="Group" transform="translate(530.000000, 1308.000000)">
                <path d="M79,64.9865623 C79,64.6375056 79.281346,64.351566 79.6361708,64.3448718 C79.9948628,64.3372212 80.2907112,64.6193355 80.297479,64.9741302 C80.4995454,74.9255936 87.6695187,86.1489623 92.6960412,90.9410806 L93.161084,91.384813 C97.7670377,95.7791023 102.987892,100.758659 108.882623,103.308208 C117.578246,107.066544 125.194893,108.323149 134.249208,109.574015 C139.525171,110.304643 148.607524,108.093632 153.5509,106.709837 C158.686673,105.273445 161.994181,103.228833 166.302353,99.956307 C170.442297,96.8119276 174.319265,93.0048186 176.93936,89.5104262 C181.528878,83.3890235 184.495097,77.6530175 186.273088,71.4598908 C187.474851,67.2750355 188.260879,63.0662723 188.609903,58.9521846 C189.021771,54.1342457 187.994036,49.0188913 187.001107,44.0737618 C186.794206,43.0390238 186.588272,42.0138491 186.397808,41.0030191 C185.451286,35.9622576 183.692632,28.5938139 179.38446,22.8157299 C177.249711,19.9515522 174.404345,17.6353458 171.650828,15.3946886 C167.561159,12.0676521 163.3313,8.62585731 158.448834,6.45118618 C153.459051,4.22774274 147.933647,3.39000663 142.590006,2.58000379 C136.882839,1.71453441 130.98134,0.820375433 125.188125,1.56056693 C120.459384,2.16496102 115.955914,3.87103547 112.561392,5.29021399 C108.296727,7.07279402 102.8332,9.6319057 98.4138436,13.6264533 C95.2300892,16.5040195 92.4572355,20.1638552 89.4223722,25.4943815 C86.436817,30.7378828 84.7400393,34.8997864 83.919205,38.9918786 C83.1041716,43.054325 83.1534797,47.2152722 83.2772333,51.1218385 C83.5953186,61.3898437 84.8347881,74.2494755 91.6412353,82.6268366 C94.8472266,86.5735683 97.2594547,89.2359625 101.54829,92.83555 C105.263798,95.9550651 108.932898,98.9378264 112.960691,101.137362 C116.585317,103.116944 121.456181,103.846616 125.752751,104.490219 C126.38022,104.584895 126.998021,104.676701 127.598419,104.772333 C131.770269,105.426456 137.883502,106.027981 143.322859,105.173988 C144.726689,104.953078 145.912016,104.889961 146.959088,104.833538 C148.789287,104.736949 150.371013,104.651837 152.547335,103.78063 C156.744322,102.100376 160.987716,100.227902 163.601044,97.9250838 C165.913689,95.8881227 169.287908,92.3526086 170.985653,89.8135796 C175.954166,82.3877567 182.729674,71.1892523 184.206983,59.7143715 C184.669125,56.130085 184.600481,52.1508385 184.002016,47.5490278 C182.55758,36.4547623 177.453711,26.2383983 169.631131,18.7810168 C164.715793,14.0940937 156.809099,8.13909055 147.053836,6.37372428 C138.495503,4.82448627 129.321301,5.89460808 120.659517,7.12252265 C115.444464,7.86271414 110.314491,9.68832856 106.214187,12.2627414 C103.09521,14.2203279 100.540858,16.9936552 98.0715875,19.6751758 C96.4424876,21.443411 94.7582787,23.2718944 93.7663164,25.4551724 C93.0489323,27.0331 92.702809,28.7908158 92.3673208,30.4911523 C91.9622211,32.5415019 91.1336522,34.4895252 90.3311876,36.3725188 C89.5548272,38.1952643 88.7513957,40.0820832 88.3724004,42.0033296 C87.8619168,44.5892182 88.0591491,47.4342695 88.2496136,50.1856014 C88.3472629,51.5904351 88.4478127,53.0430849 88.4507132,54.4373991 C88.457481,55.3325144 88.4391113,56.2859652 88.4236421,57.2537608 C88.357898,61.5112963 88.2824857,66.3359295 89.688249,70.0359307 C92.5722876,77.6300659 98.7609337,85.7769539 106.667628,92.3870361 C114.080274,98.5849444 122.1842,101.920588 130.753169,102.301203 C135.0188,102.489598 139.335673,102.220872 143.948395,101.477812 C144.898784,101.324801 145.946822,101.188047 147.041268,101.044599 C150.458027,100.597998 154.329194,100.092104 156.990862,98.8536703 C161.285499,96.8540057 167.366827,88.6554764 169.962752,85.1553461 C177.698318,74.7257228 181.170186,63.1160009 180.559153,49.6299796 C180.410261,46.317288 179.219133,41.8369299 177.01864,36.3151396 C173.797179,28.2275434 170.227662,23.3407494 164.697424,19.4437464 C163.625215,18.6882538 162.538504,17.806527 161.387015,16.8731589 C158.38019,14.4345435 155.270881,11.9127283 152.04652,11.3150285 C151.228586,11.1629736 150.294633,10.9803166 149.289135,10.7833147 C145.172395,9.97904977 140.04919,8.97778298 136.736848,8.85441773 C134.226971,8.7606984 131.486022,9.52766684 128.834988,10.2678583 C126.616125,10.8885099 124.320883,11.5302004 122.130058,11.6803426 C111.968728,12.381325 101.993029,19.6981275 96.7141654,30.32284 C91.6102969,40.5965832 91.1423536,55.9483843 93.2945058,65.17687 C96.0702601,77.0849636 104.638262,86.2541575 109.498491,90.6599226 C110.995136,92.0169403 114.215629,94.3073261 116.170549,95.5142017 C123.013736,99.7363534 132.35133,100.695542 143.924224,98.3659472 C145.568793,98.0350606 149.613022,97.1868049 151.632719,96.4628709 C153.470653,95.8039666 154.863848,94.6171738 156.339222,93.3605696 C157.353422,92.4970128 158.40146,91.6038102 159.634162,90.8559681 C161.943906,89.455916 163.721897,87.8406919 165.770599,85.2815803 C166.132192,84.829241 166.581765,84.2965709 167.072912,83.7132159 C168.852837,81.6026181 171.290202,78.7126198 171.953444,76.7827666 C174.091094,70.5676444 174.770772,67.1248933 175.896156,61.4214023 C176.086621,60.4603009 176.288687,59.4379951 176.511057,58.3315331 C177.457578,53.6369594 177.005104,46.1212424 175.503625,41.5777673 C174.792042,39.4250915 173.580611,37.4196889 172.408819,35.4812288 C171.745577,34.38433 171.110373,33.2778681 170.48097,32.1790567 C167.517652,27.012061 164.719661,22.1319613 159.551982,19.2754341 C153.142899,15.7322694 145.645173,12.1145118 138.637626,12.1498956 C129.547538,12.1948427 116.106739,15.4185966 108.007647,21.491227 C104.048499,24.4605999 101.04264,29.3473939 98.8208768,36.429898 C96.8978621,42.5570387 96.5720422,49.0772268 96.5033976,54.0730412 C96.4318526,59.6684681 97.5108291,65.5670484 99.642678,71.1423926 C102.750053,79.2720669 107.420784,85.3552169 114.341317,90.2869579 C116.227592,91.6305871 119.441318,92.7504376 121.788769,93.568091 C122.20257,93.7124953 122.587366,93.8454237 122.928655,93.968789 C126.513642,95.2569517 130.426382,95.1747082 134.209568,95.09629 C135.446137,95.0704693 136.826763,95.1785334 138.287635,95.2923355 C141.512963,95.5448039 145.169495,95.8307435 147.477306,94.5502314 C148.323277,94.0806784 150.07323,92.9149246 151.925667,91.6803158 C154.465516,89.9876298 157.093346,88.2375646 158.333782,87.6350832 C162.017385,85.8486779 165.918523,81.8646498 167.819301,77.947564 C171.847094,69.6467085 172.831321,64.8019926 173.586411,55.3172132 C173.76044,53.151149 172.593482,46.8384823 172.033691,43.8031233 L171.821956,42.6498017 C171.41879,40.3967124 170.471302,38.2287355 169.555719,36.1324825 C168.463206,33.633619 167.226637,30.8029125 165.117992,28.8472386 C164.725461,28.4828808 164.325196,28.1003529 163.920096,27.7130434 C162.686428,26.5358138 161.411186,25.3174624 160.111773,24.3812253 C159.60129,24.0139986 158.8491,23.3799586 157.977991,22.645505 C156.438805,21.3477791 154.523525,19.732555 153.562501,19.2983858 C146.433135,16.0794135 142.071788,16.5910446 137.853531,17.0854619 C136.546384,17.2384731 135.195729,17.3972221 133.814136,17.429737 C119.083593,17.7701868 109.722794,25.0248285 105.872897,31.6999405 C104.253466,34.5048263 103.074906,37.7639641 102.048138,42.2653612 C99.7006875,52.5677939 99.8196069,61.8479209 102.40393,69.8523173 C105.2783,78.7546979 112.697714,86.6137337 121.305356,89.8728714 C127.197187,92.1030091 132.863748,92.1431745 138.862896,92.1852526 C141.5352,92.2034227 146.257173,91.7424766 148.171486,90.8253659 C150.211486,89.8499198 157.100114,84.8454984 159.584854,81.4199611 C160.677366,79.9128011 161.707034,78.6074247 162.702864,77.3460389 C165.829575,73.3830498 168.089045,70.5198285 168.591794,66.0059992 C168.836401,63.8083764 168.922448,61.911038 169.004628,60.074904 C169.088742,58.2196437 169.175756,56.3012663 169.42423,54.0625217 C170.015927,48.757816 168.228268,38.610307 165.12186,33.962593 C162.356741,29.8265101 156.23964,25.5670618 151.922766,23.8399484 C146.734784,21.7628218 144.005438,21.3372596 138.569948,20.7950262 C135.088412,20.4478822 131.380638,21.4376731 127.794685,22.3939929 C126.567784,22.7220106 125.298343,23.0605478 124.075309,23.3330989 C120.738797,24.0771157 117.288199,25.062125 114.654568,27.2128882 C112.013202,29.3684329 110.35123,32.6094006 109.000576,35.4783598 C106.189049,41.4496204 103.040101,49.3306515 103.631797,57.2872319 C104.004992,62.2935659 105.981182,68.646398 108.917429,74.2800777 C111.668046,79.5580065 114.840198,83.2340997 118.613716,85.5168349 C122.866778,88.0902914 127.035727,89.6242283 131.006477,90.0775239 C133.237909,90.3309486 138.899635,90.7326029 143.268717,88.9739309 L143.467883,88.8926437 C146.021267,87.8655563 148.661666,86.8021287 150.691998,85.017636 C151.896662,83.95899 152.866388,82.7004732 153.894122,81.3664072 C154.792303,80.1987407 155.722388,78.9909089 156.820701,77.9389571 L157.186161,77.594682 C158.514578,76.3514663 161.624854,73.440429 162.701897,70.7799474 C166.135092,62.2887843 167.020704,55.6327988 166.092552,45.3351476 C165.901121,43.2082924 163.993575,38.4324316 162.709632,36.4203348 C161.936172,35.2077213 160.82529,34.2485326 159.558749,33.2099694 C156.981194,31.0965027 153.94343,28.7305676 150.507335,27.4223222 L149.964946,27.2157571 C147.718045,26.356982 144.639675,25.1807087 142.507826,24.9110265 C139.237057,24.49694 135.839635,24.49694 132.682951,24.9110265 C130.638117,25.178796 128.225889,25.8950795 126.09694,26.5272069 C125.602893,26.6735238 125.121414,26.8169718 124.660239,26.9499002 C119.490626,28.4398464 116.086436,30.7283196 113.275876,34.6033273 C112.281013,35.9756461 111.61487,37.5516611 111.043477,39.0502141 C108.787874,44.9707898 107.49813,51.1763487 107.210016,57.496666 C107.064026,60.6831234 107.23032,63.0700975 107.748538,65.2323365 C108.232917,67.2597344 109.115628,69.3779827 110.445012,71.7094902 C113.501146,77.0677498 117.64399,81.3530187 122.425906,84.0986127 C126.819158,86.6213842 132.483785,87.6484717 139.262195,87.1521417 C142.851049,86.8891538 149.429325,84.266925 152.847051,78.1206579 C153.824511,76.3629422 155.237042,74.6616493 156.603166,73.0177357 C157.848436,71.5182263 159.136247,69.9670756 160.036361,68.4312261 C162.092797,64.9186636 162.899129,59.162575 162.967774,54.9452049 C163.034485,50.9229239 162.852722,47.6656988 162.348039,43.7113166 C161.456627,36.7359203 153.694956,32.0279581 151.337837,30.7503149 C146.419599,28.0869644 140.316034,27.5284737 134.591464,29.219247 C133.509587,29.5386578 132.423842,29.9422247 131.37387,30.3324032 C129.880126,30.8870687 128.336107,31.4618168 126.734078,31.824262 C125.934514,32.0050065 125.114646,32.135066 124.32185,32.2622565 C122.525489,32.5472398 120.827745,32.8169219 119.340768,33.6278811 C116.305905,35.281358 114.840198,38.7853136 113.600729,42.2328463 C111.466946,48.1629851 109.439514,54.4833024 110.105657,60.7854496 C111.02414,69.4860468 117.401317,77.902617 126.74858,82.7492455 C128.037358,83.417713 134.116753,85.2940124 137.624393,84.8971397 C146.015466,83.9484705 149.312339,79.0635892 151.961439,75.1388529 C152.535733,74.286772 153.079089,73.4825071 153.63308,72.7834373 C155.293118,70.691966 158.475905,64.8612844 159.245498,62.1931523 C161.085366,55.8058926 161.682864,46.3278075 154.066217,37.4569854 C149.863429,32.5634972 143.402139,31.6712509 140.247389,31.9160687 C134.914383,32.3291989 123.786229,34.9562092 122.20547,36.1745606 C120.697223,37.3384018 118.685261,39.342848 117.981412,41.1655934 C115.813791,46.7811031 113.355155,53.1473237 114.123781,59.5049375 C114.867269,65.6521609 118.607915,71.0936203 121.782968,75.1474598 C123.095916,76.8238883 124.537452,78.536657 126.452732,79.4623745 C128.11277,80.2637705 132.154098,81.2755568 136.478706,80.7782705 C139.698233,80.4081748 143.67575,79.3265771 145.046708,77.9762536 C149.940775,73.1516204 153.428113,68.1012958 155.412037,62.963946 C157.193896,58.3477906 157.693744,56.2486687 157.554521,51.2671991 C157.450104,47.4667843 153.581838,39.0148303 146.560756,36.4069463 C143.086954,35.116871 138.920905,35.3511693 136.089075,35.6390216 C133.563729,35.8962716 130.795709,36.8401592 127.377016,38.6074381 C124.553888,40.066782 122.012105,42.4518435 119.377507,46.1135919 C118.388446,47.4887797 117.668161,48.6736599 117.368445,49.9885995 C117.099668,51.1667855 117.189583,52.4319965 117.276597,53.6570421 C117.485431,56.5805116 119.000446,66.0270382 120.013678,67.7531954 L120.060086,67.8306573 C120.939896,69.2995644 126.818192,76.7588586 133.534724,76.7588586 C143.108224,76.7588586 147.561419,70.6508443 150.983013,64.9253579 C154.536094,58.9818306 156.05691,50.1234406 152.090994,44.6925007 C150.153477,42.0396697 148.149249,40.2656965 145.962291,39.2720803 C143.571333,38.1857011 140.523901,38.1311908 138.919939,38.1952643 C132.569833,38.4477327 128.256827,41.7231279 124.036636,45.351405 C123.302816,45.9816197 122.343726,48.1065623 121.709489,49.5123523 C121.436844,50.1167464 121.194171,50.6532418 120.998873,51.0252502 C119.594076,53.710596 120.469053,57.0615405 121.488086,60.263299 C121.621508,60.6831234 121.769432,61.2406578 121.935726,61.8622657 C122.381432,63.5348689 122.990532,65.8242984 123.702115,66.7041126 C126.567784,70.2472773 129.076695,72.193388 131.372904,72.6533778 C131.700657,72.7193639 132.031311,72.7910879 132.362932,72.8647245 C133.942724,73.2128249 135.576658,73.5724011 137.009493,73.1305814 C142.980603,71.2906222 145.952623,67.3936192 148.122178,64.5485679 L148.352282,64.2463708 C149.914671,62.2046281 150.871828,59.2572506 151.277894,55.2359261 C151.530236,52.7418441 150.531505,48.1113439 148.915941,46.0877712 C147.107012,43.8212934 142.870385,41.9354308 140.199048,41.6609671 C136.811294,41.3128667 132.831842,43.7017534 131.334231,44.600694 C131.1486,44.7125834 130.993908,44.8053464 130.874022,44.8732451 C129.140505,45.8620798 124.190362,50.025896 124.190362,55.9856808 C124.190362,60.8237024 128.114704,65.6139081 130.217548,66.8246089 C131.841814,67.7598896 136.918611,69.0786546 138.221891,68.5679798 C142.116262,67.0407372 144.717021,64.139263 145.513684,62.5622917 C146.089912,61.4233149 146.612964,60.4631699 147.068339,59.6283027 C148.219827,57.5167487 148.914974,56.2419744 148.914974,54.8878257 C148.914974,51.0539398 144.994499,45.5082415 137.906706,45.5082415 C133.200203,45.5082415 127.729908,50.4447641 127.729908,56.8090721 C127.729908,61.7819348 132.771899,64.9540475 135.408431,64.9540475 C140.907731,64.9540475 145.769893,59.7985276 146.28231,55.3631166 C146.423467,54.1227699 146.085078,53.0296964 145.270044,52.1259742 C143.798537,50.4944927 141.06919,49.7638644 139.016621,49.7638644 C136.312412,49.7638644 131.198875,51.0070801 131.198875,55.711217 C131.198875,57.6114243 134.656241,61.5218158 135.685909,61.5218158 C139.231256,61.5218158 142.115295,59.0382534 142.115295,55.9856808 C142.115295,54.8639177 140.066593,54.0194873 138.739142,54.0194873 C137.682403,54.0194873 135.224734,54.1973628 135.224734,55.8479707 C135.224734,56.5470405 135.467407,57.1600414 135.889909,57.5291808 C136.144184,57.751047 136.437132,57.8543296 136.715578,57.8199021 C138.414289,57.6085554 139.362744,57.2222022 139.493266,57.0137245 C139.477797,56.8960972 139.452659,56.5652105 139.286365,56.4466269 C139.147143,56.3471696 138.84936,56.3519512 138.527408,56.4571464 C138.188052,56.5699921 137.819692,56.3873351 137.706573,56.0507105 C137.594422,55.7159986 137.778118,55.3506844 138.117474,55.238795 C138.865796,54.9920645 139.550308,55.0523127 140.045323,55.4051947 C140.378877,55.642362 140.775276,56.1262598 140.775276,57.0835358 C140.775276,57.4612821 140.775276,58.6107785 136.876071,59.09372 C136.223464,59.1750071 135.567957,58.9607915 135.031369,58.4921948 C134.328487,57.8791939 133.926288,56.9152236 133.926288,55.8479707 C133.926288,53.898991 135.725549,52.7351499 138.739142,52.7351499 C140.416584,52.7351499 143.412774,53.8215291 143.412774,55.9856808 C143.412774,59.74593 139.946707,62.805197 135.685909,62.805197 C133.739691,62.805197 129.901396,58.0981911 129.901396,55.711217 C129.901396,49.9914685 135.863805,48.4804833 139.016621,48.4804833 C141.187143,48.4804833 144.380566,49.2101553 146.237836,51.270068 C147.295543,52.4434724 147.758652,53.9066416 147.572054,55.5094335 C146.987125,60.574103 141.65992,66.2374286 135.408431,66.2374286 C131.793472,66.2374286 126.432429,62.2782648 126.432429,56.8090721 C126.432429,49.6060716 132.489586,44.223904 137.906706,44.223904 C143.065684,44.223904 150.21342,47.9296431 150.21342,54.8878257 C150.21342,56.5661668 149.416756,58.0274234 148.211126,60.2374784 C147.760585,61.0637387 147.244301,62.0114516 146.675808,63.1360836 C145.579428,65.3040605 142.488489,68.2763023 138.700469,69.7614669 C136.725246,70.5360859 131.138932,68.8414873 129.564941,67.9348961 C126.778552,66.3301916 122.892883,61.0092284 122.892883,55.9856808 C122.892883,49.4205456 128.323538,44.8455119 130.226249,43.7600889 C130.339368,43.6969718 130.485358,43.6089904 130.660354,43.5037953 C132.411274,42.4518435 136.510611,39.9912328 140.33247,40.3833239 C143.323826,40.6912588 147.895941,42.7368268 149.934974,45.2921132 C151.790311,47.6169265 152.853819,52.5343227 152.569572,55.3631166 C152.138368,59.6273464 151.098065,62.7860706 149.387752,65.0219462 L149.158614,65.3212742 C147.011296,68.1376359 143.765665,72.3932589 137.396223,74.3565833 C135.631767,74.9007293 133.826705,74.5029003 132.080619,74.1184597 C131.756733,74.0467357 131.43478,73.9759681 131.115728,73.9118946 C127.641926,73.2156939 124.642836,69.9230849 122.687916,67.5064649 C121.805205,66.415304 121.181603,64.0723206 120.679821,62.189327 C120.521261,61.5906709 120.378171,61.0532192 120.249583,60.6496522 C119.149337,57.1916 118.212483,53.5556722 119.846417,50.4352009 C120.033015,50.0784936 120.264086,49.5659062 120.524162,48.9882891 C121.28602,47.3003847 122.234475,45.1993502 123.185831,44.3807405 C127.585851,40.5994521 132.097055,37.180609 138.86773,36.9118832 C140.587712,36.8430281 143.866215,36.9071016 146.503713,38.1053702 C148.900472,39.1946184 151.071961,41.1034327 153.143866,43.9408334 C157.435602,49.8202873 155.867412,59.2754207 152.100662,65.5785243 C148.496339,71.610033 143.791769,78.043196 133.534724,78.043196 C126.207158,78.043196 119.884124,70.0569697 118.943403,68.4857363 L118.889261,68.3939296 C117.672995,66.3234974 116.165715,56.3328248 115.982018,53.7469362 C115.893071,52.490332 115.790587,51.0682845 116.101905,49.7055289 C116.469298,48.0922175 117.384881,46.6682573 118.319801,45.3686188 C121.078152,41.5356892 123.764959,39.0263061 126.775651,37.4703739 C130.344202,35.6237204 133.262079,34.6358421 135.95662,34.3623347 C138.918005,34.0601376 143.287087,33.8201014 147.01613,35.2048524 C154.575734,38.0116509 158.739849,47.1301598 158.852967,51.2318152 C158.991223,56.4007235 158.448834,58.695891 156.624436,63.4220232 C154.574767,68.7295979 150.987847,73.9329337 145.963258,78.8847574 C144.06248,80.7581878 139.201285,81.7584983 136.627597,82.0540011 C132.026477,82.5838022 127.680599,81.4840345 125.883272,80.6156962 C123.717584,79.5694823 122.163897,77.7295231 120.757166,75.9335546 C117.478663,71.7486993 113.616198,66.1169323 112.835003,59.6579486 C112.028671,52.9780551 114.54725,46.4616923 116.769014,40.70656 C117.567611,38.639953 119.688825,36.4872772 121.40784,35.161818 C123.363726,33.6537017 134.710383,31.0572936 140.144906,30.6355566 C144.36993,30.3075389 150.808984,31.6798577 155.055279,36.6249872 C161.287432,43.8844105 163.220115,53.0880319 160.493669,62.545078 C159.690238,65.3308374 156.379829,71.4025116 154.655014,73.5762264 C154.130994,74.236087 153.602141,75.0202692 153.041383,75.8513111 C150.390349,79.77796 146.760888,85.1572587 137.771351,86.1728703 C133.882781,86.6127774 127.610021,84.6456276 126.145282,83.8863097 C116.419023,78.8426793 109.777903,70.0416686 108.813979,60.9193344 C108.120765,54.3494176 110.194605,47.8722639 112.377695,41.8015461 C113.701279,38.122584 115.28107,34.3728542 118.714266,32.5032491 C120.399441,31.5842258 122.288617,31.2839414 124.115916,30.9932202 C124.888409,30.8708112 125.68604,30.7436207 126.44403,30.5724395 C127.960979,30.2291207 129.463425,29.6696736 130.917529,29.1303093 C131.988771,28.7324802 133.095786,28.3212628 134.219236,27.9894198 C140.27446,26.2011018 146.741552,26.7968891 151.961439,29.6247266 C158.618029,33.2290958 162.982276,38.4353005 163.63585,43.5506549 C164.149234,47.5700669 164.331964,50.8779769 164.265253,54.9662439 C164.230447,57.0911864 163.904627,64.3869498 161.158845,69.073873 C160.206522,70.7015292 158.884872,72.2938016 157.60673,73.8325201 C156.278313,75.4324431 154.904454,77.0859199 153.984037,78.7403531 C150.550842,84.9143535 143.996736,88.0931604 139.358877,88.4326539 C132.313624,88.9481102 126.397623,87.8645999 121.774266,85.2089 C116.792218,82.3485476 112.484046,77.8978354 109.313827,72.339705 C107.923533,69.9020459 106.998282,67.6738209 106.484898,65.5287956 C105.937675,63.2460604 105.762679,60.7519784 105.912537,57.4383305 C106.207419,50.9831721 107.525201,44.6437284 109.829145,38.5969186 C110.431477,37.016122 111.138226,35.3483003 112.22107,33.8554852 C115.214359,29.7270528 118.82545,27.293219 124.297679,25.717204 C124.755954,25.5842756 125.233566,25.4427403 125.723746,25.2973797 C127.899102,24.6518638 130.364505,23.9193229 132.511823,23.6381649 C135.778725,23.21069 139.292166,23.21069 142.673153,23.6372086 C144.96066,23.9269735 148.124111,25.1348053 150.432889,26.0184448 L150.973344,26.2240535 C154.593137,27.6021103 157.730483,30.0426383 160.387318,32.2220911 C161.691565,33.2903002 162.932968,34.3642473 163.807945,35.7346535 C165.055149,37.6903274 167.153159,42.6440638 167.385197,45.2213455 C168.334619,55.7427755 167.424837,62.5546412 163.906561,71.2561947 C162.725101,74.1787079 159.468835,77.2264989 158.07854,78.5280501 L157.723716,78.8618057 C156.695981,79.8468151 155.795867,81.0144815 154.926691,82.1448514 C153.906691,83.468398 152.853819,84.8368916 151.554406,85.977781 C149.356813,87.9085906 146.611997,89.0140963 143.958063,90.0823055 L143.75793,90.1626363 C139.11137,92.0341541 133.188601,91.618155 130.857586,91.3532544 C126.698305,90.8779635 122.351461,89.2837785 117.935971,86.6127774 C113.954587,84.2038079 110.626775,80.3622714 107.76304,74.8691707 C104.750414,69.0891741 102.722015,62.5517722 102.337219,57.3819076 C101.720385,49.1269554 104.945712,41.0498788 107.82395,34.9361265 C109.233581,31.9399767 110.977733,28.5488669 113.827933,26.2221409 C116.671365,23.9001965 120.295991,22.8597206 123.790096,22.08032 C124.986059,21.8135068 126.185888,21.494096 127.456296,21.1546025 C131.155368,20.1676805 134.980127,19.146331 138.699503,19.517383 C144.26648,20.0720485 147.064471,20.5109993 152.410046,22.6493303 C156.909649,24.4510367 163.300362,28.9093994 166.20567,33.2549164 C169.508344,38.1981332 171.343378,48.5770716 170.714942,54.2021444 C170.470335,56.3997672 170.385254,58.2971056 170.302107,60.1332395 C170.217994,61.9884999 170.131946,63.9068773 169.882505,66.1456219 C169.33915,71.0228526 166.862144,74.1614941 163.725765,78.135959 C162.738636,79.3877816 161.716702,80.6816822 160.63966,82.1678031 C157.998294,85.8104251 150.92307,90.9353427 148.737078,91.9815565 C146.337419,93.1300965 140.945437,93.4839348 138.854195,93.4686337 C132.734193,93.4265557 126.95258,93.3863902 120.84128,91.0711401 C111.87978,87.6790739 104.156783,79.50254 101.167361,70.243452 C98.5124597,62.0171895 98.3829052,52.5094584 100.782565,41.9822905 C101.838337,37.3517902 103.059437,33.983632 104.744613,31.0620752 C110.883951,20.4182363 123.77076,16.376829 133.784165,16.1453996 C135.103881,16.1147973 136.364621,15.9665678 137.700772,15.8097313 C141.890992,15.318183 146.641002,14.7616049 154.10199,18.1307194 C155.227374,18.6394815 157.135886,20.2489677 158.820095,21.6681462 C159.635128,22.3547838 160.405688,23.0050812 160.875565,23.3436184 C162.247489,24.3314967 163.55657,25.5814066 164.821177,26.7892385 C165.222409,27.1727227 165.617841,27.5495127 166.006504,27.9110016 C168.311415,30.0483762 169.605027,33.0100985 170.746847,35.6227641 C171.692402,37.7859594 172.670828,40.0237476 173.101065,42.4260229 L173.310866,43.571694 C173.923833,46.8977741 175.061786,53.0784687 174.88099,55.4185831 C174.146203,64.6499378 173.164876,69.8972643 168.989159,78.5022295 C166.973329,82.6564825 162.827584,86.8862848 158.906143,88.7884048 C157.744986,89.3516772 155.037876,91.1552962 152.650786,92.745656 C150.776112,93.9946096 149.004889,95.1747082 148.11251,95.6700818 C145.460509,97.1409016 141.595143,96.8396609 138.185152,96.5718913 C136.757151,96.4609582 135.408431,96.3557631 134.236639,96.3796711 C130.516297,96.4580893 126.29804,96.547027 122.484883,95.1747082 C122.147461,95.0532556 121.767498,94.9222398 121.357565,94.7797481 C118.936635,93.9353178 115.619459,92.7810398 113.582359,91.3293464 C106.445258,86.2436379 101.629503,79.9730493 98.4283459,71.5956882 C96.2394544,65.8721144 95.1111698,59.8406057 95.2049518,54.0548712 C95.2745632,48.972988 95.6081178,42.3332599 97.5804405,36.0483264 C99.8863178,28.701878 103.041067,23.60565 107.223552,20.4679649 C115.936578,13.9343883 129.612316,10.9095489 138.631825,10.8655582 C145.940054,10.8282617 153.628246,14.5292192 160.186219,18.1536711 C165.670049,21.186161 168.555055,26.2173593 171.610221,31.5450167 C172.23479,32.6361775 172.86516,33.7340326 173.522601,34.8223245 C174.731132,36.8219891 175.98027,38.8885961 176.737294,41.1789819 C178.32482,45.9787508 178.785029,53.6226146 177.784365,58.5820889 C177.561995,59.6875945 177.360896,60.7079877 177.170431,61.6681328 C176.073085,67.2262632 175.347966,70.8994874 173.182279,77.1958967 C172.441691,79.3514414 170.017861,82.2261386 168.070676,84.5356508 C167.586296,85.110399 167.144457,85.6335059 166.788666,86.0781946 C164.63748,88.7654531 162.76184,90.466746 160.311906,91.9509543 C159.169119,92.6442861 158.160721,93.5030612 157.186161,94.3331468 C155.687583,95.61079 154.137762,96.9314676 152.075525,97.6707027 C150.050027,98.3955931 146.26104,99.205596 144.182366,99.624464 C132.273984,102.021958 122.618304,101.00539 115.483137,96.6024936 C113.75252,95.5342844 110.313524,93.140616 108.620614,91.6057228 C103.650167,87.1005004 94.8839659,77.711353 92.0289321,65.4647222 C89.8274718,56.0210646 90.3128179,40.2972551 95.5491414,29.7566987 C101.027171,18.7293756 111.425373,11.1314151 122.039176,10.3998305 C124.097546,10.2582951 126.327045,9.63477466 128.482097,9.03229321 C131.229814,8.26436844 134.071312,7.46966672 136.785189,7.57103661 C140.200015,7.69822714 145.379296,8.71096977 149.541477,9.52384156 C150.542141,9.71988711 151.472226,9.90158787 152.286293,10.0526864 C155.83744,10.7115907 159.223261,13.4581411 162.21075,15.880499 C163.343869,16.7995223 164.414144,17.6678606 165.45058,18.3975326 C171.203188,22.4513721 174.904194,27.505522 178.226204,35.843674 C180.478906,41.499349 181.700973,46.1183735 181.855665,49.5745131 C182.476366,63.3636877 178.926185,75.2411791 171.009823,85.9146639 C166.87858,91.4842702 161.615186,98.120173 157.542919,100.014642 C154.699487,101.339145 150.721003,101.858427 147.211429,102.31746 C146.130519,102.458996 145.096016,102.593837 144.157229,102.744935 C139.454593,103.502341 135.050705,103.775848 130.695159,103.583628 C121.832276,103.189624 113.46634,99.7535672 105.82939,93.3682201 C97.7593031,86.6204279 91.4324011,78.2813196 88.4729502,70.4882699 C86.9811394,66.558752 87.0584854,61.603103 87.1251963,57.2346344 C87.1406655,56.2744893 87.154201,55.3449465 87.1532342,54.440268 C87.1493669,53.0889882 87.0507508,51.6573775 86.9540683,50.2735828 C86.7578028,47.4400074 86.5547696,44.5098436 87.0981252,41.7575554 C87.502258,39.7052932 88.3327605,37.7572698 89.1352252,35.8733199 C89.9115856,34.0505744 90.7140502,32.1656682 91.0930456,30.2453781 C91.4420694,28.4742739 91.8036619,26.6429216 92.5819559,24.9291966 C93.6589988,22.5584799 95.4147528,20.6534909 97.1124973,18.8097064 C99.6388107,16.066025 102.252138,13.2286243 105.518073,11.1782747 C109.770169,8.5091863 115.081904,6.61662949 120.474854,5.85253001 C129.243955,4.608358 138.537076,3.52771667 147.286841,5.11042587 C157.362123,6.93317134 165.488286,13.0469236 170.532212,17.8552993 C178.566526,25.5154206 183.807684,36.0024231 185.28886,47.3845408 C185.90376,52.0991972 185.970471,56.1845953 185.494794,59.8759895 C183.982679,71.6167272 177.108555,82.9902381 172.068496,90.5231689 C170.290505,93.1798252 166.897917,96.7402036 164.464419,98.8842725 C161.704134,101.31715 157.339886,103.24796 153.034615,104.971248 C150.657193,105.922786 148.894671,106.017462 147.028699,106.115963 C145.964225,106.173342 144.863978,106.231677 143.526859,106.442068 C137.919275,107.322838 131.659084,106.709837 127.395386,106.039457 C126.796922,105.945738 126.182988,105.853931 125.558419,105.760212 C121.153565,105.100351 116.161848,104.352509 112.333221,102.261994 C108.200045,100.004123 104.475836,96.9783272 100.708119,93.8148215 C96.3400042,90.1482915 93.8862027,87.4409503 90.6299365,83.4311015 C83.5817831,74.7572813 82.3046074,61.6289237 81.9787874,51.1620039 C81.8560007,47.1779758 81.804759,42.9366976 82.6458966,38.7422792 C83.493802,34.5115206 85.2350536,30.2310333 88.2911871,24.8641668 C91.3956618,19.4102752 94.2477952,15.6528949 97.5379002,12.6787404 C102.103247,8.55222069 107.695362,5.92999191 112.056709,4.10724645 C115.526644,2.65650937 120.137432,0.911225811 125.020864,0.286749008 C130.996809,-0.47735048 136.991123,0.431153291 142.787238,1.31096747 C148.21596,2.13435878 153.830312,2.98548337 158.982522,5.27969447 C164.02258,7.52513327 168.320116,11.0214383 172.47553,14.4039413 C175.289957,16.6933708 178.199133,19.0612185 180.429598,22.0525867 C184.896329,28.0448863 186.703325,35.6036377 187.674984,40.7677644 C187.863514,41.7738128 188.068481,42.794206 188.275382,43.8241624 C189.28378,48.8553606 190.326017,54.0596528 189.903515,59.0602488 C189.547723,63.2565799 188.746226,67.545674 187.522225,71.8108601 C185.69976,78.1579544 182.668764,84.0249761 177.981597,90.275482 C175.292857,93.8616811 171.324041,97.7615531 167.092249,100.974788 C162.656456,104.343902 159.240664,106.453543 153.904757,107.945402 C148.862766,109.355974 139.581247,111.608107 134.069378,110.846876 C124.914513,109.580709 117.209886,108.308804 108.362472,104.484481 C102.254072,101.843126 96.9452366,96.7784564 92.2600032,92.3095742 L91.7949604,91.8658418 C86.607945,86.9216686 79.2088342,75.3167284 79,64.9989945 L79,64.9865623 Z" id="Fill-1-Copy-4"></path>
            </g>
        </g>
    </g>
</svg>