<?xml version="1.0" encoding="utf-8"?>
<!-- Generator: Adobe Illustrator 19.2.0, SVG Export Plug-In . SVG Version: 6.00 Build 0)  -->
<svg version="1.1" xmlns="http://www.w3.org/2000/svg" xmlns:xlink="http://www.w3.org/1999/xlink" x="0px" y="0px"
	 viewBox="0 0 244.8 334.7" style="enable-background:new 0 0 244.8 334.7;" xml:space="preserve">
<style type="text/css">
	.st0{fill:#0D1533;}
	.st1{fill:none;stroke:#FFFFFF;stroke-miterlimit:10;}
	.st2{fill:#153053;}
	.st3{fill:#FFCC06;}
	.st4{fill:#FFFFFF;}
	.st5{fill:none;stroke:#FFFFFF;stroke-width:2;stroke-linecap:round;stroke-miterlimit:10;}
	.st6{fill:none;stroke:#FFCC06;stroke-width:2;stroke-linecap:round;stroke-miterlimit:10;}
	.st7{fill:#132F53;}
	.st8{fill:none;stroke:#FFFFFF;stroke-width:2;stroke-miterlimit:10;}
	.st9{fill:none;stroke:#FFFFFF;stroke-width:2;stroke-linecap:round;stroke-linejoin:round;stroke-miterlimit:10;}
	.st10{clip-path:url(#SVGID_2_);}
</style>
<g id="Layer_2">
	<rect class="st0" width="244.8" height="334.7"/>
</g>
<g id="Layer_1">
	<g>
		<path class="st7" d="M183.8,246.1c0,1.2-1.4,1.8-2.2,0.9c-5.1-5.4-18.1-17.2-35.3-17.2l-1-0.3c2.8-8.2,6.1-19.5,8.5-33.7l1.1,0.2
			C154.9,196,182.4,202.2,183.8,246.1z"/>
	</g>
	<g>
		<g>
			<g>
				<g>
					<path class="st4" d="M122,130.1c-0.2,0-0.5,0-0.7,0c-0.2,0-0.5,0-0.7-0.1c-0.2,0-0.5-0.1-0.7-0.2c-0.2,0-0.5,0-0.7-0.1
						c-0.2-0.1-0.5-0.2-0.7-0.2c-0.2-0.1-0.5-0.2-0.7-0.3c-0.2-0.1-0.5-0.2-0.7-0.3c-0.2-0.1-0.4-0.2-0.6-0.4
						c-0.2-0.1-0.4-0.2-0.6-0.4c-0.2-0.1-0.4-0.3-0.6-0.4c-0.2-0.1-0.4-0.3-0.6-0.5c-0.2-0.2-0.3-0.3-0.5-0.5s-0.3-0.3-0.5-0.5
						c-0.2-0.2-0.4-0.3-0.5-0.5c-0.1-0.2-0.2-0.4-0.4-0.6c-0.1-0.2-0.3-0.4-0.5-0.6c-0.1-0.2-0.2-0.4-0.3-0.7
						c-0.1-0.2-0.2-0.5-0.3-0.7c-0.1-0.2-0.3-0.4-0.3-0.7c-0.1-0.2-0.1-0.5-0.2-0.7c-0.1-0.2-0.1-0.5-0.2-0.7c0-0.2-0.1-0.5-0.1-0.7
						c0-0.2-0.1-0.5-0.1-0.7c0-0.2,0-0.5,0-0.7c0-0.2,0.1-0.5,0.1-0.7c0-0.2,0-0.5,0-0.7c0-0.2,0.1-0.5,0.1-0.7
						c0-0.2,0.1-0.5,0.2-0.7c0.1-0.2,0.1-0.5,0.2-0.7c0.1-0.2,0.1-0.5,0.2-0.7c0.1-0.2,0.2-0.5,0.3-0.7c0.1-0.2,0.3-0.4,0.4-0.6
						c0.1-0.2,0.3-0.4,0.4-0.6c0.1-0.2,0.3-0.4,0.4-0.6c0.1-0.2,0.3-0.4,0.5-0.5c0.2-0.2,0.3-0.4,0.5-0.6c0.2-0.2,0.4-0.3,0.6-0.5
						c0.2-0.2,0.4-0.3,0.6-0.5c0.2-0.1,0.4-0.3,0.6-0.4c0.2-0.1,0.4-0.3,0.6-0.4c0.2-0.1,0.4-0.2,0.7-0.3c0.2-0.1,0.5-0.2,0.7-0.3
						c0.2-0.1,0.4-0.2,0.7-0.3c0.2-0.1,0.5-0.1,0.7-0.2c0.2-0.1,0.5-0.1,0.7-0.2c0.2,0,0.5-0.1,0.7-0.1c0.2,0,0.5-0.1,0.7-0.1
						c0.2,0,0.5,0,0.7,0c0.2,0,0.5,0,0.7,0c0.2,0,0.5,0.1,0.7,0.1c0.2,0,0.5,0.1,0.7,0.1c0.2,0,0.5,0.1,0.7,0.1
						c0.2,0.1,0.5,0.2,0.7,0.2c0.2,0.1,0.5,0.1,0.7,0.2c0.2,0.1,0.4,0.2,0.7,0.3c0.2,0.1,0.4,0.3,0.6,0.4c0.2,0.1,0.4,0.3,0.6,0.4
						c0.2,0.1,0.4,0.3,0.6,0.4c0.2,0.1,0.4,0.3,0.6,0.4c0.2,0.2,0.3,0.4,0.5,0.6c0.2,0.2,0.4,0.3,0.5,0.5c0.2,0.2,0.3,0.3,0.5,0.5
						c0.1,0.2,0.3,0.4,0.4,0.6c0.1,0.2,0.3,0.4,0.4,0.6c0.1,0.2,0.3,0.4,0.4,0.6c0.1,0.2,0.2,0.4,0.3,0.7c0.1,0.2,0.2,0.5,0.3,0.7
						c0.1,0.2,0.1,0.5,0.2,0.7c0.1,0.2,0.2,0.5,0.2,0.7c0,0.2,0.1,0.5,0.1,0.7c0,0.2,0,0.5,0,0.7c0,0.2,0,0.5,0,0.7
						c0,0.2,0,0.5,0,0.7c0,0.2,0,0.5,0,0.7c0,0.2-0.1,0.5-0.1,0.7c0,0.2-0.1,0.5-0.2,0.7c-0.1,0.2-0.1,0.5-0.2,0.7
						c-0.1,0.2-0.2,0.5-0.2,0.7c-0.1,0.2-0.2,0.4-0.3,0.7c-0.1,0.2-0.2,0.4-0.3,0.7c-0.1,0.2-0.3,0.4-0.4,0.6
						c-0.1,0.2-0.3,0.4-0.4,0.6c-0.1,0.2-0.3,0.4-0.4,0.6c-0.2,0.2-0.4,0.3-0.6,0.5s-0.3,0.4-0.5,0.5c-0.2,0.2-0.4,0.3-0.6,0.5
						c-0.2,0.1-0.4,0.2-0.6,0.4c-0.2,0.1-0.4,0.3-0.6,0.4c-0.2,0.1-0.4,0.3-0.6,0.4c-0.2,0.1-0.5,0.2-0.7,0.3
						c-0.2,0.1-0.5,0.2-0.7,0.3c-0.2,0.1-0.5,0.2-0.7,0.2c-0.2,0.1-0.5,0.1-0.7,0.1c-0.2,0-0.5,0.1-0.7,0.1c-0.2,0-0.5,0.1-0.7,0.1
						C122.5,130.1,122.2,130.1,122,130.1z M122,109.2c-0.2,0-0.5,0-0.7,0c-0.2,0-0.5,0.1-0.7,0.1c-0.2,0-0.5,0-0.7,0.1
						c-0.2,0.1-0.5,0.2-0.7,0.2c-0.2,0.1-0.5,0.1-0.7,0.2c-0.2,0.1-0.4,0.2-0.7,0.3c-0.2,0.1-0.4,0.2-0.6,0.4
						c-0.2,0.1-0.4,0.2-0.6,0.4c-0.2,0.1-0.4,0.3-0.6,0.4c-0.2,0.2-0.4,0.3-0.6,0.5c-0.2,0.2-0.4,0.3-0.5,0.5
						c-0.2,0.2-0.3,0.4-0.5,0.5c-0.2,0.2-0.3,0.4-0.4,0.6c-0.1,0.2-0.2,0.4-0.3,0.6c-0.1,0.2-0.3,0.4-0.4,0.6
						c-0.1,0.2-0.1,0.5-0.2,0.7c-0.1,0.2-0.2,0.4-0.3,0.7c-0.1,0.2-0.2,0.5-0.2,0.7c-0.1,0.2,0,0.5,0,0.7c0,0.2-0.1,0.5-0.1,0.7
						c0,0.2,0,0.5,0,0.7c0,0.2,0,0.5,0,0.7c0,0.2,0.1,0.5,0.1,0.7c0,0.2,0.1,0.5,0.1,0.7c0.1,0.2,0.1,0.5,0.1,0.7
						c0.1,0.2,0.2,0.4,0.3,0.7c0.1,0.2,0.2,0.5,0.3,0.7c0.1,0.2,0.2,0.4,0.3,0.6c0.1,0.2,0.3,0.4,0.4,0.6c0.1,0.2,0.3,0.4,0.5,0.6
						c0.2,0.2,0.3,0.4,0.5,0.5c0.2,0.2,0.3,0.4,0.5,0.5c0.2,0.2,0.3,0.3,0.5,0.5c0.2,0.2,0.4,0.3,0.6,0.4c0.2,0.1,0.4,0.3,0.6,0.4
						c0.2,0.1,0.4,0.2,0.7,0.3c0.2,0.1,0.4,0.2,0.7,0.3c0.2,0.1,0.5,0.2,0.7,0.2c0.2,0.1,0.5,0.1,0.7,0.2c0.2,0.1,0.5,0.1,0.7,0.1
						c0.2,0,0.5,0.1,0.7,0.1c0.2,0,0.5,0.1,0.7,0.1c0.2,0,0.5-0.1,0.7-0.1c0.2,0,0.5,0,0.7,0c0.2,0,0.5-0.1,0.7-0.1
						c0.2-0.1,0.5-0.1,0.7-0.2c0.2-0.1,0.4-0.2,0.7-0.3c0.2-0.1,0.4-0.2,0.7-0.3c0.2-0.1,0.4-0.2,0.6-0.4c0.2-0.1,0.4-0.2,0.6-0.4
						c0.2-0.1,0.4-0.3,0.6-0.4c0.2-0.2,0.4-0.3,0.5-0.5c0.2-0.2,0.4-0.3,0.5-0.5c0.2-0.2,0.3-0.4,0.4-0.6c0.2-0.2,0.3-0.4,0.4-0.6
						c0.1-0.2,0.3-0.4,0.4-0.6c0.1-0.2,0.3-0.4,0.4-0.6c0.1-0.2,0.2-0.4,0.3-0.7c0.1-0.2,0.1-0.5,0.2-0.7c0.1-0.2,0.2-0.4,0.3-0.7
						c0.1-0.2,0.1-0.5,0.1-0.7c0-0.2,0-0.5,0-0.7c0-0.2,0-0.5,0-0.7c0-0.2,0-0.5,0-0.7c0-0.2-0.1-0.5-0.1-0.7c0-0.2-0.1-0.5-0.1-0.7
						c-0.1-0.2-0.1-0.5-0.2-0.7c-0.1-0.2-0.1-0.5-0.2-0.7c-0.1-0.2-0.2-0.4-0.3-0.6c-0.1-0.2-0.2-0.4-0.3-0.6
						c-0.1-0.2-0.2-0.4-0.4-0.6c-0.1-0.2-0.3-0.4-0.4-0.6c-0.2-0.2-0.3-0.4-0.5-0.6c-0.2-0.2-0.4-0.3-0.5-0.5
						c-0.2-0.2-0.4-0.3-0.6-0.5c-0.2-0.2-0.4-0.3-0.6-0.4c-0.2-0.1-0.4-0.2-0.6-0.4c-0.2-0.1-0.4-0.2-0.6-0.3
						c-0.2-0.1-0.4-0.2-0.6-0.3c-0.2-0.1-0.5-0.2-0.7-0.2c-0.2-0.1-0.5-0.1-0.7-0.2c-0.2-0.1-0.5-0.1-0.7-0.1c-0.2,0-0.5,0-0.7,0
						C122.5,109.3,122.2,109.2,122,109.2z"/>
				</g>
			</g>
		</g>
	</g>
	<g>
		<g>
			<g>
				<g>
					<path class="st4" d="M135.6,246.3c-0.4,0-0.4,0-0.7,0c-0.4,0-0.4,0-0.7,0c-0.4,0-0.4,0.1-0.7,0.1c-0.4,0-0.4-0.1-0.7-0.1
						c-0.4,0-0.4,0.1-0.7,0.1c-0.4,0-0.4-0.1-0.7-0.1c-0.4,0-0.4,0-0.7,0c-0.4,0-0.4,0.1-0.7,0.1c-0.4,0-0.4-0.2-0.7-0.2
						c-0.4,0-0.4,0.1-0.7,0.1c-0.4,0-0.4,0.1-0.7,0.1c-0.4,0-0.4,0-0.7,0c-0.4,0-0.4-0.1-0.7-0.1c-0.4,0-0.4,0-0.7,0
						c-0.4,0-0.4-0.1-0.7-0.1c-0.4,0-0.4,0-0.7,0c-0.4,0-0.4,0-0.7,0c-0.4,0-0.4,0-0.7,0c-0.4,0-0.4,0-0.7,0c-0.4,0-0.4,0.1-0.7,0.1
						c-0.4,0-0.4,0-0.7,0c-0.4,0-0.4-0.1-0.7-0.1c-0.4,0-0.4,0.1-0.7,0.1c-0.4,0-0.4,0.1-0.7,0.1c-0.4,0-0.4,0-0.7,0
						c-0.4,0-0.4,0-0.7,0c-0.4,0-0.4,0-0.7,0c-0.4,0-0.4,0.1-0.7,0.1c-0.4,0-0.4,0-0.7,0c-0.4,0-0.4,0-0.7,0c-0.4,0-0.4,0-0.7,0
						c-0.4,0-0.4,0-0.7,0c-0.4,0-0.4,0-0.7,0c-0.4,0-0.4,0-0.7,0c-0.4,0-0.4-0.1-0.7-0.1c-0.4,0-0.4,0.1-0.7,0.1c-0.4,0-0.4,0-0.7,0
						c-0.4,0-0.4,0-0.7,0c-0.2,0-0.5,0-0.7-0.1c-0.2-0.1-0.4-0.2-0.6-0.3c-0.2-0.1-0.3-0.4-0.4-0.6c-0.1-0.2-0.2-0.4-0.3-0.6
						c-0.1-0.4-0.2-0.3-0.3-0.7c-0.1-0.4-0.2-0.3-0.3-0.7c-0.1-0.4,0-0.4-0.2-0.7c-0.1-0.4-0.1-0.4-0.2-0.7
						c-0.1-0.4-0.2-0.3-0.3-0.7c-0.1-0.4-0.1-0.4-0.2-0.7c-0.1-0.4-0.1-0.4-0.2-0.7c-0.1-0.4-0.1-0.4-0.2-0.7
						c-0.1-0.4-0.2-0.3-0.4-0.7c-0.1-0.4,0-0.4-0.1-0.7c-0.1-0.4-0.1-0.4-0.2-0.7c-0.1-0.4-0.1-0.4-0.2-0.7
						c-0.1-0.4-0.2-0.3-0.3-0.7c-0.1-0.2-0.1-0.5,0-0.7c0.1-0.2,0.3-0.3,0.5-0.4c0.2-0.1,0.4-0.1,0.6,0c0.2,0.1,0.4,0.3,0.4,0.5
						c0.1,0.4,0.1,0.3,0.2,0.7c0.1,0.4,0.1,0.4,0.2,0.7c0.1,0.4,0.2,0.3,0.3,0.7c0.1,0.4,0,0.4,0.1,0.7c0.1,0.4,0.1,0.4,0.2,0.7
						c0.1,0.4,0.2,0.3,0.3,0.7c0.1,0.4,0.1,0.4,0.2,0.7c0.1,0.4,0.2,0.3,0.3,0.7c0.1,0.4,0.1,0.4,0.2,0.7c0.1,0.4,0.2,0.3,0.3,0.7
						c0.1,0.4,0.1,0.4,0.2,0.7c0.1,0.4,0.1,0.4,0.2,0.7c0.1,0.4,0.2,0.3,0.3,0.7c0.1,0.2,0.2,0.2,0.4,0.2c0.4,0,0.4,0.1,0.7,0.1
						c0.4,0,0.4,0,0.7,0c0.4,0,0.4,0,0.7,0c0.4,0,0.4,0,0.7,0c0.4,0,0.4,0,0.7,0c0.4,0,0.4,0,0.7,0c0.4,0,0.4,0.1,0.7,0.1
						c0.4,0,0.4-0.2,0.7-0.2c0.4,0,0.4,0.1,0.7,0.1c0.4,0,0.4,0.1,0.7,0.1c0.4,0,0.4-0.1,0.7-0.1c0.4,0,0.4,0.1,0.7,0.1
						c0.4,0,0.4,0,0.7,0c0.4,0,0.4,0,0.7,0c0.4,0,0.4,0.1,0.7,0.1c0.4,0,0.4-0.1,0.7-0.1c0.4,0,0.4,0.1,0.7,0.1c0.4,0,0.4,0,0.7,0
						c0.4,0,0.4-0.1,0.7-0.1c0.4,0,0.4,0,0.7,0c0.4,0,0.4,0,0.7,0c0.4,0,0.4,0.1,0.7,0.1c0.4,0,0.4,0,0.7,0c0.4,0,0.4-0.1,0.7-0.1
						c0.4,0,0.4,0,0.7,0c0.4,0,0.4,0.1,0.7,0.1c0.4,0,0.4-0.1,0.7-0.1c0.4,0,0.4,0.1,0.7,0.1c0.4,0,0.4,0,0.7,0s0.4,0.1,0.7,0.1
						c0.4,0,0.4,0,0.7,0c0.4,0,0.4-0.1,0.7-0.1c0.4,0,0.4,0.1,0.7,0.1c0.4,0,0.4,0,0.7,0c0.4,0,0.4,0,0.7,0c0.4,0,0.4-0.1,0.7-0.1
						c0.4,0,0.4-0.1,0.7-0.1c0.4,0,0.4,0,0.7,0c0.2,0,0.4-0.1,0.5-0.2c0.1-0.4,0-0.4,0.1-0.7c0.1-0.4,0.2-0.3,0.3-0.7
						c0.1-0.4,0.1-0.4,0.2-0.7c0.1-0.4,0-0.4,0.1-0.7s0.2-0.3,0.3-0.7c0.1-0.4,0.2-0.3,0.3-0.7c0.1-0.4,0-0.4,0.1-0.7
						c0.1-0.4,0.2-0.3,0.3-0.7c0.1-0.4,0.1-0.4,0.2-0.7c0.1-0.4,0-0.4,0.2-0.7c0.1-0.4,0.1-0.3,0.2-0.7c0.1-0.4,0.1-0.4,0.2-0.7
						c0.1-0.4,0.1-0.4,0.2-0.7c0.1-0.2,0.3-0.3,0.5-0.4c0.2-0.1,0.4-0.2,0.6-0.1c0.2,0.1,0.4,0.3,0.5,0.5c0.1,0.2,0.1,0.4,0.1,0.6
						c-0.1,0.4-0.1,0.3-0.3,0.7c-0.1,0.4,0,0.4-0.2,0.7c-0.1,0.4-0.1,0.4-0.2,0.7c-0.1,0.4-0.1,0.4-0.2,0.7
						c-0.1,0.4-0.1,0.4-0.2,0.7c-0.1,0.4-0.2,0.3-0.3,0.7c-0.1,0.4,0,0.4-0.1,0.7c-0.1,0.4-0.1,0.3-0.3,0.7
						c-0.1,0.4-0.1,0.4-0.2,0.7c-0.1,0.4-0.1,0.4-0.2,0.7c-0.1,0.4-0.1,0.4-0.2,0.7c-0.1,0.4-0.2,0.3-0.3,0.7
						c-0.1,0.4-0.1,0.4-0.2,0.7c-0.1,0.2-0.2,0.4-0.3,0.6c-0.1,0.2-0.3,0.3-0.5,0.5c-0.2,0.1-0.4,0.2-0.6,0.3
						C136,246.3,135.8,246.3,135.6,246.3z"/>
				</g>
			</g>
		</g>
	</g>
	<g>
		<g>
			<g>
				<g>
					<path class="st4" d="M124.1,258.9c-0.1,0.3-0.3,0.3-0.4,0.6c-0.1,0.3,0.2,0.4,0.1,0.7c-0.1,0.3-0.2,0.3-0.3,0.6
						c-0.1,0.3-0.2,0.3-0.3,0.6c-0.1,0.3-0.1,0.3-0.2,0.7c-0.1,0.2-0.1,0.5-0.3,0.7c-0.2,0.1-0.5,0-0.7,0c-0.2,0-0.5,0-0.7-0.1
						c-0.2-0.1-0.3-0.3-0.4-0.6c-0.1-0.4-0.1-0.4-0.2-0.7c-0.1-0.4-0.1-0.4-0.2-0.7c-0.1-0.4-0.2-0.3-0.3-0.7
						c-0.1-0.4-0.1-0.4-0.3-0.7c-0.1-0.2-0.3-0.4-0.4-0.6c-0.1-0.2-0.2-0.4-0.4-0.6c-0.2-0.2-0.3-0.5-0.5-0.6
						c-0.2-0.1-0.5-0.1-0.7-0.2c-0.2-0.1-0.5-0.2-0.7-0.2c-0.2,0-0.5-0.1-0.7-0.1c-0.2,0-0.5,0-0.8,0.1c-0.2,0.1-0.3,0.4-0.5,0.6
						c-0.2,0.1-0.5,0.1-0.7,0.3c-0.2,0.1-0.5,0.2-0.6,0.3c-0.2,0.1-0.2,0.5-0.4,0.6c-0.2,0.2-0.5,0.2-0.7,0.3
						c-0.2,0.2-0.3,0.4-0.4,0.6c-0.2,0.2-0.4,0.3-0.5,0.5c-0.1,0.2-0.3,0.4-0.4,0.5c-0.1,0.2-0.3,0.4-0.4,0.6
						c-0.1,0.2-0.2,0.4-0.3,0.7c-0.1,0.2-0.3,0.4-0.4,0.6c-0.1,0.2-0.2,0.4-0.3,0.6c-0.1,0.2-0.2,0.4-0.2,0.7
						c-0.1,0.2,0.1,0.5,0.1,0.7c0,0.2-0.2,0.4-0.2,0.7c0,0.2-0.1,0.5-0.1,0.7c0,0.2,0.1,0.5,0.1,0.7c0,0.2-0.1,0.5-0.1,0.7
						c0,0.2,0,0.5,0.1,0.7c0,0.2,0.1,0.5,0.1,0.7c0,0.2,0.1,0.5,0.1,0.7c0,0.2,0,0.5,0.1,0.7c0.1,0.2,0.1,0.5,0.2,0.7
						c0.1,0.2,0.3,0.4,0.4,0.6c0.1,0.2,0.1,0.5,0.2,0.7c0.1,0.2,0,0.5,0,0.7c0.1,0.2,0.3,0.4,0.4,0.6c0.1,0.2,0.2,0.4,0.3,0.7
						c0.1,0.2,0.2,0.4,0.3,0.7c0.1,0.2,0.2,0.4,0.3,0.6c0.1,0.2,0.2,0.5,0.3,0.7c0.1,0.2,0.4,0.3,0.5,0.5c0.1,0.2,0.1,0.5,0.2,0.7
						c0.1,0.2,0.3,0.4,0.4,0.6c0.1,0.2,0.3,0.4,0.4,0.6c0.1,0.2,0.2,0.4,0.4,0.6c0.1,0.2,0.2,0.4,0.3,0.6c0.1,0.2,0.1,0.5,0.3,0.7
						c0.1,0.2,0.3,0.4,0.5,0.6c0.1,0.2,0.2,0.5,0.3,0.7c0.1,0.2,0.5,0.3,0.6,0.5c0.1,0.2,0.2,0.5,0.3,0.7c0.1,0.2,0.2,0.4,0.4,0.6
						c0.1,0.2,0.4,0.3,0.6,0.5c0.1,0.2,0.2,0.5,0.3,0.6c0.1,0.2,0.3,0.4,0.4,0.6c0.2,0.2,0.4,0.3,0.5,0.5c0.2,0.2,0.4,0.3,0.5,0.5
						c0.2,0.2,0.3,0.4,0.5,0.5c0.2,0.2,0.2,0.5,0.3,0.7c0.2,0.2,0.4,0.3,0.5,0.5c0.2,0.2,0.3,0.4,0.5,0.5c0.2,0.2,0.3,0.4,0.5,0.5
						c0.3,0.3,0.2,0.3,0.5,0.4c0.2,0.1,0.2,0.1,0.5,0c0.3-0.1,0.1-0.2,0.4-0.6c0.1-0.1,0.3-0.3,0.4-0.6c0.1-0.2,0.4-0.3,0.6-0.5
						c0.1-0.2,0.2-0.4,0.3-0.6c0.1-0.2,0.4-0.2,0.6-0.4c0.1-0.2,0.3-0.4,0.4-0.6c0.1-0.2,0.4-0.3,0.5-0.5c0.1-0.2,0.2-0.4,0.4-0.6
						c0.1-0.2,0.3-0.4,0.5-0.5c0.1-0.2,0.2-0.4,0.4-0.6c0.1-0.2,0.3-0.4,0.4-0.6c0.1-0.2,0.3-0.4,0.4-0.6c0.1-0.2,0.3-0.4,0.4-0.6
						c0.1-0.2,0.2-0.4,0.4-0.6c0.1-0.2,0.3-0.4,0.4-0.6c0.1-0.2,0.3-0.4,0.4-0.6c0.1-0.2,0.3-0.4,0.4-0.6c0.1-0.2,0.3-0.4,0.4-0.6
						c0.1-0.2,0.3-0.4,0.4-0.6c0.1-0.2,0.1-0.5,0.3-0.7c0.1-0.2,0.3-0.4,0.4-0.6c0.1-0.2,0.2-0.4,0.4-0.6c0.1-0.2,0.1-0.5,0.2-0.7
						c0.1-0.2,0.4-0.3,0.5-0.6c0.1-0.2,0.3-0.4,0.4-0.6c0.1-0.2,0-0.5,0.1-0.7c0.1-0.2,0.3-0.4,0.4-0.6c0.1-0.2,0.1-0.5,0.2-0.7
						c0.1-0.2,0.3-0.4,0.4-0.6c0.1-0.2,0.1-0.5,0.2-0.7c0.1-0.2,0.1-0.5,0.1-0.7c0.1-0.2,0.2-0.4,0.3-0.7c0.1-0.2,0.2-0.5,0.2-0.7
						c0-0.2,0-0.5,0-0.7c0-0.2,0.1-0.5,0.1-0.7c0-0.2,0-0.5,0.1-0.7c0-0.2,0-0.5,0-0.7c0-0.2,0-0.5,0-0.7c0-0.2,0.1-0.5,0.1-0.7
						c0-0.2-0.2-0.5-0.2-0.7c0-0.2-0.1-0.5-0.2-0.7c-0.1-0.2,0.1-0.5,0-0.7c-0.1-0.2-0.4-0.4-0.5-0.6c-0.1-0.2-0.2-0.4-0.3-0.6
						c-0.1-0.2-0.2-0.4-0.3-0.6c-0.1-0.2-0.2-0.4-0.4-0.6c-0.1-0.2-0.3-0.4-0.5-0.5c-0.2-0.2-0.3-0.4-0.4-0.6
						c-0.2-0.2-0.4-0.3-0.6-0.4c-0.2-0.2-0.3-0.3-0.5-0.5c-0.2-0.2-0.3-0.4-0.5-0.5c-0.2-0.1-0.4-0.2-0.6-0.4
						c-0.2-0.1-0.4-0.3-0.5-0.5c-0.2-0.1-0.5-0.1-0.7-0.2c-0.2-0.1-0.4-0.2-0.6-0.3c-0.2-0.1-0.5-0.2-0.7-0.2
						c-0.2,0-0.5,0.1-0.7,0.1c-0.2,0-0.5,0-0.7,0.1c-0.2,0.1-0.4,0.4-0.6,0.5c-0.2,0.1-0.4,0.3-0.5,0.5c-0.2,0.2-0.4,0.3-0.5,0.5
						C124.2,258.4,124.1,258.7,124.1,258.9z"/>
				</g>
			</g>
		</g>
	</g>
	<g>
		<g>
			<g>
				<path class="st3" d="M48.5,143.1c-0.3,0-0.5-0.2-0.7-0.3c-0.2-0.1-0.4-0.2-0.6-0.4c-0.2-0.2-0.4-0.3-0.5-0.6
					c-0.1-0.2-0.1-0.5-0.1-0.8c0-0.4,0-0.4,0-0.7c0-0.4,0-0.4,0-0.7s0-0.4,0-0.7c0-0.4-0.1-0.4-0.1-0.7c0-0.4,0.2-0.4,0.2-0.7
					c0-0.4-0.1-0.4-0.1-0.7c0-0.4,0-0.4,0-0.7c0-0.4,0-0.4,0-0.7c0-0.4-0.1-0.4-0.1-0.7c0-0.4,0-0.4,0-0.7c0-0.4,0-0.4,0-0.7
					c0-0.3,0.1-0.5,0.2-0.8c0.1-0.2,0.3-0.4,0.5-0.6c0.2-0.2,0.3-0.4,0.6-0.5c0.2-0.1,0.5-0.2,0.8-0.2c0.3,0,0.6,0.1,0.8,0.2
					c0.2,0.1,0.4,0.4,0.6,0.6c0.2,0.2,0.4,0.4,0.5,0.6c0.1,0.2,0.2,0.5,0.2,0.8c0,0.4-0.1,0.4-0.1,0.7c0,0.4,0.1,0.4,0.1,0.7
					s-0.1,0.4-0.1,0.7c0,0.4,0.2,0.4,0.2,0.7c0,0.4-0.1,0.4-0.1,0.7c0,0.4,0,0.4,0,0.7c0,0.4,0,0.4,0,0.7c0,0.4,0,0.4,0,0.7
					c0,0.4-0.1,0.4-0.1,0.7c0,0.4,0.1,0.4,0.1,0.7c0,0.4,0,0.4,0,0.7c0,0.3,0,0.6-0.1,0.8c-0.1,0.2-0.3,0.5-0.5,0.7
					c-0.2,0.2-0.5,0.2-0.7,0.3C49,142.9,48.8,143.1,48.5,143.1z"/>
			</g>
		</g>
	</g>
	<g>
		<g>
			<g>
				<path class="st3" d="M52.5,139c-0.4,0-0.4,0-0.7,0c-0.4,0-0.4,0-0.7,0c-0.4,0-0.4,0.1-0.7,0.1c-0.4,0-0.4-0.2-0.7-0.2
					c-0.4,0-0.4,0-0.7,0c-0.4,0-0.4,0-0.7,0c-0.4,0-0.4,0-0.7,0c-0.4,0-0.4-0.1-0.7-0.1c-0.4,0-0.4,0.1-0.7,0.1c-0.4,0-0.4,0-0.7,0
					s-0.4,0-0.7,0c-0.3,0-0.5-0.2-0.7-0.3c-0.2-0.1-0.5-0.2-0.7-0.4c-0.2-0.2-0.3-0.4-0.4-0.6c-0.1-0.2-0.1-0.5-0.1-0.8
					c0-0.3-0.1-0.5,0-0.8c0.1-0.2,0.3-0.4,0.5-0.6c0.2-0.2,0.3-0.4,0.6-0.5c0.2-0.1,0.5-0.1,0.8-0.1c0.4,0,0.4,0,0.7,0
					c0.4,0,0.4,0,0.7,0c0.4,0,0.4,0,0.7,0c0.4,0,0.4,0.1,0.7,0.1c0.4,0,0.4,0,0.7,0c0.4,0,0.4-0.2,0.7-0.2c0.4,0,0.4,0.1,0.7,0.1
					c0.4,0,0.4-0.1,0.7-0.1c0.4,0,0.4,0.1,0.7,0.1c0.4,0,0.4-0.1,0.7-0.1s0.4,0,0.7,0c0.3,0,0.5,0,0.8,0.1c0.2,0.1,0.4,0.3,0.6,0.5
					c0.2,0.2,0.3,0.4,0.4,0.7c0.1,0.2,0.2,0.5,0.2,0.8c0,0.3-0.1,0.5-0.2,0.8c-0.1,0.2-0.2,0.5-0.4,0.6c-0.2,0.2-0.4,0.4-0.6,0.5
					C53.1,139,52.8,139,52.5,139z"/>
			</g>
		</g>
	</g>
	<g>
		<g>
			<g>
				<path class="st3" d="M175.5,59.9c-0.3,0-0.5,0-0.7-0.1c-0.2-0.1-0.6-0.1-0.7-0.3c-0.2-0.2-0.3-0.4-0.4-0.7
					c-0.1-0.2-0.1-0.5-0.1-0.8c0-0.4,0-0.4,0-0.7c0-0.4,0-0.4,0-0.7c0-0.4,0.2-0.4,0.2-0.7c0-0.4,0-0.4,0-0.7c0-0.4-0.1-0.4-0.1-0.7
					c0-0.4,0.1-0.4,0.1-0.7c0-0.4-0.1-0.4-0.1-0.7c0-0.4-0.1-0.4-0.1-0.7c0-0.4,0-0.4,0-0.7c0-0.4,0.1-0.4,0.1-0.7s-0.1-0.4-0.1-0.7
					c0-0.3,0.1-0.5,0.2-0.8c0.1-0.2,0.2-0.5,0.4-0.6c0.2-0.2,0.4-0.4,0.6-0.5c0.2-0.1,0.5-0.2,0.8-0.2c0.3,0,0.5,0.1,0.8,0.2
					c0.2,0.1,0.4,0.3,0.6,0.5c0.2,0.2,0.4,0.4,0.5,0.6c0.1,0.2,0,0.5,0,0.8c0,0.4,0.1,0.4,0.1,0.7c0,0.4,0.1,0.4,0.1,0.7
					c0,0.4-0.1,0.4-0.1,0.7c0,0.4-0.1,0.4-0.1,0.7c0,0.4,0.1,0.4,0.1,0.7c0,0.4-0.1,0.4-0.1,0.7c0,0.4,0.2,0.4,0.2,0.7
					c0,0.4-0.1,0.4-0.1,0.7c0,0.4,0,0.4,0,0.7c0,0.4,0.1,0.4,0.1,0.7s-0.1,0.4-0.1,0.7c0,0.3-0.1,0.5-0.1,0.8
					c-0.1,0.2-0.2,0.5-0.4,0.7c-0.2,0.2-0.4,0.4-0.6,0.5C176.1,60,175.8,59.9,175.5,59.9z"/>
			</g>
		</g>
	</g>
	<g>
		<g>
			<g>
				<path class="st3" d="M179.5,56c-0.4,0-0.4-0.1-0.7-0.1c-0.4,0-0.4,0-0.7,0c-0.4,0-0.4-0.1-0.7-0.1c-0.4,0-0.4,0-0.7,0
					c-0.4,0-0.4,0.2-0.7,0.2c-0.4,0-0.4-0.1-0.7-0.1c-0.4,0-0.4,0.1-0.7,0.1c-0.4,0-0.4-0.1-0.7-0.1c-0.4,0-0.4-0.1-0.7-0.1
					c-0.4,0-0.4,0.2-0.7,0.2c-0.4,0-0.4,0-0.7,0c-0.3,0-0.6-0.1-0.8-0.1c-0.2-0.1-0.4-0.3-0.6-0.5c-0.2-0.2-0.3-0.4-0.4-0.6
					c-0.1-0.2-0.2-0.5-0.2-0.8c0-0.3,0.2-0.5,0.3-0.7c0.1-0.2,0.1-0.5,0.3-0.7c0.2-0.2,0.4-0.3,0.7-0.4c0.2-0.1,0.5-0.1,0.8-0.1
					c0.4,0,0.4,0,0.7,0c0.4,0,0.4,0,0.7,0c0.4,0,0.4-0.1,0.7-0.1c0.4,0,0.4,0.2,0.7,0.2c0.4,0,0.4-0.1,0.7-0.1c0.4,0,0.4,0,0.7,0
					c0.4,0,0.4,0.1,0.7,0.1c0.4,0,0.4,0,0.7,0c0.4,0,0.4-0.1,0.7-0.1c0.4,0,0.4,0.1,0.7,0.1c0.4,0,0.4,0,0.7,0
					c0.3,0,0.5,0.1,0.8,0.1c0.2,0.1,0.4,0.3,0.6,0.5c0.2,0.2,0.3,0.4,0.4,0.6c0.1,0.2,0.3,0.5,0.3,0.7c0,0.3-0.1,0.5-0.2,0.7
					c-0.1,0.2-0.2,0.5-0.3,0.7c-0.2,0.2-0.4,0.4-0.6,0.5C180.1,56,179.8,56,179.5,56z"/>
			</g>
		</g>
	</g>
	<g>
		<g>
			<g>
				<path class="st3" d="M32.5,184c-0.3,0-0.5-0.1-0.8-0.2c-0.2-0.1-0.5-0.2-0.7-0.4c-0.2-0.2-0.3-0.4-0.4-0.7
					c-0.1-0.2-0.2-0.5-0.2-0.8c0-0.4-0.1-0.4-0.1-0.7c0-0.4,0.1-0.4,0.1-0.7s0-0.4,0-0.7c0-0.4-0.1-0.4-0.1-0.7c0-0.4,0-0.4,0-0.7
					c0-0.4,0.1-0.4,0.1-0.7c0-0.4-0.1-0.4-0.1-0.7c0-0.4,0-0.4,0-0.7c0-0.4,0-0.4,0-0.7c0-0.4,0.1-0.4,0.1-0.7c0-0.4,0-0.4,0-0.7
					c0-0.3,0-0.5,0.1-0.8c0.1-0.2,0.3-0.4,0.5-0.6c0.2-0.2,0.4-0.3,0.7-0.4c0.2-0.1,0.5-0.3,0.7-0.3c0.3,0,0.5,0.1,0.8,0.2
					c0.2,0.1,0.4,0.3,0.6,0.5c0.2,0.2,0.3,0.4,0.4,0.6c0.1,0.2,0.2,0.5,0.2,0.7c0,0.4,0.1,0.4,0.1,0.7c0,0.4,0,0.4,0,0.7
					s-0.1,0.4-0.1,0.7c0,0.4,0,0.4,0,0.7c0,0.4,0.1,0.4,0.1,0.7c0,0.4,0.1,0.4,0.1,0.7c0,0.4-0.1,0.4-0.1,0.7c0,0.4,0,0.4,0,0.7
					c0,0.4-0.1,0.4-0.1,0.7c0,0.4,0.1,0.4,0.1,0.7c0,0.4,0,0.4,0,0.7c0,0.3-0.1,0.5-0.2,0.8c-0.1,0.2-0.3,0.4-0.5,0.6
					c-0.2,0.2-0.3,0.4-0.6,0.5C33,183.9,32.8,184,32.5,184z"/>
			</g>
		</g>
	</g>
	<g>
		<g>
			<g>
				<path class="st3" d="M36.5,180c-0.4,0-0.4,0-0.7,0c-0.4,0-0.4,0-0.7,0c-0.4,0-0.4,0-0.7,0c-0.4,0-0.4,0.1-0.7,0.1
					c-0.4,0-0.4,0-0.7,0c-0.4,0-0.4-0.2-0.7-0.2c-0.4,0-0.4,0.2-0.7,0.2c-0.4,0-0.4,0-0.7,0c-0.4,0-0.4-0.1-0.7-0.1
					c-0.4,0-0.4,0-0.7,0s-0.4,0.1-0.7,0.1c-0.3,0-0.5-0.2-0.7-0.3c-0.2-0.1-0.5-0.1-0.7-0.3c-0.2-0.2-0.3-0.4-0.4-0.7
					c-0.1-0.2-0.2-0.5-0.2-0.8c0-0.3,0.1-0.5,0.2-0.8c0.1-0.2,0.3-0.4,0.5-0.6c0.2-0.2,0.4-0.4,0.6-0.5c0.2-0.1,0.5-0.1,0.8-0.1
					c0.4,0,0.4,0,0.7,0c0.4,0,0.4-0.1,0.7-0.1c0.4,0,0.4,0,0.7,0c0.4,0,0.4,0,0.7,0c0.4,0,0.4-0.1,0.7-0.1c0.4,0,0.4,0,0.7,0
					c0.4,0,0.4,0,0.7,0c0.4,0,0.4,0.1,0.7,0.1c0.4,0,0.4-0.1,0.7-0.1c0.4,0,0.4,0.1,0.7,0.1s0.4-0.1,0.7-0.1c0.3,0,0.6,0,0.8,0.1
					c0.2,0.1,0.5,0.2,0.7,0.4c0.2,0.2,0.4,0.4,0.5,0.7c0.1,0.2,0.1,0.5,0.1,0.8c0,0.3-0.1,0.5-0.2,0.8c-0.1,0.2-0.3,0.5-0.4,0.7
					c-0.2,0.2-0.4,0.4-0.6,0.5C37.1,180,36.8,180,36.5,180z"/>
			</g>
		</g>
	</g>
	<path class="st4" d="M94.7,224.5c-2.9-8.2-6.2-19.6-8.5-33.9c-1.9-11.5-3.2-24.8-3.2-39.6c0-25.3,8.3-45.9,17.2-60.7l0.1,0.1
		c0,0,3.3-4.6,21.8-4.6c17.3,0,21.3,4,21.7,4.5c0,0,0,0,0,0c8.9,14.8,17.2,35.4,17.2,60.7c0,14.8-1.3,28-3.2,39.5
		c-2.4,14.2-5.6,25.6-8.5,33.7c-2.1,6.1-4,10.4-5.1,12.8c-0.4,0.9-1.6,1-2.2,0.2c-4.5-6.2-11.8-10.2-20-10.2c-8.2,0-15.5,4-20,10.2
		c-0.6,0.8-1.8,0.7-2.2-0.2C98.6,234.7,96.8,230.5,94.7,224.5z"/>
	<g>
		<defs>
			<path id="SVGID_1_" d="M94.7,224.5c-2.9-8.2-6.2-19.6-8.5-33.9c-1.9-11.5-3.2-24.8-3.2-39.6c0-25.3,8.3-45.9,17.2-60.7l0.1,0.1
				c0,0,3.3-4.6,21.8-4.6c17.3,0,21.3,4,21.7,4.5c0,0,0,0,0,0c8.9,14.8,17.2,35.4,17.2,60.7c0,14.8-1.3,28-3.2,39.5
				c-2.4,14.2-5.6,25.6-8.5,33.7c-2.1,6.1-4,10.4-5.1,12.8c-0.4,0.9-1.6,1-2.2,0.2c-4.5-6.2-11.8-10.2-20-10.2
				c-8.2,0-15.5,4-20,10.2c-0.6,0.8-1.8,0.7-2.2-0.2C98.6,234.7,96.8,230.5,94.7,224.5z"/>
		</defs>
		<clipPath id="SVGID_2_">
			<use xlink:href="#SVGID_1_"  style="overflow:visible;"/>
		</clipPath>
		<g class="st10">
			<path class="st3" d="M79.4,235.6c-0.1-0.2,0.1-0.5,0.1-0.8c-0.1-0.2,0.1-0.5,0-0.8c-0.1-0.2-0.3-0.4-0.4-0.6
				c-0.1-0.2-0.3-0.4-0.3-0.6c-0.1-0.2,0.1-0.5,0-0.7c-0.1-0.2-0.1-0.5-0.2-0.7c-0.1-0.2-0.4-0.4-0.5-0.6c-0.1-0.2-0.1-0.5-0.2-0.7
				c-0.1-0.2,0.1-0.5,0-0.7c-0.1-0.2-0.2-0.4-0.3-0.7c-0.1-0.2-0.1-0.5-0.2-0.7c-0.1-0.2,0-0.5-0.1-0.7c-0.1-0.2-0.2-0.4-0.2-0.7
				c-0.1-0.2-0.5-0.3-0.6-0.6c-0.1-0.2,0.2-0.5,0.1-0.8c-0.1-0.2-0.6-0.3-0.6-0.6c-0.1-0.2,0.4-0.6,0.3-0.8
				c-0.1-0.2-0.4-0.4-0.5-0.6c-0.1-0.2,0-0.5,0-0.7c-0.1-0.2-0.2-0.4-0.3-0.7c-0.1-0.2,0.1-0.5,0-0.7c-0.1-0.2-0.1-0.5-0.2-0.7
				c-0.1-0.2-0.2-0.5-0.2-0.7c-0.1-0.2-0.1-0.5-0.1-0.7c-0.1-0.2-0.2-0.4-0.3-0.7c-0.1-0.2,0-0.5-0.1-0.7c-0.1-0.2-0.6-0.3-0.6-0.6
				c-0.1-0.2,0-0.5,0-0.7c-0.1-0.2,0-0.5-0.1-0.7c-0.1-0.2-0.1-0.5-0.2-0.7c-0.1-0.2,0.1-0.5,0-0.7c-0.1-0.2-0.6-0.4-0.6-0.6
				c-0.1-0.2,0.5-0.6,0.4-0.8c-0.1-0.2-0.3-0.4-0.3-0.7c-0.1-0.2-0.1-0.5-0.2-0.7c-0.1-0.2-0.4-0.4-0.4-0.6
				c-0.1-0.2,0.1-0.5,0.1-0.8c-0.1-0.2-0.5-0.4-0.6-0.6c0-0.2,0.5-0.6,0.4-0.8c0-0.2-0.7-0.3-0.7-0.6c0-0.2,0.3-0.5,0.2-0.8
				c0-0.2-0.3-0.4-0.4-0.7c0-0.2-0.2-0.4-0.3-0.7c0-0.2,0-0.5,0-0.7c0-0.2,0-0.5-0.1-0.7c0-0.2,0-0.5-0.1-0.7c0-0.2-0.3-0.4-0.3-0.7
				c0-0.2-0.1-0.5-0.1-0.7c0-0.2-0.1-0.5-0.2-0.7c0-0.2,0.1-0.5,0.1-0.7c0-0.2-0.3-0.4-0.3-0.7c0-0.2,0.4-0.6,0.4-0.8
				c0-0.2,0-0.5-0.1-0.7c0-0.2-0.4-0.4-0.4-0.7c0-0.2,0.2-0.5,0.2-0.8c0-0.2-0.3-0.4-0.4-0.7c0-0.2-0.1-0.5-0.2-0.7
				c0-0.2-0.3-0.4-0.3-0.7c0-0.2,0.3-0.5,0.3-0.8c0-0.2,0.1-0.5,0-0.7c0-0.2-0.4-0.4-0.4-0.7c0-0.2-0.2-0.5-0.2-0.7
				c0-0.2-0.1-0.5-0.1-0.7c0-0.2-0.3-0.4-0.3-0.7c0-0.2,0.3-0.5,0.3-0.8c0-0.2,0-0.5-0.1-0.7c0-0.2,0-0.5,0-0.7
				c0-0.2-0.4-0.4-0.5-0.7c0-0.2,0.4-0.5,0.3-0.8c0-0.2,0.1-0.5,0-0.7c0-0.2-0.6-0.4-0.7-0.6c0-0.2,0-0.5,0-0.7
				c0-0.2,0.5-0.5,0.4-0.8c0-0.2-0.5-0.4-0.5-0.7c0-0.2,0.3-0.5,0.2-0.7c0-0.2-0.1-0.5-0.1-0.7c0-0.2,0.1-0.5,0-0.7
				c0-0.2-0.6-0.4-0.7-0.7c0-0.2,0.5-0.5,0.4-0.8c0-0.2-0.3-0.5-0.3-0.7c0-0.2,0.2-0.5,0.1-0.7c0-0.2,0-0.5,0-0.7
				c0-0.2-0.2-0.5-0.2-0.7c0-0.2-0.4-0.5-0.4-0.7c0-0.2,0.1-0.5,0.1-0.7c0-0.2-0.1-0.5-0.1-0.7c0-0.2,0.1-0.5,0.1-0.7
				c0-0.2,0.1-0.5,0.1-0.7c0-0.2,0.2-0.5,0.2-0.7c0-0.2-0.4-0.5-0.4-0.7c0-0.2-0.1-0.5-0.2-0.7c0-0.2,0-0.5,0-0.7
				c0-0.2-0.2-0.5-0.2-0.7c0-0.2,0.6-0.5,0.6-0.8c0-0.2,0-0.5,0-0.7c0-0.2-0.2-0.5-0.2-0.7c0-0.2,0-0.5-0.1-0.7
				c0-0.2-0.4-0.5-0.4-0.7c0-0.2,0.2-0.5,0.2-0.7c0-0.2,0.1-0.5,0.1-0.7c0-0.2,0.3-0.5,0.3-0.7c0-0.2-0.2-0.5-0.2-0.7
				c0-0.2,0.1-0.5,0.1-0.7c0-0.2-0.1-0.5-0.1-0.7c0-0.2-0.4-0.5-0.4-0.7c0-0.2,0.4-0.5,0.4-0.7c0-0.2-0.2-0.5-0.2-0.7
				c0-0.2-0.1-0.5-0.1-0.7c0-0.2,0-0.5,0-0.7c0-0.2,0.4-0.5,0.4-0.7c0-0.2-0.5-0.5-0.5-0.7c0-0.2,0.1-0.5,0.1-0.7
				c0-0.2,0.2-0.5,0.2-0.7c0-0.2,0-0.5,0-0.7s0.2-0.5,0.2-0.7c0-0.2-0.5-0.5-0.5-0.7c0-0.2,0-0.5,0-0.7c0-0.2,0.2-0.5,0.2-0.7
				c0-0.2-0.3-0.5-0.3-0.7c0-0.2,0.1-0.5,0.1-0.7c0-0.2,0.5-0.5,0.5-0.7c0-0.2,0-0.5,0-0.7c0-0.2,0.1-0.5,0.1-0.7
				c0-0.2-0.3-0.5-0.3-0.7c0-0.2-0.2-0.5-0.1-0.7c0-0.2,0.1-0.5,0.1-0.7c0-0.2-0.1-0.5-0.1-0.7c0-0.2,0.6-0.4,0.6-0.7
				c0-0.2-0.2-0.5-0.2-0.7c0-0.2-0.3-0.5-0.2-0.7c0-0.2,0.2-0.5,0.2-0.7c0-0.2,0.1-0.5,0.2-0.7c0-0.2,0.2-0.5,0.2-0.7
				c0-0.2-0.1-0.5-0.1-0.7c0-0.2,0.1-0.5,0.1-0.7c0-0.2,0.1-0.5,0.1-0.7c0-0.2,0-0.5,0.1-0.7c0-0.2-0.2-0.5-0.2-0.7
				c0-0.2,0.4-0.4,0.4-0.7c0-0.2,0-0.5,0.1-0.7c0-0.2-0.2-0.5-0.2-0.8c0-0.2,0.4-0.4,0.4-0.7c0-0.2,0-0.5,0-0.7
				c0-0.2,0.4-0.4,0.4-0.7c0-0.2-0.1-0.5,0-0.7c0-0.2-0.4-0.6-0.3-0.8c0-0.2,0.4-0.4,0.4-0.7c0-0.2-0.1-0.5,0-0.7
				c0-0.2,0.2-0.5,0.2-0.7c0-0.2,0.2-0.5,0.2-0.7c0-0.2,0.2-0.5,0.2-0.7c0-0.2,0.2-0.4,0.3-0.7c0.1-0.2-0.1-0.5,0-0.7
				c0.1-0.2,0.2-0.4,0.2-0.7c0.1-0.2,0.1-0.5,0.1-0.7c0.1-0.2,0.1-0.5,0.1-0.7c0.1-0.2-0.2-0.5-0.2-0.8c0.1-0.2,0.2-0.5,0.2-0.7
				c0.1-0.2,0.5-0.4,0.6-0.6c0.1-0.2,0.1-0.5,0.1-0.7c0.1-0.2-0.4-0.6-0.3-0.8c0.1-0.2,0.7-0.3,0.8-0.5c0.1-0.2-0.2-0.6-0.2-0.8
				c0.1-0.2,0.4-0.4,0.5-0.6c0.1-0.2-0.1-0.5-0.1-0.8c0.1-0.2,0-0.5,0.1-0.7c0.1-0.2,0.6-0.3,0.7-0.5c0.1-0.2,0.1-0.5,0.2-0.7
				c0.1-0.2-0.3-0.6-0.3-0.8c0.1-0.2,0.2-0.4,0.3-0.7c0.1-0.2,0.4-0.4,0.5-0.6c0.1-0.2,0.1-0.5,0.2-0.7c0.1-0.2,0.2-0.4,0.3-0.7
				c0.1-0.2,0.1-0.5,0.2-0.7c0.1-0.2,0-0.5,0.1-0.7c0.1-0.2,0.1-0.5,0.2-0.7c0.1-0.2,0.4-0.4,0.4-0.6c0.1-0.2-0.2-0.6-0.1-0.8
				c0.1-0.2,0.4-0.4,0.5-0.6c0.1-0.2,0.3-0.4,0.4-0.6c0.1-0.2,0.3-0.4,0.4-0.6c0.1-0.2,0.1-0.5,0.2-0.7c0.1-0.2-0.1-0.5,0-0.8
				c0.1-0.2,0.2-0.4,0.3-0.6c0.1-0.2,0.2-0.4,0.3-0.6c0.1-0.2-0.1-0.6,0-0.8c0.1-0.2,0.6-0.3,0.7-0.5c0.1-0.2-0.2-0.6-0.1-0.8
				c0.1-0.2,0.3-0.4,0.4-0.6c0.1-0.2,0.2-0.4,0.3-0.7c0.1-0.2,0.2-0.5,0.3-0.7c0.1-0.2,0.2-0.5,0.3-0.7c0.1-0.2,0.6-0.3,0.7-0.5
				c0.1-0.2,0-0.5,0.1-0.8c0.1-0.2,0-0.6,0.1-0.8c0.1-0.2,0.6-0.2,0.7-0.5c0.1-0.2-0.2-0.6-0.1-0.8c0.1-0.2,0.2-0.4,0.3-0.7
				c0.1-0.2,0.6-0.2,0.7-0.4c0.1-0.2-0.2-0.6-0.1-0.8c0.1-0.2,0.3-0.4,0.4-0.6c0.1-0.2,0.5-0.3,0.6-0.5c0.1-0.2,0-0.5,0.1-0.7
				c0.1-0.2,0.4-0.4,0.5-0.6c0.1-0.2,0-0.5,0.2-0.7c0.1-0.2,0.2-0.4,0.3-0.6c0.1-0.2,0.6-0.2,0.7-0.4c0.1-0.2,0-0.6,0.1-0.8
				c0.1-0.2,0.1-0.5,0.2-0.7c0.1-0.2,0.4-0.3,0.5-0.5c0.1-0.2,0.4-0.3,0.5-0.5c0.1-0.2,0.1-0.5,0.2-0.7c0.1-0.2,0.2-0.4,0.3-0.6
				c0,0-0.2-0.3-0.1-0.3c0.3-0.2,0.4,0.3,0.8-0.1c0.2-0.1,0.3-0.3,0.5-0.5c0.2-0.1,0.3-0.4,0.5-0.5c0.2-0.1,0.6,0.1,0.8,0
				c0.2-0.1,0.3-0.3,0.6-0.5c0.2-0.1,0.3-0.5,0.5-0.6c0.2-0.1,0.5,0,0.7-0.1c0.2-0.1,0.4-0.4,0.6-0.5c0.2-0.1,0.5,0.1,0.8,0
				c0.2-0.1,0.5-0.1,0.7-0.2c0.2-0.1,0.4-0.3,0.7-0.3c0.2-0.1,0.5,0,0.7-0.1c0.2-0.1,0.4-0.4,0.6-0.4c0.2,0,0.5,0,0.7-0.1
				c0.2,0,0.5,0,0.7,0c0.2,0,0.5-0.1,0.7-0.1c0.2,0,0.5,0,0.7,0c0.2,0,0.4-0.2,0.7-0.2c0.2,0,0.5,0.3,0.8,0.3c0.2,0,0.5-0.1,0.7-0.1
				c0.2,0,0.4-0.5,0.7-0.5c0.2,0,0.5,0.3,0.7,0.3c0.2,0,0.5-0.2,0.7-0.2c0.2,0,0.5,0.2,0.7,0.2c0.2,0,0.5-0.1,0.7-0.1
				c0.2,0,0.5-0.1,0.7-0.1c0.2,0,0.4-0.5,0.7-0.5c0.2,0,0.5,0,0.7,0c0.2,0,0.5,0.4,0.7,0.4c0.2,0,0.5-0.1,0.7-0.1
				c0.2,0,0.5-0.4,0.7-0.4c0.2,0,0.5,0.1,0.7,0.1c0.2,0,0.5,0.4,0.7,0.4c0.2,0,0.5-0.4,0.7-0.4c0.2,0,0.5-0.2,0.7-0.2
				c0.2,0,0.5,0.6,0.7,0.6c0.2,0,0.5-0.6,0.7-0.6c0.2,0,0.5,0.2,0.7,0.2c0.2,0,0.5,0.1,0.7,0.1c0.2,0,0.5,0.4,0.7,0.4
				c0.2,0,0.5-0.3,0.7-0.3c0.2,0,0.5,0.2,0.7,0.2c0.2,0,0.5-0.2,0.7-0.2c0.2,0,0.5-0.1,0.7-0.1c0.2,0,0.5,0.3,0.7,0.4
				c0.2,0,0.5-0.2,0.7-0.1c0.2,0,0.5,0.1,0.7,0.1c0.2,0,0.5,0.1,0.7,0.2c0.2,0,0.5-0.2,0.7-0.2c0.2,0,0.4,0.3,0.7,0.3
				c0.2,0,0.5-0.2,0.7-0.1c0.2,0,0.5,0.1,0.7,0.1c0.2,0,0.5-0.1,0.7,0c0.2,0,0.4,0.5,0.6,0.6c0.2,0,0.5,0,0.7,0
				c0.2,0,0.4,0.2,0.7,0.3c0.2,0,0.5,0,0.7,0c0.2,0.1,0.6-0.3,0.8-0.2c0.2,0.1,0.5,0.1,0.7,0.2c0.2,0.1,0.4,0.2,0.7,0.3
				c0.2,0.1,0.5,0.1,0.7,0.2c0.2,0.1,0.5,0.1,0.7,0.1c0.2,0.1,0.4,0.4,0.6,0.5c0.2,0.1,0.6-0.1,0.8,0c0.2,0.1,0.4,0.3,0.6,0.4
				c0.2,0.1,0.4,0.3,0.6,0.4c0.2,0.1,0.4,0.3,0.6,0.4c0.2,0.1,0.4,0.3,0.6,0.4c0.2,0.2,0.7,0,0.8,0.1c0.3,0.2,0.5,0.4,0.6,0.5
				c0,0,0,0.1,0,0.1c0.1,0.2-0.1,0.6,0,0.8c0.1,0.2,0.6,0.2,0.7,0.4c0.1,0.2,0.1,0.5,0.2,0.7c0.1,0.2,0.4,0.3,0.6,0.5
				c0.1,0.2-0.1,0.6,0,0.8c0.1,0.2,0.1,0.5,0.2,0.7c0.1,0.2,0.2,0.4,0.4,0.6c0.1,0.2,0.7,0.2,0.8,0.4c0.1,0.2-0.1,0.6,0.1,0.8
				c0.1,0.2,0.3,0.4,0.5,0.6c0.1,0.2,0.4,0.3,0.5,0.6c0.1,0.2-0.1,0.6,0,0.8c0.1,0.2,0.2,0.5,0.3,0.7c0.1,0.2,0.7,0.2,0.8,0.4
				c0.1,0.2-0.2,0.6-0.1,0.8c0.1,0.2,0.5,0.3,0.6,0.5c0.1,0.2-0.1,0.6,0,0.8c0.1,0.2,0.4,0.3,0.5,0.6c0.1,0.2,0.3,0.4,0.4,0.6
				c0.1,0.2,0.2,0.4,0.3,0.7c0.1,0.2,0.2,0.4,0.3,0.6c0.1,0.2,0.2,0.5,0.3,0.7c0.1,0.2,0.5,0.3,0.6,0.5c0.1,0.2,0.1,0.5,0.2,0.7
				c0.1,0.2,0.2,0.5,0.3,0.7c0.1,0.2-0.2,0.6-0.1,0.8c0.1,0.2,0.7,0.2,0.8,0.4c0.1,0.2-0.1,0.6,0,0.8c0.1,0.2,0.1,0.5,0.2,0.7
				c0.1,0.2,0.4,0.4,0.5,0.6c0.1,0.2,0.3,0.4,0.4,0.6c0.1,0.2,0.1,0.5,0.2,0.7c0.1,0.2-0.3,0.6-0.2,0.8c0.1,0.2,0.2,0.4,0.3,0.7
				c0.1,0.2,0.2,0.4,0.2,0.7c0.1,0.2,0.2,0.4,0.3,0.7c0.1,0.2,0.2,0.4,0.3,0.6c0.1,0.2,0,0.5,0.1,0.7c0.1,0.2,0.8,0.2,0.8,0.5
				c0.1,0.2-0.3,0.6-0.2,0.8c0.1,0.2,0.4,0.4,0.5,0.6c0.1,0.2-0.1,0.5,0,0.8c0.1,0.2,0.6,0.3,0.6,0.5c0.1,0.2-0.4,0.6-0.3,0.9
				c0.1,0.2,0.7,0.3,0.8,0.5c0.1,0.2-0.1,0.5,0,0.8c0.1,0.2-0.1,0.5,0,0.8c0.1,0.2,0.4,0.4,0.5,0.6c0.1,0.2,0.3,0.4,0.4,0.6
				c0.1,0.2,0.1,0.5,0.1,0.7c0.1,0.2-0.3,0.6-0.3,0.8c0.1,0.2,0.2,0.4,0.3,0.7c0.1,0.2,0.1,0.5,0.2,0.7c0.1,0.2,0.4,0.4,0.4,0.6
				c0.1,0.2,0,0.5,0,0.7c0.1,0.2,0.1,0.5,0.1,0.7c0.1,0.2-0.1,0.5,0,0.7c0.1,0.2,0.5,0.4,0.6,0.6c0.1,0.2,0.2,0.5,0.2,0.7
				c0.1,0.2,0.1,0.5,0.2,0.7c0.1,0.2,0.1,0.5,0.1,0.7c0.1,0.2,0.1,0.5,0.1,0.7c0,0.2,0.2,0.5,0.2,0.7c0,0.2,0.1,0.5,0.2,0.7
				c0,0.2,0.1,0.5,0.1,0.7c0,0.2,0,0.5,0,0.7c0,0.2-0.2,0.5-0.2,0.8c0,0.2,0.1,0.5,0.2,0.7c0,0.2,0.1,0.5,0.2,0.7
				c0,0.2,0.2,0.5,0.2,0.7c0,0.2,0.2,0.4,0.3,0.7c0,0.2,0.1,0.5,0.1,0.7c0,0.2-0.4,0.5-0.3,0.8c0,0.2,0.5,0.4,0.6,0.6
				c0,0.2,0,0.5,0,0.7c0,0.2-0.4,0.5-0.4,0.8c0,0.2,0.4,0.4,0.4,0.7c0,0.2,0.2,0.5,0.3,0.7c0,0.2-0.1,0.5,0,0.7
				c0,0.2,0.1,0.5,0.2,0.7c0,0.2,0.1,0.5,0.1,0.7c0,0.2-0.4,0.5-0.4,0.8c0,0.2-0.1,0.5,0,0.7c0,0.2,0,0.5,0.1,0.7
				c0,0.2,0.5,0.4,0.6,0.7c0,0.2-0.3,0.5-0.3,0.7c0,0.2-0.1,0.5-0.1,0.7c0,0.2,0.4,0.5,0.5,0.7c0,0.2-0.1,0.5-0.1,0.7
				c0,0.2,0.2,0.5,0.2,0.7c0,0.2,0.1,0.5,0.1,0.7c0,0.2-0.1,0.5-0.1,0.7c0,0.2,0,0.5,0,0.7c0,0.2-0.4,0.5-0.4,0.7
				c0,0.2-0.1,0.5-0.1,0.7c0,0.2,0.4,0.5,0.4,0.7c0,0.2-0.4,0.5-0.4,0.7c0,0.2,0.4,0.5,0.4,0.7c0,0.2-0.1,0.5-0.1,0.7
				c0,0.2-0.2,0.5-0.2,0.7c0,0.2,0.4,0.5,0.4,0.7c0,0.2-0.3,0.5-0.3,0.7c0,0.2-0.3,0.5-0.3,0.7c0,0.2,0.3,0.5,0.3,0.7
				c0,0.2,0.3,0.5,0.3,0.7c0,0.2-0.3,0.5-0.3,0.7c0,0.2,0.2,0.5,0.2,0.7c0,0.2,0,0.5,0,0.7c0,0.2-0.4,0.5-0.4,0.7
				c0,0.2-0.1,0.5-0.1,0.7c0,0.2-0.2,0.5-0.2,0.7c0,0.2,0.4,0.5,0.4,0.7c0,0.2,0,0.5,0,0.7c0,0.2-0.2,0.5-0.2,0.7c0,0.2,0,0.5,0,0.7
				c0,0.2-0.1,0.5-0.1,0.7c0,0.2-0.1,0.5-0.2,0.7c0,0.2,0,0.5,0,0.7c0,0.2-0.1,0.5-0.1,0.7c0,0.2,0.2,0.5,0.2,0.7
				c0,0.2-0.3,0.5-0.3,0.7c0,0.2,0.5,0.5,0.4,0.7c0,0.2-0.6,0.4-0.7,0.7c0,0.2,0.1,0.5,0.1,0.7c0,0.2-0.1,0.5-0.1,0.7
				c0,0.2,0.2,0.5,0.1,0.7c0,0.2,0.1,0.5,0,0.7c0,0.2,0.2,0.5,0.2,0.7c0,0.2,0,0.5,0,0.7c0,0.2-0.6,0.4-0.6,0.7c0,0.2,0,0.5,0,0.7
				c0,0.2,0.1,0.5,0.1,0.7c0,0.2,0.1,0.5,0,0.7c0,0.2,0.2,0.5,0.2,0.7c0,0.2-0.1,0.5-0.1,0.7c0,0.2-0.5,0.4-0.6,0.7
				c0,0.2,0.1,0.5,0.1,0.7c0,0.2-0.1,0.5-0.1,0.7c0,0.2,0.4,0.5,0.3,0.8c0,0.2-0.2,0.5-0.2,0.7c0,0.2,0,0.5-0.1,0.7
				c0,0.2-0.3,0.4-0.3,0.7c0,0.2-0.1,0.5-0.2,0.7c0,0.2-0.2,0.5-0.2,0.7c0,0.2-0.1,0.5-0.2,0.7c0,0.2,0.1,0.5,0.1,0.7
				c0,0.2,0.3,0.5,0.2,0.8c0,0.2,0.1,0.5,0.1,0.7c0,0.2-0.1,0.5-0.1,0.7c0,0.2-0.7,0.4-0.7,0.6c0,0.2,0.4,0.5,0.4,0.8
				c0,0.2-0.4,0.4-0.5,0.7c0,0.2,0.4,0.5,0.3,0.8c0,0.2-0.6,0.4-0.6,0.6c0,0.2,0.2,0.5,0.2,0.7c0,0.2,0.1,0.5,0.1,0.7
				c0,0.2-0.6,0.4-0.7,0.6s0,0.5,0,0.7s-0.1,0.5-0.1,0.7c0,0.2,0,0.5,0,0.7c0,0.2-0.2,0.5-0.3,0.7c0,0.2-0.1,0.5-0.1,0.7
				c0,0.2,0.1,0.5,0.1,0.7c0,0.2-0.1,0.5-0.1,0.7c0,0.2-0.2,0.5-0.2,0.7c0,0.2,0.4,0.6,0.4,0.8c0,0.2-0.4,0.4-0.5,0.7
				c0,0.2,0.2,0.5,0.2,0.8c0,0.2-0.3,0.4-0.4,0.7c0,0.2-0.3,0.4-0.4,0.7c0,0.2,0,0.5-0.1,0.7c0,0.2-0.3,0.4-0.4,0.7
				c0,0.2,0.4,0.6,0.3,0.8c0,0.2-0.5,0.4-0.5,0.6c-0.1,0.2,0.4,0.6,0.4,0.8c-0.1,0.2-0.5,0.4-0.5,0.6c-0.1,0.2,0.2,0.6,0.2,0.8
				c-0.1,0.2-0.2,0.5-0.2,0.7c-0.1,0.2-0.7,0.4-0.7,0.6c-0.1,0.2,0.5,0.6,0.4,0.8c-0.1,0.2-0.6,0.4-0.6,0.6c-0.1,0.2,0,0.5-0.1,0.7
				c-0.1,0.2,0.1,0.5,0.1,0.8c-0.1,0.2,0,0.5-0.1,0.7c-0.1,0.2-0.6,0.3-0.7,0.6c-0.1,0.2-0.1,0.5-0.1,0.7c-0.1,0.2-0.1,0.5-0.2,0.7
				c-0.1,0.2,0.1,0.5,0.1,0.8c-0.1,0.2,0.2,0.6,0.2,0.8c-0.1,0.2-0.6,0.4-0.6,0.6c-0.1,0.2-0.3,0.4-0.4,0.7
				c-0.1,0.2,0.4,0.6,0.3,0.8c-0.1,0.2-0.3,0.4-0.4,0.7c-0.1,0.2,0.1,0.5,0.1,0.8c-0.1,0.2-0.6,0.3-0.7,0.6
				c-0.1,0.2-0.2,0.5-0.2,0.7c-0.1,0.2-0.2,0.5-0.2,0.7c-0.1,0.2,0.5,0.6,0.4,0.9c-0.1,0.2-0.7,0.3-0.7,0.5
				c-0.1,0.2,0.1,0.5,0.1,0.8c-0.1,0.2-0.2,0.4-0.3,0.7c-0.1,0.2,0,0.5,0,0.7c-0.1,0.2-0.6,0.3-0.7,0.5c-0.1,0.2,0.2,0.6,0.2,0.8
				c-0.1,0.2-0.5,0.4-0.5,0.6c-0.1,0.2,0,0.5-0.1,0.7c-0.1,0.2,0.2,0.6,0.2,0.8c-0.1,0.2-0.7,0.3-0.8,0.5c-0.1,0.2,0.1,0.5,0,0.8
				c-0.1,0.2,0.1,0.6,0.1,0.8c-0.1,0.2-0.5,0.3-0.6,0.6c-0.1,0.2-0.1,0.5-0.2,0.7c-0.1,0.2,0.1,0.5,0,0.8c-0.1,0.2-0.2,0.4-0.3,0.7
				c-0.1,0.2-0.1,0.5-0.2,0.7c-0.1,0.2-0.5,0.3-0.6,0.6c-0.1,0.2,0.2,0.6,0.1,0.8c-0.1,0.2-0.7,0.3-0.8,0.5
				c-0.1,0.2-0.2,0.4-0.3,0.7c-0.1,0.2,0,0.5-0.1,0.7c-0.1,0.2-0.1,0.5-0.2,0.7c-0.1,0.2,0,0.5-0.1,0.7c-0.1,0.2-0.1,0.5-0.2,0.7
				c-0.1,0.2-0.4,0.4-0.5,0.6c-0.1,0.2,0.1,0.6,0,0.8c-0.1,0.2-0.3,0.4-0.4,0.6c-0.1,0.2-0.2,0.5-0.3,0.7c-0.1,0.2-0.2,0.4-0.3,0.7
				c-0.1,0.2,0,0.5-0.1,0.7c-0.1,0.2-0.3,0.4-0.4,0.6c-0.1,0.2-0.2,0.4-0.3,0.7c-0.1,0.2-0.2,0.5-0.3,0.7c-0.1,0.2-0.4,0.4-0.5,0.6
				c-0.1,0.2-0.1,0.6-0.3,0.8c-0.2,0.1-0.6,0.2-0.8,0.2c-0.2,0-0.5-0.3-0.7-0.4c-0.2-0.1-0.2-0.3-0.4-0.5c-0.1-0.2-0.6-0.2-0.7-0.4
				c-0.1-0.2-0.1-0.5-0.3-0.7c-0.1-0.2-0.5-0.2-0.7-0.4c-0.2-0.2-0.4-0.3-0.5-0.5c-0.2-0.2-0.2-0.5-0.3-0.7
				c-0.2-0.2-0.4-0.3-0.5-0.5c-0.2-0.2-0.1-0.6-0.3-0.7c-0.2-0.2-0.4-0.3-0.6-0.4c-0.2-0.2-0.7,0.1-0.9-0.1
				c-0.2-0.2-0.3-0.4-0.5-0.5c-0.2-0.2-0.2-0.5-0.4-0.7c-0.2-0.1-0.3-0.4-0.5-0.5c-0.2-0.1-0.6,0.1-0.8-0.1
				c-0.2-0.1-0.3-0.4-0.5-0.5c-0.2-0.1-0.3-0.4-0.5-0.5c-0.2-0.1-0.5,0-0.7-0.2c-0.2-0.1-0.4-0.2-0.6-0.3c-0.2-0.1-0.2-0.6-0.4-0.7
				c-0.2-0.1-0.5,0-0.7-0.1c-0.2-0.1-0.4-0.3-0.6-0.4c-0.2-0.1-0.5,0-0.7-0.1c-0.2-0.1-0.4-0.2-0.7-0.2c-0.2-0.1-0.4-0.2-0.7-0.3
				c-0.2-0.1-0.4-0.3-0.6-0.3c-0.2-0.1-0.5,0.1-0.8,0.1c-0.2-0.1-0.3-0.5-0.6-0.6c-0.2-0.1-0.5,0-0.7,0c-0.2-0.1-0.5,0-0.7-0.1
				c-0.2,0-0.5,0.1-0.7,0.1c-0.2,0-0.4-0.5-0.6-0.5c-0.2,0-0.5,0.2-0.7,0.2c-0.2,0-0.5,0-0.7-0.1c-0.2,0-0.5,0.1-0.7,0.1
				c-0.2,0-0.5-0.1-0.7-0.1c-0.2,0-0.5-0.3-0.7-0.3c-0.2,0-0.5,0-0.7,0c-0.2,0-0.5,0.1-0.7,0.1c-0.2,0-0.5,0.1-0.7,0.1
				c-0.2,0-0.5,0-0.7,0c-0.2,0-0.5,0-0.7,0c-0.2,0-0.5,0.1-0.7,0.1c-0.2,0-0.5-0.2-0.7-0.1c-0.2,0-0.5,0.2-0.7,0.2
				c-0.2,0-0.5,0.1-0.7,0.1c-0.2,0-0.4,0.2-0.7,0.2c-0.2,0.1-0.5-0.1-0.7,0c-0.2,0.1-0.3,0.6-0.5,0.7c-0.2,0.1-0.6-0.4-0.8-0.3
				c-0.2,0.1-0.3,0.6-0.5,0.7c-0.2,0.1-0.5,0.1-0.7,0.2c-0.2,0.1-0.4,0.2-0.6,0.3c-0.2,0.1-0.7-0.3-0.9-0.2
				c-0.2,0.1-0.2,0.7-0.4,0.8c-0.2,0.1-0.4,0.3-0.6,0.4c-0.2,0.1-0.5,0-0.8,0.1c-0.2,0.1-0.4,0.3-0.6,0.5c-0.2,0.1-0.6-0.1-0.8,0.1
				c-0.2,0.1-0.3,0.4-0.5,0.5c-0.2,0.1-0.4,0.2-0.6,0.3c-0.2,0.1-0.2,0.5-0.4,0.6c-0.2,0.1-0.7-0.1-0.8,0.1
				c-0.2,0.1-0.3,0.4-0.4,0.6c-0.2,0.2-0.1,0.6-0.3,0.8c-0.2,0.2-0.6,0.1-0.7,0.2c-0.2,0.2-0.5,0.1-0.7,0.3
				c-0.2,0.2-0.1,0.6-0.3,0.7c-0.2,0.2-0.3,0.3-0.5,0.5c-0.2,0.2-0.2,0.5-0.3,0.7c-0.2,0.2-0.7,0-0.8,0.2c-0.2,0.2-0.2,0.5-0.4,0.6
				c-0.1,0.2-0.2,0.4-0.4,0.6c-0.1,0.2-0.1,0.5-0.3,0.7c-0.2,0.2-0.4,0.4-0.7,0.5c-0.2,0.1-0.6,0.2-0.8,0.2c-0.2,0-0.6-0.2-0.8-0.3
				c-0.2-0.1-0.2-0.5-0.3-0.7c-0.1-0.2-0.4-0.3-0.5-0.5c-0.1-0.2-0.1-0.4-0.2-0.7c-0.1-0.2,0-0.5-0.1-0.7c-0.1-0.2-0.2-0.4-0.3-0.7
				c-0.1-0.2-0.3-0.4-0.4-0.6c-0.1-0.2,0-0.5,0-0.7c-0.1-0.2-0.3-0.4-0.4-0.6c-0.1-0.2-0.3-0.4-0.4-0.6c-0.1-0.2,0.2-0.6,0.1-0.8
				c-0.1-0.2-0.4-0.4-0.5-0.6c-0.1-0.2-0.4-0.3-0.5-0.6c-0.1-0.2-0.3-0.4-0.3-0.6c-0.1-0.2,0.1-0.5,0-0.8c-0.1-0.2-0.1-0.5-0.1-0.7
				c-0.1-0.2-0.5-0.3-0.6-0.5c-0.1-0.2,0.2-0.6,0.1-0.8c-0.1-0.2-0.5-0.3-0.6-0.5c-0.1-0.2,0.1-0.5,0-0.7c-0.1-0.2-0.1-0.5-0.1-0.7
				c-0.1-0.2-0.6-0.3-0.7-0.5S79.5,235.8,79.4,235.6z"/>
		</g>
	</g>
	<g id="XMLID_3_">
		<g>
			<g>
				<g>
					<g>
						<path class="st4" d="M122.2,64.5c0.3,0.1,0.2,0.2,0.5,0.5c0.1,0.1,0.4,0.3,0.6,0.4c0.2,0.1,0.3,0.3,0.5,0.5
							c0.2,0.2,0.3,0.3,0.5,0.5c0.2,0.2,0.3,0.3,0.5,0.5c0.2,0.2,0.3,0.4,0.5,0.5c0.2,0.2,0.3,0.3,0.5,0.5c0.2,0.2,0.4,0.3,0.5,0.5
							c0.2,0.2,0.3,0.4,0.5,0.6c0.2,0.2,0.4,0.3,0.5,0.5c0.2,0.2,0.3,0.4,0.4,0.6c0.2,0.2,0.3,0.3,0.5,0.5c0.2,0.2,0.3,0.4,0.5,0.5
							c0.2,0.2,0.4,0.3,0.5,0.5c0.2,0.2,0.3,0.4,0.4,0.6c0.2,0.2,0.4,0.3,0.5,0.5c0.2,0.2,0.3,0.4,0.5,0.5c0.2,0.2,0.3,0.4,0.4,0.6
							c0.2,0.2,0.3,0.3,0.5,0.5c0.2,0.2,0.3,0.4,0.5,0.5c0.2,0.2,0.3,0.4,0.4,0.6c0.2,0.2,0.3,0.3,0.5,0.5c0.2,0.2,0.2,0.4,0.4,0.6
							c0.1,0.2,0.3,0.4,0.5,0.6c0.1,0.2,0.3,0.4,0.5,0.6c0.1,0.2,0.3,0.4,0.5,0.5c0.1,0.2,0.3,0.4,0.4,0.6c0.1,0.2,0.3,0.3,0.5,0.5
							c0.1,0.2,0.3,0.4,0.4,0.6c0.1,0.2,0.3,0.4,0.4,0.6c0.1,0.2,0.2,0.4,0.4,0.6c0.1,0.2,0.3,0.4,0.5,0.5c0.1,0.2,0.3,0.4,0.4,0.6
							c0.1,0.2,0.3,0.4,0.4,0.6c0.1,0.2,0.3,0.4,0.5,0.6c0.1,0.2,0.2,0.4,0.4,0.6c0.1,0.2,0.3,0.4,0.4,0.6c0.1,0.2,0.3,0.4,0.4,0.6
							c0.1,0.2,0.3,0.4,0.4,0.6c0.1,0.2,0.3,0.4,0.4,0.6c0.1,0.2,0.2,0.4,0.4,0.6c0.1,0.2,0.2,0.4,0.4,0.6c0.1,0.2,0.3,0.4,0.4,0.6
							c0.1,0.2,0.3,0.4,0.4,0.6c0.1,0.2,0.3,0.4,0.4,0.6c0.1,0.2,0.2,0.5,0.3,0.7c0.1,0.2,0.3,0.4,0.4,0.6c0.1,0.2,0.2,0.4,0.4,0.6
							c-0.1-0.1-0.2-0.3-0.5-0.5c-0.2-0.1-0.4-0.2-0.6-0.4c-0.2-0.1-0.4-0.2-0.6-0.3c-0.2-0.1-0.4-0.2-0.7-0.3
							c-0.2-0.1-0.4-0.2-0.7-0.3c-0.2-0.1-0.4-0.2-0.7-0.3c-0.2-0.1-0.5-0.1-0.7-0.2c-0.2-0.1-0.4-0.2-0.7-0.2
							c-0.2-0.1-0.4-0.2-0.7-0.3c-0.2-0.1-0.5-0.1-0.7-0.1c-0.2-0.1-0.5-0.1-0.7-0.2c-0.2-0.1-0.5-0.1-0.7-0.1
							c-0.2,0-0.5-0.1-0.7-0.1c-0.2,0-0.5-0.1-0.7-0.2c-0.2,0-0.5-0.1-0.7-0.1c-0.2,0-0.5-0.1-0.7-0.1c-0.2,0-0.5-0.1-0.7-0.1
							c-0.2,0-0.5,0-0.7,0c-0.2,0-0.5-0.1-0.7-0.2c-0.2,0-0.5,0-0.7,0c-0.2,0-0.5-0.1-0.7-0.1c-0.2,0-0.5,0-0.7,0
							c-0.2,0-0.5,0-0.7-0.1c-0.2,0-0.5,0-0.7,0c-0.2,0-0.5,0-0.7,0c-0.2,0-0.5,0-0.7,0c-0.2,0-0.5,0-0.7,0c-0.2,0-0.5,0-0.7,0
							c-0.2,0-0.5,0.1-0.7,0.1c-0.2,0-0.5,0-0.7,0c-0.2,0-0.5,0-0.7,0c-0.2,0-0.5,0-0.7,0c-0.2,0-0.5,0-0.7,0c-0.2,0-0.5,0-0.7,0
							c-0.2,0-0.5,0.1-0.7,0.1c-0.2,0-0.5,0-0.7,0c-0.2,0-0.5,0-0.7,0c-0.2,0-0.5,0-0.7,0c-0.2,0-0.5,0-0.7,0
							c-0.2,0-0.5,0.1-0.7,0.1c-0.2,0-0.5,0-0.7,0.1c-0.2,0-0.5,0-0.7,0.1c-0.2,0-0.5,0-0.7,0c-0.2,0-0.5,0.1-0.7,0.1
							c-0.2,0-0.5,0.1-0.7,0.1c-0.2,0-0.5,0-0.7,0.1c-0.2,0-0.5,0.1-0.7,0.1c-0.2,0-0.5,0.1-0.7,0.1c-0.2,0-0.5,0.1-0.7,0.2
							c-0.2,0-0.5,0-0.7,0.1c-0.2,0.1-0.5,0.1-0.7,0.2c-0.2,0.1-0.5,0.1-0.7,0.1c-0.2,0.1-0.5,0.1-0.7,0.2c-0.2,0.1-0.5,0.1-0.7,0.2
							c-0.2,0.1-0.5,0.2-0.7,0.3c-0.2,0.1-0.5,0.1-0.7,0.2c-0.2,0.1-0.5,0.2-0.7,0.3c-0.2,0.1-0.4,0.3-0.6,0.4
							c-0.2,0.1-0.5,0.2-0.7,0.3c-0.2,0.1-0.4,0.3-0.6,0.4c-0.2,0.2-0.4,0.4-0.5,0.5c-0.4,0.3-0.2,0.3-0.5,0.5c0,0-0.1,0-0.1,0
							c0.1-0.2,0.3-0.4,0.4-0.6c0.1-0.2,0.3-0.4,0.4-0.6c0.1-0.2,0.2-0.4,0.4-0.6c0.1-0.2,0.2-0.4,0.3-0.6c0.1-0.2,0.3-0.4,0.4-0.6
							c0.1-0.2,0.3-0.4,0.4-0.6c0.1-0.2,0.3-0.4,0.4-0.6c0.1-0.2,0.3-0.4,0.4-0.6c0.1-0.2,0.3-0.4,0.4-0.6c0.1-0.2,0.2-0.4,0.4-0.6
							c0.1-0.2,0.3-0.4,0.5-0.6c0.1-0.2,0.3-0.4,0.4-0.6c0.1-0.2,0.3-0.4,0.4-0.6c0.1-0.2,0.3-0.4,0.5-0.6c0.1-0.2,0.2-0.4,0.4-0.6
							c0.1-0.2,0.3-0.4,0.5-0.6c0.1-0.2,0.3-0.4,0.4-0.6c0.1-0.2,0.3-0.4,0.4-0.6c0.1-0.2,0.3-0.4,0.4-0.6c0.1-0.2,0.3-0.4,0.5-0.6
							c0.1-0.2,0.3-0.4,0.4-0.6c0.1-0.2,0.3-0.4,0.4-0.6c0.1-0.2,0.3-0.4,0.5-0.6c0.1-0.2,0.3-0.4,0.5-0.6c0.2-0.2,0.3-0.4,0.4-0.6
							c0.2-0.2,0.3-0.3,0.5-0.5c0.2-0.2,0.3-0.4,0.5-0.5c0.2-0.2,0.3-0.4,0.4-0.6c0.2-0.2,0.3-0.4,0.4-0.6c0.2-0.2,0.4-0.3,0.5-0.5
							c0.2-0.2,0.3-0.4,0.4-0.6c0.2-0.2,0.4-0.3,0.5-0.5c0.2-0.2,0.3-0.4,0.4-0.6c0.2-0.2,0.3-0.4,0.5-0.5c0.2-0.2,0.4-0.3,0.5-0.5
							c0.2-0.2,0.3-0.4,0.4-0.6c0.2-0.2,0.4-0.3,0.5-0.5c0.2-0.2,0.3-0.4,0.5-0.5c0.2-0.2,0.3-0.4,0.5-0.5c0.2-0.2,0.3-0.4,0.5-0.5
							c0.2-0.2,0.4-0.3,0.5-0.5c0.2-0.2,0.3-0.3,0.5-0.5c0.2-0.2,0.3-0.4,0.5-0.5c0.2-0.2,0.4-0.3,0.5-0.5c0.2-0.2,0.4-0.3,0.5-0.5
							c0.2-0.2,0.4-0.3,0.5-0.5c0.2-0.2,0.4-0.4,0.5-0.5c0.3-0.3,0.2-0.2,0.5-0.4C122.1,64.5,122.1,64.5,122.2,64.5z"/>
					</g>
				</g>
				<g>
					<g>
						<path class="st7" d="M87.7,194.9c0,0.2,0.1,0.5,0.2,0.7c0,0.2,0.1,0.5,0.1,0.7c0,0.2,0.1,0.5,0.1,0.7c0,0.2,0.1,0.5,0.1,0.7
							c0,0.2,0.1,0.5,0.1,0.7c0,0.2,0.1,0.5,0.1,0.7c0,0.2,0.1,0.5,0.2,0.7c0,0.2,0.1,0.5,0.1,0.7c0,0.2,0.1,0.5,0.1,0.7
							c0,0.2,0.1,0.5,0.2,0.7c0,0.2,0.1,0.5,0.2,0.7c0,0.2,0.1,0.5,0.1,0.7c0,0.2,0.1,0.5,0.1,0.7c0.1,0.2,0.1,0.5,0.2,0.7
							c0.1,0.2,0.1,0.5,0.2,0.7c0.1,0.2,0.2,0.5,0.2,0.7c0.1,0.2,0.1,0.5,0.1,0.7c0.1,0.2,0.1,0.5,0.1,0.7c0.1,0.2,0.1,0.5,0.2,0.7
							c0.1,0.2,0.1,0.5,0.1,0.7c0.1,0.2,0.1,0.5,0.1,0.7c0.1,0.2,0.1,0.5,0.2,0.7c0.1,0.2,0.2,0.5,0.2,0.7c0.1,0.2,0.1,0.5,0.1,0.7
							c0.1,0.2,0.1,0.5,0.2,0.7c0.1,0.2,0.2,0.5,0.3,0.7c0.1,0.2,0,0.5,0.1,0.7c0.1,0.2,0.2,0.5,0.2,0.7c0.1,0.2,0.1,0.5,0.2,0.7
							c0.1,0.2,0.1,0.5,0.2,0.7c0.1,0.2,0.2,0.5,0.3,0.7c0.1,0.2,0.1,0.5,0.2,0.7c0.1,0.2,0.2,0.5,0.2,0.7c0.1,0.2,0.1,0.5,0.1,0.7
							c0.1,0.2,0.2,0.4,0.3,0.7c0.1,0.2,0.1,0.5,0.2,0.7c0.1,0.2,0.1,0.5,0.1,0.7c0.1,0.2,0.2,0.4,0.3,0.7c0.1,0.2,0.1,0.5,0.1,0.7
							c0.1,0.2,0.1,0.5,0.2,0.7c0.1,0.2,0.1,0.5,0.2,0.7c0.1,0.2,0.2,0.5,0.2,0.7c0.1,0.2,0.2,0.4,0.3,0.7c0.1,0.2,0.1,0.5,0.2,0.7
							c0.1,0.2,0.2,0.4,0.3,0.7c0.1,0.2,0.2,0.4,0.3,0.7c0.1,0.2,0.1,0.5,0.2,0.7c0.1,0.2,0.2,0.5,0.2,0.7c-0.2,0-0.5,0-0.8,0
							c-0.2,0-0.5,0-0.7,0.1c-0.2,0-0.5,0-0.7,0c-0.2,0-0.5,0-0.7,0c-0.2,0-0.5,0.1-0.7,0.1c-0.2,0-0.5,0-0.7,0
							c-0.2,0-0.5,0-0.7,0.1c-0.2,0-0.5,0.2-0.7,0.2c-0.2,0-0.5,0-0.7,0c-0.2,0-0.5,0.1-0.7,0.2c-0.2,0-0.5,0.1-0.7,0.1
							c-0.2,0-0.5,0.2-0.7,0.2c-0.2,0.1-0.5,0-0.7,0.1c-0.2,0.1-0.4,0.2-0.7,0.3c-0.2,0.1-0.5,0.1-0.7,0.2c-0.2,0.1-0.5,0.2-0.7,0.2
							c-0.2,0.1-0.5,0.1-0.7,0.2c-0.2,0.1-0.5,0.1-0.7,0.2c-0.2,0.1-0.5,0.1-0.7,0.2c-0.2,0.1-0.4,0.2-0.7,0.3
							c-0.2,0.1-0.5,0.1-0.7,0.2c-0.2,0.1-0.4,0.2-0.6,0.3c-0.2,0.1-0.5,0.1-0.7,0.2c-0.2,0.1-0.4,0.2-0.6,0.3
							c-0.2,0.1-0.4,0.2-0.7,0.3c-0.2,0.1-0.5,0.2-0.7,0.3c-0.2,0.1-0.4,0.2-0.6,0.3c-0.2,0.1-0.4,0.2-0.7,0.3
							c-0.2,0.1-0.4,0.3-0.6,0.4c-0.2,0.1-0.4,0.2-0.6,0.3c-0.2,0.1-0.4,0.2-0.6,0.3c-0.2,0.1-0.4,0.2-0.6,0.3
							c-0.2,0.1-0.4,0.3-0.6,0.4c-0.2,0.1-0.4,0.2-0.6,0.3c-0.2,0.1-0.4,0.3-0.6,0.4c-0.2,0.1-0.4,0.2-0.6,0.3
							c-0.2,0.1-0.4,0.3-0.6,0.5c-0.2,0.1-0.4,0.2-0.6,0.4c-0.2,0.1-0.3,0.3-0.5,0.5c-0.2,0.1-0.4,0.2-0.6,0.4
							c-0.2,0.1-0.4,0.3-0.6,0.4c-0.2,0.1-0.4,0.3-0.6,0.5c-0.2,0.1-0.4,0.2-0.6,0.4c-0.2,0.1-0.4,0.3-0.6,0.4
							c-0.2,0.2-0.3,0.4-0.5,0.5c-0.2,0.2-0.4,0.3-0.6,0.4c-0.2,0.2-0.4,0.3-0.6,0.5c-0.2,0.2-0.3,0.3-0.5,0.5
							c-0.2,0.2-0.3,0.4-0.5,0.5c-0.2,0.2-0.4,0.3-0.6,0.4c-0.2,0.2-0.3,0.4-0.5,0.6c-0.2,0.2-0.4,0.3-0.6,0.4
							c-0.2,0.2-0.3,0.4-0.5,0.6c-0.2,0.2-0.3,0.3-0.5,0.5c-0.2,0.2-0.4,0.3-0.5,0.5c-0.2,0.2-0.3,0.4-0.5,0.5
							c-0.2,0.2-0.4,0.3-0.7,0.3c-0.3,0.1-0.5,0.1-0.8,0c-0.2-0.1-0.5-0.3-0.6-0.5c-0.1-0.2-0.3-0.5-0.2-0.7c0-0.2,0-0.5,0.1-0.7
							c0-0.2,0.1-0.5,0.1-0.7c0-0.2-0.1-0.5,0-0.7c0-0.2,0-0.5,0.1-0.7c0-0.2,0.1-0.5,0.1-0.7c0-0.2,0-0.5,0.1-0.7
							c0-0.2,0-0.5,0.1-0.7c0-0.2,0-0.5,0-0.7c0-0.2,0.1-0.5,0.1-0.7c0-0.2,0-0.5,0-0.7c0-0.2,0-0.5,0-0.7c0-0.2,0-0.5,0.1-0.7
							c0-0.2,0.1-0.5,0.2-0.7c0-0.2,0.1-0.5,0.1-0.7c0-0.2,0-0.5,0-0.7c0-0.2,0.1-0.5,0.1-0.7c0-0.2,0.1-0.5,0.1-0.7
							c0-0.2,0.1-0.5,0.2-0.7c0-0.2,0.2-0.5,0.2-0.7c0-0.2,0-0.5,0.1-0.7c0-0.2,0.1-0.5,0.2-0.7c0-0.2,0.1-0.5,0.2-0.7
							c0.1-0.2,0.1-0.5,0.2-0.7c0.1-0.2,0.1-0.5,0.1-0.7c0.1-0.2,0.2-0.5,0.2-0.7c0.1-0.2,0.1-0.5,0.2-0.7c0.1-0.2,0.1-0.5,0.2-0.7
							c0.1-0.2,0.1-0.5,0.2-0.7c0.1-0.2,0.1-0.5,0.2-0.7c0.1-0.2,0.2-0.4,0.2-0.7c0.1-0.2,0.1-0.5,0.1-0.7c0.1-0.2,0.2-0.5,0.2-0.7
							c0.1-0.2,0.2-0.4,0.3-0.7c0.1-0.2,0.1-0.5,0.2-0.7c0.1-0.2,0.2-0.4,0.3-0.7c0.1-0.2,0.2-0.4,0.3-0.7c0.1-0.2,0.1-0.5,0.2-0.7
							c0.1-0.2,0.2-0.4,0.3-0.6c0.1-0.2,0.1-0.5,0.2-0.7c0.1-0.2,0.3-0.4,0.3-0.6c0.1-0.2,0.1-0.5,0.2-0.7c0.1-0.2,0.3-0.4,0.4-0.6
							c0.1-0.2,0.2-0.4,0.3-0.6c0.1-0.2,0.2-0.4,0.3-0.6c0.1-0.2,0.2-0.4,0.3-0.6c0.1-0.2,0.2-0.4,0.3-0.6c0.1-0.2,0.2-0.4,0.4-0.6
							c0.1-0.2,0.3-0.4,0.4-0.6c0.1-0.2,0.2-0.4,0.3-0.6c0.1-0.2,0.3-0.4,0.4-0.6c0.1-0.2,0.3-0.4,0.4-0.6c0.1-0.2,0.2-0.4,0.4-0.6
							c0.1-0.2,0.3-0.4,0.4-0.6c0.1-0.2,0.3-0.4,0.5-0.5c0.1-0.2,0.3-0.4,0.4-0.6c0.1-0.2,0.3-0.4,0.5-0.5c0.1-0.2,0.3-0.4,0.4-0.6
							c0.2-0.2,0.3-0.4,0.4-0.6c0.2-0.2,0.4-0.3,0.5-0.5c0.2-0.2,0.3-0.4,0.5-0.5c0.2-0.2,0.3-0.4,0.5-0.5c0.2-0.2,0.3-0.3,0.5-0.5
							c0.2-0.2,0.3-0.3,0.5-0.5c0.2-0.2,0.4-0.3,0.5-0.5c0.2-0.2,0.3-0.4,0.5-0.5c0.2-0.2,0.4-0.3,0.5-0.5c0.2-0.2,0.4-0.3,0.5-0.5
							c0.2-0.2,0.4-0.3,0.6-0.4c0.2-0.2,0.4-0.3,0.5-0.5c0.2-0.1,0.4-0.3,0.6-0.4c0.2-0.1,0.4-0.2,0.6-0.4c0.2-0.1,0.4-0.3,0.6-0.5
							c0.2-0.1,0.4-0.3,0.6-0.4c0.2-0.1,0.4-0.3,0.6-0.4c0.2-0.1,0.4-0.2,0.6-0.3c0.2-0.1,0.4-0.3,0.6-0.4c0.2-0.1,0.4-0.3,0.6-0.4
							c0.2-0.1,0.4-0.3,0.6-0.4c0.2-0.1,0.4-0.2,0.6-0.3c0.2-0.1,0.5-0.2,0.7-0.3c0.2-0.1,0.4-0.2,0.6-0.3c0.2-0.1,0.5-0.2,0.7-0.2
							c0.2-0.1,0.4-0.2,0.6-0.3c0.2-0.1,0.5-0.1,0.7-0.2c0.3-0.1,0.5-0.2,0.7-0.2C87.5,195,87.4,195,87.7,194.9
							C87.7,194.9,87.7,194.9,87.7,194.9z"/>
					</g>
				</g>
			</g>
			<g>
				<g>
					<g>
						<path class="st7" d="M186.5,243.6c-0.3,0-0.6,0-0.9-0.1c-0.3-0.1-0.5-0.3-0.7-0.6c-0.2-0.2-0.3-0.4-0.5-0.5
							c-0.2-0.2-0.4-0.3-0.5-0.5c-0.2-0.2-0.3-0.4-0.5-0.5c-0.2-0.2-0.4-0.3-0.6-0.4c-0.2-0.2-0.3-0.4-0.5-0.6
							c-0.2-0.2-0.4-0.3-0.6-0.4c-0.2-0.2-0.3-0.4-0.5-0.5c-0.2-0.2-0.4-0.3-0.5-0.5c-0.2-0.2-0.4-0.3-0.6-0.5
							c-0.2-0.2-0.4-0.3-0.6-0.4c-0.2-0.2-0.3-0.4-0.5-0.5c-0.2-0.2-0.3-0.3-0.5-0.5c-0.2-0.1-0.4-0.3-0.6-0.4
							c-0.2-0.1-0.4-0.3-0.5-0.5c-0.2-0.1-0.4-0.2-0.6-0.4c-0.2-0.1-0.4-0.3-0.6-0.5c-0.2-0.1-0.4-0.2-0.6-0.4
							c-0.2-0.1-0.3-0.3-0.5-0.5c-0.2-0.1-0.4-0.3-0.6-0.4c-0.2-0.1-0.4-0.2-0.6-0.3c-0.2-0.1-0.4-0.3-0.6-0.4
							c-0.2-0.1-0.4-0.3-0.6-0.4c-0.2-0.1-0.4-0.2-0.6-0.4c-0.2-0.1-0.4-0.2-0.6-0.3c-0.2-0.1-0.4-0.3-0.6-0.4
							c-0.2-0.1-0.4-0.3-0.6-0.4c-0.2-0.1-0.4-0.2-0.6-0.4c-0.2-0.1-0.4-0.2-0.6-0.3c-0.2-0.1-0.5-0.1-0.7-0.3
							c-0.2-0.1-0.4-0.3-0.6-0.4c-0.2-0.1-0.4-0.2-0.7-0.3c-0.2-0.1-0.4-0.2-0.7-0.3c-0.2-0.1-0.4-0.3-0.6-0.3
							c-0.2-0.1-0.5-0.1-0.7-0.2c-0.2-0.1-0.4-0.2-0.7-0.3c-0.2-0.1-0.5-0.2-0.7-0.2c-0.2-0.1-0.4-0.2-0.7-0.3
							c-0.2-0.1-0.5-0.1-0.7-0.2c-0.2-0.1-0.5-0.1-0.7-0.2c-0.2-0.1-0.5-0.1-0.7-0.2c-0.2-0.1-0.5-0.1-0.7-0.2
							c-0.2-0.1-0.5-0.1-0.7-0.2c-0.2-0.1-0.4-0.2-0.7-0.3c-0.2-0.1-0.5,0-0.7-0.1c-0.2-0.1-0.5-0.2-0.7-0.2c-0.2,0-0.5-0.1-0.7-0.1
							c-0.2,0-0.5,0-0.7-0.1c-0.2,0-0.5-0.1-0.7-0.1c-0.2,0-0.5-0.1-0.7-0.2c-0.2,0-0.5-0.1-0.7-0.1c-0.2,0-0.5,0-0.7-0.1
							c-0.2,0-0.5,0-0.7-0.1c-0.2,0-0.5,0-0.7,0c-0.2,0-0.5,0-0.7,0c-0.2,0-0.5,0-0.7,0c-0.2,0-0.5-0.1-0.6-0.3
							c-0.2-0.2-0.2-0.4-0.2-0.6c0-0.2,0-0.5,0.2-0.6c0.2-0.2,0.4-0.2,0.6-0.2c0.2,0,0.5,0.1,0.7,0.1c0.2,0,0.5-0.1,0.7-0.1
							c0.2,0,0.5,0.1,0.7,0.1c0.2,0,0.5,0.1,0.7,0.1c0.2,0,0.5,0,0.7,0c0.2,0,0.5,0,0.7,0.1c0.2,0,0.5,0.1,0.7,0.1
							c0.2,0,0.5,0.1,0.7,0.1c0.2,0,0.5,0,0.7,0.1c0.2,0,0.5,0.2,0.7,0.2c0.2,0,0.5,0,0.7,0.1c0.2,0,0.5,0.1,0.7,0.2
							c0.2,0.1,0.5,0.1,0.7,0.1c0.2,0.1,0.5,0.1,0.7,0.2c0.2,0.1,0.5,0.1,0.7,0.2c0.2,0.1,0.5,0.2,0.7,0.2c0.2,0.1,0.5,0.1,0.7,0.2
							c0.2,0.1,0.5,0.2,0.7,0.2c0.2,0.1,0.4,0.2,0.7,0.3c0.2,0.1,0.5,0.1,0.7,0.2c0.2,0.1,0.5,0.2,0.7,0.3c0.2,0.1,0.4,0.2,0.7,0.3
							c0.2,0.1,0.5,0.1,0.7,0.2c0.2,0.1,0.4,0.3,0.6,0.4c0.2,0.1,0.5,0.2,0.7,0.3c0.2,0.1,0.5,0.2,0.7,0.3c0.2,0.1,0.4,0.2,0.6,0.3
							c0.2,0.1,0.4,0.2,0.6,0.3c0.2,0.1,0.5,0.2,0.7,0.3c0.2,0.1,0.4,0.3,0.6,0.4c0.2,0.1,0.4,0.2,0.6,0.3c0.2,0.1,0.4,0.2,0.6,0.3
							c0.2,0.1,0.4,0.2,0.6,0.4c0.2,0.1,0.4,0.2,0.6,0.3c0.2,0.1,0.4,0.3,0.6,0.4c0.2,0.1,0.4,0.3,0.6,0.4c0.2,0.1,0.4,0.2,0.6,0.3
							c0.2,0.1,0.4,0.3,0.6,0.4c0.2,0.1,0.4,0.3,0.6,0.5c0.2,0.1,0.4,0.2,0.6,0.4c0.2,0.1,0.3,0.4,0.5,0.5c0.2,0.1,0.4,0.3,0.6,0.4
							c0.2,0.1,0.4,0.2,0.6,0.4c0.2,0.1,0.4,0.3,0.5,0.5c0.2,0.2,0.4,0.3,0.6,0.5c0.2,0.2,0.4,0.3,0.6,0.4c0.2,0.2,0.3,0.4,0.5,0.5
							c0.2,0.2,0.4,0.3,0.6,0.4c0.2,0.2,0.4,0.3,0.6,0.5c0.2,0.2,0.4,0.3,0.5,0.5c0.2,0.2,0.3,0.3,0.5,0.5c0.2,0.2,0.3,0.4,0.5,0.5
							c0.2,0.2,0.4,0.3,0.6,0.4c0.2,0.2,0.3,0.3,0.5,0.5c0.2,0.2,0.3,0.3,0.5,0.5c0.2,0.2,0.3,0.4,0.5,0.5c0.2,0.2,0.3,0.4,0.5,0.5
							c0.2,0.2,0.4,0.1,0.5,0.1c0.1,0,0.3-0.1,0.3-0.4c0-0.2-0.1-0.5-0.1-0.7c0-0.2,0-0.5,0-0.7c0-0.2,0-0.5,0-0.7
							c0-0.2-0.1-0.5-0.1-0.7c0-0.2,0-0.5,0-0.7c0-0.2,0-0.5-0.1-0.7c0-0.2,0.1-0.5,0-0.7c0-0.2-0.1-0.5-0.1-0.7
							c0-0.2,0-0.5-0.1-0.7c0-0.2,0-0.5-0.1-0.7c0-0.2-0.1-0.5-0.1-0.7c0-0.2-0.1-0.5-0.2-0.7c0-0.2,0-0.5,0-0.7
							c0-0.2-0.1-0.5-0.1-0.7c0-0.2-0.1-0.5-0.2-0.7c0-0.2,0-0.5-0.1-0.7c0-0.2,0-0.5-0.1-0.7c0-0.2-0.1-0.5-0.1-0.7
							c0-0.2-0.1-0.5-0.2-0.7c0-0.2,0-0.5-0.1-0.7c0-0.2-0.2-0.5-0.2-0.7c-0.1-0.2,0-0.5-0.1-0.7c-0.1-0.2-0.1-0.5-0.2-0.7
							c-0.1-0.2-0.1-0.5-0.1-0.7c-0.1-0.2-0.1-0.5-0.2-0.7c-0.1-0.2-0.2-0.4-0.3-0.7c-0.1-0.2,0-0.5-0.1-0.7
							c-0.1-0.2-0.1-0.5-0.2-0.7c-0.1-0.2-0.2-0.4-0.3-0.7c-0.1-0.2-0.1-0.5-0.1-0.7c-0.1-0.2-0.2-0.5-0.3-0.7
							c-0.1-0.2-0.2-0.5-0.3-0.7c-0.1-0.2-0.2-0.4-0.3-0.7c-0.1-0.2-0.1-0.5-0.2-0.7c-0.1-0.2-0.2-0.4-0.3-0.7
							c-0.1-0.2-0.2-0.4-0.3-0.7c-0.1-0.2-0.1-0.5-0.2-0.7c-0.1-0.2-0.2-0.4-0.3-0.7c-0.1-0.2-0.1-0.5-0.2-0.7
							c-0.1-0.2-0.3-0.4-0.4-0.6c-0.1-0.2-0.1-0.5-0.2-0.7c-0.1-0.2-0.2-0.4-0.3-0.6c-0.1-0.2-0.2-0.4-0.3-0.6
							c-0.1-0.2-0.3-0.4-0.4-0.6c-0.1-0.2-0.2-0.4-0.3-0.6c-0.1-0.2-0.2-0.4-0.4-0.6c-0.1-0.2-0.2-0.4-0.4-0.6
							c-0.1-0.2-0.2-0.4-0.3-0.6c-0.1-0.2-0.3-0.4-0.4-0.6c-0.1-0.2-0.3-0.4-0.4-0.6c-0.1-0.2-0.2-0.4-0.4-0.6
							c-0.1-0.2-0.3-0.4-0.4-0.6c-0.1-0.2-0.3-0.4-0.4-0.6c-0.1-0.2-0.3-0.4-0.4-0.6c-0.1-0.2-0.3-0.4-0.4-0.6
							c-0.1-0.2-0.3-0.4-0.5-0.5c-0.2-0.2-0.3-0.3-0.5-0.5c-0.2-0.2-0.3-0.4-0.5-0.6c-0.2-0.2-0.3-0.4-0.5-0.6
							c-0.2-0.2-0.3-0.4-0.5-0.6c-0.2-0.2-0.3-0.3-0.5-0.5c-0.2-0.2-0.4-0.3-0.5-0.5c-0.2-0.2-0.4-0.3-0.5-0.5
							c-0.2-0.2-0.3-0.4-0.5-0.6c-0.2-0.2-0.4-0.3-0.6-0.4c-0.2-0.2-0.3-0.3-0.5-0.5c-0.2-0.2-0.4-0.3-0.6-0.4
							c-0.2-0.2-0.4-0.3-0.6-0.4c-0.2-0.1-0.4-0.3-0.5-0.5c-0.2-0.1-0.4-0.3-0.6-0.4c-0.2-0.1-0.4-0.3-0.6-0.4
							c-0.2-0.1-0.4-0.3-0.6-0.4c-0.2-0.1-0.4-0.3-0.6-0.4c-0.2-0.1-0.5-0.2-0.7-0.3c-0.2-0.1-0.4-0.3-0.6-0.4
							c-0.2-0.1-0.4-0.3-0.6-0.4c-0.2-0.1-0.5-0.2-0.7-0.3c-0.2-0.1-0.4-0.3-0.6-0.4c-0.2-0.1-0.5-0.1-0.7-0.2
							c-0.2-0.1-0.4-0.2-0.6-0.3c-0.2-0.1-0.4-0.2-0.6-0.3c-0.2-0.1-0.5-0.2-0.7-0.3c-0.3-0.1-0.5-0.1-0.7-0.2
							c-0.4-0.1-0.7-0.2-0.7-0.2c-0.2-0.1-0.4-0.2-0.5-0.4c-0.1-0.2-0.2-0.4-0.2-0.6c0.1-0.2,0.2-0.4,0.4-0.5
							c0.2-0.1,0.4-0.2,0.7-0.1c0,0,0.2,0.2,0.7,0.3c0.2,0.1,0.4,0.1,0.7,0.2c0.2,0.1,0.4,0.2,0.6,0.3c0.2,0.1,0.5,0.1,0.7,0.2
							c0.2,0.1,0.4,0.2,0.7,0.3c0.2,0.1,0.4,0.2,0.6,0.3c0.2,0.1,0.4,0.2,0.6,0.3c0.2,0.1,0.4,0.2,0.7,0.3c0.2,0.1,0.4,0.3,0.6,0.4
							c0.2,0.1,0.4,0.3,0.6,0.4c0.2,0.1,0.4,0.2,0.6,0.4c0.2,0.1,0.4,0.2,0.6,0.4c0.2,0.1,0.4,0.3,0.6,0.4c0.2,0.1,0.4,0.3,0.6,0.4
							c0.2,0.1,0.4,0.3,0.6,0.4c0.2,0.1,0.4,0.2,0.6,0.4c0.2,0.1,0.3,0.3,0.5,0.5c0.2,0.1,0.4,0.2,0.6,0.4c0.2,0.1,0.3,0.3,0.5,0.5
							c0.2,0.2,0.4,0.3,0.6,0.5c0.2,0.2,0.3,0.4,0.5,0.5c0.2,0.2,0.4,0.3,0.6,0.4c0.2,0.2,0.3,0.3,0.5,0.5c0.2,0.2,0.4,0.3,0.5,0.5
							c0.2,0.2,0.3,0.4,0.5,0.6c0.2,0.2,0.3,0.3,0.5,0.5c0.2,0.2,0.4,0.3,0.5,0.5c0.2,0.2,0.3,0.4,0.5,0.6c0.2,0.2,0.3,0.4,0.4,0.6
							c0.2,0.2,0.3,0.4,0.5,0.6c0.1,0.2,0.4,0.3,0.5,0.5c0.1,0.2,0.3,0.4,0.4,0.6c0.1,0.2,0.3,0.4,0.4,0.6c0.1,0.2,0.4,0.3,0.5,0.5
							c0.1,0.2,0.2,0.4,0.4,0.6c0.1,0.2,0.3,0.4,0.4,0.6c0.1,0.2,0.2,0.4,0.4,0.6c0.1,0.2,0.3,0.4,0.4,0.6c0.1,0.2,0.2,0.4,0.3,0.6
							c0.1,0.2,0.3,0.4,0.4,0.6c0.1,0.2,0.2,0.4,0.3,0.6c0.1,0.2,0.2,0.4,0.3,0.6c0.1,0.2,0.3,0.4,0.4,0.6c0.1,0.2,0.2,0.5,0.3,0.7
							c0.1,0.2,0.3,0.4,0.4,0.6c0.1,0.2,0.1,0.5,0.2,0.7c0.1,0.2,0.2,0.4,0.3,0.6c0.1,0.2,0.2,0.4,0.3,0.6c0.1,0.2,0.2,0.4,0.3,0.7
							c0.1,0.2,0.1,0.5,0.2,0.7c0.1,0.2,0.2,0.4,0.3,0.6c0.1,0.2,0.2,0.4,0.3,0.7c0.1,0.2,0.1,0.5,0.2,0.7c0.1,0.2,0.2,0.4,0.3,0.7
							c0.1,0.2,0.1,0.5,0.2,0.7c0.1,0.2,0.2,0.5,0.2,0.7c0.1,0.2,0.1,0.5,0.2,0.7c0.1,0.2,0.1,0.5,0.2,0.7c0.1,0.2,0.1,0.5,0.2,0.7
							c0.1,0.2,0.2,0.5,0.2,0.7c0.1,0.2,0.1,0.5,0.1,0.7c0.1,0.2,0.2,0.5,0.2,0.7c0.1,0.2,0.1,0.5,0.2,0.7c0.1,0.2,0.1,0.5,0.1,0.7
							c0.1,0.2,0.2,0.5,0.2,0.7c0.1,0.2,0,0.5,0.1,0.7c0,0.2,0.1,0.5,0.2,0.7c0,0.2,0.1,0.5,0.2,0.7c0,0.2,0.1,0.5,0.1,0.7
							c0,0.2,0.1,0.5,0.1,0.7c0,0.2,0.1,0.5,0.1,0.7c0,0.2,0.1,0.5,0.1,0.7c0,0.2,0.1,0.5,0.1,0.7c0,0.2,0,0.5,0.1,0.7
							c0,0.2,0.1,0.5,0.1,0.7c0,0.2,0,0.5,0.1,0.7c0,0.2,0,0.5,0.1,0.7c0,0.2,0.1,0.5,0.1,0.7c0,0.2,0,0.5,0.1,0.7
							c0,0.2,0,0.5,0.1,0.7c0,0.2,0.1,0.5,0.1,0.7c0,0.2,0.1,0.5,0.1,0.7c0,0.2,0,0.5,0.1,0.7c0,0.2,0.1,0.5,0.1,0.7
							c0,0.2,0,0.5,0,0.7c0,0.2,0.1,0.5,0.1,0.7c0,0.2-0.1,0.5-0.1,0.7c0,0.2,0,0.4-0.1,0.6c-0.1,0.2-0.1,0.4-0.2,0.6
							c-0.1,0.2-0.3,0.3-0.5,0.4c-0.2,0.1-0.3,0.3-0.5,0.4C187.1,243.6,186.8,243.6,186.5,243.6z"/>
					</g>
				</g>
				<g>
					<g>
						<path class="st4" d="M101.1,239.2c-0.1,0-0.2,0.1-0.2,0.1c-0.3,0-0.5-0.1-0.8-0.2c-0.2-0.1-0.4-0.4-0.5-0.6
							c-0.2-0.2-0.2-0.4-0.3-0.7c-0.1-0.2-0.2-0.4-0.3-0.6c-0.1-0.2-0.2-0.4-0.3-0.6c-0.1-0.2-0.3-0.4-0.4-0.6
							c-0.1-0.2-0.3-0.4-0.4-0.6c-0.1-0.2,0-0.5-0.1-0.7c-0.1-0.2-0.3-0.4-0.4-0.6c-0.1-0.2-0.3-0.4-0.4-0.6c-0.1-0.2,0-0.5-0.1-0.7
							c-0.1-0.2-0.3-0.4-0.4-0.6c-0.1-0.2-0.1-0.5-0.2-0.7c-0.1-0.2,0-0.5-0.1-0.7c-0.1-0.2-0.4-0.4-0.5-0.6
							c-0.1-0.2-0.1-0.5-0.2-0.7c-0.1-0.2-0.2-0.4-0.3-0.6c-0.1-0.2-0.1-0.5-0.2-0.7c-0.1-0.2,0-0.5-0.1-0.7
							c-0.1-0.2-0.3-0.4-0.4-0.6c-0.1-0.2,0-0.5-0.1-0.7c-0.1-0.2-0.4-0.4-0.5-0.6c-0.1-0.2-0.2-0.5-0.2-0.7c-0.1-0.2,0-0.5-0.1-0.7
							c-0.1-0.2-0.2-0.4-0.3-0.6c-0.1-0.2-0.1-0.5-0.1-0.7c-0.1-0.2-0.3-0.4-0.3-0.6c-0.1-0.2,0-0.5-0.1-0.7
							c-0.1-0.2-0.1-0.5-0.2-0.7c-0.1-0.2-0.1-0.5-0.2-0.7c-0.1-0.2-0.3-0.4-0.4-0.6c-0.1-0.2-0.2-0.4-0.2-0.7
							c-0.1-0.2,0.1-0.5,0-0.7c-0.1-0.2-0.1-0.5-0.2-0.7c-0.1-0.2-0.4-0.4-0.4-0.6c-0.1-0.2,0-0.5-0.1-0.7c-0.1-0.2-0.1-0.5-0.2-0.7
							c-0.1-0.2-0.2-0.4-0.3-0.7c-0.1-0.2-0.2-0.4-0.3-0.7c-0.1-0.2,0-0.5,0-0.7c-0.1-0.2-0.2-0.4-0.3-0.7c-0.1-0.2-0.1-0.5-0.2-0.7
							c-0.1-0.2,0.1-0.5,0-0.7c-0.1-0.2-0.2-0.4-0.2-0.7c-0.1-0.2-0.3-0.4-0.3-0.7c-0.1-0.2,0.1-0.5,0.1-0.8
							c-0.1-0.2-0.3-0.4-0.4-0.6c-0.1-0.2-0.2-0.4-0.3-0.7c-0.1-0.2,0.1-0.5,0-0.7c-0.1-0.2,0-0.5-0.1-0.7c-0.1-0.2-0.3-0.4-0.4-0.6
							c-0.1-0.2-0.2-0.5-0.2-0.7c-0.1-0.2,0.1-0.5,0-0.7c-0.1-0.2,0-0.5,0-0.7c-0.1-0.2-0.2-0.4-0.2-0.7c-0.1-0.2-0.3-0.4-0.3-0.7
							c-0.1-0.2,0-0.5,0-0.7c0-0.2-0.1-0.5-0.1-0.7c0-0.2-0.1-0.5-0.2-0.7c0-0.2,0-0.5,0-0.7c0-0.2-0.4-0.4-0.4-0.6
							c0-0.2,0.1-0.5,0-0.7c0-0.2-0.1-0.5-0.1-0.7c0-0.2,0-0.5,0-0.7c0-0.2-0.3-0.4-0.4-0.7c0-0.2,0.1-0.5,0.1-0.7
							c0-0.2-0.1-0.5-0.2-0.7c0-0.2-0.2-0.4-0.2-0.7s0.1-0.5,0.1-0.7c0-0.2-0.2-0.5-0.2-0.7c0-0.2-0.2-0.5-0.2-0.7
							c0-0.2,0-0.5,0-0.7c0-0.2,0-0.5,0-0.7c0-0.2-0.1-0.5-0.1-0.7c0-0.2,0-0.5,0-0.7c0-0.2-0.1-0.5-0.2-0.7c0-0.2,0-0.5,0-0.7
							c0-0.2-0.1-0.5-0.1-0.7c0-0.2,0-0.5,0-0.7c0-0.2-0.2-0.5-0.3-0.7c0-0.2-0.1-0.5-0.2-0.7c0-0.2,0-0.5,0-0.7
							c0-0.2,0.1-0.5,0.1-0.7c0-0.2-0.1-0.5-0.2-0.7c0-0.2-0.1-0.5-0.1-0.7c0-0.2,0-0.5,0-0.7c0-0.2-0.3-0.4-0.4-0.7
							c0-0.2,0-0.5,0-0.7c0-0.2-0.1-0.5-0.1-0.7c0-0.2-0.1-0.5-0.1-0.7c0-0.2,0-0.5-0.1-0.7c0-0.2,0.2-0.5,0.2-0.7
							c0-0.2-0.3-0.5-0.4-0.7c0-0.2,0.2-0.5,0.2-0.7c0-0.2-0.3-0.5-0.3-0.7c0-0.2,0.1-0.5,0-0.7c0-0.2-0.2-0.5-0.2-0.7
							c0-0.2,0.1-0.5,0-0.7c0-0.2,0.1-0.5,0.1-0.7c0-0.2-0.2-0.5-0.2-0.7c0-0.2,0-0.5-0.1-0.7c0-0.2,0.1-0.5,0.1-0.7
							c0-0.2,0-0.5-0.1-0.7c0-0.2-0.1-0.5-0.1-0.7c0-0.2,0.1-0.5,0-0.7c0-0.2-0.2-0.5-0.2-0.7c0-0.2,0.1-0.5,0.1-0.7
							c0-0.2-0.1-0.5-0.1-0.7c0-0.2,0.2-0.5,0.2-0.7c0-0.2-0.3-0.5-0.3-0.7c0-0.2,0.2-0.5,0.2-0.7c0-0.2,0-0.5,0-0.7
							c0-0.2-0.1-0.5-0.1-0.7c0-0.2,0.1-0.5,0.1-0.7c0-0.2-0.1-0.5-0.1-0.7c0-0.2,0-0.5,0-0.7c0-0.2,0.1-0.5,0.1-0.7
							c0-0.2-0.1-0.5-0.1-0.7c0-0.2-0.1-0.5-0.1-0.7c0-0.2,0.1-0.5,0.1-0.7c0-0.2-0.3-0.5-0.3-0.7c0-0.2,0-0.5,0-0.7
							s0.3-0.5,0.3-0.7c0-0.2-0.2-0.5-0.2-0.7c0-0.2,0.1-0.5,0.1-0.7s-0.1-0.5-0.1-0.7c0-0.2,0-0.5,0-0.7c0-0.2,0-0.5,0-0.7
							c0-0.2,0.2-0.5,0.2-0.7c0-0.2-0.2-0.5-0.2-0.7c0-0.2,0.2-0.5,0.2-0.7c0-0.2-0.2-0.5-0.2-0.7c0-0.2,0.2-0.5,0.3-0.7
							c0-0.2-0.2-0.5-0.2-0.7c0-0.2-0.1-0.5,0-0.7c0-0.2,0.3-0.5,0.4-0.7c0-0.2-0.2-0.5-0.2-0.7c0-0.2,0.1-0.5,0.1-0.7
							c0-0.2,0.2-0.5,0.2-0.7c0-0.2-0.1-0.5-0.1-0.7c0-0.2,0.2-0.5,0.2-0.7c0-0.2-0.2-0.5-0.2-0.7c0-0.2,0.2-0.5,0.2-0.7
							c0-0.2,0.2-0.5,0.2-0.7c0-0.2-0.2-0.5-0.2-0.7c0-0.2,0.2-0.5,0.3-0.7c0-0.2,0.1-0.5,0.1-0.7c0-0.2-0.1-0.5-0.1-0.7
							c0-0.2,0.3-0.4,0.4-0.7c0-0.2-0.1-0.5,0-0.7c0-0.2,0.1-0.5,0.1-0.7c0-0.2-0.1-0.5,0-0.7c0-0.2,0.4-0.4,0.4-0.7
							c0-0.2-0.2-0.5-0.2-0.8c0-0.2,0.3-0.4,0.3-0.7c0-0.2,0-0.5,0-0.7c0-0.2,0-0.5,0.1-0.7s0-0.5,0-0.7c0-0.2,0.4-0.4,0.4-0.6
							c0-0.2,0-0.5,0.1-0.7c0.1-0.2,0.2-0.5,0.2-0.7c0.1-0.2,0.1-0.5,0.1-0.7c0.1-0.2-0.1-0.5-0.1-0.8c0.1-0.2,0.3-0.4,0.3-0.7
							c0.1-0.2,0.3-0.4,0.3-0.7c0.1-0.2-0.1-0.5,0-0.7c0.1-0.2,0.2-0.4,0.3-0.7c0.1-0.2-0.1-0.5,0-0.8c0.1-0.2,0.3-0.4,0.4-0.6
							c0.1-0.2,0.1-0.5,0.1-0.7c0.1-0.2,0.3-0.4,0.3-0.7c0.1-0.2,0-0.5,0.1-0.7c0.1-0.2,0.1-0.5,0.2-0.7c0.1-0.2,0-0.5,0.1-0.7
							c0.1-0.2,0.1-0.5,0.2-0.7c0.1-0.2,0.2-0.4,0.3-0.7c0.1-0.2,0.3-0.4,0.4-0.6c0.1-0.2,0-0.5,0.1-0.7c0.1-0.2,0.3-0.4,0.4-0.6
							c0.1-0.2,0.1-0.5,0.2-0.7c0.1-0.2,0.1-0.5,0.2-0.7c0.1-0.2,0.1-0.5,0.2-0.7c0.1-0.2,0.4-0.3,0.5-0.6c0.1-0.2,0.2-0.5,0.2-0.7
							c0.1-0.2,0-0.5,0.1-0.7c0.1-0.2,0-0.5,0.1-0.7c0.1-0.2,0.2-0.4,0.3-0.7c0.1-0.2,0.2-0.4,0.3-0.7c0.1-0.2,0.3-0.4,0.4-0.6
							c0.1-0.2,0.1-0.5,0.1-0.7c0.1-0.2,0.4-0.4,0.5-0.6c0.1-0.2,0.2-0.4,0.3-0.7c0.1-0.2,0.2-0.4,0.3-0.7c0.1-0.2,0-0.5,0.1-0.7
							c0.1-0.2,0.2-0.4,0.3-0.7c0.1-0.2,0.3-0.4,0.4-0.6c0.1-0.2,0.2-0.4,0.3-0.7c0.1-0.2,0.1-0.5,0.2-0.7c0.1-0.2,0.4-0.4,0.5-0.6
							c0.1-0.2,0.3-0.4,0.4-0.6c0.1-0.2-0.1-0.6,0-0.8c0.1-0.2,0.5-0.3,0.6-0.5c0.1-0.2,0-0.5,0.2-0.7c0.1-0.2,0.4-0.3,0.5-0.6
							c0.1-0.2,0.2-0.5,0.3-0.7c0.1-0.2,0.2-0.5,0.3-0.7c0.1-0.2,0.3-0.4,0.4-0.6c0.1-0.2,0.1-0.5,0.2-0.7c0.1-0.2,0.3-0.4,0.4-0.6
							c0.1-0.2,0.1-0.5,0.2-0.7c0.1-0.2,0.2-0.4,0.3-0.6c0.1-0.2,0.2-0.4,0.3-0.6c0.1-0.2,0.3-0.4,0.4-0.6c0.1-0.2,0.3-0.4,0.4-0.6
							s0.3-0.4,0.4-0.6c0.1-0.2,0.5-0.3,0.6-0.5c0.1-0.2,0.1-0.5,0.2-0.7c0.1-0.2,0.4-0.3,0.5-0.5c0.1-0.2,0.3-0.4,0.4-0.6
							c0.1-0.2,0.2-0.4,0.3-0.6c0.1-0.2,0.2-0.4,0.4-0.6c0.1-0.2,0.2-0.5,0.3-0.7c0.1-0.2,0.4-0.3,0.5-0.5c0.1-0.2,0.2-0.4,0.4-0.6
							c0.1-0.2,0.3-0.4,0.4-0.6c0.1-0.2,0.2-0.5,0.3-0.7c0.1-0.2,0.3-0.4,0.4-0.6c0.1-0.2,0.2-0.4,0.4-0.6c0.1-0.2,0.4-0.3,0.5-0.5
							c0.1-0.2,0.3-0.4,0.4-0.6c0.1-0.2,0.2-0.5,0.3-0.7c0.1-0.2,0.5-0.2,0.7-0.4c0.1-0.2,0.1-0.6,0.2-0.7c0.1-0.2,0.4-0.3,0.5-0.5
							c0.1-0.2,0.4-0.3,0.6-0.5c0.1-0.2,0.2-0.5,0.3-0.6c0.1-0.2,0.3-0.4,0.5-0.5c0.1-0.2,0.3-0.4,0.4-0.6c0.2-0.2,0.2-0.4,0.4-0.6
							c0.2-0.2,0.3-0.4,0.5-0.6c0.2-0.2,0.4-0.3,0.6-0.4c0.2-0.2,0.2-0.5,0.4-0.6c0.2-0.2,0.3-0.4,0.5-0.5c0.2-0.2,0.3-0.4,0.4-0.6
							c0.2-0.2,0.4-0.3,0.6-0.5c0.2-0.2,0.3-0.4,0.4-0.6c0.2-0.2,0.4-0.3,0.6-0.5c0.2-0.2,0.3-0.4,0.5-0.6c0.2-0.2,0.2-0.5,0.3-0.7
							c0.2-0.2,0.4-0.3,0.6-0.5c0.2-0.2,0.2-0.4,0.4-0.6c0.2-0.2,0.5-0.2,0.7-0.4c0.2-0.2,0.2-0.5,0.4-0.6c0.2-0.2,0.5-0.2,0.6-0.4
							c0.2-0.2,0.2-0.5,0.4-0.7c0.2-0.2,0.4-0.3,0.6-0.4c0.2-0.2,0.3-0.4,0.5-0.5c0.2-0.2,0.4-0.3,0.5-0.5c0.2-0.2,0.4-0.3,0.5-0.5
							c0.2-0.2,0.3-0.4,0.4-0.6c0.2-0.2,0.5-0.2,0.6-0.4c0.2-0.2,0.3-0.4,0.5-0.6c0.3-0.3,0.5-0.5,0.5-0.5c0.1-0.1,0.1-0.1,0.3-0.1
							c0.5-0.1,0.5,0,1,0c0.2,0,0.1,0,0.3,0.1c0,0,0.3,0.1,0.6,0.4c0.1,0.1,0.4,0.2,0.6,0.4c0.2,0.1,0.2,0.4,0.4,0.6
							c0.2,0.2,0.4,0.3,0.5,0.5c0.2,0.2,0.4,0.2,0.6,0.4c0.2,0.2,0.2,0.5,0.4,0.6c0.2,0.2,0.4,0.3,0.5,0.5c0.2,0.2,0.4,0.3,0.5,0.5
							c0.2,0.2,0.3,0.3,0.5,0.5c0.2,0.2,0.3,0.4,0.5,0.5c0.2,0.2,0.2,0.4,0.4,0.6c0.2,0.2,0.3,0.3,0.5,0.5c0.2,0.2,0.5,0.2,0.7,0.4
							c0.2,0.2,0.3,0.3,0.5,0.5c0.2,0.2,0.2,0.5,0.3,0.7c0.2,0.2,0.4,0.2,0.6,0.4c0.2,0.2,0.2,0.5,0.3,0.7c0.2,0.2,0.5,0.2,0.6,0.4
							c0.2,0.2,0.1,0.5,0.3,0.7c0.2,0.2,0.4,0.3,0.6,0.5c0.2,0.2,0.3,0.3,0.5,0.5c0.2,0.2,0.3,0.4,0.4,0.6c0.2,0.2,0.3,0.3,0.5,0.5
							c0.2,0.2,0.2,0.5,0.3,0.7c0.1,0.2,0.4,0.3,0.5,0.5c0.1,0.2,0.4,0.3,0.6,0.5c0.1,0.2,0.1,0.5,0.3,0.7c0.1,0.2,0.3,0.4,0.4,0.6
							c0.1,0.2,0.4,0.3,0.5,0.5c0.1,0.2,0.3,0.4,0.4,0.6c0.1,0.2,0.4,0.3,0.6,0.5c0.1,0.2,0.1,0.6,0.2,0.7c0.1,0.2,0.4,0.3,0.5,0.5
							c0.1,0.2,0.4,0.3,0.5,0.5c0.1,0.2,0.2,0.5,0.3,0.7c0.1,0.2,0.4,0.3,0.5,0.5c0.1,0.2,0.3,0.4,0.4,0.6c0.1,0.2,0.1,0.5,0.2,0.7
							c0.1,0.2,0.4,0.3,0.5,0.5c0.1,0.2,0.3,0.3,0.5,0.6c0.1,0.2,0.1,0.5,0.3,0.7c0.1,0.2,0.3,0.4,0.5,0.6c0.1,0.2,0.2,0.4,0.4,0.6
							c0.1,0.2,0.1,0.5,0.3,0.7c0.1,0.2,0.3,0.4,0.5,0.6c0.1,0.2,0.5,0.3,0.6,0.5c0.1,0.2,0.1,0.5,0.2,0.7c0.1,0.2,0.3,0.4,0.5,0.6
							c0,0-0.1,0.1-0.1,0.2c0.1,0.2,0.3,0.4,0.4,0.6c0.1,0.2,0.3,0.4,0.5,0.6c0.1,0.2,0.1,0.5,0.2,0.7c0.1,0.2,0.2,0.4,0.3,0.6
							c0.1,0.2,0.4,0.3,0.5,0.5c0.1,0.2,0.2,0.4,0.3,0.7c0.1,0.2,0.3,0.4,0.4,0.6c0.1,0.2,0.2,0.4,0.3,0.7c0.1,0.2,0.1,0.5,0.3,0.7
							c0.1,0.2,0.3,0.4,0.4,0.6c0.1,0.2,0.1,0.5,0.2,0.7c0.1,0.2,0.4,0.4,0.5,0.6c0.1,0.2,0.3,0.4,0.4,0.6c0.1,0.2,0,0.5,0.1,0.8
							c0.1,0.2,0.4,0.3,0.5,0.5c0.1,0.2,0.2,0.4,0.3,0.6c0.1,0.2,0.2,0.4,0.3,0.7c0.1,0.2,0.1,0.5,0.2,0.7c0.1,0.2,0.3,0.4,0.4,0.6
							c0.1,0.2,0.2,0.4,0.3,0.6c0.1,0.2,0.2,0.5,0.3,0.7c0.1,0.2,0.1,0.5,0.2,0.7c0.1,0.2,0.3,0.4,0.4,0.6c0.1,0.2,0.2,0.4,0.3,0.7
							c0.1,0.2,0.1,0.5,0.2,0.7c0.1,0.2,0.3,0.4,0.4,0.6c0.1,0.2,0.2,0.4,0.3,0.7c0.1,0.2,0.1,0.5,0.2,0.7c0.1,0.2,0.3,0.4,0.4,0.6
							c0.1,0.2,0.1,0.5,0.2,0.7c0.1,0.2,0.2,0.4,0.3,0.7c0.1,0.2,0.1,0.5,0.2,0.7c0.1,0.2,0.2,0.4,0.3,0.7c0.1,0.2,0.2,0.5,0.2,0.7
							c0.1,0.2,0.1,0.5,0.2,0.7c0.1,0.2,0.3,0.4,0.4,0.6c0.1,0.2,0.1,0.5,0.2,0.7c0.1,0.2,0.1,0.5,0.2,0.7c0.1,0.2,0,0.5,0.1,0.7
							c0.1,0.2,0.2,0.4,0.3,0.7c0.1,0.2,0.1,0.5,0.2,0.7c0.1,0.2,0.2,0.4,0.3,0.7c0.1,0.2,0.3,0.4,0.4,0.6c0.1,0.2,0,0.5,0.1,0.7
							c0.1,0.2,0.2,0.4,0.2,0.7c0.1,0.2,0.2,0.4,0.3,0.7c0.1,0.2-0.1,0.5,0,0.8c0.1,0.2,0.2,0.5,0.2,0.7c0.1,0.2,0,0.5,0.1,0.7
							c0.1,0.2,0.3,0.4,0.3,0.7c0.1,0.2,0.1,0.5,0.1,0.7c0.1,0.2,0.2,0.4,0.3,0.7c0.1,0.2,0,0.5,0,0.7c0.1,0.2,0.3,0.4,0.4,0.7
							c0.1,0.2,0,0.5,0,0.7c0.1,0.2,0,0.5,0,0.7c0,0.2,0.3,0.4,0.3,0.7c0,0.2,0,0.5,0,0.7c0,0.2,0.1,0.5,0.1,0.7
							c0,0.2,0,0.5,0.1,0.7c0,0.2,0.2,0.4,0.3,0.7c0,0.2,0.2,0.5,0.2,0.7c0,0.2-0.1,0.5-0.1,0.7c0,0.2,0.2,0.4,0.3,0.7
							c0,0.2,0.1,0.5,0.1,0.7c0,0.2,0,0.5,0.1,0.7c0,0.2,0,0.5,0,0.7c0,0.2,0,0.5,0.1,0.7c0,0.2,0.2,0.5,0.2,0.7
							c0,0.2,0,0.5,0.1,0.7c0,0.2,0.1,0.5,0.1,0.7c0,0.2-0.1,0.5-0.1,0.7c0,0.2,0.1,0.5,0.1,0.7c0,0.2,0.1,0.5,0.2,0.7
							c0,0.2,0.1,0.5,0.1,0.7c0,0.2,0.2,0.5,0.2,0.7c0,0.2-0.1,0.5-0.1,0.7c0,0.2-0.1,0.5,0,0.7c0,0.2,0.2,0.5,0.2,0.7
							c0,0.2-0.1,0.5-0.1,0.7c0,0.2,0.2,0.5,0.2,0.7c0,0.2,0.1,0.5,0.1,0.7c0,0.2-0.1,0.5-0.1,0.7c0,0.2,0,0.5,0,0.7
							c0,0.2,0.2,0.5,0.2,0.7c0,0.2,0,0.5,0,0.7c0,0.2-0.1,0.5-0.1,0.7s-0.1,0.5-0.1,0.7s0.1,0.5,0.1,0.7c0,0.2,0.2,0.5,0.2,0.7
							c0,0.2-0.2,0.5-0.2,0.7c0,0.2-0.1,0.5-0.1,0.7c0,0.2,0.3,0.5,0.3,0.7c0,0.2-0.1,0.5-0.1,0.7c0,0.2-0.1,0.5-0.1,0.7
							c0,0.2,0.1,0.5,0.1,0.7c0,0.2,0,0.5,0,0.7c0,0.2-0.1,0.5-0.1,0.7c0,0.2,0,0.5,0,0.7c0,0.2-0.1,0.5-0.1,0.7
							c0,0.2,0.2,0.5,0.2,0.7c0,0.2-0.3,0.5-0.3,0.7c0,0.2,0,0.5,0,0.7c0,0.2,0.1,0.5,0.1,0.7c0,0.2-0.2,0.5-0.2,0.7
							c0,0.2,0.1,0.5,0.1,0.7c0,0.2,0.1,0.5,0.1,0.7c0,0.2-0.2,0.5-0.2,0.7c0,0.2,0,0.5-0.1,0.7c0,0.2,0.1,0.5,0.1,0.7
							c0,0.2,0,0.5-0.1,0.7c0,0.2-0.2,0.5-0.2,0.7c0,0.2,0,0.5,0,0.7c0,0.2,0,0.5,0,0.7c0,0.2-0.2,0.5-0.2,0.7
							c0,0.2,0.3,0.5,0.2,0.7c0,0.2-0.1,0.5-0.1,0.7c0,0.2-0.2,0.5-0.3,0.7c0,0.2,0,0.5,0,0.7c0,0.2-0.2,0.5-0.2,0.7
							c0,0.2,0.2,0.5,0.2,0.7c0,0.2-0.2,0.5-0.2,0.7c0,0.2-0.1,0.5-0.1,0.7c0,0.2,0.2,0.5,0.2,0.7c0,0.2-0.1,0.5-0.1,0.7
							c0,0.2-0.1,0.5-0.1,0.7c0,0.2-0.3,0.5-0.3,0.7c0,0.2,0,0.5,0,0.7c0,0.2,0.2,0.5,0.1,0.7c0,0.2-0.3,0.5-0.3,0.7
							c0,0.2,0.1,0.5,0.1,0.7c0,0.2-0.1,0.5-0.1,0.7c0,0.2,0,0.5,0,0.7c0,0.2-0.4,0.4-0.4,0.7c0,0.2,0,0.5-0.1,0.7
							c0,0.2-0.1,0.5-0.1,0.7c0,0.2,0.2,0.5,0.1,0.7c0,0.2-0.1,0.5-0.2,0.7c0,0.2-0.1,0.5-0.2,0.7c0,0.2,0,0.5-0.1,0.7
							c0,0.2-0.1,0.5-0.1,0.7c0,0.2-0.2,0.5-0.2,0.7c0,0.2,0.2,0.5,0.1,0.7c0,0.2-0.3,0.4-0.4,0.7c0,0.2-0.1,0.5-0.1,0.7
							c0,0.2,0.1,0.5,0.1,0.7c0,0.2-0.2,0.4-0.3,0.7c0,0.2-0.1,0.5-0.2,0.7c0,0.2,0.1,0.5,0,0.7c0,0.2,0.1,0.5,0,0.7
							c0,0.2-0.2,0.4-0.3,0.7c0,0.2-0.2,0.5-0.2,0.7c0,0.2,0,0.5-0.1,0.7c0,0.2,0,0.5-0.1,0.7c0,0.2-0.1,0.5-0.2,0.7
							c0,0.2-0.1,0.5-0.1,0.7c0,0.2,0,0.5,0,0.7c0,0.2-0.4,0.4-0.4,0.7c-0.1,0.2-0.1,0.5-0.2,0.7c-0.1,0.2,0.1,0.5,0.1,0.8
							c-0.1,0.2,0,0.5-0.1,0.7c-0.1,0.2-0.4,0.4-0.4,0.7c-0.1,0.2-0.1,0.5-0.2,0.7c-0.1,0.2,0,0.5,0,0.7c-0.1,0.2-0.3,0.4-0.3,0.7
							c-0.1,0.2,0.1,0.5,0.1,0.8c-0.1,0.2-0.2,0.4-0.3,0.7c-0.1,0.2-0.1,0.5-0.2,0.7c-0.1,0.2-0.1,0.5-0.1,0.7
							c-0.1,0.2-0.2,0.4-0.3,0.7c-0.1,0.2-0.1,0.5-0.2,0.7c-0.1,0.2-0.1,0.5-0.2,0.7c-0.1,0.2,0,0.5,0,0.8c-0.1,0.2-0.2,0.5-0.2,0.7
							c-0.1,0.2-0.1,0.5-0.2,0.7c-0.1,0.2-0.3,0.4-0.4,0.6c-0.1,0.2,0.1,0.5,0,0.8c-0.1,0.2-0.3,0.4-0.4,0.7c-0.1,0.2,0,0.5-0.1,0.7
							c-0.1,0.2-0.3,0.4-0.3,0.7c-0.1,0.2-0.1,0.5-0.2,0.7c-0.1,0.2,0,0.5-0.1,0.7c-0.1,0.2-0.3,0.4-0.4,0.6c-0.1,0.2,0.1,0.5,0,0.8
							c-0.1,0.2-0.3,0.4-0.4,0.6c-0.1,0.2,0,0.5-0.1,0.7c-0.1,0.2-0.2,0.4-0.3,0.7c-0.1,0.2-0.2,0.4-0.3,0.7
							c-0.1,0.2-0.2,0.5-0.2,0.7c-0.1,0.2,0,0.5-0.1,0.7c-0.1,0.2-0.2,0.4-0.3,0.7c-0.1,0.2-0.3,0.4-0.4,0.6
							c-0.1,0.2-0.1,0.5-0.1,0.7c-0.1,0.2-0.3,0.4-0.4,0.6c-0.1,0.2-0.1,0.5-0.2,0.7c-0.1,0.2-0.1,0.5-0.1,0.7
							c-0.1,0.2,0,0.5-0.1,0.8c-0.1,0.2-0.4,0.4-0.5,0.6c-0.1,0.2-0.1,0.5-0.2,0.7c-0.1,0.2-0.3,0.4-0.4,0.6c-0.1,0.2,0.1,0.6,0,0.8
							c-0.1,0.2-0.5,0.3-0.5,0.6c-0.1,0.2,0.1,0.6,0,0.8c-0.1,0.2-0.2,0.4-0.3,0.7c-0.1,0.2-0.4,0.4-0.5,0.6
							c-0.1,0.2-0.2,0.4-0.3,0.6c-0.1,0.2,0.1,0.6,0,0.8c-0.1,0.2-0.3,0.4-0.4,0.6c-0.1,0.2-0.4,0.4-0.5,0.6
							c-0.1,0.2-0.1,0.5-0.2,0.7c-0.1,0.2-0.2,0.4-0.3,0.7c-0.1,0.2-0.3,0.4-0.5,0.6c-0.2,0.2-0.3,0.4-0.5,0.5
							c-0.2,0.1-0.5,0.3-0.7,0.3c-0.3,0-0.5,0-0.8-0.1c-0.2-0.1-0.5-0.2-0.7-0.3c-0.2-0.1-0.3-0.4-0.5-0.6c-0.1-0.2-0.2-0.5-0.3-0.6
							c-0.1-0.2-0.5-0.2-0.7-0.4c-0.2-0.2-0.3-0.4-0.4-0.6c-0.2-0.2-0.2-0.5-0.3-0.7c-0.2-0.2-0.4-0.2-0.6-0.4
							c-0.2-0.2-0.3-0.4-0.4-0.6c-0.2-0.2-0.4-0.3-0.6-0.4c-0.2-0.2-0.4-0.3-0.6-0.4c-0.2-0.2-0.3-0.4-0.5-0.5
							c-0.2-0.1-0.4-0.3-0.6-0.4c-0.2-0.1-0.4-0.3-0.6-0.4c-0.2-0.1-0.4-0.3-0.6-0.4c-0.2-0.1-0.5-0.1-0.7-0.2
							c-0.2-0.1-0.4-0.3-0.6-0.4c-0.2-0.1-0.3-0.4-0.5-0.5c-0.2-0.1-0.5,0-0.7-0.1s-0.4-0.3-0.6-0.4c-0.2-0.1-0.4-0.2-0.7-0.3
							c-0.2-0.1-0.5-0.1-0.7-0.2c-0.2-0.1-0.5-0.2-0.7-0.2c-0.2-0.1-0.4-0.2-0.7-0.3c-0.2-0.1-0.4-0.4-0.6-0.4
							c-0.2-0.1-0.5-0.2-0.7-0.2c-0.2-0.1-0.5,0-0.7,0c-0.2-0.1-0.5-0.2-0.7-0.2c-0.2,0-0.5,0.1-0.7,0.1c-0.2,0-0.5-0.2-0.7-0.2
							c-0.2,0-0.5,0-0.7-0.1c-0.2,0-0.5,0.1-0.7,0.1c-0.2,0-0.5-0.3-0.7-0.3c-0.2,0-0.5,0-0.7,0c-0.2,0-0.5,0-0.7,0
							c-0.2,0-0.5,0-0.7,0c-0.2,0-0.5,0-0.7,0.1c-0.2,0-0.4,0.4-0.7,0.4c-0.2,0-0.5-0.2-0.8-0.2c-0.2,0-0.5,0-0.7,0.1
							c-0.2,0-0.4,0.4-0.7,0.4c-0.2,0.1-0.5,0.1-0.7,0.1c-0.2,0.1-0.5,0-0.7,0.1c-0.2,0.1-0.5,0-0.7,0.1c-0.2,0.1-0.4,0.3-0.6,0.4
							c-0.2,0.1-0.5,0-0.7,0.1c-0.2,0.1-0.5,0.2-0.7,0.3c-0.2,0.1-0.4,0.3-0.6,0.4c-0.2,0.1-0.5,0.1-0.7,0.2
							c-0.2,0.1-0.4,0.3-0.6,0.4c-0.2,0.1-0.4,0.2-0.6,0.3c-0.2,0.1-0.5,0.1-0.7,0.2c-0.2,0.1-0.4,0.3-0.6,0.4
							c-0.2,0.1-0.4,0.2-0.6,0.4c-0.2,0.1-0.4,0.3-0.6,0.4c-0.2,0.1-0.2,0.5-0.4,0.6c-0.2,0.1-0.3,0.3-0.5,0.5
							c-0.2,0.2-0.5,0.2-0.7,0.3c-0.2,0.2-0.4,0.3-0.6,0.5c-0.2,0.2-0.4,0.3-0.6,0.5c-0.2,0.2-0.2,0.5-0.3,0.7
							c-0.2,0.2-0.4,0.2-0.6,0.4c-0.2,0.2-0.2,0.5-0.4,0.7c-0.2,0.2-0.3,0.4-0.5,0.5c-0.1,0.2-0.3,0.4-0.4,0.6
							c-0.1,0.2-0.4,0.2-0.6,0.3c-0.2,0.1-0.3,0.3-0.5,0.4C101.5,239.1,101.3,239.2,101.1,239.2z M122.1,65.5
							c-0.1,0.1-0.2,0.4-0.4,0.6c-0.2,0.1-0.3,0.3-0.5,0.5c-0.2,0.1-0.4,0.2-0.6,0.4c-0.2,0.2-0.4,0.2-0.6,0.4
							c-0.2,0.2-0.3,0.3-0.5,0.5c-0.2,0.2-0.3,0.3-0.5,0.5c-0.2,0.2-0.3,0.4-0.4,0.6c-0.2,0.2-0.2,0.4-0.4,0.6
							c-0.2,0.2-0.5,0.2-0.7,0.4c-0.2,0.2-0.2,0.4-0.4,0.6c-0.2,0.2-0.2,0.4-0.4,0.6c-0.2,0.2-0.5,0.2-0.6,0.4
							c-0.2,0.2-0.2,0.5-0.3,0.6c-0.2,0.2-0.4,0.3-0.5,0.5c-0.2,0.2-0.4,0.2-0.6,0.4c-0.2,0.2-0.1,0.5-0.3,0.7
							c-0.2,0.2-0.3,0.3-0.5,0.5c-0.2,0.2-0.3,0.4-0.4,0.6c-0.2,0.2-0.4,0.3-0.5,0.5c-0.2,0.2-0.4,0.2-0.6,0.4
							c-0.2,0.2-0.2,0.5-0.3,0.6c-0.2,0.2-0.4,0.3-0.6,0.5c-0.1,0.2-0.1,0.5-0.2,0.7c-0.1,0.2-0.3,0.4-0.4,0.6
							c-0.1,0.2-0.4,0.3-0.5,0.5c-0.1,0.2-0.2,0.4-0.4,0.6c-0.1,0.2-0.4,0.3-0.5,0.5c-0.1,0.2-0.2,0.4-0.3,0.6
							c-0.1,0.2-0.4,0.3-0.5,0.5c-0.1,0.2-0.3,0.3-0.5,0.5c-0.1,0.2-0.3,0.3-0.5,0.5c-0.1,0.2-0.1,0.5-0.3,0.7
							c-0.1,0.2-0.3,0.4-0.4,0.6c-0.1,0.2-0.5,0.3-0.6,0.5c-0.1,0.2-0.3,0.4-0.4,0.6c-0.1,0.2-0.1,0.5-0.2,0.7
							c-0.1,0.2-0.4,0.3-0.5,0.5c-0.1,0.2-0.3,0.4-0.4,0.6c-0.1,0.2-0.2,0.5-0.3,0.7c-0.1,0.2-0.2,0.5-0.3,0.7
							c-0.1,0.2-0.4,0.3-0.5,0.5c-0.1,0.2-0.2,0.5-0.3,0.7c-0.1,0.2-0.3,0.4-0.4,0.6c-0.1,0.2-0.4,0.3-0.5,0.5
							c-0.1,0.2-0.2,0.4-0.3,0.7c-0.1,0.2-0.1,0.5-0.2,0.7c-0.1,0.2-0.5,0.3-0.6,0.5c-0.1,0.2-0.1,0.5-0.2,0.7
							c-0.1,0.2-0.2,0.5-0.3,0.7c-0.1,0.2-0.4,0.3-0.5,0.5c-0.1,0.2-0.3,0.4-0.5,0.6c-0.1,0.2,0,0.5-0.2,0.7
							c-0.1,0.2-0.2,0.4-0.3,0.7c-0.1,0.2-0.4,0.3-0.5,0.5c-0.1,0.2-0.3,0.4-0.5,0.6c-0.1,0.2-0.1,0.5-0.3,0.7
							c-0.1,0.2-0.1,0.5-0.2,0.7c-0.1,0.2-0.3,0.4-0.4,0.6c-0.1,0.2-0.2,0.4-0.3,0.6c-0.1,0.2-0.2,0.4-0.3,0.7
							c-0.1,0.2-0.3,0.4-0.4,0.6c-0.1,0.2,0,0.6-0.1,0.8c-0.1,0.2-0.4,0.3-0.5,0.6c-0.1,0.2-0.2,0.4-0.3,0.7
							c-0.1,0.2-0.3,0.4-0.4,0.6c-0.1,0.2,0,0.5-0.1,0.8c-0.1,0.2-0.4,0.4-0.5,0.6c-0.1,0.2-0.1,0.5-0.2,0.7
							c-0.1,0.2-0.1,0.5-0.2,0.7c-0.1,0.2-0.4,0.4-0.5,0.6c-0.1,0.2-0.1,0.5-0.2,0.7c-0.1,0.2-0.1,0.5-0.2,0.7
							c-0.1,0.2-0.3,0.4-0.4,0.6c-0.1,0.2-0.3,0.4-0.4,0.6c-0.1,0.2-0.1,0.5-0.2,0.7c-0.1,0.2-0.3,0.4-0.4,0.6
							c-0.1,0.2-0.1,0.5-0.2,0.7c-0.1,0.2-0.2,0.4-0.3,0.6c-0.1,0.2-0.1,0.5-0.2,0.7c-0.1,0.2-0.2,0.4-0.3,0.7
							c-0.1,0.2,0,0.5-0.1,0.7c-0.1,0.2-0.1,0.5-0.2,0.7c-0.1,0.2-0.2,0.4-0.3,0.7c-0.1,0.2-0.3,0.4-0.4,0.6
							c-0.1,0.2-0.1,0.5-0.2,0.7c-0.1,0.2-0.1,0.5-0.2,0.7c-0.1,0.2-0.2,0.4-0.3,0.7c-0.1,0.2,0.1,0.5,0,0.8
							c-0.1,0.2-0.2,0.4-0.3,0.7c-0.1,0.2-0.1,0.5-0.2,0.7c-0.1,0.2-0.1,0.5-0.2,0.7c-0.1,0.2-0.1,0.5-0.2,0.7
							c-0.1,0.2-0.4,0.4-0.4,0.6c-0.1,0.2,0.2,0.5,0.1,0.8c-0.1,0.2-0.4,0.4-0.4,0.6c-0.1,0.2,0.1,0.5,0,0.8
							c-0.1,0.2-0.2,0.4-0.3,0.7c-0.1,0.2,0.1,0.5,0,0.7c-0.1,0.2-0.2,0.4-0.3,0.7c-0.1,0.2-0.3,0.4-0.3,0.7c-0.1,0.2,0.1,0.5,0,0.7
							c-0.1,0.2-0.1,0.5-0.1,0.7c0,0.2-0.2,0.4-0.3,0.7c0,0.2-0.1,0.5-0.1,0.7c0,0.2,0,0.5-0.1,0.7s-0.2,0.5-0.2,0.7
							c0,0.2,0.1,0.5,0,0.7c0,0.2-0.2,0.5-0.2,0.7c0,0.2,0,0.5,0,0.7c0,0.2-0.3,0.4-0.4,0.7c0,0.2,0.2,0.5,0.2,0.8
							c0,0.2-0.3,0.4-0.3,0.7c0,0.2-0.1,0.5-0.1,0.7c0,0.2,0.1,0.5,0,0.7c0,0.2-0.2,0.5-0.2,0.7c0,0.2,0,0.5,0,0.7
							c0,0.2-0.1,0.5-0.1,0.7c0,0.2-0.2,0.5-0.2,0.7c0,0.2,0,0.5,0,0.7c0,0.2,0,0.5,0,0.7c0,0.2-0.1,0.5-0.2,0.7
							c0,0.2,0.2,0.5,0.2,0.7c0,0.2-0.1,0.5-0.1,0.7c0,0.2-0.3,0.5-0.3,0.7c0,0.2,0.2,0.5,0.2,0.7c0,0.2-0.2,0.5-0.2,0.7
							c0,0.2,0,0.5,0,0.7c0,0.2,0,0.5,0,0.7c0,0.2,0,0.5,0,0.7c0,0.2-0.2,0.5-0.2,0.7c0,0.2,0.2,0.5,0.2,0.7c0,0.2-0.2,0.5-0.2,0.7
							c0,0.2,0.2,0.5,0.2,0.7c0,0.2-0.2,0.5-0.2,0.7s0.2,0.5,0.2,0.7c0,0.2,0.1,0.5,0.1,0.7c0,0.2-0.3,0.5-0.3,0.7
							c0,0.2,0.3,0.5,0.3,0.7c0,0.2-0.1,0.5-0.1,0.7c0,0.2-0.1,0.5-0.1,0.7c0,0.2,0.2,0.5,0.2,0.7c0,0.2-0.1,0.5-0.1,0.7
							c0,0.2,0.3,0.5,0.3,0.7c0,0.2-0.1,0.5-0.1,0.7c0,0.2-0.1,0.5-0.1,0.7c0,0.2,0.3,0.5,0.3,0.7c0,0.2-0.2,0.5-0.2,0.7
							c0,0.2,0,0.5,0,0.7c0,0.2,0.2,0.5,0.2,0.7c0,0.2-0.2,0.5-0.2,0.7c0,0.2,0.2,0.5,0.2,0.7c0,0.2,0,0.5,0,0.7
							c0,0.2,0.2,0.5,0.2,0.7c0,0.2-0.3,0.5-0.2,0.7c0,0.2,0.3,0.5,0.3,0.7c0,0.2-0.2,0.5-0.1,0.7c0,0.2,0.1,0.5,0.1,0.7
							c0,0.2,0.1,0.5,0.1,0.7c0,0.2,0.1,0.5,0.1,0.7c0,0.2-0.3,0.5-0.3,0.7c0,0.2,0.1,0.5,0.1,0.7c0,0.2-0.1,0.5,0,0.7
							c0,0.2,0.1,0.5,0.1,0.7c0,0.2,0.3,0.5,0.3,0.7c0,0.2-0.1,0.5-0.1,0.7c0,0.2-0.1,0.5-0.1,0.7c0,0.2,0.2,0.5,0.3,0.7
							c0,0.2-0.1,0.5,0,0.7c0,0.2,0.3,0.5,0.3,0.7c0,0.2-0.2,0.5-0.1,0.7c0,0.2,0.1,0.5,0.1,0.7c0,0.2-0.1,0.5-0.1,0.7
							c0,0.2,0.2,0.5,0.2,0.7c0,0.2,0.1,0.5,0.1,0.7c0,0.2,0.2,0.5,0.2,0.7c0,0.2,0.1,0.5,0.1,0.7c0,0.2,0,0.5,0,0.7
							c0,0.2-0.1,0.5,0,0.7c0,0.2,0.2,0.5,0.2,0.7c0,0.2-0.1,0.5,0,0.7c0,0.2,0.1,0.5,0.2,0.7c0,0.2,0.1,0.5,0.1,0.7
							c0,0.2,0.1,0.5,0.2,0.7c0,0.2-0.2,0.5-0.2,0.8c0,0.2,0.1,0.5,0.1,0.7c0,0.2,0.2,0.5,0.2,0.7c0,0.2,0.2,0.5,0.3,0.7
							c0,0.2,0.1,0.5,0.1,0.7c0,0.2,0.1,0.5,0.1,0.7c0,0.2,0,0.5,0,0.7c0,0.2,0.2,0.5,0.3,0.7c0,0.2-0.1,0.5-0.1,0.8
							c0,0.2,0.1,0.5,0.1,0.7c0,0.2,0.1,0.5,0.1,0.7c0,0.2,0.3,0.4,0.3,0.7c0,0.2,0.1,0.5,0.1,0.7c0,0.2,0,0.5,0.1,0.7
							c0,0.2,0.1,0.5,0.1,0.7c0,0.2,0.2,0.5,0.3,0.7c0,0.2-0.1,0.5,0,0.7c0,0.2,0,0.5,0,0.7c0,0.2,0.4,0.4,0.5,0.6
							c0,0.2-0.2,0.5-0.2,0.8c0,0.2,0.3,0.4,0.3,0.7c0.1,0.2-0.1,0.5,0,0.7c0.1,0.2,0.2,0.5,0.2,0.7c0.1,0.2,0.2,0.5,0.2,0.7
							c0.1,0.2,0,0.5,0.1,0.7c0.1,0.2,0.2,0.4,0.3,0.7c0.1,0.2,0.1,0.5,0.1,0.7c0.1,0.2,0.2,0.4,0.3,0.7c0.1,0.2,0.1,0.5,0.2,0.7
							c0.1,0.2,0.2,0.5,0.2,0.7c0.1,0.2,0.1,0.5,0.1,0.7c0.1,0.2,0.1,0.5,0.2,0.7c0.1,0.2,0.1,0.5,0.2,0.7c0.1,0.2-0.1,0.5-0.1,0.8
							c0.1,0.2,0.3,0.4,0.4,0.6c0.1,0.2,0,0.5,0,0.7c0.1,0.2,0.1,0.5,0.2,0.7c0.1,0.2,0.2,0.4,0.3,0.7c0.1,0.2,0.2,0.5,0.2,0.7
							c0.1,0.2,0.2,0.4,0.3,0.7c0.1,0.2,0,0.5,0,0.7c0.1,0.2,0.2,0.4,0.3,0.7c0.1,0.2,0.1,0.5,0.2,0.7c0.1,0.2,0.2,0.4,0.3,0.7
							c0.1,0.2,0.2,0.5,0.2,0.7c0.1,0.2,0.2,0.5,0.2,0.7c0.1,0.2,0,0.5,0.1,0.7c0.1,0.2,0.1,0.5,0.2,0.7c0.1,0.2,0.3,0.4,0.3,0.6
							c0.1,0.2-0.1,0.5,0,0.8c0.1,0.2,0.4,0.4,0.5,0.6c0.1,0.2,0.1,0.5,0.2,0.7c0.1,0.2,0,0.5,0.1,0.7c0.1,0.2,0.3,0.4,0.3,0.6
							c0.1,0.2,0.1,0.5,0.2,0.7c0.1,0.2,0.2,0.4,0.3,0.7c0.1,0.2,0.2,0.4,0.3,0.6c0.1,0.2,0.2,0.4,0.2,0.7c0.1,0.2,0,0.5,0.1,0.7
							c0.1,0.2,0.3,0.4,0.4,0.6c0.1,0.2,0.1,0.5,0.2,0.7c0.1,0.2,0.2,0.4,0.3,0.6c0.1,0.2,0,0.5,0.1,0.7c0.1,0.2,0.2,0.4,0.3,0.6
							c0.1,0.2,0,0.5,0.1,0.7c0.1,0.2,0.2,0.4,0.3,0.6c0.1,0.2,0.4,0.4,0.5,0.6c0.1,0.2,0.1,0.5,0.2,0.7c0.1,0.2,0.3,0.4,0.4,0.6
							c0.1,0.2,0,0.5,0.1,0.7c0.1,0.2,0.3,0.4,0.4,0.6c0.1,0.2,0,0.5,0.1,0.7c0.1,0.2,0.4,0.4,0.5,0.6c0.1,0.2,0.1,0.5,0.2,0.7
							c0.1,0.2,0.4,0.2,0.4,0.2c0.1,0,0.3,0,0.4-0.2c0.1-0.2,0.3-0.4,0.5-0.6c0.1-0.2,0.2-0.5,0.3-0.7c0.2-0.2,0.4-0.3,0.6-0.5
							c0.2-0.2,0.2-0.4,0.4-0.6c0.2-0.2,0.3-0.4,0.5-0.6c0.2-0.2,0.4-0.3,0.6-0.5c0.2-0.2,0.4-0.3,0.6-0.5c0.2-0.2,0.3-0.4,0.5-0.5
							c0.2-0.2,0.3-0.4,0.5-0.5c0.2-0.2,0.3-0.4,0.5-0.5c0.2-0.1,0.5-0.2,0.7-0.3c0.2-0.1,0.4-0.3,0.6-0.5c0.2-0.1,0.3-0.4,0.6-0.5
							c0.2-0.1,0.5-0.1,0.7-0.2c0.2-0.1,0.4-0.3,0.6-0.4c0.2-0.1,0.4-0.3,0.6-0.4c0.2-0.1,0.4-0.2,0.6-0.3c0.2-0.1,0.5-0.2,0.7-0.3
							c0.2-0.1,0.5-0.1,0.7-0.2c0.2-0.1,0.4-0.2,0.7-0.3c0.2-0.1,0.4-0.4,0.6-0.5c0.2-0.1,0.5-0.2,0.7-0.3c0.2-0.1,0.5,0,0.8,0
							c0.2-0.1,0.4-0.3,0.7-0.4c0.2-0.1,0.5,0.1,0.8,0c0.2-0.1,0.4-0.3,0.7-0.4c0.2,0,0.5,0.2,0.8,0.1c0.2,0,0.5-0.2,0.7-0.2
							c0.2,0,0.5-0.1,0.7-0.1c0.2,0,0.5,0,0.7-0.1c0.2,0,0.5-0.1,0.7-0.1c0.2,0,0.5,0.2,0.7,0.2c0.2,0,0.5-0.1,0.7-0.1
							c0.2,0,0.5-0.1,0.7-0.1c0.2,0,0.5,0.2,0.7,0.2c0.2,0,0.5,0,0.7,0.1c0.2,0,0.5-0.1,0.7,0c0.2,0,0.5,0.1,0.7,0.1
							c0.2,0,0.5-0.1,0.8-0.1c0.2,0,0.4,0.4,0.7,0.4c0.2,0,0.5,0,0.7,0.1c0.2,0.1,0.5,0,0.7,0c0.2,0.1,0.4,0.2,0.7,0.3
							c0.2,0.1,0.5,0,0.7,0.1c0.2,0.1,0.5,0.1,0.7,0.2c0.2,0.1,0.4,0.4,0.6,0.5c0.2,0.1,0.5,0.1,0.7,0.1c0.2,0.1,0.5,0.1,0.7,0.2
							c0.2,0.1,0.4,0.4,0.6,0.5c0.2,0.1,0.5,0.1,0.7,0.3c0.2,0.1,0.4,0.3,0.6,0.4c0.2,0.1,0.3,0.4,0.6,0.5c0.2,0.1,0.5,0.2,0.7,0.3
							c0.2,0.1,0.5,0.1,0.7,0.2c0.2,0.1,0.3,0.4,0.5,0.6c0.2,0.1,0.4,0.2,0.6,0.4c0.2,0.1,0.3,0.4,0.5,0.6c0.2,0.2,0.4,0.3,0.6,0.4
							c0.2,0.2,0.4,0.2,0.6,0.4c0.2,0.2,0.2,0.5,0.4,0.6c0.2,0.2,0.3,0.3,0.5,0.5c0.2,0.2,0.5,0.2,0.7,0.4c0.2,0.2,0.3,0.4,0.5,0.6
							c0.2,0.2,0.3,0.4,0.5,0.5c0.2,0.2,0.3,0.4,0.4,0.6c0.1,0.2,0.2,0.4,0.4,0.6c0.1,0.2,0.3,0.1,0.4,0.1c0.1,0,0.4,0,0.5-0.2
							c0.1-0.2,0.1-0.5,0.2-0.7c0.1-0.2,0.1-0.5,0.2-0.7c0.1-0.2,0.4-0.3,0.5-0.6c0.1-0.2,0-0.5,0.1-0.8c0.1-0.2,0.2-0.4,0.3-0.7
							c0.1-0.2,0.2-0.4,0.3-0.6c0.1-0.2,0.3-0.4,0.4-0.6c0.1-0.2,0.1-0.5,0.2-0.7c0.1-0.2,0.2-0.4,0.3-0.7c0.1-0.2,0.2-0.4,0.3-0.7
							c0.1-0.2,0.3-0.4,0.4-0.6c0.1-0.2,0.1-0.5,0.2-0.7c0.1-0.2,0.1-0.5,0.2-0.7c0.1-0.2,0.3-0.4,0.4-0.6c0.1-0.2,0-0.5,0.1-0.7
							c0.1-0.2,0.2-0.4,0.2-0.7c0.1-0.2,0.3-0.4,0.3-0.6c0.1-0.2,0-0.5,0.1-0.7c0.1-0.2,0.2-0.4,0.3-0.7c0.1-0.2,0.1-0.5,0.2-0.7
							c0.1-0.2,0.2-0.4,0.3-0.7c0.1-0.2,0.1-0.5,0.2-0.7c0.1-0.2,0.1-0.5,0.2-0.7c0.1-0.2,0.2-0.4,0.3-0.7c0.1-0.2,0-0.5,0.1-0.7
							c0.1-0.2,0.2-0.5,0.2-0.7c0.1-0.2,0.2-0.4,0.3-0.7c0.1-0.2,0.3-0.4,0.3-0.7c0.1-0.2,0.1-0.5,0.2-0.7c0.1-0.2,0.2-0.4,0.3-0.7
							c0.1-0.2,0-0.5,0.1-0.7c0.1-0.2,0-0.5,0-0.7c0.1-0.2,0.3-0.4,0.3-0.7c0.1-0.2,0.1-0.5,0.1-0.7c0.1-0.2,0-0.5,0.1-0.7
							c0.1-0.2,0.4-0.4,0.4-0.6c0.1-0.2,0.1-0.5,0.2-0.7c0.1-0.2,0.2-0.4,0.3-0.7c0.1-0.2,0-0.5,0-0.7c0.1-0.2,0.2-0.5,0.2-0.7
							c0.1-0.2,0-0.5,0.1-0.7c0.1-0.2,0.3-0.4,0.3-0.7c0.1-0.2-0.1-0.5,0-0.8c0.1-0.2,0.2-0.4,0.3-0.7c0.1-0.2,0.2-0.4,0.3-0.7
							c0.1-0.2-0.1-0.5,0-0.7c0.1-0.2,0.2-0.4,0.3-0.7c0.1-0.2,0.1-0.5,0.2-0.7c0.1-0.2,0.2-0.4,0.2-0.7c0.1-0.2,0-0.5,0-0.7
							c0.1-0.2,0-0.5,0.1-0.7c0.1-0.2,0.3-0.4,0.4-0.7c0.1-0.2-0.1-0.5,0-0.7c0.1-0.2,0.1-0.5,0.1-0.7c0-0.2,0.2-0.5,0.2-0.7
							c0-0.2,0.2-0.5,0.2-0.7c0-0.2,0.1-0.5,0.2-0.7c0-0.2,0-0.5,0-0.7c0-0.2,0.1-0.5,0.2-0.7c0-0.2,0.1-0.5,0.1-0.7
							c0-0.2,0.2-0.4,0.3-0.7c0-0.2,0.1-0.5,0.1-0.7c0-0.2,0-0.5,0-0.7c0-0.2,0.1-0.5,0.1-0.7c0-0.2,0-0.5,0-0.7
							c0-0.2,0.2-0.5,0.2-0.7c0-0.2,0.2-0.5,0.2-0.7c0-0.2-0.1-0.5-0.1-0.7c0-0.2,0.2-0.4,0.3-0.7c0-0.2-0.1-0.5,0-0.7
							c0-0.2,0-0.5,0-0.7c0-0.2,0.2-0.4,0.3-0.7c0-0.2,0.1-0.5,0.1-0.7c0-0.2-0.1-0.5-0.1-0.7c0-0.2,0-0.5,0.1-0.7
							c0-0.2,0.2-0.5,0.2-0.7c0-0.2,0.2-0.5,0.2-0.7c0-0.2,0-0.5,0-0.7c0-0.2-0.2-0.5-0.1-0.7c0-0.2,0.2-0.4,0.3-0.7
							c0-0.2,0.2-0.5,0.2-0.7c0-0.2-0.3-0.5-0.2-0.7c0-0.2,0.2-0.5,0.2-0.7c0-0.2,0.1-0.5,0.1-0.7c0-0.2,0-0.5,0-0.7
							c0-0.2,0-0.5,0.1-0.7c0-0.2,0.1-0.5,0.1-0.7c0-0.2,0-0.5,0.1-0.7c0-0.2,0.2-0.5,0.2-0.7c0-0.2-0.2-0.5-0.2-0.7
							c0-0.2,0.3-0.4,0.4-0.7c0-0.2,0-0.5,0-0.7c0-0.2-0.1-0.5-0.1-0.7c0-0.2,0.2-0.5,0.2-0.7c0-0.2-0.1-0.5,0-0.7
							c0-0.2-0.1-0.5-0.1-0.7c0-0.2,0.2-0.5,0.2-0.7c0-0.2,0.1-0.5,0.1-0.7c0-0.2-0.1-0.5-0.1-0.7c0-0.2,0.1-0.5,0.1-0.7
							c0-0.2,0.2-0.5,0.2-0.7c0-0.2,0-0.5,0-0.7c0-0.2,0-0.5,0-0.7c0-0.2,0.1-0.5,0.2-0.7c0-0.2-0.3-0.5-0.3-0.7
							c0-0.2,0.1-0.5,0.1-0.7c0-0.2,0.2-0.5,0.2-0.7c0-0.2-0.1-0.5,0-0.7c0-0.2,0.2-0.5,0.2-0.7c0-0.2-0.2-0.5-0.2-0.7
							c0-0.2,0.2-0.5,0.2-0.7c0-0.2,0-0.5,0.1-0.7c0-0.2-0.3-0.5-0.3-0.7c0-0.2,0-0.5,0-0.7c0-0.2,0.1-0.5,0.1-0.7
							c0-0.2,0.2-0.5,0.2-0.7c0-0.2,0-0.5,0-0.7c0-0.2-0.2-0.5-0.2-0.7c0-0.2,0.2-0.5,0.2-0.7c0-0.2-0.2-0.5-0.2-0.7s0-0.5,0-0.7
							s0-0.5,0-0.7c0-0.2,0.3-0.5,0.3-0.7c0-0.2,0-0.5,0-0.7c0-0.2,0-0.5,0-0.7c0-0.2-0.2-0.5-0.2-0.7c0-0.2,0-0.5,0-0.7
							c0-0.2,0.1-0.5,0-0.7c0-0.2-0.1-0.5-0.1-0.7c0-0.2,0-0.5,0-0.7c0-0.2,0.1-0.5,0.1-0.7c0-0.2-0.3-0.5-0.3-0.7
							c0-0.2,0.2-0.5,0.2-0.7c0-0.2,0-0.5,0-0.7c0-0.2-0.2-0.5-0.2-0.7c0-0.2,0.1-0.5,0.1-0.7c0-0.2,0-0.5,0-0.7
							c0-0.2-0.2-0.5-0.2-0.7c0-0.2-0.2-0.5-0.2-0.7c0-0.2,0.1-0.5,0.1-0.7c0-0.2,0-0.5,0-0.7c0-0.2-0.1-0.5-0.2-0.7
							c0-0.2-0.1-0.5-0.1-0.7c0-0.2,0-0.5-0.1-0.7c0-0.2-0.1-0.5-0.1-0.7c0-0.2-0.2-0.5-0.2-0.7c0-0.2,0.2-0.5,0.2-0.8
							c0-0.2,0-0.5-0.1-0.7c0-0.2-0.3-0.4-0.4-0.7c0-0.2-0.2-0.5-0.2-0.7c0-0.2,0.2-0.5,0.1-0.8s-0.1-0.5-0.1-0.7
							c0-0.2-0.2-0.4-0.3-0.7s0.1-0.5,0-0.7c0-0.2-0.4-0.4-0.4-0.6c0-0.2,0-0.5-0.1-0.7c-0.1-0.2-0.1-0.5-0.1-0.7
							c-0.1-0.2-0.1-0.5-0.2-0.7c-0.1-0.2,0-0.5-0.1-0.7c-0.1-0.2-0.1-0.5-0.2-0.7c-0.1-0.2-0.1-0.5-0.2-0.7
							c-0.1-0.2-0.3-0.4-0.4-0.7c-0.1-0.2-0.1-0.5-0.1-0.7c-0.1-0.2-0.1-0.5-0.2-0.7c-0.1-0.2,0.1-0.5,0-0.7
							c-0.1-0.2-0.3-0.4-0.4-0.6c-0.1-0.2,0-0.5,0-0.7c-0.1-0.2-0.2-0.4-0.3-0.7c-0.1-0.2,0-0.5-0.1-0.7c-0.1-0.2-0.1-0.5-0.2-0.7
							c-0.1-0.2-0.2-0.4-0.3-0.7c-0.1-0.2,0-0.5-0.1-0.7c-0.1-0.2-0.4-0.4-0.4-0.6c-0.1-0.2,0-0.5-0.1-0.7c-0.1-0.2-0.3-0.4-0.4-0.6
							c-0.1-0.2-0.1-0.5-0.2-0.7c-0.1-0.2-0.1-0.5-0.2-0.7c-0.1-0.2-0.2-0.5-0.2-0.7c-0.1-0.2-0.3-0.4-0.4-0.6
							c-0.1-0.2-0.1-0.5-0.2-0.7c-0.1-0.2-0.1-0.5-0.1-0.7c-0.1-0.2-0.3-0.4-0.4-0.6c-0.1-0.2,0-0.5-0.1-0.7
							c-0.1-0.2-0.2-0.4-0.3-0.7c-0.1-0.2-0.3-0.4-0.4-0.6c-0.1-0.2-0.4-0.4-0.5-0.6c-0.1-0.2,0-0.5-0.1-0.8
							c-0.1-0.2-0.3-0.4-0.4-0.6c-0.1-0.2-0.1-0.5-0.2-0.7c-0.1-0.2-0.5-0.3-0.6-0.5c-0.1-0.2,0.1-0.6,0-0.8
							c-0.1-0.2-0.5-0.3-0.6-0.5c-0.1-0.2-0.2-0.4-0.3-0.7c-0.1-0.2,0-0.5-0.1-0.7c-0.1-0.2-0.2-0.5-0.3-0.7
							c-0.1-0.2-0.5-0.3-0.6-0.5c-0.1-0.2-0.1-0.5-0.2-0.7c-0.1-0.2,0-0.5-0.1-0.7c-0.1-0.2-0.3-0.4-0.5-0.6
							c-0.1-0.2-0.2-0.4-0.3-0.6c-0.1-0.2-0.2-0.5-0.3-0.7c-0.1-0.2-0.3-0.4-0.5-0.6c-0.1-0.2-0.3-0.4-0.4-0.6
							c-0.1-0.2-0.2-0.4-0.3-0.7c-0.1-0.2-0.2-0.4-0.3-0.6c-0.1-0.2-0.1-0.5-0.2-0.7c-0.1-0.2-0.1-0.5-0.3-0.7
							c-0.1-0.2-0.5-0.3-0.6-0.5s-0.2-0.4-0.3-0.6c-0.1-0.2-0.1-0.5-0.2-0.7c0,0-0.2,0-0.2,0c-0.1-0.2-0.1-0.5-0.3-0.7
							c-0.1-0.2-0.3-0.4-0.4-0.6c-0.1-0.2-0.3-0.4-0.4-0.6c-0.1-0.2-0.2-0.5-0.3-0.7c-0.1-0.2-0.3-0.4-0.4-0.6
							c-0.1-0.2-0.3-0.4-0.4-0.6c-0.1-0.2-0.2-0.4-0.4-0.6c-0.1-0.2-0.4-0.3-0.6-0.5c-0.1-0.2-0.2-0.4-0.3-0.6
							c-0.1-0.2-0.1-0.5-0.2-0.7c-0.1-0.2-0.5-0.3-0.6-0.5c-0.1-0.2-0.2-0.4-0.3-0.6c-0.1-0.2-0.3-0.4-0.4-0.6
							c-0.1-0.2-0.4-0.3-0.5-0.5c-0.1-0.2-0.3-0.4-0.4-0.6c-0.1-0.2-0.3-0.4-0.4-0.6c-0.1-0.2-0.1-0.5-0.2-0.7
							c-0.1-0.2-0.3-0.4-0.4-0.6c-0.1-0.2-0.4-0.3-0.6-0.5c-0.1-0.2-0.2-0.4-0.4-0.6c-0.1-0.2-0.4-0.3-0.6-0.5
							c-0.1-0.2-0.2-0.5-0.3-0.7c-0.1-0.2-0.3-0.4-0.5-0.5c-0.1-0.2-0.4-0.3-0.6-0.5c-0.2-0.2-0.1-0.5-0.2-0.7
							c-0.2-0.2-0.3-0.4-0.5-0.5c-0.2-0.2-0.3-0.4-0.5-0.6c-0.2-0.2-0.3-0.4-0.4-0.6c-0.2-0.2-0.3-0.4-0.5-0.5
							c-0.2-0.2-0.5-0.2-0.7-0.3c-0.2-0.2-0.1-0.5-0.3-0.7c-0.2-0.2-0.3-0.4-0.4-0.6c-0.2-0.2-0.5-0.2-0.7-0.3
							c-0.2-0.2-0.3-0.4-0.5-0.5c-0.2-0.2-0.3-0.4-0.4-0.6c-0.2-0.2-0.2-0.4-0.4-0.6c-0.2-0.2-0.5-0.2-0.6-0.4
							c-0.2-0.2-0.2-0.5-0.4-0.6c-0.2-0.2-0.3-0.3-0.5-0.5c-0.2-0.2-0.4-0.2-0.6-0.4c-0.2-0.2-0.2-0.5-0.4-0.6
							c-0.2-0.2-0.4-0.3-0.6-0.4c-0.2-0.2-0.3-0.3-0.5-0.5c-0.2-0.2-0.2-0.5-0.4-0.6c-0.2-0.2-0.4-0.3-0.5-0.5
							c-0.2-0.2-0.3-0.4-0.5-0.5C122.5,65.7,122.2,65.7,122.1,65.5z"/>
					</g>
				</g>
				<g>
					<g>
						<path class="st4" d="M100.4,92.1c-0.2,0-0.3-0.1-0.5-0.2c-0.2-0.1-0.3-0.3-0.3-0.5c0-0.2,0-0.4,0.2-0.6
							c0.1-0.1,0.2-0.3,0.5-0.5c0.1-0.1,0.3-0.3,0.6-0.4c0.2-0.1,0.4-0.3,0.6-0.4c0.2-0.1,0.4-0.2,0.6-0.3c0.2-0.1,0.4-0.2,0.6-0.3
							c0.2-0.1,0.4-0.2,0.6-0.3c0.2-0.1,0.4-0.2,0.6-0.3c0.2-0.1,0.4-0.1,0.7-0.2c0.2-0.1,0.4-0.2,0.7-0.2c0.2-0.1,0.5-0.1,0.7-0.2
							c0.2-0.1,0.4-0.1,0.7-0.2c0.2-0.1,0.4-0.1,0.7-0.2c0.2-0.1,0.5,0,0.7-0.1c0.2,0,0.4-0.1,0.7-0.2c0.2,0,0.5-0.1,0.7-0.1
							c0.2,0,0.5,0,0.7-0.1c0.2,0,0.5-0.1,0.7-0.1c0.2,0,0.5-0.1,0.7-0.1c0.2,0,0.5,0,0.7,0c0.2,0,0.5-0.1,0.7-0.1
							c0.2,0,0.5-0.1,0.7-0.1c0.2,0,0.5,0,0.7-0.1c0.2,0,0.5,0,0.7-0.1c0.2,0,0.5-0.1,0.7-0.1c0.2,0,0.5,0,0.7,0c0.2,0,0.5,0,0.7,0
							c0.2,0,0.5,0,0.7,0c0.2,0,0.5,0,0.7,0c0.2,0,0.5,0,0.7,0c0.2,0,0.5,0,0.7,0c0.2,0,0.5,0,0.7-0.1c0.2,0,0.5,0,0.7,0
							c0.2,0,0.5,0,0.7,0c0.2,0,0.5,0,0.7,0c0.2,0,0.5,0,0.7,0c0.2,0,0.5,0,0.7,0c0.2,0,0.5,0,0.7,0c0.2,0,0.5,0.1,0.7,0.1
							c0.2,0,0.5,0,0.7,0c0.2,0,0.5,0,0.7,0c0.2,0,0.5,0,0.7,0c0.2,0,0.5,0.1,0.7,0.1c0.2,0,0.5,0,0.7,0c0.2,0,0.5,0,0.7,0
							c0.2,0,0.5,0.1,0.7,0.1c0.2,0,0.5,0,0.7,0c0.2,0,0.5,0.1,0.7,0.1c0.2,0,0.5,0,0.7,0c0.2,0,0.5,0.1,0.7,0.1
							c0.2,0,0.5,0.1,0.7,0.1c0.2,0,0.5,0.1,0.7,0.1c0.2,0,0.5,0,0.7,0.1c0.2,0,0.5,0.1,0.7,0.1c0.2,0.1,0.5,0.2,0.7,0.2
							c0.2,0.1,0.5,0.1,0.7,0.2c0.2,0.1,0.5,0.1,0.7,0.1c0.2,0.1,0.5,0.2,0.7,0.2c0.2,0.1,0.5,0.1,0.7,0.2c0.2,0.1,0.5,0.2,0.7,0.2
							c0.2,0.1,0.4,0.2,0.6,0.3c0.2,0.1,0.4,0.2,0.6,0.3c0.2,0.1,0.5,0.2,0.7,0.3c0.2,0.1,0.4,0.2,0.6,0.4c0.2,0.1,0.4,0.3,0.6,0.4
							c0.2,0.2,0.4,0.4,0.5,0.5c0.2,0,0.4-0.2,0.5,0c0.2,0.4,0.1,0.4,0.1,0.9c0,0.3-0.1,0.5-0.3,0.7c-0.2,0.2-0.4,0.2-0.7,0.2
							c-0.1,0-0.1,0.1-0.3,0c-0.2-0.1-0.2-0.2-0.3-0.4c-0.1-0.1-0.3-0.2-0.6-0.5c-0.2-0.1-0.4-0.2-0.6-0.4c-0.2-0.1-0.4-0.2-0.6-0.4
							c-0.2-0.1-0.4-0.2-0.6-0.3c-0.2-0.1-0.4-0.2-0.7-0.2c-0.2-0.1-0.4-0.2-0.7-0.3c-0.2-0.1-0.5-0.1-0.7-0.2
							c-0.2-0.1-0.4-0.2-0.7-0.2c-0.2-0.1-0.5-0.1-0.7-0.2c-0.2-0.1-0.5-0.1-0.7-0.1c-0.2-0.1-0.5-0.1-0.7-0.2
							c-0.2,0-0.5-0.1-0.7-0.1c-0.2,0-0.5-0.1-0.7-0.1c-0.2,0-0.5-0.1-0.7-0.1c-0.2,0-0.5-0.1-0.7-0.1c-0.2,0-0.5-0.1-0.7-0.1
							c-0.2,0-0.5-0.1-0.7-0.1c-0.2,0-0.5,0-0.7,0c-0.2,0-0.5,0-0.7-0.1c-0.2,0-0.5-0.1-0.7-0.1c-0.2,0-0.5,0-0.7-0.1
							c-0.2,0-0.5,0-0.7,0c-0.2,0-0.5,0-0.7,0c-0.2,0-0.5-0.1-0.7-0.1c-0.2,0-0.5-0.1-0.7-0.1c-0.2,0-0.5,0-0.7,0
							c-0.2,0-0.5,0-0.7,0c-0.2,0-0.5,0-0.7,0c-0.2,0-0.5,0-0.7,0c-0.2,0-0.5,0-0.7,0c-0.2,0-0.5,0.1-0.7,0.1c-0.2,0-0.5,0-0.7,0
							c-0.2,0-0.5-0.1-0.7,0c-0.2,0-0.5,0.1-0.7,0.1c-0.2,0-0.5,0-0.7,0c-0.2,0-0.5,0-0.7,0c-0.2,0-0.5,0.1-0.7,0.1
							c-0.2,0-0.5,0-0.7,0c-0.2,0-0.5,0.1-0.7,0.1c-0.2,0-0.5,0-0.7,0c-0.2,0-0.5,0.1-0.7,0.1c-0.2,0-0.5,0-0.7,0.1
							c-0.2,0-0.5,0-0.7,0.1c-0.2,0-0.5,0.1-0.7,0.1c-0.2,0-0.5,0-0.7,0.1c-0.2,0-0.5,0.2-0.7,0.2c-0.2,0-0.5,0-0.7,0.1
							c-0.2,0-0.5,0.1-0.7,0.1c-0.2,0-0.5,0.1-0.7,0.2c-0.2,0.1-0.5,0.1-0.7,0.2c-0.2,0.1-0.5,0.1-0.7,0.2c-0.2,0.1-0.5,0-0.7,0.1
							c-0.2,0.1-0.5,0.2-0.7,0.3c-0.2,0.1-0.5,0.1-0.7,0.2c-0.2,0.1-0.5,0.2-0.7,0.3c-0.2,0.1-0.5,0.2-0.7,0.3
							c-0.2,0.1-0.5,0.2-0.7,0.3c-0.2,0.1-0.4,0.3-0.6,0.4c-0.2,0.1-0.5,0.3-0.6,0.4c-0.4,0.3-0.5,0.5-0.5,0.5
							C100.9,92,100.7,92.1,100.4,92.1z"/>
					</g>
				</g>
				<g>
					<g>
						<path class="st4" d="M58.8,243.6c-0.3,0-0.6,0-0.8-0.2c-0.2-0.1-0.4-0.2-0.6-0.3c-0.2-0.1-0.4-0.3-0.5-0.5
							c-0.1-0.2-0.2-0.4-0.2-0.6c-0.1-0.2-0.1-0.4-0.1-0.6c0-0.2,0-0.5,0-0.7c0-0.2,0-0.5,0-0.7c0-0.2,0.1-0.5,0.1-0.7
							c0-0.2,0-0.5,0-0.7c0-0.2,0-0.5,0-0.7c0-0.2,0.1-0.5,0.1-0.7c0-0.2,0-0.5,0-0.7c0-0.2,0-0.5,0-0.7c0-0.2,0.1-0.5,0.1-0.7
							c0-0.2,0-0.5,0.1-0.7c0-0.2,0.1-0.5,0.1-0.7c0-0.2,0-0.5,0.1-0.7c0-0.2,0.1-0.5,0.1-0.7c0-0.2,0.1-0.5,0.1-0.7
							c0-0.2,0.1-0.5,0.1-0.7c0-0.2,0.1-0.5,0.1-0.7c0-0.2,0.1-0.5,0.1-0.7c0-0.2,0.1-0.5,0.1-0.7c0-0.2,0.1-0.5,0.1-0.7
							c0-0.2,0.1-0.5,0.1-0.7c0-0.2,0.1-0.5,0.1-0.7c0-0.2,0.1-0.5,0.2-0.7c0-0.2,0.1-0.5,0.1-0.7c0.1-0.2,0.2-0.4,0.2-0.7
							c0.1-0.2,0-0.5,0.1-0.7c0.1-0.2,0.2-0.5,0.2-0.7c0.1-0.2,0-0.5,0.1-0.7c0.1-0.2,0.2-0.5,0.2-0.7c0.1-0.2,0.1-0.5,0.2-0.7
							c0.1-0.2,0.2-0.4,0.2-0.7c0.1-0.2,0.1-0.5,0.2-0.7c0.1-0.2,0.1-0.5,0.2-0.7c0.1-0.2,0.2-0.4,0.3-0.7c0.1-0.2,0.1-0.5,0.2-0.7
							c0.1-0.2,0.2-0.4,0.3-0.7c0.1-0.2,0.1-0.5,0.2-0.7c0.1-0.2,0.2-0.5,0.2-0.7c0.1-0.2,0.2-0.5,0.2-0.7c0.1-0.2,0.2-0.4,0.3-0.6
							c0.1-0.2,0.2-0.4,0.3-0.7c0.1-0.2,0.1-0.5,0.2-0.7c0.1-0.2,0.2-0.4,0.3-0.7c0.1-0.2,0.2-0.4,0.3-0.6c0.1-0.2,0.2-0.4,0.3-0.7
							c0.1-0.2,0.2-0.4,0.3-0.6c0.1-0.2,0.2-0.4,0.3-0.6c0.1-0.2,0.2-0.4,0.4-0.6c0.1-0.2,0.2-0.4,0.3-0.6c0.1-0.2,0.2-0.4,0.3-0.6
							c0.1-0.2,0.3-0.4,0.4-0.6c0.1-0.2,0.3-0.4,0.4-0.6c0.1-0.2,0.3-0.4,0.4-0.6c0.1-0.2,0.3-0.4,0.4-0.6c0.1-0.2,0.3-0.4,0.4-0.6
							c0.1-0.2,0.3-0.4,0.4-0.6c0.1-0.2,0.3-0.4,0.4-0.6c0.1-0.2,0.3-0.4,0.4-0.6c0.1-0.2,0.3-0.4,0.5-0.5c0.2-0.2,0.3-0.4,0.4-0.6
							c0.2-0.2,0.3-0.4,0.5-0.6c0.2-0.2,0.3-0.3,0.5-0.5c0.2-0.2,0.3-0.4,0.5-0.6c0.2-0.2,0.4-0.3,0.6-0.5c0.2-0.2,0.3-0.4,0.4-0.6
							c0.2-0.2,0.4-0.3,0.5-0.5c0.2-0.2,0.3-0.3,0.5-0.5c0.2-0.2,0.3-0.4,0.5-0.5c0.2-0.2,0.4-0.3,0.5-0.5c0.2-0.2,0.4-0.3,0.5-0.5
							c0.2-0.2,0.4-0.3,0.6-0.4c0.2-0.2,0.4-0.3,0.6-0.4c0.2-0.1,0.4-0.3,0.5-0.5c0.2-0.1,0.4-0.2,0.6-0.4c0.2-0.1,0.3-0.3,0.5-0.5
							c0.2-0.1,0.5-0.2,0.6-0.3c0.2-0.1,0.4-0.3,0.6-0.5c0.2-0.1,0.4-0.2,0.6-0.3c0.2-0.1,0.4-0.2,0.6-0.3c0.2-0.1,0.4-0.3,0.6-0.4
							c0.2-0.1,0.4-0.2,0.6-0.3c0.2-0.1,0.5-0.1,0.7-0.2c0.2-0.1,0.4-0.2,0.6-0.3c0.2-0.1,0.4-0.2,0.6-0.3c0.2-0.1,0.4-0.2,0.6-0.3
							c0.2-0.1,0.5-0.1,0.7-0.2c0.2-0.1,0.5-0.2,0.7-0.3c0.3-0.1,0.5-0.1,0.7-0.2c0.4-0.1,0.6-0.1,0.7-0.1c0.2-0.1,0.4,0,0.6,0.1
							c0.2,0.1,0.4,0.3,0.4,0.5c0.1,0.2,0,0.5-0.1,0.7c-0.1,0.2-0.3,0.3-0.6,0.4c0,0-0.3,0-0.7,0.2c-0.2,0.1-0.4,0.1-0.7,0.2
							c-0.2,0.1-0.4,0.2-0.7,0.3c-0.2,0.1-0.4,0.2-0.7,0.3c-0.2,0.1-0.4,0.2-0.7,0.3c-0.2,0.1-0.4,0.2-0.6,0.4
							c-0.2,0.1-0.5,0.1-0.7,0.2c-0.2,0.1-0.4,0.2-0.6,0.4c-0.2,0.1-0.4,0.2-0.6,0.4c-0.2,0.1-0.4,0.3-0.6,0.4
							c-0.2,0.1-0.4,0.2-0.7,0.3c-0.2,0.1-0.4,0.3-0.6,0.5c-0.2,0.1-0.4,0.2-0.6,0.4c-0.2,0.1-0.4,0.3-0.6,0.4
							c-0.2,0.1-0.4,0.3-0.6,0.4c-0.2,0.1-0.4,0.3-0.6,0.4c-0.2,0.1-0.3,0.3-0.5,0.5c-0.2,0.2-0.3,0.3-0.5,0.5
							c-0.2,0.2-0.4,0.3-0.5,0.5c-0.2,0.2-0.4,0.3-0.5,0.5c-0.2,0.2-0.4,0.3-0.5,0.5c-0.2,0.2-0.3,0.3-0.5,0.5
							c-0.2,0.2-0.3,0.3-0.5,0.5c-0.2,0.2-0.3,0.3-0.5,0.5c-0.2,0.2-0.3,0.4-0.5,0.5c-0.2,0.2-0.3,0.3-0.5,0.5
							c-0.2,0.2-0.3,0.4-0.5,0.5c-0.2,0.2-0.3,0.3-0.5,0.5c-0.2,0.2-0.3,0.4-0.4,0.6c-0.1,0.2-0.3,0.3-0.5,0.5
							c-0.1,0.2-0.2,0.4-0.4,0.6c-0.1,0.2-0.3,0.4-0.4,0.6c-0.1,0.2-0.3,0.4-0.5,0.6c-0.1,0.2-0.2,0.4-0.4,0.6
							c-0.1,0.2-0.3,0.4-0.4,0.6c-0.1,0.2-0.2,0.4-0.4,0.6c-0.1,0.2-0.3,0.4-0.4,0.6c-0.1,0.2-0.2,0.4-0.3,0.6
							c-0.1,0.2-0.3,0.4-0.4,0.6c-0.1,0.2-0.2,0.4-0.3,0.7c-0.1,0.2-0.2,0.4-0.3,0.7c-0.1,0.2-0.2,0.4-0.3,0.6
							c-0.1,0.2-0.3,0.4-0.4,0.6c-0.1,0.2-0.2,0.4-0.3,0.6c-0.1,0.2-0.2,0.4-0.3,0.7c-0.1,0.2-0.1,0.5-0.2,0.7
							c-0.1,0.2-0.3,0.4-0.3,0.6c-0.1,0.2-0.2,0.5-0.2,0.7c-0.1,0.2-0.1,0.5-0.2,0.7c-0.1,0.2-0.2,0.4-0.3,0.7
							c-0.1,0.2-0.2,0.5-0.2,0.7c-0.1,0.2-0.2,0.5-0.2,0.7c-0.1,0.2-0.1,0.5-0.2,0.7c-0.1,0.2-0.2,0.4-0.3,0.7
							c-0.1,0.2-0.1,0.5-0.2,0.7c-0.1,0.2-0.1,0.5-0.2,0.7c-0.1,0.2-0.2,0.5-0.2,0.7c-0.1,0.2-0.1,0.5-0.1,0.7
							c-0.1,0.2-0.1,0.5-0.1,0.7c-0.1,0.2-0.1,0.5-0.2,0.7c-0.1,0.2-0.1,0.5-0.2,0.7c-0.1,0.2-0.1,0.5-0.1,0.7
							c-0.1,0.2-0.1,0.5-0.2,0.7c0,0.2-0.1,0.5-0.1,0.7c0,0.2-0.1,0.5-0.1,0.7c0,0.2-0.1,0.5-0.1,0.7c0,0.2-0.1,0.5-0.2,0.7
							c0,0.2-0.1,0.5-0.1,0.7c0,0.2-0.1,0.5-0.1,0.7c0,0.2-0.1,0.5-0.1,0.7c0,0.2,0,0.5-0.1,0.7c0,0.2,0,0.5-0.1,0.7
							c0,0.2,0,0.5-0.1,0.7c0,0.2,0,0.5,0,0.7c0,0.2-0.1,0.5-0.1,0.7c0,0.2-0.1,0.5-0.1,0.7c0,0.2,0,0.5-0.1,0.7c0,0.2,0,0.5,0,0.7
							c0,0.2,0,0.5-0.1,0.7c0,0.2-0.1,0.5-0.1,0.7c0,0.2,0,0.5,0,0.7c0,0.2,0,0.5,0,0.7c0,0.2-0.1,0.5-0.1,0.7c0,0.2,0.1,0.5,0,0.7
							c0,0.3,0.1,0.4,0.2,0.4c0.1,0,0.4,0.1,0.5-0.1c0.2-0.2,0.3-0.3,0.5-0.5c0.2-0.2,0.3-0.4,0.5-0.5c0.2-0.2,0.3-0.3,0.5-0.5
							c0.2-0.2,0.3-0.4,0.5-0.6c0.2-0.2,0.3-0.3,0.5-0.5c0.2-0.2,0.3-0.3,0.5-0.5c0.2-0.2,0.4-0.3,0.5-0.5c0.2-0.2,0.4-0.3,0.6-0.4
							c0.2-0.2,0.3-0.4,0.5-0.5c0.2-0.2,0.4-0.3,0.6-0.4c0.2-0.2,0.3-0.3,0.5-0.5c0.2-0.2,0.4-0.2,0.6-0.4c0.2-0.1,0.4-0.3,0.5-0.5
							c0.2-0.1,0.3-0.3,0.5-0.5c0.2-0.1,0.4-0.3,0.6-0.4c0.2-0.1,0.4-0.3,0.6-0.4c0.2-0.1,0.4-0.3,0.6-0.4c0.2-0.1,0.4-0.3,0.6-0.5
							c0.2-0.1,0.4-0.3,0.6-0.4c0.2-0.1,0.4-0.2,0.6-0.4c0.2-0.1,0.4-0.3,0.6-0.4c0.2-0.1,0.4-0.3,0.6-0.4c0.2-0.1,0.4-0.2,0.6-0.3
							c0.2-0.1,0.4-0.2,0.6-0.4c0.2-0.1,0.4-0.2,0.6-0.4c0.2-0.1,0.4-0.2,0.6-0.4c0.2-0.1,0.4-0.2,0.6-0.4c0.2-0.1,0.4-0.3,0.6-0.4
							c0.2-0.1,0.4-0.2,0.6-0.3c0.2-0.1,0.4-0.2,0.6-0.3c0.2-0.1,0.4-0.2,0.6-0.3c0.2-0.1,0.4-0.2,0.7-0.3c0.2-0.1,0.5-0.2,0.7-0.2
							c0.2-0.1,0.4-0.3,0.6-0.4c0.2-0.1,0.4-0.2,0.7-0.3c0.2-0.1,0.5-0.1,0.7-0.2c0.2-0.1,0.4-0.2,0.6-0.3c0.2-0.1,0.4-0.2,0.7-0.3
							c0.2-0.1,0.5-0.2,0.7-0.2c0.2-0.1,0.5-0.1,0.7-0.1c0.2-0.1,0.4-0.2,0.7-0.3c0.2-0.1,0.5-0.1,0.7-0.2c0.2-0.1,0.5-0.1,0.7-0.2
							c0.2-0.1,0.5-0.2,0.7-0.2c0.2-0.1,0.5-0.1,0.7-0.2c0.2-0.1,0.5-0.1,0.7-0.1c0.2,0,0.5-0.1,0.7-0.1c0.2,0,0.5-0.1,0.7-0.2
							c0.2,0,0.5,0,0.7,0c0.2,0,0.5-0.1,0.7-0.2c0.2,0,0.5,0,0.7,0c0.2,0,0.5-0.1,0.7-0.1c0.2,0,0.5,0,0.7,0c0.2,0,0.5-0.1,0.7-0.1
							c0.2,0,0.5,0,0.7,0c0.2,0,0.5,0,0.7,0s0.4,0,0.7,0c0.1,0.4,0.1,0.4,0.1,0.9c0,0.4,0.1,0.4,0,0.9c-0.2,0-0.5,0-0.7,0
							c-0.2,0-0.5,0.1-0.7,0.1c-0.2,0-0.5,0-0.7,0.1c-0.2,0-0.5,0-0.7,0c-0.2,0-0.5,0.1-0.7,0.1c-0.2,0-0.5,0-0.7,0
							c-0.2,0-0.5,0.1-0.7,0.1c-0.2,0-0.5,0-0.7,0.1c-0.2,0-0.5,0.1-0.7,0.1c-0.2,0-0.5,0.1-0.7,0.2c-0.2,0-0.5,0.1-0.7,0.1
							c-0.2,0.1-0.5,0.1-0.7,0.1c-0.2,0.1-0.5,0.1-0.7,0.2c-0.2,0.1-0.5,0.1-0.7,0.2c-0.2,0.1-0.5,0.1-0.7,0.1
							c-0.2,0.1-0.5,0.2-0.7,0.2c-0.2,0.1-0.5,0.1-0.7,0.2c-0.2,0.1-0.5,0.2-0.7,0.2c-0.2,0.1-0.4,0.2-0.7,0.3
							c-0.2,0.1-0.4,0.2-0.7,0.3c-0.2,0.1-0.5,0.1-0.7,0.2c-0.2,0.1-0.4,0.2-0.6,0.3c-0.2,0.1-0.5,0.1-0.7,0.2
							c-0.2,0.1-0.4,0.2-0.7,0.3c-0.2,0.1-0.4,0.3-0.6,0.4c-0.2,0.1-0.5,0.1-0.7,0.2c-0.2,0.1-0.4,0.3-0.6,0.4
							c-0.2,0.1-0.4,0.2-0.7,0.3c-0.2,0.1-0.4,0.3-0.6,0.4c-0.2,0.1-0.4,0.2-0.6,0.3c-0.2,0.1-0.4,0.3-0.6,0.4
							c-0.2,0.1-0.4,0.3-0.6,0.4c-0.2,0.1-0.4,0.2-0.6,0.4c-0.2,0.1-0.4,0.2-0.6,0.4c-0.2,0.1-0.4,0.3-0.6,0.4
							c-0.2,0.1-0.4,0.3-0.6,0.4c-0.2,0.1-0.4,0.3-0.6,0.4c-0.2,0.1-0.4,0.2-0.6,0.4c-0.2,0.1-0.4,0.3-0.6,0.4
							c-0.2,0.1-0.4,0.3-0.6,0.5c-0.2,0.1-0.4,0.3-0.6,0.5c-0.2,0.1-0.4,0.3-0.5,0.5c-0.2,0.1-0.4,0.3-0.6,0.4
							c-0.2,0.2-0.4,0.3-0.6,0.5c-0.2,0.2-0.4,0.2-0.6,0.4c-0.2,0.2-0.3,0.4-0.5,0.5c-0.2,0.2-0.4,0.3-0.6,0.4
							c-0.2,0.2-0.3,0.4-0.5,0.5c-0.2,0.2-0.4,0.3-0.6,0.4c-0.2,0.2-0.4,0.3-0.5,0.5c-0.2,0.2-0.3,0.4-0.5,0.5
							c-0.2,0.2-0.3,0.4-0.5,0.5c-0.2,0.2-0.4,0.3-0.6,0.4c-0.2,0.2-0.3,0.4-0.5,0.5c-0.2,0.2-0.3,0.4-0.5,0.5
							c-0.2,0.2-0.4,0.4-0.7,0.5C59.3,243.6,59.1,243.6,58.8,243.6z"/>
					</g>
				</g>
			</g>
		</g>
	</g>
	<g>
		<g>
			<g>
				<g>
					<path class="st0" d="M135.8,118.9c0,0.2,0,0.5,0,0.7c0,0.2-0.1,0.5-0.1,0.7c0,0.2,0,0.5-0.1,0.7c0,0.2,0,0.5-0.1,0.7
						c0,0.2-0.2,0.5-0.2,0.7c-0.1,0.2-0.1,0.5-0.2,0.7c-0.1,0.2-0.2,0.4-0.3,0.7c-0.1,0.2-0.1,0.5-0.2,0.7c-0.1,0.2-0.2,0.5-0.3,0.7
						c-0.1,0.2-0.3,0.4-0.4,0.6c-0.1,0.2-0.2,0.5-0.3,0.7c-0.1,0.2-0.3,0.4-0.5,0.6c-0.1,0.2-0.3,0.4-0.4,0.6
						c-0.2,0.2-0.3,0.4-0.4,0.6c-0.2,0.2-0.3,0.3-0.5,0.5c-0.2,0.2-0.3,0.3-0.5,0.5c-0.2,0.2-0.4,0.3-0.6,0.4
						c-0.2,0.2-0.4,0.3-0.6,0.5c-0.2,0.1-0.4,0.3-0.6,0.4c-0.2,0.1-0.4,0.3-0.6,0.4c-0.2,0.1-0.5,0.2-0.7,0.3
						c-0.2,0.1-0.4,0.2-0.7,0.3c-0.2,0.1-0.4,0.2-0.7,0.2c-0.2,0.1-0.4,0.3-0.6,0.3c-0.2,0.1-0.5,0.1-0.7,0.2
						c-0.2,0.1-0.5,0.1-0.7,0.2c-0.2,0-0.5,0.1-0.7,0.1c-0.2,0-0.5,0.1-0.7,0.1c-0.2,0-0.5,0-0.7,0c-0.2,0-0.5,0-0.7,0
						c-0.2,0-0.5,0-0.7,0c-0.2,0-0.5-0.1-0.7-0.1c-0.2,0-0.5-0.1-0.7-0.1c-0.2,0-0.5,0-0.7,0c-0.2,0-0.4-0.2-0.7-0.3
						c-0.2-0.1-0.5-0.1-0.7-0.2c-0.2-0.1-0.5-0.1-0.7-0.2c-0.2-0.1-0.4-0.2-0.6-0.3c-0.2-0.1-0.5-0.2-0.7-0.3
						c-0.2-0.1-0.4-0.2-0.6-0.3c-0.2-0.1-0.4-0.3-0.6-0.4c-0.2-0.1-0.4-0.3-0.6-0.4c-0.2-0.1-0.4-0.3-0.6-0.4
						c-0.2-0.2-0.4-0.3-0.6-0.4c-0.2-0.2-0.4-0.3-0.5-0.5c-0.2-0.2-0.3-0.4-0.4-0.6c-0.2-0.2-0.3-0.4-0.5-0.6
						c-0.2-0.2-0.4-0.3-0.5-0.5c-0.1-0.2-0.2-0.5-0.3-0.7c-0.1-0.2-0.3-0.4-0.4-0.6c-0.1-0.2-0.3-0.4-0.4-0.6
						c-0.1-0.2-0.2-0.5-0.3-0.7c-0.1-0.2-0.2-0.4-0.3-0.7c-0.1-0.2-0.2-0.5-0.2-0.7c-0.1-0.2-0.1-0.5-0.2-0.7
						c-0.1-0.2-0.1-0.5-0.2-0.7c0-0.2-0.1-0.5-0.2-0.7c0-0.2-0.1-0.5-0.1-0.7c0-0.2,0-0.5-0.1-0.7c0-0.2,0-0.5,0-0.7
						c0-0.2,0.1-0.5,0.1-0.7c0-0.2,0.1-0.5,0.1-0.7c0-0.2,0-0.5,0-0.7c0-0.2,0.2-0.5,0.2-0.7c0-0.2,0.1-0.5,0.1-0.7
						c0.1-0.2,0.1-0.5,0.1-0.7c0.1-0.2,0.2-0.5,0.3-0.7c0.1-0.2,0.2-0.4,0.3-0.7c0.1-0.2,0.2-0.4,0.3-0.6c0.1-0.2,0.1-0.5,0.3-0.7
						c0.1-0.2,0.3-0.4,0.4-0.6c0.1-0.2,0.3-0.4,0.5-0.6c0.1-0.2,0.2-0.4,0.4-0.6c0.2-0.2,0.3-0.4,0.5-0.5c0.2-0.2,0.3-0.4,0.5-0.5
						c0.2-0.2,0.4-0.3,0.5-0.5c0.2-0.2,0.3-0.3,0.5-0.5c0.2-0.2,0.4-0.3,0.6-0.4c0.2-0.1,0.4-0.3,0.6-0.4c0.2-0.1,0.4-0.3,0.6-0.4
						c0.2-0.1,0.4-0.3,0.6-0.4c0.2-0.1,0.5-0.1,0.7-0.2c0.2-0.1,0.4-0.2,0.6-0.3c0.2-0.1,0.5-0.1,0.7-0.2c0.2-0.1,0.4-0.2,0.7-0.3
						c0.2-0.1,0.5-0.1,0.7-0.2c0.2,0,0.5,0,0.7-0.1c0.2,0,0.5-0.1,0.7-0.2c0.2,0,0.5,0,0.7,0c0.2,0,0.5-0.1,0.7-0.1
						c0.2,0,0.5-0.1,0.7,0c0.2,0,0.5,0.1,0.7,0.2c0.2,0,0.5,0,0.7,0.1c0.2,0,0.5,0.1,0.7,0.1c0.2,0,0.5,0.1,0.7,0.2
						c0.2,0.1,0.5,0,0.7,0.1c0.2,0.1,0.5,0.2,0.7,0.3c0.2,0.1,0.4,0.2,0.7,0.3c0.2,0.1,0.4,0.3,0.6,0.4c0.2,0.1,0.4,0.2,0.6,0.3
						c0.2,0.1,0.4,0.3,0.6,0.4c0.2,0.1,0.4,0.3,0.6,0.4c0.2,0.1,0.4,0.3,0.6,0.4c0.2,0.2,0.4,0.3,0.6,0.4c0.2,0.2,0.3,0.3,0.5,0.5
						c0.2,0.2,0.4,0.3,0.5,0.5c0.2,0.2,0.3,0.4,0.4,0.6c0.2,0.2,0.3,0.3,0.5,0.5c0.1,0.2,0.2,0.4,0.3,0.7c0.1,0.2,0.4,0.3,0.5,0.6
						c0.1,0.2,0.2,0.5,0.3,0.7c0.1,0.2,0.3,0.4,0.3,0.6c0.1,0.2,0.2,0.4,0.3,0.7c0.1,0.2,0.1,0.5,0.2,0.7c0.1,0.2,0.1,0.5,0.2,0.7
						c0.1,0.2,0.2,0.5,0.2,0.7c0,0.2,0.1,0.5,0.2,0.7c0,0.2,0,0.5,0.1,0.7c0,0.2,0.1,0.5,0.1,0.7
						C135.8,118.4,135.8,118.7,135.8,118.9z"/>
				</g>
			</g>
		</g>
	</g>
	<g>
		<g>
			<g>
				<g>
					<path class="st0" d="M135.7,118.9c0,0.2,0,0.5-0.1,0.7c0,0.2,0,0.5-0.1,0.7c0,0.2-0.1,0.5-0.1,0.7c0,0.2-0.1,0.5-0.1,0.7
						c0,0.2-0.1,0.5-0.1,0.7c-0.1,0.2-0.1,0.5-0.2,0.7c-0.1,0.2-0.2,0.5-0.2,0.7c-0.1,0.2-0.2,0.4-0.3,0.7c-0.1,0.2-0.3,0.4-0.4,0.6
						c-0.1,0.2-0.1,0.5-0.3,0.7c-0.1,0.2-0.3,0.4-0.4,0.6c-0.1,0.2-0.3,0.4-0.4,0.6c-0.1,0.2-0.2,0.4-0.4,0.6
						c-0.2,0.2-0.3,0.3-0.5,0.5c-0.2,0.2-0.3,0.4-0.4,0.6c-0.2,0.2-0.3,0.3-0.5,0.5c-0.2,0.2-0.4,0.3-0.6,0.4
						c-0.2,0.2-0.4,0.3-0.6,0.5c-0.2,0.1-0.4,0.3-0.6,0.4c-0.2,0.1-0.4,0.3-0.6,0.4c-0.2,0.1-0.4,0.3-0.6,0.4
						c-0.2,0.1-0.5,0.1-0.7,0.2c-0.2,0.1-0.4,0.2-0.7,0.3c-0.2,0.1-0.4,0.2-0.7,0.3c-0.2,0.1-0.5,0.2-0.7,0.2
						c-0.2,0.1-0.5,0.1-0.7,0.1c-0.2,0-0.5,0.1-0.7,0.1c-0.2,0-0.5,0-0.7,0.1c-0.2,0-0.5,0-0.7,0.1c-0.2,0-0.5,0.1-0.7,0.1
						c-0.2,0-0.5,0-0.7,0c-0.2,0-0.5-0.1-0.7-0.1c-0.2,0-0.5-0.1-0.7-0.1c-0.2,0-0.5,0-0.7-0.1c-0.2,0-0.5-0.1-0.7-0.2
						c-0.2-0.1-0.5-0.1-0.7-0.2c-0.2-0.1-0.4-0.2-0.7-0.3c-0.2-0.1-0.5-0.2-0.7-0.3c-0.2-0.1-0.5-0.2-0.7-0.3
						c-0.2-0.1-0.4-0.3-0.6-0.4c-0.2-0.1-0.4-0.2-0.6-0.4c-0.2-0.1-0.4-0.2-0.6-0.4c-0.2-0.1-0.3-0.4-0.5-0.5
						c-0.2-0.2-0.4-0.3-0.6-0.5c-0.2-0.2-0.4-0.3-0.5-0.5c-0.2-0.2-0.3-0.3-0.5-0.5c-0.2-0.2-0.3-0.4-0.4-0.6
						c-0.2-0.2-0.3-0.3-0.5-0.5c-0.1-0.2-0.2-0.4-0.4-0.6c-0.1-0.2-0.3-0.4-0.4-0.6c-0.1-0.2-0.2-0.5-0.3-0.7
						c-0.1-0.2-0.3-0.4-0.4-0.6c-0.1-0.2-0.1-0.5-0.2-0.7c-0.1-0.2-0.2-0.4-0.3-0.7c-0.1-0.2-0.1-0.5-0.1-0.7
						c-0.1-0.2-0.1-0.5-0.2-0.7c0-0.2-0.1-0.5-0.1-0.7c0-0.2-0.1-0.5-0.2-0.7c0-0.2,0-0.5,0-0.7c0-0.2,0-0.5,0-0.7
						c0-0.2,0-0.5,0-0.7c0-0.2,0-0.5,0-0.7c0-0.2,0.1-0.5,0.1-0.7c0-0.2,0.1-0.5,0.2-0.7c0-0.2,0.1-0.5,0.1-0.7
						c0.1-0.2,0.1-0.5,0.2-0.7c0.1-0.2,0.2-0.5,0.2-0.7c0.1-0.2,0.2-0.5,0.3-0.7c0.1-0.2,0.2-0.4,0.3-0.6c0.1-0.2,0.3-0.4,0.4-0.6
						c0.1-0.2,0.3-0.4,0.4-0.6c0.1-0.2,0.2-0.4,0.3-0.6c0.1-0.2,0.3-0.4,0.4-0.6c0.2-0.2,0.3-0.3,0.5-0.5c0.2-0.2,0.3-0.4,0.5-0.6
						c0.2-0.2,0.4-0.3,0.5-0.5c0.2-0.2,0.4-0.3,0.6-0.4c0.2-0.2,0.4-0.3,0.6-0.4c0.2-0.1,0.3-0.4,0.5-0.5c0.2-0.1,0.4-0.2,0.6-0.4
						c0.2-0.1,0.4-0.2,0.7-0.3c0.2-0.1,0.4-0.2,0.7-0.3c0.2-0.1,0.4-0.2,0.6-0.3c0.2-0.1,0.4-0.2,0.7-0.3c0.2-0.1,0.5-0.2,0.7-0.2
						c0.2-0.1,0.5-0.1,0.7-0.1c0.2,0,0.5-0.1,0.7-0.1c0.2,0,0.5-0.1,0.7-0.1c0.2,0,0.5,0,0.7,0c0.2,0,0.5,0,0.7,0
						c0.2,0,0.5-0.1,0.7-0.1c0.2,0,0.5,0.1,0.7,0.1c0.2,0,0.5,0.1,0.7,0.1c0.2,0,0.5,0.1,0.7,0.1c0.2,0,0.5,0.2,0.7,0.2
						c0.2,0.1,0.5,0,0.7,0.1c0.2,0.1,0.4,0.3,0.6,0.4c0.2,0.1,0.5,0.1,0.7,0.2c0.2,0.1,0.4,0.2,0.7,0.3c0.2,0.1,0.4,0.3,0.6,0.4
						c0.2,0.1,0.4,0.2,0.6,0.4c0.2,0.1,0.4,0.3,0.6,0.4c0.2,0.1,0.4,0.3,0.6,0.5c0.2,0.2,0.4,0.3,0.6,0.4c0.2,0.2,0.3,0.4,0.5,0.5
						c0.2,0.2,0.4,0.3,0.5,0.5c0.2,0.2,0.3,0.4,0.5,0.5c0.2,0.2,0.3,0.4,0.4,0.6c0.1,0.2,0.3,0.4,0.4,0.6c0.1,0.2,0.3,0.4,0.4,0.6
						c0.1,0.2,0.2,0.4,0.3,0.6c0.1,0.2,0.2,0.4,0.3,0.7c0.1,0.2,0.3,0.4,0.4,0.6c0.1,0.2,0.1,0.5,0.2,0.7c0.1,0.2,0.1,0.5,0.2,0.7
						c0.1,0.2,0.1,0.5,0.1,0.7c0,0.2,0.1,0.5,0.2,0.7c0,0.2,0,0.5,0.1,0.7c0,0.2,0.1,0.5,0.1,0.7
						C135.8,118.4,135.7,118.7,135.7,118.9z"/>
				</g>
			</g>
		</g>
	</g>
</g>
</svg>
