<?xml version="1.0" encoding="utf-8"?>
<!-- Generator: Adobe Illustrator 19.2.0, SVG Export Plug-In . SVG Version: 6.00 Build 0)  -->
<svg version="1.1" xmlns="http://www.w3.org/2000/svg" xmlns:xlink="http://www.w3.org/1999/xlink" x="0px" y="0px"
	 viewBox="0 0 244.8 334.7" style="enable-background:new 0 0 244.8 334.7;" xml:space="preserve">
<style type="text/css">
	.st0{fill:#0D1533;}
	.st1{fill:none;stroke:#FFFFFF;stroke-miterlimit:10;}
	.st2{fill:#153053;}
	.st3{fill:#FFCC06;}
	.st4{fill:#FFFFFF;}
	.st5{fill:none;stroke:#FFFFFF;stroke-width:2;stroke-linecap:round;stroke-miterlimit:10;}
	.st6{fill:none;stroke:#FFCC06;stroke-width:2;stroke-linecap:round;stroke-miterlimit:10;}
	.st7{fill:#132F53;}
	.st8{fill:none;stroke:#FFFFFF;stroke-width:2;stroke-miterlimit:10;}
	.st9{fill:none;stroke:#FFFFFF;stroke-width:2;stroke-linecap:round;stroke-linejoin:round;stroke-miterlimit:10;}
	.st10{clip-path:url(#SVGID_2_);}
</style>
<g id="Layer_2">
	<rect class="st0" width="244.8" height="334.7"/>
</g>
<g id="Layer_1">
	<g>
		<path class="st2" d="M136.4,149.5c-0.1,0.4-0.1,0.4-0.2,0.7c-0.1,0.4-0.2,0.3-0.3,0.7c-0.1,0.4,0,0.4-0.1,0.8
			c-0.1,0.4-0.1,0.4-0.2,0.7c-0.1,0.4-0.2,0.4-0.3,0.7c-0.1,0.4-0.1,0.4-0.2,0.7c-0.1,0.4-0.3,0.3-0.4,0.7c-0.1,0.4,0,0.4,0,0.7
			c0,0.4,0.1,0.4,0.1,0.7c0,0.4,0,0.4,0,0.7c0,0.4,0,0.4,0,0.7c0,0.4,0,0.4,0,0.7c0,0.4,0,0.4,0,0.7c0,0.4-0.1,0.4-0.1,0.7
			c0,0.4,0.1,0.4,0.1,0.7c0,0.4-0.1,0.4-0.1,0.7c0,0.4,0.1,0.4,0.1,0.7c0,0.4,0,0.4,0,0.7c0,0.4,0,0.4,0,0.7c0,0.4,0.1,0.4,0.1,0.7
			c0,0.4,0,0.4,0,0.7c0,0.4-0.1,0.4-0.1,0.7c0,0.4,0,0.4,0,0.7c0,0.4,0,0.4,0,0.7s0,0.4,0,0.7c0,0.4,0,0.4,0,0.7
			c0,0.4,0.1,0.4,0.1,0.7c0,0.4,0,0.4,0,0.7c0,0.4,0,0.4,0,0.7c0,0.4,0,0.4,0,0.7c0,0.4,0,0.4,0,0.7c0,0.4-0.1,0.4-0.1,0.7
			c0,0.4,0.1,0.4,0.1,0.7c0,0.4,0.1,0.4,0.1,0.7c0,0.4,0,0.4,0,0.7c0,0.4,0,0.4,0,0.7c0,0.4,0,0.4,0,0.7c0,0.4,0,0.4,0,0.7
			c0,0.4-0.1,0.4-0.1,0.7c0,0.4,0,0.4,0,0.7c0,0.4,0.1,0.4,0.1,0.7c0,0.4-0.1,0.4-0.1,0.7c0,0.4,0.1,0.4,0.1,0.7c0,0.4,0,0.4,0,0.7
			c0,0.4,0,0.4,0,0.7c0,0.4,0,0.4,0,0.7c0,0.4,0,0.4,0,0.7s0,0.4,0,0.7c0,0.4,0,0.4,0,0.7c0,0.4-0.1,0.4-0.1,0.7
			c0,0.4,0.1,0.4,0.1,0.7c0,0.4,0,0.4,0,0.7c0,0.4-0.1,0.4-0.1,0.7c0,0.4,0.1,0.4,0.1,0.7c0,0.4-0.1,0.4-0.1,0.7
			c0,0.4,0.1,0.4,0.1,0.7c0,0.4-0.1,0.4-0.1,0.7c0,0.4,0,0.4,0,0.7c0,0.4,0,0.4,0,0.7c0,0.4,0,0.4,0,0.7c0,0.4,0.1,0.4,0.1,0.7
			c0,0.4,0,0.4,0,0.7c0,0.4,0,0.4,0,0.7c0,0.4-0.1,0.4-0.1,0.7c0,0.4,0.1,0.4,0.1,0.7c0,0.4-0.1,0.4-0.1,0.7c0,0.4,0,0.4,0,0.7
			c0,0.4,0,0.4,0,0.7c0,0.4,0,0.4,0,0.7c0,0.4,0.1,0.4,0.1,0.7c0,0.4,0.1,0.4,0.1,0.7c0,0.4-0.1,0.4-0.1,0.7c0,0.4,0.1,0.4,0.1,0.7
			c0,0.4-0.1,0.4-0.1,0.7c0,0.4,0.2,0.4,0.2,0.7c0,0.4,0,0.4,0,0.7c0,0.4-0.2,0.4-0.2,0.7c0,0.4,0.1,0.4,0.1,0.7
			c0,0.4-0.1,0.4-0.1,0.7c0,0.4,0.2,0.4,0.2,0.7c0,0.4-0.1,0.4-0.1,0.7c0,0.4,0.1,0.4,0.1,0.7c0,0.4,0,0.4,0,0.7
			c0,0.4-0.1,0.4-0.1,0.7c0,0.4,0,0.4,0,0.7c0,0.4,0,0.4,0,0.7c0,0.4-0.1,0.4-0.1,0.7c0,0.4,0,0.4,0,0.7c0,0.4,0,0.4,0,0.7
			c0,0.4,0.1,0.4,0.1,0.7c0,0.4,0,0.4,0,0.7c0,0.4,0.1,0.4,0.1,0.7c0,0.4-0.1,0.4-0.1,0.7c0,0.4,0.1,0.4,0.1,0.7c0,0.4,0,0.4,0,0.7
			c0,0.4,0,0.4,0,0.7c0,0.4-0.1,0.4-0.1,0.7c0,0.4,0.1,0.4,0.1,0.7c0,0.4-0.1,0.4-0.1,0.7c0,0.4,0.1,0.4,0.1,0.7
			c0,0.4-0.1,0.4-0.1,0.7c0,0.4-0.1,0.4-0.1,0.7c0,0.4,0.1,0.4,0.1,0.7c0,0.4,0,0.4,0,0.7c0,0.4,0,0.4,0,0.7c0,0.4,0,0.4,0,0.7
			c0,0.4,0,0.4,0,0.7c0,0.4-0.1,0.4-0.1,0.7c0,0.4,0.1,0.4,0.1,0.7c0,0.4,0,0.4,0,0.7c0,0.4-0.1,0.4-0.1,0.7c0,0.4,0.1,0.4,0.1,0.7
			c0,0.4,0,0.4,0,0.7c0,0.4-0.1,0.4-0.1,0.7c0,0.4,0,0.4,0,0.7c0,0.4,0.1,0.4,0.1,0.7c0,0.4-0.1,0.4-0.1,0.7c0,0.4,0.1,0.4,0.1,0.7
			c0,0.4,0,0.4,0,0.7c0,0.4-0.1,0.4-0.1,0.7c0,0.4,0,0.4,0,0.7c0,0.4,0.1,0.4,0.1,0.7c0,0.4-0.1,0.4-0.1,0.7c0,0.4,0,0.4,0,0.7
			c0,0.4-0.1,0.4-0.1,0.7c0,0.4,0.2,0.4,0.2,0.7c0,0.1-0.1-0.1-0.2-0.1c-0.4,0-0.4,0.1-0.7,0.1c-0.4,0-0.4,0.1-0.7,0.1
			c-0.4,0-0.4,0-0.7,0c-0.4,0-0.4,0-0.7,0c-0.4,0-0.4-0.1-0.7-0.1c-0.4,0-0.4,0-0.7,0c-0.4,0-0.4,0-0.7,0c-0.4,0-0.4,0.1-0.7,0.1
			c-0.4,0-0.4,0-0.7,0c-0.4,0-0.4,0-0.7,0c-0.4,0-0.4,0.1-0.7,0.1c-0.4,0-0.4-0.1-0.7-0.1c-0.4,0-0.4,0-0.7,0
			c-0.4,0-0.4-0.1-0.7-0.1c-0.4,0-0.4,0-0.7,0c-0.4,0-0.4,0-0.7,0c-0.4,0-0.4,0.1-0.7,0.1c-0.4,0-0.4-0.1-0.7-0.1
			c-0.4,0-0.4,0.1-0.7,0.1c-0.4,0-0.4-0.1-0.7-0.1c-0.4,0-0.4,0.1-0.7,0.1c-0.4,0-0.4-0.1-0.7-0.1c-0.4,0-0.4,0-0.7,0
			c-0.4,0-0.4,0.1-0.7,0.1c-0.4,0-0.4-0.1-0.7-0.1c-0.4,0-0.4,0-0.7,0c-0.4,0-0.4-0.1-0.7-0.1c-0.4,0-0.4,0-0.7,0
			c-0.4,0-0.4,0.1-0.7,0.1c-0.4,0-0.4,0-0.7,0c-0.4,0-0.4-0.1-0.7-0.1c-0.4,0-0.4,0-0.7,0c-0.4,0-0.4,0.1-0.7,0.1
			c-0.4,0-0.4,0-0.7,0c-0.4,0-0.4,0-0.7,0c-0.4,0-0.4-0.1-0.7-0.1c-0.4,0-0.4,0-0.7,0c-0.4,0-0.4,0-0.7,0c-0.4,0-0.4,0.1-0.7,0.1
			c-0.4,0-0.4-0.1-0.7-0.1c-0.4,0-0.4,0-0.7,0c-0.4,0-0.4,0.1-0.7,0.1c-0.4,0-0.4,0-0.7,0c-0.4,0-0.4,0-0.7,0
			c-0.4,0-0.4-0.1-0.7-0.1c-0.4,0-0.4,0-0.7,0c-0.4,0-0.4,0-0.7,0c-0.4,0-0.4,0.1-0.7,0.1c-0.4,0-0.4-0.1-0.7-0.1
			c-0.4,0-0.4-0.1-0.7-0.1c-0.4,0-0.4,0.1-0.7,0.1c-0.1,0-0.2,0-0.2,0c0-0.4,0.1-0.4,0.1-0.7c0-0.4-0.1-0.4-0.1-0.7
			c0-0.4,0.1-0.4,0.1-0.7c0-0.4,0-0.4,0-0.7c0-0.4,0-0.4,0-0.7c0-0.4,0-0.4,0-0.7c0-0.4-0.1-0.4-0.1-0.7c0-0.4,0.1-0.4,0.1-0.7
			c0-0.4-0.1-0.4-0.1-0.7c0-0.4,0.1-0.4,0.1-0.7c0-0.4,0-0.4,0-0.7c0-0.4,0-0.4,0-0.7c0-0.4,0-0.4,0-0.7c0-0.4,0.1-0.4,0.1-0.7
			c0-0.4,0-0.4,0-0.7c0-0.4-0.1-0.4-0.1-0.7c0-0.4,0.1-0.4,0.1-0.7c0-0.4,0-0.4,0-0.7c0-0.4,0-0.4,0-0.7c0-0.4-0.1-0.4-0.1-0.7
			c0-0.4,0-0.4,0-0.7c0-0.4,0.1-0.4,0.1-0.7c0-0.4,0-0.4,0-0.7c0-0.4,0-0.4,0-0.7c0-0.4-0.1-0.4-0.1-0.7c0-0.4,0-0.4,0-0.7
			c0-0.4,0.1-0.4,0.1-0.7c0-0.4-0.1-0.4-0.1-0.7c0-0.4,0.1-0.4,0.1-0.7c0-0.4,0-0.4,0-0.7c0-0.4,0-0.4,0-0.7c0-0.4,0-0.4,0-0.7
			c0-0.4,0-0.4,0-0.7c0-0.4,0-0.4,0-0.7c0-0.4-0.1-0.4-0.1-0.7c0-0.4,0.1-0.4,0.1-0.7c0-0.4,0.1-0.4,0.1-0.7c0-0.4-0.1-0.4-0.1-0.7
			c0-0.4,0-0.4,0-0.7c0-0.4,0.1-0.4,0.1-0.7c0-0.4,0.1-0.4,0.1-0.7c0-0.4-0.1-0.4-0.1-0.7c0-0.4,0-0.4,0-0.7c0-0.4,0.1-0.4,0.1-0.7
			c0-0.4-0.1-0.4-0.1-0.7c0-0.4,0-0.4,0-0.7c0-0.4-0.1-0.4-0.1-0.7c0-0.4,0-0.4,0-0.7c0-0.4,0-0.4,0-0.7c0-0.4,0.1-0.4,0.1-0.7
			c0-0.4,0-0.4,0-0.7c0-0.4-0.1-0.4-0.1-0.7c0-0.4,0.1-0.4,0.1-0.7c0-0.4,0-0.4,0-0.7c0-0.4,0-0.4,0-0.7c0-0.4,0-0.4,0-0.7
			c0-0.4,0-0.4,0-0.7c0-0.4,0-0.4,0-0.7c0-0.4,0.1-0.4,0.1-0.7c0-0.4,0-0.4,0-0.7c0-0.4-0.1-0.4-0.1-0.7c0-0.4,0-0.4,0-0.7
			c0-0.4,0-0.4,0-0.7c0-0.4-0.1-0.4-0.1-0.7c0-0.4,0.1-0.4,0.1-0.7c0-0.4-0.2-0.4-0.2-0.7c0-0.4,0.1-0.4,0.1-0.7c0-0.4,0-0.4,0-0.7
			c0-0.4,0.1-0.4,0.1-0.7c0-0.4,0-0.4,0-0.7c0-0.4,0-0.4,0-0.7c0-0.4-0.1-0.4-0.1-0.7c0-0.4,0.2-0.4,0.2-0.7c0-0.4-0.2-0.4-0.2-0.7
			c0-0.4,0.1-0.4,0.1-0.7c0-0.4-0.1-0.4-0.1-0.7c0-0.4,0-0.4,0-0.7c0-0.4,0-0.4,0-0.7c0-0.4,0.2-0.4,0.2-0.7c0-0.4-0.1-0.4-0.1-0.7
			c0-0.4,0-0.4,0-0.7c0-0.4,0.1-0.4,0.1-0.7c0-0.4-0.1-0.4-0.1-0.7c0-0.4,0-0.4,0-0.7c0-0.4,0-0.4,0-0.7c0-0.4,0-0.4,0-0.7
			c0-0.4-0.1-0.4-0.1-0.7c0-0.4,0-0.4,0-0.7c0-0.4,0-0.4,0-0.7c0-0.4,0.1-0.4,0.1-0.7c0-0.4-0.1-0.4-0.1-0.7c0-0.4,0.1-0.4,0.1-0.7
			c0-0.4-0.1-0.4-0.1-0.7c0-0.4,0-0.4,0-0.7c0-0.4,0-0.4,0-0.7c0-0.4,0-0.4,0-0.7c0-0.4,0-0.4,0-0.7c0-0.4-0.1-0.4-0.1-0.7
			c0-0.4,0.1-0.4,0.1-0.7c0-0.4,0-0.4,0-0.7c0-0.4-0.1-0.4-0.1-0.7c0-0.4,0-0.4,0-0.7c0-0.4,0-0.4,0-0.7c0-0.4,0-0.4,0-0.7
			c0-0.4-0.1-0.4-0.1-0.7c0-0.4,0.1-0.4,0.1-0.7c0-0.4,0-0.4,0-0.7c0-0.4,0.1-0.4,0.1-0.7c0-0.4,0-0.4,0-0.7c0-0.4,0-0.4,0-0.7
			c0-0.4,0-0.4,0-0.7c0-0.4,0-0.4,0-0.7c0-0.4-0.1-0.4-0.1-0.7c0-0.4,0-0.4,0-0.7c0-0.4,0-0.4,0-0.7c0-0.4,0-0.4,0-0.7
			c0-0.4,0-0.4,0-0.7c0-0.4,0.1-0.4,0.1-0.7c0-0.4,0-0.4,0-0.7c-0.1-0.4-0.1-0.4-0.3-0.7c-0.1-0.4-0.2-0.3-0.3-0.7
			c-0.1-0.4,0-0.4-0.1-0.7c-0.1-0.4-0.1-0.3-0.3-0.7c-0.1-0.4-0.2-0.3-0.3-0.7c-0.1-0.4,0-0.4-0.2-0.7s-0.3-0.3-0.3-0.7
			c0-0.1,0.1-0.1,0.2-0.1c0.1,0.2,0.2,0.3,0.4,0.5c0.2,0.1,0.3,0.3,0.6,0.4c0.2,0.1,0.4,0.3,0.6,0.4c0.2,0.1,0.4,0.2,0.7,0.3
			c0.2,0.1,0.4,0.2,0.7,0.2c0.2,0.1,0.5,0,0.7,0c0.2,0.1,0.5,0.1,0.7,0.2c0.2,0.1,0.5,0.1,0.7,0.2c0.2,0,0.4,0.2,0.7,0.2
			c0.2,0,0.5,0,0.7,0c0.2,0,0.4,0.2,0.7,0.2c0.2,0,0.5,0,0.7,0c0.2,0,0.5,0,0.7,0.1c0.2,0,0.5,0.2,0.7,0.2c0.2,0,0.5,0,0.7,0
			c0.2,0,0.5,0.1,0.7,0.1c0.2,0,0.5,0,0.7,0c0.2,0,0.5,0.1,0.7,0.1c0.2,0,0.5,0,0.7,0.1c0.2,0,0.5,0,0.7,0c0.2,0,0.5,0.1,0.7,0.1
			c0.2,0,0.5,0.1,0.7,0.1c0.2,0,0.5,0,0.7,0c0.2,0,0.5,0,0.7,0c0.2,0,0.5-0.1,0.7-0.1c0.2,0,0.5,0.1,0.7,0.1c0.2,0,0.5,0,0.7,0
			c0.2,0,0.5,0,0.7,0s0.5,0,0.7,0c0.1,0,0.1,0.1,0.3,0.1c0.2,0,0.5-0.1,0.7-0.1c0.2,0,0.5,0,0.7,0c0.2,0,0.5,0,0.7,0
			c0.2,0,0.5,0,0.7,0c0.2,0,0.5-0.1,0.7-0.1c0.2,0,0.5-0.1,0.7-0.1c0.2,0,0.5,0,0.7,0c0.2,0,0.5,0,0.7,0c0.2,0,0.5,0,0.7,0
			c0.2,0,0.5-0.1,0.7-0.1c0.2,0,0.5-0.1,0.7-0.1c0.2,0,0.5,0,0.7,0c0.2,0,0.5-0.1,0.7-0.2c0.2,0,0.5,0,0.7-0.1c0.2,0,0.5,0,0.7-0.1
			c0.2,0,0.5-0.1,0.7-0.1c0.2,0,0.5-0.1,0.7-0.1c0.2,0,0.5-0.1,0.7-0.1c0.2,0,0.5,0,0.7-0.1c0.2,0,0.5-0.1,0.7-0.2
			c0.2,0,0.5,0,0.7-0.1c0.2,0,0.5,0,0.7-0.1c0.2-0.1,0.5-0.1,0.7-0.2c0.2-0.1,0.5-0.2,0.7-0.2c0.2-0.1,0.4-0.2,0.7-0.3
			c0.2-0.1,0.5-0.1,0.7-0.2c0.2-0.1,0.5-0.1,0.7-0.2c0.2-0.1,0.4-0.3,0.6-0.4C136.2,150,136.3,149.7,136.4,149.5
			C136.4,149.5,136.4,149.5,136.4,149.5z"/>
	</g>
	<g id="XMLID_7_">
		<g>
			<g>
				<g>
					<path class="st3" d="M183.4,95.2c0.3-0.1,0.6,0.1,0.8,0.3c0.1,0.2,0.2,0.5-0.1,0.8c-0.2,0.2-0.2,0.3-0.5,0.5
						c-0.2,0.2-0.3,0.2-0.5,0.5c-0.3,0.3-0.3,0.2-0.5,0.5c-0.3,0.3-0.3,0.2-0.5,0.5c-0.3,0.3-0.2,0.3-0.4,0.6
						c-0.2,0.2-0.3,0.2-0.6,0.4c-0.3,0.3-0.2,0.3-0.4,0.6c-0.3,0.3-0.3,0.2-0.5,0.5c-0.3,0.3-0.2,0.3-0.5,0.5
						c-0.3,0.3-0.3,0.2-0.5,0.5c-0.2,0.2-0.2,0.3-0.5,0.5c-0.3,0.3-0.3,0.2-0.6,0.4c-0.3,0.3-0.2,0.3-0.5,0.6
						c-0.3,0.3-0.3,0.2-0.5,0.5c-0.3,0.3-0.3,0.2-0.5,0.5c-0.3,0.3-0.2,0.3-0.5,0.5c-0.3,0.3-0.3,0.2-0.5,0.5
						c-0.3,0.3-0.3,0.3-0.5,0.5c-0.2,0.2-0.3,0.3-0.5,0.5c-0.2,0.2-0.3,0.4-0.5,0.5c-0.2,0.2-0.4,0.3-0.5,0.5
						c-0.2,0.2-0.4,0.3-0.5,0.5c-0.2,0.2-0.4,0.3-0.6,0.5c-0.2,0.2-0.4,0.3-0.6,0.5c-0.2,0.2-0.4,0.3-0.6,0.4
						c-0.2,0.1-0.4,0.3-0.6,0.4c-0.2,0.1-0.4,0.3-0.6,0.4c-0.2,0.1-0.3,0.3-0.5,0.5c-0.2,0.1-0.4,0.2-0.6,0.3
						c-0.2,0.1-0.4,0.3-0.6,0.4c-0.2,0.1-0.4,0.3-0.6,0.4c-0.2,0.1-0.5,0.2-0.7,0.3c-0.2,0.1-0.4,0.3-0.6,0.4
						c-0.2,0.1-0.4,0.2-0.6,0.4c-0.2,0.1-0.5,0.1-0.7,0.2c-0.2,0.1-0.4,0.2-0.6,0.3c-0.2,0.1-0.4,0.3-0.6,0.4
						c-0.2,0.1-0.5,0.1-0.7,0.2c-0.2,0.1-0.4,0.2-0.7,0.3c-0.2,0.1-0.4,0.2-0.7,0.3c-0.2,0.1-0.5,0.1-0.7,0.2
						c-0.2,0.1-0.4,0.2-0.7,0.3c-0.2,0.1-0.5,0.1-0.7,0.2c-0.2,0.1-0.4,0.2-0.7,0.3c-0.3,0.1-0.4,0-0.7,0.1
						c-0.3,0.1-0.3,0.2-0.7,0.3c-0.3,0.1-0.3,0.1-0.7,0.2c-0.3,0.1-0.4,0-0.7,0.1c-0.3,0.1-0.3,0.2-0.7,0.3
						c-0.3,0.1-0.4,0.1-0.7,0.2c-0.3,0.1-0.3,0.2-0.7,0.3c-0.3,0.1-0.3,0.1-0.7,0.2c-0.3,0.1-0.4,0.1-0.7,0.2
						c-0.3,0.1-0.4,0-0.7,0.1c-0.3,0.1-0.3,0.2-0.7,0.3c-0.3,0.1-0.4,0-0.7,0.1c-0.3,0.1-0.3,0.1-0.7,0.2c-0.3,0.1-0.4,0.1-0.7,0.2
						c-0.2,0.1-0.5,0.2-0.7,0.2c-0.2,0.1-0.5,0.2-0.7,0.3c-0.2,0.1-0.5,0.2-0.7,0.3c-0.2,0.1-0.4,0.3-0.6,0.4
						c-0.2,0.1-0.5,0.2-0.7,0.3c-0.2,0.1-0.4,0.4-0.6,0.5c-0.2,0.1-0.4,0.3-0.6,0.4c-0.2,0.2-0.4,0.3-0.6,0.5
						c-0.2,0.2-0.4,0.3-0.5,0.5c-0.3,0.3-0.2,0.3-0.5,0.5c-0.3,0.3-0.3,0.2-0.5,0.5c-0.2,0.2-0.3,0.2-0.5,0.5
						c-0.2,0.2-0.2,0.3-0.5,0.5c-0.2,0.2-0.2,0.3-0.5,0.5c-0.2,0.2-0.3,0.2-0.5,0.5c-0.3,0.3-0.3,0.2-0.6,0.4
						c-0.3,0.3-0.2,0.3-0.5,0.5c-0.3,0.3-0.2,0.3-0.5,0.5c-0.3,0.3-0.3,0.2-0.5,0.5c-0.3,0.3-0.2,0.3-0.5,0.5
						c-0.3,0.3-0.2,0.3-0.5,0.5c-0.3,0.3-0.3,0.3-0.5,0.5c-0.3,0.3-0.3,0.2-0.5,0.5c-0.3,0.3-0.3,0.2-0.5,0.5
						c-0.2,0.2-0.2,0.3-0.5,0.5c-0.3,0.3-0.3,0.2-0.5,0.5c-0.3,0.3-0.3,0.3-0.5,0.5c-0.3,0.3-0.3,0.2-0.5,0.5
						c-0.3,0.3-0.2,0.3-0.4,0.6c-0.3,0.3-0.3,0.2-0.6,0.5c-0.3,0.3-0.3,0.2-0.5,0.5c-0.3,0.3-0.2,0.3-0.4,0.6
						c-0.2,0.2-0.4,0.3-0.6,0.4c-0.2,0.1-0.4,0.3-0.6,0.4c-0.2,0.1-0.5,0.1-0.8,0.1c-0.3,0-0.5,0.1-0.8,0.1c-0.3,0-0.5-0.1-0.7-0.2
						c-0.2-0.1-0.5-0.2-0.7-0.3c-0.2-0.1-0.4-0.3-0.6-0.5c-0.2-0.2-0.3-0.1-0.5-0.3c-0.2-0.2-0.2-0.2-0.4-0.4s-0.2-0.2-0.4-0.3
						s-0.1-0.3-0.3-0.5c-0.2-0.2-0.4-0.3-0.5-0.6c-0.1-0.2-0.2-0.5-0.3-0.7c-0.1-0.2-0.2-0.5-0.3-0.7c0-0.3,0.1-0.5,0.1-0.8
						c0-0.3,0.1-0.5,0.2-0.7c0.1-0.2,0.2-0.5,0.3-0.7c0.1-0.2,0.2-0.4,0.4-0.6c0.3-0.3,0.2-0.3,0.5-0.5c0.3-0.3,0.3-0.2,0.6-0.4
						c0.2-0.2,0.2-0.3,0.5-0.5c0.2-0.2,0.2-0.3,0.5-0.5c0.2-0.2,0.3-0.2,0.6-0.4c0.2-0.2,0.2-0.3,0.4-0.6c0.3-0.3,0.3-0.2,0.5-0.5
						c0.3-0.3,0.3-0.2,0.5-0.5c0.3-0.3,0.2-0.3,0.5-0.5c0.3-0.3,0.2-0.3,0.5-0.5c0.3-0.3,0.3-0.2,0.5-0.5c0.3-0.3,0.2-0.3,0.5-0.6
						c0.3-0.3,0.3-0.2,0.5-0.5c0.3-0.3,0.2-0.3,0.5-0.5c0.3-0.3,0.3-0.2,0.5-0.5c0.2-0.2,0.2-0.2,0.5-0.5c0.3-0.3,0.2-0.3,0.5-0.5
						c0.3-0.3,0.3-0.2,0.5-0.5c0.3-0.3,0.2-0.3,0.5-0.5c0.3-0.3,0.3-0.2,0.6-0.5c0.3-0.3,0.3-0.2,0.5-0.5c0.3-0.3,0.3-0.2,0.5-0.5
						c0.3-0.3,0.2-0.3,0.5-0.6c0.2-0.2,0.4-0.4,0.5-0.5c0.2-0.2,0.3-0.4,0.5-0.6c0.2-0.2,0.4-0.3,0.5-0.5c0.1-0.2,0.2-0.4,0.4-0.7
						c0.1-0.2,0.2-0.4,0.3-0.7c0.1-0.2,0.3-0.4,0.4-0.7c0.1-0.2,0.3-0.4,0.4-0.7c0.1-0.2,0.2-0.5,0.3-0.7c0.1-0.2,0.1-0.5,0.2-0.7
						c0.1-0.3,0.1-0.4,0.2-0.7c0.1-0.3,0.2-0.3,0.3-0.7c0.1-0.3,0.1-0.4,0.2-0.7c0.1-0.3,0.2-0.3,0.3-0.7c0.1-0.3,0.1-0.4,0.2-0.7
						c0.1-0.3,0.1-0.3,0.2-0.7c0.1-0.3,0.1-0.3,0.2-0.7c0.1-0.3,0.1-0.3,0.2-0.7c0.1-0.3,0.1-0.3,0.2-0.7c0.1-0.3,0.1-0.4,0.2-0.7
						c0.1-0.3,0.1-0.3,0.2-0.7c0.1-0.3,0.1-0.3,0.2-0.7c0.1-0.3,0.1-0.3,0.2-0.7c0.1-0.3,0.1-0.4,0.2-0.7c0.1-0.3,0.2-0.5,0.2-0.8
						c0.1-0.3,0.2-0.5,0.3-0.8c0.1-0.3,0.2-0.5,0.3-0.7c0.1-0.2,0.2-0.4,0.4-0.6c0.2-0.2,0.4-0.3,0.6-0.3c0.2,0,0.5,0,0.7,0.1
						c0.2,0.1,0.5,0.1,0.7,0.1c0.2,0.1,0.4,0.2,0.7,0.3c0.2,0.1,0.5,0.1,0.7,0.1c0.2,0.1,0.4,0.2,0.7,0.2c0.2,0.1,0.4,0.2,0.7,0.2
						c0.2,0.1,0.5,0.1,0.7,0.2c0.2,0.1,0.5,0,0.7,0.1c0.2,0,0.4,0.2,0.7,0.2c0.2,0,0.5,0.1,0.7,0.1c0.2,0,0.5,0,0.7,0.1
						c0.2,0,0.5,0.1,0.7,0.1c0.2,0,0.5,0.1,0.7,0.1c0.2,0,0.5,0.1,0.7,0.1c0.2,0,0.5,0,0.7,0c0.2,0,0.5,0.1,0.7,0.1
						c0.2,0,0.5,0.1,0.7,0.1c0.2,0,0.5,0.1,0.7,0.1c0.2,0,0.5,0,0.7,0.1c0.2,0,0.5,0,0.7,0.1c0.2,0,0.5,0,0.7,0c0.2,0,0.5,0,0.7,0
						c0.2,0,0.5,0.1,0.7,0.1c0.2,0,0.5-0.1,0.7-0.1c0.2,0,0.5,0.1,0.7,0.1c0.2,0,0.5-0.1,0.7-0.1c0.2,0,0.5,0,0.7,0
						c0.2,0,0.5,0,0.7,0c0.2,0,0.5,0,0.7,0c0.2,0,0.5,0,0.7-0.1c0.2,0,0.5,0,0.7,0c0.2,0,0.5,0,0.7-0.1c0.2,0,0.5-0.1,0.7-0.1
						c0.2,0,0.5,0,0.7,0c0.2,0,0.5-0.1,0.7-0.1c0.2,0,0.5-0.1,0.7-0.1c0.2,0,0.5-0.1,0.7-0.2c0.2,0,0.5,0,0.7,0c0.2,0,0.5,0,0.7-0.1
						c0.2,0,0.5-0.1,0.7-0.1c0.2,0,0.5-0.2,0.7-0.2c0.2,0,0.5-0.1,0.7-0.1c0.2,0,0.5,0,0.7-0.1c0.2-0.1,0.5-0.2,0.7-0.2
						c0.2-0.1,0.5-0.1,0.7-0.1c0.2-0.1,0.5-0.1,0.7-0.2c0.2-0.1,0.5-0.1,0.7-0.2c0.2-0.1,0.4-0.2,0.7-0.3c0.2-0.1,0.5-0.1,0.7-0.2
						c0.2-0.1,0.5-0.1,0.7-0.2c0.2-0.1,0.5-0.2,0.7-0.2c0.2-0.1,0.5-0.1,0.7-0.2c0.2-0.1,0.4-0.2,0.7-0.3
						C183,95.4,183.2,95.2,183.4,95.2z"/>
				</g>
			</g>
		</g>
	</g>
	<g>
		<path class="st3" d="M83.5,195.2c0,0.4,0,0.4,0,0.7c0,0.4,0,0.4,0,0.7c0,0.4,0.1,0.4,0.1,0.7c0,0.4,0,0.4,0,0.7
			c0,0.4-0.1,0.4-0.1,0.7c0,0.4,0.1,0.4,0.1,0.7c0,0.4,0,0.4,0,0.7c0,0.4,0.1,0.4,0.1,0.7c0,0.4-0.1,0.4-0.1,0.7c0,0.4,0,0.4,0,0.7
			c0,0.4,0,0.4,0,0.7c0,0.4,0,0.4,0,0.7c0,0.4,0,0.4,0,0.7c0,0.4,0,0.4,0,0.7c0,0.4,0.1,0.4,0.1,0.7c0,0.4,0,0.4,0,0.7
			c0,0.4,0,0.4,0,0.7c0,0.4,0,0.4,0,0.7c0,0.4,0,0.4,0,0.7c0,0.4,0.1,0.4,0.1,0.7c0,0.4,0,0.4,0,0.7c0,0.4,0.1,0.4,0.1,0.7
			c0,0.4,0,0.4,0,0.7c0,0.4-0.1,0.4-0.1,0.7c0,0.4,0,0.4,0,0.7c0,0.4,0,0.4,0,0.7c0,0.4,0,0.4,0,0.7c0,0.4,0.1,0.4,0.1,0.7
			c0,0.4-0.1,0.4-0.1,0.7c0,0.4,0.1,0.4,0.1,0.7c0,0.4,0,0.4,0,0.7c0,0.4-0.1,0.4-0.1,0.7c0,0.4,0.1,0.4,0.1,0.7
			c0,0.4-0.1,0.4-0.1,0.7c0,0.4,0.1,0.4,0.1,0.7c0,0.4,0,0.4,0,0.7c0,0.4-0.1,0.4-0.1,0.7c0,0.4,0.1,0.4,0.1,0.7
			c0,0.4-0.1,0.4-0.1,0.7c0,0.4,0,0.4,0,0.7c0,0.4,0,0.4,0,0.7c0,0.4,0,0.4,0,0.7c0,0.4,0,0.4,0,0.7c0,0.4,0.1,0.4,0.1,0.7
			c0,0.4,0,0.4,0,0.7c0,0.4-0.1,0.4-0.1,0.7c0,0.4,0,0.4,0,0.7c0,0.4,0,0.4,0,0.7c0,0.4,0,0.4,0,0.7c0,0.4,0,0.4,0,0.7
			c0,0.4,0,0.4,0,0.7c0,0.4,0,0.4,0,0.7c0,0.4,0,0.4,0,0.7c0,0.4,0,0.4,0,0.7c0,0.4-0.1,0.4-0.1,0.7c0,0.4,0.1,0.4,0.1,0.7
			c0,0.4,0,0.4,0,0.7c0,0.4,0,0.4,0,0.7c0,0.4,0,0.4,0,0.7c0,0.4,0,0.4,0,0.7c0,0.4,0,0.4,0,0.7c0,0.4-0.1,0.4-0.1,0.7
			c0,0.4,0,0.4,0,0.7c0,0.4,0,0.4,0,0.7c0,0.4-0.1,0.4-0.1,0.7c0,0.4,0,0.4,0,0.7c0,0.4,0,0.4,0,0.7c0,0.4,0.1,0.4,0.1,0.7
			c0,0.4,0,0.4,0,0.7c0,0.4-0.1,0.4-0.1,0.7c0,0.4,0.1,0.4,0.1,0.7c0,0.4-0.1,0.4-0.1,0.7c0,0.4,0,0.4,0,0.7c0,0.4,0.1,0.4,0.1,0.7
			c0,0.4-0.1,0.4-0.1,0.7c0,0.4,0,0.4,0,0.7c0,0.2,0,0.5,0,0.7c0,0.2,0,0.5,0,0.7c0,0.2,0,0.5-0.1,0.7c0,0.2,0,0.5,0,0.7
			c0,0.2-0.1,0.5-0.2,0.7c0,0.2-0.1,0.5-0.1,0.7c0,0.2-0.1,0.5-0.1,0.7c0,0.2,0,0.5-0.1,0.7c-0.1,0.2-0.2,0.5-0.2,0.7
			c-0.1,0.2-0.1,0.5-0.2,0.7c-0.1,0.2,0,0.5-0.1,0.7c-0.1,0.2-0.2,0.5-0.2,0.7c-0.1,0.2-0.2,0.4-0.3,0.7c-0.1,0.2-0.2,0.4-0.3,0.6
			c-0.1,0.2-0.1,0.5-0.2,0.7c-0.1,0.2-0.2,0.4-0.3,0.6c-0.1,0.2-0.2,0.4-0.3,0.6c-0.1,0.2-0.3,0.4-0.4,0.6c-0.1,0.2-0.1,0.5-0.3,0.7
			c-0.1,0.2-0.2,0.4-0.4,0.6c-0.1,0.2-0.2,0.4-0.4,0.6c-0.1,0.2-0.3,0.3-0.5,0.5c-0.1,0.2-0.3,0.4-0.4,0.6c-0.1,0.2-0.3,0.4-0.4,0.6
			c-0.2,0.2-0.4,0.3-0.5,0.5c-0.2,0.2-0.3,0.4-0.4,0.6c-0.2,0.2-0.3,0.4-0.5,0.6c-0.2,0.2-0.4,0.3-0.5,0.5c-0.2,0.2-0.3,0.3-0.5,0.5
			c-0.2,0.2-0.4,0.2-0.6,0.4c-0.2,0.1-0.3,0.4-0.5,0.5c-0.2,0.1-0.5,0.2-0.7,0.3c-0.2,0.1-0.4,0.3-0.6,0.4c-0.2,0.1-0.4,0.3-0.6,0.5
			c-0.2,0.1-0.4,0.3-0.6,0.4c-0.2,0.1-0.4,0.2-0.7,0.3c-0.2,0.1-0.5,0.1-0.7,0.2c-0.2,0.1-0.4,0.2-0.7,0.3c-0.2,0.1-0.5,0.1-0.7,0.2
			c-0.2,0.1-0.5,0.2-0.7,0.2c-0.2,0.1-0.5,0-0.7,0c-0.2,0-0.5,0.1-0.7,0.1c-0.2,0-0.5,0.1-0.7,0.2c-0.2,0-0.5,0-0.7,0
			c-0.2,0-0.5,0.1-0.7,0.1c-0.2,0-0.5-0.1-0.7-0.1c-0.2,0-0.5,0.1-0.7,0.1c-0.2,0-0.5,0-0.7-0.1c-0.2,0-0.5-0.2-0.7-0.2
			c-0.2,0-0.5-0.1-0.7-0.2c-0.2-0.1-0.5,0-0.7-0.1c-0.2-0.1-0.4-0.2-0.7-0.3c-0.2-0.1-0.5-0.1-0.7-0.2c-0.2-0.1-0.4-0.2-0.7-0.3
			c-0.2-0.1-0.4-0.2-0.7-0.3c-0.2-0.1-0.4-0.2-0.6-0.3c-0.2-0.1-0.4-0.2-0.7-0.3c-0.2-0.1-0.5-0.2-0.7-0.3c-0.2-0.1-0.4-0.3-0.6-0.4
			c-0.2-0.1-0.4-0.3-0.6-0.5c-0.2-0.1-0.4-0.3-0.6-0.5c-0.2-0.2-0.4-0.3-0.6-0.4c-0.2-0.2-0.3-0.4-0.5-0.6c-0.2-0.2-0.4-0.3-0.6-0.5
			c-0.2-0.2-0.3-0.4-0.5-0.6c-0.2-0.2-0.4-0.3-0.5-0.5c-0.2-0.2-0.3-0.4-0.4-0.6c-0.2-0.2-0.4-0.3-0.5-0.5c-0.1-0.2-0.3-0.4-0.4-0.6
			c-0.1-0.2-0.3-0.4-0.4-0.6c-0.1-0.2-0.3-0.4-0.4-0.6c-0.1-0.2-0.2-0.4-0.3-0.6c-0.1-0.2-0.1-0.5-0.2-0.7c-0.1-0.2-0.2-0.4-0.3-0.7
			c-0.1-0.2-0.2-0.4-0.3-0.7c-0.1-0.2-0.3-0.4-0.3-0.7c-0.1-0.2-0.2-0.5-0.2-0.7c-0.1-0.2-0.2-0.4-0.3-0.7c-0.1-0.2,0-0.5-0.1-0.7
			c-0.1-0.2-0.2-0.4-0.3-0.7c-0.1-0.2-0.1-0.5-0.1-0.7c-0.1-0.2-0.1-0.5-0.1-0.7c0-0.2-0.1-0.5-0.1-0.7c0-0.2,0-0.5-0.1-0.7
			c0-0.2-0.1-0.5-0.1-0.7c0-0.2-0.1-0.5-0.1-0.7c0-0.2-0.1-0.5-0.1-0.7c0-0.2,0-0.5,0-0.7c0-0.2,0.1-0.5,0.1-0.7
			c0-0.4-0.1-0.4-0.1-0.7c0-0.4,0-0.4,0-0.7c0-0.4,0-0.4,0-0.7c0-0.4-0.1-0.4-0.1-0.7c0-0.4,0-0.4,0-0.7c0-0.4,0.1-0.4,0.1-0.7
			c0-0.4,0-0.4,0-0.7c0-0.4,0-0.4,0-0.7c0-0.4-0.1-0.4-0.1-0.7c0-0.4,0-0.4,0-0.7c0-0.4,0.1-0.4,0.1-0.7c0-0.4-0.1-0.4-0.1-0.7
			c0-0.4,0-0.4,0-0.7c0-0.4,0-0.4,0-0.7c0-0.4,0.1-0.4,0.1-0.7c0-0.4,0-0.4,0-0.7c0-0.4-0.1-0.4-0.1-0.7c0-0.4,0.1-0.4,0.1-0.7
			c0-0.4,0-0.4,0-0.7c0-0.4-0.1-0.4-0.1-0.7c0-0.4,0-0.4,0-0.7c0-0.4,0-0.4,0-0.7c0-0.4,0-0.4,0-0.7c0-0.4,0-0.4,0-0.7
			c0-0.4-0.1-0.4-0.1-0.7c0-0.4,0.1-0.4,0.1-0.7c0-0.4-0.1-0.4-0.1-0.7c0-0.4,0-0.4,0-0.7c0-0.4,0-0.4,0-0.7c0-0.4,0-0.4,0-0.7
			c0-0.4,0-0.4,0-0.7c0-0.4,0-0.4,0-0.7c0-0.4,0.1-0.4,0.1-0.7c0-0.4-0.1-0.4-0.1-0.7c0-0.4,0-0.4,0-0.7c0-0.4,0.1-0.4,0.1-0.7
			c0-0.4-0.1-0.4-0.1-0.7c0-0.4,0-0.4,0-0.7c0-0.4,0-0.4,0-0.7c0-0.4,0-0.4,0-0.7c0-0.4,0.1-0.4,0.1-0.7c0-0.4-0.1-0.4-0.1-0.7
			c0-0.4,0.1-0.4,0.1-0.7c0-0.4-0.1-0.4-0.1-0.7c0-0.4,0-0.4,0-0.7c0-0.4,0.1-0.4,0.1-0.7c0-0.4,0-0.4,0-0.7c0-0.4,0-0.4,0-0.7
			c0-0.4-0.1-0.4-0.1-0.7c0-0.4,0-0.4,0-0.7c0-0.4,0-0.4,0-0.7c0-0.4,0-0.4,0-0.7c0-0.4,0-0.4,0-0.7c0-0.4,0.1-0.4,0.1-0.7
			c0-0.4-0.1-0.4-0.1-0.7c0-0.4,0.1-0.4,0.1-0.7c0-0.4-0.1-0.4-0.1-0.7c0-0.4,0.1-0.4,0.1-0.7c0-0.4,0-0.4,0-0.7c0-0.4,0-0.4,0-0.7
			c0-0.4-0.1-0.4-0.1-0.7c0-0.4,0-0.4,0-0.7c0-0.4,0.1-0.4,0.1-0.7c0-0.4,0-0.4,0-0.7c0-0.4,0-0.4,0-0.7c0-0.4,0-0.4,0-0.7
			c0-0.4,0-0.4,0-0.7c0-0.4,0.1-0.4,0.1-0.7c0-0.4-0.1-0.4-0.1-0.7c0-0.4,0-0.4,0-0.7s0-0.4,0-0.7c0-0.4-0.1-0.4-0.1-0.7
			c0-0.4,0.1-0.4,0.1-0.7c0-0.4,0-0.4,0-0.7c0-0.4-0.1-0.4-0.1-0.7c0-0.4,0.1-0.4,0.1-0.7c0-0.4,0-0.4,0-0.7c0-0.4,0-0.4,0-0.7
			s0-0.4,0-0.7c0-0.1,0-0.1,0-0.1c0.4,0,0.4,0,0.7,0c0.4,0,0.4-0.1,0.7-0.1c0.4,0,0.4,0,0.7,0c0.4,0,0.4,0,0.7,0
			c0.4,0,0.4,0.1,0.7,0.1c0.4,0,0.4,0,0.7,0c0.4,0,0.4,0,0.7,0c0.4,0,0.4-0.1,0.7-0.1c0.4,0,0.4,0,0.7,0c0.4,0,0.4,0,0.7,0
			c0.4,0,0.4,0,0.7,0c0.4,0,0.4,0,0.7,0c0.4,0,0.4,0,0.7,0c0.4,0,0.4-0.1,0.7-0.1c0.4,0,0.4,0.1,0.7,0.1c0.4,0,0.4-0.1,0.7-0.1
			c0.4,0,0.4,0.1,0.7,0.1c0.4,0,0.4-0.1,0.7-0.1c0.4,0,0.4,0,0.7,0c0.4,0,0.4-0.1,0.7-0.1c0.4,0,0.4,0.1,0.7,0.1
			c0.4,0,0.4-0.1,0.7-0.1c0.4,0,0.4,0,0.7,0c0.4,0,0.4,0,0.7,0c0.4,0,0.4,0,0.7,0c0.4,0,0.4-0.1,0.7-0.1c0.4,0,0.4,0,0.7,0
			c0.4,0,0.4,0.1,0.7,0.1c0.4,0,0.4-0.1,0.7-0.1c0.4,0,0.4,0,0.7,0c0.4,0,0.4,0,0.7,0c0.4,0,0.4,0,0.7,0c0.4,0,0.4,0,0.7,0
			c0.4,0,0.4,0.1,0.7,0.1c0.4,0,0.4-0.1,0.7-0.1c0.4,0,0.4,0,0.7,0c0.4,0,0.4,0,0.7,0c0.4,0,0.4,0,0.7,0c0.4,0,0.4-0.1,0.7-0.1
			c0.4,0,0.4,0,0.7,0c0.4,0,0.4,0,0.7,0c0.4,0,0.4-0.1,0.7-0.1c0.4,0,0.4,0,0.7,0c0.4,0,0.4,0,0.7,0c0.4,0,0.4,0,0.7,0
			c0.4,0,0.4,0,0.7,0c0.4,0,0.4,0,0.7,0c0.4,0,0.4,0,0.7,0c0.4,0,0.4,0,0.7,0c0.4,0,0.4,0.1,0.7,0.1c0.3,0,0.5,0,0.7,0.2
			c0.2,0.1,0.3,0.4,0.4,0.6C83.5,194.6,83.5,194.9,83.5,195.2z"/>
	</g>
	<g>
		<path class="st3" d="M138.5,235.9c0,0.4-0.1,0.4-0.1,0.7c0,0.4,0,0.4,0,0.7c0,0.4-0.1,0.4-0.1,0.7c0,0.4,0,0.4,0,0.7
			c0,0.4,0,0.4,0,0.7c0,0.4,0,0.4,0,0.7c0,0.4,0,0.4,0,0.7c0,0.4-0.1,0.4-0.1,0.7c0,0.4,0,0.4,0,0.7c0,0.4,0.1,0.4,0.1,0.7
			c0,0.4-0.1,0.4-0.1,0.7c0,0.4,0,0.4,0,0.7c0,0.4,0,0.4,0,0.7c0,0.4,0,0.4,0,0.7c0,0.4,0,0.4,0,0.7c0,0.4-0.1,0.4-0.1,0.7
			c0,0.4,0,0.4,0,0.7c0,0.4,0,0.4,0,0.7c0,0.4,0,0.4,0,0.7c0,0.4,0,0.4,0,0.7s0,0.4,0,0.7c0,0.2,0,0.5,0,0.7c0,0.2,0,0.5,0,0.7
			c0,0.2,0,0.5,0,0.7c0,0.2-0.1,0.5-0.1,0.7c0,0.2,0,0.5-0.1,0.7c0,0.2-0.1,0.5-0.1,0.7c0,0.2-0.1,0.5-0.1,0.7c0,0.2,0,0.5-0.1,0.7
			c-0.1,0.2-0.1,0.5-0.2,0.7c-0.1,0.2-0.1,0.5-0.2,0.7c-0.1,0.2-0.1,0.5-0.2,0.7c-0.1,0.2-0.2,0.4-0.2,0.7c-0.1,0.2-0.1,0.5-0.2,0.7
			c-0.1,0.2-0.2,0.4-0.3,0.7c-0.1,0.2-0.2,0.5-0.2,0.7c-0.1,0.2-0.2,0.4-0.3,0.6c-0.1,0.2-0.2,0.4-0.3,0.7c-0.1,0.2-0.2,0.4-0.3,0.6
			c-0.1,0.2-0.2,0.4-0.4,0.6c-0.1,0.2-0.3,0.4-0.4,0.6c-0.1,0.2-0.2,0.4-0.3,0.6c-0.1,0.2-0.3,0.4-0.4,0.6c-0.1,0.2-0.3,0.4-0.4,0.6
			c-0.1,0.2-0.3,0.4-0.5,0.6c-0.2,0.2-0.3,0.4-0.4,0.6c-0.2,0.2-0.3,0.4-0.5,0.5c-0.2,0.2-0.4,0.3-0.5,0.5c-0.2,0.2-0.3,0.3-0.5,0.5
			c-0.2,0.2-0.3,0.3-0.5,0.5c-0.2,0.2-0.4,0.3-0.5,0.5c-0.2,0.1-0.4,0.3-0.6,0.4c-0.2,0.1-0.4,0.3-0.6,0.4c-0.2,0.1-0.4,0.2-0.6,0.4
			c-0.2,0.1-0.4,0.3-0.6,0.4c-0.2,0.1-0.4,0.3-0.6,0.4c-0.2,0.1-0.4,0.2-0.6,0.3c-0.2,0.1-0.4,0.2-0.7,0.3c-0.2,0.1-0.5,0.1-0.7,0.2
			c-0.2,0.1-0.4,0.2-0.7,0.3c-0.2,0.1-0.5,0.1-0.7,0.2c-0.2,0.1-0.5,0.1-0.7,0.2c-0.2,0-0.5,0-0.7,0.1c-0.2,0-0.5,0.1-0.7,0.1
			c-0.2,0-0.5,0.1-0.7,0.1c-0.2,0-0.5,0-0.7,0c-0.2,0-0.5,0-0.7,0c-0.2,0-0.5,0-0.7-0.1c-0.2,0-0.5-0.1-0.7-0.1
			c-0.2,0-0.5-0.1-0.7-0.1c-0.2,0-0.5-0.1-0.7-0.1c-0.2-0.1-0.5-0.1-0.7-0.2c-0.2-0.1-0.5-0.1-0.7-0.2c-0.2-0.1-0.5-0.2-0.7-0.2
			c-0.2-0.1-0.4-0.2-0.7-0.3c-0.2-0.1-0.5-0.2-0.7-0.3c-0.2-0.1-0.5-0.2-0.7-0.3c-0.2-0.1-0.4-0.2-0.6-0.4c-0.2-0.1-0.4-0.3-0.6-0.4
			c-0.2-0.1-0.4-0.2-0.6-0.4c-0.2-0.1-0.4-0.3-0.6-0.5c-0.2-0.1-0.4-0.3-0.6-0.4c-0.2-0.2-0.4-0.3-0.6-0.5c-0.2-0.2-0.3-0.4-0.5-0.5
			c-0.2-0.2-0.4-0.3-0.5-0.5c-0.2-0.2-0.4-0.3-0.5-0.5c-0.2-0.2-0.3-0.4-0.5-0.6c-0.2-0.2-0.3-0.4-0.4-0.6c-0.2-0.2-0.3-0.4-0.4-0.6
			c-0.1-0.2-0.3-0.4-0.4-0.6c-0.1-0.2-0.3-0.4-0.4-0.6c-0.1-0.2-0.2-0.4-0.4-0.6c-0.1-0.2-0.2-0.4-0.3-0.7c-0.1-0.2-0.3-0.4-0.4-0.6
			c-0.1-0.2-0.2-0.5-0.3-0.7c-0.1-0.2-0.2-0.4-0.3-0.7c-0.1-0.2-0.1-0.5-0.2-0.7c-0.1-0.2-0.2-0.4-0.3-0.7c-0.1-0.2-0.1-0.5-0.2-0.7
			c-0.1-0.2-0.2-0.5-0.2-0.7c-0.1-0.2-0.1-0.5-0.2-0.7c-0.1-0.2-0.1-0.5-0.2-0.7c-0.1-0.2-0.1-0.5-0.2-0.7c0-0.2-0.1-0.5-0.1-0.7
			c0-0.2-0.1-0.5-0.1-0.7c0-0.2-0.1-0.5-0.1-0.7c0-0.2-0.1-0.5-0.1-0.7c0-0.2,0-0.5,0-0.7c0-0.2,0-0.5-0.1-0.7c0-0.2,0-0.5,0-0.7
			c0-0.4,0.1-0.4,0.1-0.7c0-0.4-0.1-0.4-0.1-0.7c0-0.4,0-0.4,0-0.7c0-0.4,0-0.4,0-0.7c0-0.4,0-0.4,0-0.7c0-0.4,0-0.4,0-0.7
			c0-0.4,0-0.4,0-0.7c0-0.4,0.1-0.4,0.1-0.7c0-0.4-0.1-0.4-0.1-0.7c0-0.4,0.1-0.4,0.1-0.7c0-0.4,0-0.4,0-0.7c0-0.4,0-0.4,0-0.7
			c0-0.4,0-0.4,0-0.7c0-0.4,0-0.4,0-0.7c0-0.4,0-0.4,0-0.7c0-0.4,0-0.4,0-0.7c0-0.4,0-0.4,0-0.7c0-0.4,0-0.4,0-0.7
			c0-0.4,0-0.4,0-0.7c0-0.4,0.1-0.4,0.1-0.7s-0.1-0.4-0.1-0.7c0-0.3,0-0.5,0.1-0.8c0.1-0.3,0.1-0.5,0.3-0.7c0.1-0.2,0.3-0.4,0.5-0.6
			c0.2-0.2,0.4-0.4,0.6-0.5c0.2-0.1,0.5-0.1,0.8-0.1c0.3,0.1,0.3,0.1,0.7,0.2c0.3,0.1,0.3,0.1,0.7,0.2c0.3,0.1,0.3,0.1,0.7,0.2
			c0.3,0.1,0.3,0.1,0.7,0.3c0.3,0.1,0.3,0.1,0.7,0.2c0.3,0.1,0.3,0.1,0.7,0.3c0.3,0.1,0.3,0.1,0.7,0.2c0.3,0.1,0.3,0.1,0.7,0.2
			c0.3,0.1,0.3,0.1,0.7,0.2c0.3,0.1,0.3,0.1,0.7,0.3c0.3,0.1,0.4,0.1,0.7,0.2c0.3,0.1,0.3,0.2,0.7,0.3c0.3,0.1,0.4,0.1,0.7,0.2
			c0.3,0.1,0.3,0.2,0.7,0.3c0.3,0.1,0.3,0.1,0.7,0.2c0.3,0.1,0.3,0.1,0.7,0.2s0.3,0.1,0.7,0.2c0.2,0.1,0.5,0.1,0.7,0.2
			c0.2,0.1,0.5,0.2,0.7,0.2c0.2,0.1,0.5,0.1,0.7,0.2c0.2,0.1,0.5,0.1,0.7,0.2c0.2,0.1,0.5,0.1,0.7,0.1c0.2,0,0.5,0.1,0.7,0.1
			c0.2,0,0.5,0.1,0.7,0.1c0.2,0,0.5,0.1,0.7,0.1c0.2,0,0.5,0.1,0.7,0.1c0.2,0,0.5,0,0.7,0c0.2,0,0.5,0.1,0.7,0.1c0.2,0,0.5,0,0.7,0
			c0.2,0,0.5,0,0.7,0c0.2,0,0.5,0,0.7,0c0.2,0,0.5,0,0.7,0c0.2,0,0.5,0,0.7,0c0.2,0,0.5-0.1,0.7-0.1c0.2,0,0.5,0,0.7,0
			c0.2,0,0.5-0.1,0.7-0.1c0.2,0,0.5,0,0.7-0.1c0.2,0,0.5-0.1,0.7-0.1c0.2,0,0.5-0.1,0.7-0.2c0.2-0.1,0.5-0.1,0.7-0.1
			c0.2-0.1,0.5-0.1,0.7-0.2c0.2-0.1,0.4-0.2,0.7-0.2c0.2-0.1,0.5-0.1,0.7-0.2c0.2-0.1,0.5-0.1,0.7-0.2c0.2-0.1,0.5-0.1,0.7-0.2
			c0.2-0.1,0.4-0.2,0.7-0.3c0.2-0.1,0.4-0.2,0.7-0.3c0.2-0.1,0.4-0.2,0.6-0.2c0.2-0.1,0.4-0.1,0.6-0.2c0.2-0.1,0.4-0.2,0.6-0.2
			C138.2,235.6,138.5,235.7,138.5,235.9z"/>
	</g>
	<g>
		<path class="st2" d="M138.8,146.3c0,0.1,0,0.1,0,0.2c-0.1,0.2-0.2,0.4-0.4,0.5c-0.2,0.1-0.4,0.3-0.6,0.4c-0.2,0.1-0.4,0.2-0.6,0.3
			c-0.2,0.1-0.4,0.2-0.7,0.3c-0.2,0.1-0.4,0.1-0.7,0.2c-0.2,0.1-0.5,0.1-0.7,0.1c-0.2,0.1-0.4,0.2-0.7,0.2c-0.2,0.1-0.5,0.1-0.7,0.1
			c-0.2,0-0.5,0.1-0.7,0.2c-0.2,0-0.5,0.1-0.7,0.1c-0.2,0-0.5,0-0.7,0.1c-0.2,0-0.5,0.1-0.7,0.1c-0.2,0-0.5,0-0.7,0.1
			c-0.2,0-0.5,0.1-0.7,0.2c-0.2,0-0.5,0-0.7,0.1c-0.2,0-0.5,0-0.7,0c-0.2,0-0.5,0.1-0.7,0.1c-0.2,0-0.5,0-0.7,0
			c-0.2,0-0.5,0-0.7,0.1c-0.2,0-0.5,0-0.7,0.1c-0.2,0-0.5,0.1-0.7,0.1c-0.2,0-0.5,0-0.7,0c-0.2,0-0.5,0-0.7,0c-0.2,0-0.5,0-0.7,0
			c-0.2,0-0.5,0-0.7,0c-0.2,0-0.5,0-0.7,0c-0.2,0-0.5,0-0.7,0c-0.2,0-0.5,0-0.7,0c-0.2,0-0.5,0-0.7,0c-0.1,0-0.1,0.1-0.3,0.1
			c-0.2,0-0.5,0-0.7,0c-0.2,0-0.5,0-0.7,0c-0.2,0-0.5,0-0.7,0c-0.2,0-0.5-0.1-0.7-0.1c-0.2,0-0.5,0-0.7,0c-0.2,0-0.5,0-0.7,0
			c-0.2,0-0.5,0-0.7,0c-0.2,0-0.5,0-0.7,0c-0.2,0-0.5-0.1-0.7-0.1c-0.2,0-0.5-0.1-0.7-0.1c-0.2,0-0.5,0-0.7,0
			c-0.2,0-0.5-0.1-0.7-0.1c-0.2,0-0.5,0-0.7-0.1c-0.2,0-0.5,0-0.7,0c-0.2,0-0.5,0-0.7-0.1c-0.2,0-0.5-0.1-0.7-0.1
			c-0.2,0-0.5-0.1-0.7-0.1c-0.2,0-0.5,0-0.7-0.1c-0.2,0-0.5-0.1-0.7-0.2c-0.2,0-0.5,0-0.7-0.1c-0.2,0-0.5-0.1-0.7-0.1
			c-0.2,0-0.5-0.1-0.7-0.2c-0.2-0.1-0.5-0.1-0.7-0.2c-0.2-0.1-0.5-0.1-0.7-0.2c-0.2-0.1-0.5-0.1-0.7-0.2c-0.2-0.1-0.4-0.2-0.7-0.3
			c-0.2-0.1-0.4-0.2-0.6-0.3c-0.2-0.1-0.4-0.2-0.6-0.4c-0.2-0.2-0.3-0.4-0.4-0.6c0-0.1-0.1-0.1-0.1-0.2c0-0.2,0.1-0.4,0.3-0.6
			c0.1-0.1,0.3-0.3,0.6-0.4c0.2-0.1,0.4-0.2,0.6-0.3c0.2-0.1,0.4-0.2,0.7-0.3c0.2-0.1,0.5-0.1,0.7-0.2c0.2-0.1,0.5-0.1,0.7-0.2
			c0.2-0.1,0.4-0.2,0.7-0.2c0.2-0.1,0.5-0.1,0.7-0.1c0.2,0,0.5-0.2,0.7-0.2c0.2,0,0.5-0.1,0.7-0.1c0.2,0,0.5,0,0.7-0.1
			c0.2,0,0.5-0.1,0.7-0.2c0.2,0,0.5-0.1,0.7-0.1c0.2,0,0.5,0,0.7-0.1c0.2,0,0.5,0,0.7-0.1c0.2,0,0.5-0.1,0.7-0.1
			c0.2,0,0.5-0.1,0.7-0.1c0.2,0,0.5-0.1,0.7-0.1c0.2,0,0.5,0,0.7,0c0.2,0,0.5-0.1,0.7-0.1c0.2,0,0.5,0,0.7,0c0.2,0,0.5,0,0.7,0
			c0.2,0,0.5-0.1,0.7-0.1c0.2,0,0.5-0.1,0.7-0.1c0.2,0,0.5,0,0.7,0c0.2,0,0.5,0,0.7,0c0.2,0,0.5,0,0.7,0c0.2,0,0.5,0,0.7,0
			s0.5,0,0.7,0c0.1,0,0.1,0,0.3,0c0.2,0,0.5,0,0.7,0c0.2,0,0.5,0,0.7,0c0.2,0,0.5,0,0.7,0c0.2,0,0.5,0.1,0.7,0.1c0.2,0,0.5,0,0.7,0
			c0.2,0,0.5,0.1,0.7,0.1c0.2,0,0.5,0,0.7,0c0.2,0,0.5,0,0.7,0c0.2,0,0.5,0,0.7,0.1c0.2,0,0.5,0,0.7,0.1c0.2,0,0.5,0.1,0.7,0.1
			c0.2,0,0.5,0,0.7,0c0.2,0,0.5,0,0.7,0.1c0.2,0,0.5,0.1,0.7,0.1c0.2,0,0.5,0.1,0.7,0.1c0.2,0,0.5,0,0.7,0c0.2,0,0.5,0.1,0.7,0.1
			c0.2,0,0.5,0.1,0.7,0.1c0.2,0,0.5,0,0.7,0.1c0.2,0,0.5,0.1,0.7,0.2c0.2,0,0.5,0.1,0.7,0.1c0.2,0.1,0.5,0.1,0.7,0.1
			c0.2,0.1,0.5,0.2,0.7,0.2c0.2,0.1,0.5,0.1,0.7,0.2c0.2,0.1,0.5,0.1,0.7,0.2c0.2,0.1,0.4,0.2,0.6,0.3c0.2,0.1,0.5,0.2,0.6,0.3
			c0.2,0.1,0.4,0.3,0.6,0.4C138.7,145.9,138.8,146,138.8,146.3z"/>
	</g>
	<g>
		<path class="st2" d="M192.4,144.3c0,0.1,0,0.2-0.1,0.2c-0.1,0.2-0.2,0.4-0.4,0.6c-0.2,0.1-0.4,0.2-0.6,0.3
			c-0.2,0.1-0.4,0.3-0.6,0.4c-0.2,0.1-0.4,0.1-0.7,0.2c-0.2,0.1-0.4,0.1-0.7,0.2c-0.2,0.1-0.4,0.2-0.7,0.2c-0.2,0.1-0.4,0.1-0.7,0.2
			c-0.2,0.1-0.5,0.1-0.7,0.1c-0.2,0-0.5,0.1-0.7,0.1c-0.2,0-0.5,0.1-0.7,0.1c-0.2,0-0.5,0.1-0.7,0.1c-0.2,0-0.5,0.1-0.7,0.2
			c-0.2,0-0.5,0-0.7,0c-0.2,0-0.5,0.1-0.7,0.1c-0.2,0-0.5,0-0.7,0.1c-0.2,0-0.5,0.1-0.7,0.1c-0.2,0-0.5,0.1-0.7,0.1
			c-0.2,0-0.5,0-0.7,0c-0.2,0-0.5,0.1-0.7,0.1c-0.2,0-0.5,0-0.7,0c-0.2,0-0.5,0.1-0.7,0.1c-0.2,0-0.5,0-0.7,0
			c-0.2,0-0.5,0.1-0.7,0.1c-0.2,0-0.5,0-0.7,0c-0.2,0-0.5,0-0.7,0c-0.2,0-0.5,0-0.7,0c-0.2,0-0.5,0.1-0.7,0.1c-0.2,0-0.5,0-0.7,0
			s-0.5,0-0.7,0c-0.1,0-0.1,0-0.3,0c-0.2,0-0.5,0.1-0.7,0.1c-0.2,0-0.5-0.1-0.7-0.1c-0.2,0-0.5,0-0.7,0c-0.2,0-0.5,0-0.7,0
			c-0.2,0-0.5,0-0.7,0c-0.2,0-0.5,0-0.7,0c-0.2,0-0.5,0-0.7,0c-0.2,0-0.5,0-0.7,0c-0.2,0-0.5,0-0.7,0c-0.2,0-0.5,0-0.7,0
			c-0.2,0-0.5-0.1-0.7-0.1c-0.2,0-0.5,0-0.7-0.1c-0.2,0-0.5,0-0.7,0c-0.2,0-0.5-0.1-0.7-0.1c-0.2,0-0.5,0-0.7,0
			c-0.2,0-0.5-0.1-0.7-0.2c-0.2,0-0.5-0.1-0.7-0.1c-0.2,0-0.5,0-0.7-0.1c-0.2,0-0.5-0.1-0.7-0.2c-0.2,0-0.5,0-0.7-0.1
			c-0.2,0-0.5-0.1-0.7-0.2c-0.2,0-0.5-0.1-0.7-0.2c-0.2-0.1-0.5-0.1-0.7-0.2c-0.2-0.1-0.5-0.1-0.7-0.2c-0.2-0.1-0.5-0.1-0.7-0.2
			c-0.2-0.1-0.4-0.2-0.7-0.3c-0.2-0.1-0.4-0.2-0.6-0.3c-0.2-0.1-0.5-0.2-0.6-0.3c-0.2-0.2-0.3-0.4-0.4-0.6c0-0.1,0-0.1,0-0.2
			c0-0.2,0.1-0.4,0.3-0.6c0.1-0.1,0.3-0.3,0.6-0.4c0.2-0.1,0.4-0.2,0.6-0.3c0.2-0.1,0.4-0.1,0.7-0.2c0.2-0.1,0.4-0.2,0.7-0.2
			c0.2-0.1,0.4-0.2,0.7-0.2c0.2-0.1,0.5-0.1,0.7-0.2c0.2-0.1,0.5-0.1,0.7-0.2c0.2,0,0.5-0.1,0.7-0.1c0.2,0,0.5-0.1,0.7-0.1
			c0.2,0,0.5-0.1,0.7-0.1c0.2,0,0.5-0.1,0.7-0.1c0.2,0,0.5-0.1,0.7-0.1c0.2,0,0.5,0,0.7-0.1c0.2,0,0.5,0,0.7-0.1
			c0.2,0,0.5-0.1,0.7-0.1c0.2,0,0.5,0,0.7,0c0.2,0,0.5,0,0.7-0.1c0.2,0,0.5,0,0.7,0c0.2,0,0.5,0,0.7,0c0.2,0,0.5,0,0.7-0.1
			c0.2,0,0.5-0.1,0.7-0.1c0.2,0,0.5,0,0.7,0c0.2,0,0.5,0,0.7,0c0.2,0,0.5-0.1,0.7-0.1c0.2,0,0.5,0,0.7,0c0.2,0,0.5,0,0.7,0
			c0.2,0,0.5,0,0.7,0c0.2,0,0.5-0.1,0.7-0.1c0.1,0,0.1,0,0.3,0c0.2,0,0.5,0,0.7,0c0.2,0,0.5,0,0.7,0c0.2,0,0.5,0,0.7,0
			c0.2,0,0.5,0,0.7,0c0.2,0,0.5,0,0.7,0c0.2,0,0.5,0.1,0.7,0.1c0.2,0,0.5,0,0.7,0c0.2,0,0.5,0,0.7,0c0.2,0,0.5,0.1,0.7,0.1
			c0.2,0,0.5,0,0.7,0c0.2,0,0.5,0,0.7,0.1c0.2,0,0.5,0,0.7,0.1c0.2,0,0.5,0,0.7,0c0.2,0,0.5,0,0.7,0.1c0.2,0,0.5,0.1,0.7,0.1
			c0.2,0,0.5,0,0.7,0c0.2,0,0.5,0.1,0.7,0.1c0.2,0,0.5,0.1,0.7,0.1c0.2,0,0.5,0.1,0.7,0.2c0.2,0,0.5,0,0.7,0.1
			c0.2,0,0.5,0.1,0.7,0.1c0.2,0.1,0.5,0.1,0.7,0.2c0.2,0.1,0.5,0.1,0.7,0.2c0.2,0.1,0.5,0.1,0.7,0.2c0.2,0.1,0.5,0.1,0.7,0.2
			c0.2,0.1,0.5,0.2,0.7,0.3c0.2,0.1,0.5,0.2,0.6,0.3c0.2,0.1,0.4,0.3,0.6,0.4C192.3,143.8,192.4,144,192.4,144.3z"/>
	</g>
	<g>
		<path class="st2" d="M192.3,147.5c-0.1,0.4-0.2,0.4-0.3,0.7c-0.1,0.4,0,0.4-0.2,0.8c-0.1,0.4-0.2,0.3-0.4,0.7
			c-0.1,0.4,0,0.4-0.1,0.8c-0.1,0.4-0.2,0.3-0.4,0.7c-0.1,0.4-0.1,0.4-0.2,0.7s0,0.4-0.1,0.8c-0.1,0.4-0.1,0.3-0.1,0.7
			c0,0.4,0,0.4,0,0.7c0,0.4,0.1,0.4,0.1,0.7c0,0.4-0.1,0.4-0.1,0.7c0,0.4-0.1,0.4-0.1,0.7c0,0.4,0.1,0.4,0.1,0.7c0,0.4,0,0.4,0,0.7
			c0,0.4,0,0.4,0,0.7c0,0.4,0,0.4,0,0.7c0,0.4-0.1,0.4-0.1,0.7c0,0.4,0.2,0.4,0.2,0.7c0,0.4-0.2,0.4-0.2,0.7c0,0.4,0.1,0.4,0.1,0.7
			c0,0.4-0.2,0.4-0.2,0.7c0,0.4,0,0.4,0,0.7c0,0.4,0.1,0.4,0.1,0.7c0,0.4,0,0.4,0,0.7c0,0.4,0,0.4,0,0.7c0,0.4-0.1,0.4-0.1,0.7
			c0,0.4,0.1,0.4,0.1,0.7c0,0.4,0,0.4,0,0.7c0,0.4-0.1,0.4-0.1,0.7c0,0.4,0,0.4,0,0.7c0,0.4,0.1,0.4,0.1,0.7c0,0.4-0.2,0.4-0.2,0.7
			c0,0.4,0.1,0.4,0.1,0.7c0,0.4,0,0.4,0,0.7c0,0.4,0,0.4,0,0.7s-0.1,0.4-0.1,0.7c0,0.4,0,0.4,0,0.7c0,0.4-0.1,0.4-0.1,0.7
			c0,0.4,0.1,0.4,0.1,0.7c0,0.4-0.1,0.4-0.1,0.7c0,0.4,0.2,0.4,0.2,0.7c0,0.4-0.1,0.4-0.1,0.7c0,0.4,0,0.4,0,0.7c0,0.4,0,0.4,0,0.7
			c0,0.4,0,0.4,0,0.7c0,0.4,0.2,0.4,0.2,0.7c0,0.4-0.2,0.4-0.2,0.7c0,0.4,0.1,0.4,0.1,0.7c0,0.4-0.1,0.4-0.1,0.7c0,0.4,0,0.4,0,0.7
			c0,0.4,0,0.4,0,0.7c0,0.4-0.1,0.4-0.1,0.7c0,0.4,0.1,0.4,0.1,0.7c0,0.4,0,0.4,0,0.7c0,0.4-0.1,0.4-0.1,0.7c0,0.4,0.1,0.4,0.1,0.7
			c0,0.4-0.2,0.4-0.2,0.7c0,0.4,0.2,0.4,0.2,0.7c0,0.4,0,0.4,0,0.7c0,0.4-0.1,0.4-0.1,0.7c0,0.4-0.1,0.4-0.1,0.7c0,0.4,0,0.4,0,0.7
			c0,0.4,0.1,0.4,0.1,0.7c0,0.4,0,0.4,0,0.7c0,0.4-0.1,0.4-0.1,0.7c0,0.4,0.1,0.4,0.1,0.7c0,0.4,0.1,0.4,0.1,0.7
			c0,0.4-0.1,0.4-0.1,0.7c0,0.4,0.1,0.4,0.1,0.7c0,0.4-0.1,0.4-0.1,0.7c0,0.4,0.1,0.4,0.1,0.7c0,0.4-0.2,0.4-0.2,0.7
			c0,0.4,0.1,0.4,0.1,0.7c0,0.4-0.1,0.4-0.1,0.7c0,0.4,0,0.4,0,0.7c0,0.4,0,0.4,0,0.7c0,0.4-0.1,0.4-0.1,0.7c0,0.4,0.1,0.4,0.1,0.7
			c0,0.4,0.1,0.4,0.1,0.7c0,0.4,0,0.4,0,0.7c0,0.4,0,0.4,0,0.7c0,0.4-0.1,0.4-0.1,0.7c0,0.4-0.1,0.4-0.1,0.7c0,0.4,0.2,0.4,0.2,0.7
			c0,0.4,0,0.4,0,0.7c0,0.4-0.1,0.4-0.1,0.7c0,0.4,0,0.4,0,0.7c0,0.4,0.1,0.4,0.1,0.7c0,0.4-0.2,0.4-0.2,0.7c0,0.4,0.2,0.4,0.2,0.7
			c0,0.4-0.1,0.4-0.1,0.7c0,0.4,0.1,0.4,0.1,0.7c0,0.4-0.2,0.4-0.2,0.7c0,0.4,0.2,0.4,0.2,0.7c0,0.4,0,0.4,0,0.7c0,0.4,0,0.4,0,0.7
			c0,0.4-0.1,0.4-0.1,0.7c0,0.4,0,0.4,0,0.7c0,0.4-0.1,0.4-0.1,0.7c0,0.4,0.1,0.4,0.1,0.7c0,0.4,0.1,0.4,0.1,0.7
			c0,0.4-0.1,0.4-0.1,0.7c0,0.4-0.1,0.4-0.1,0.7c0,0.4,0.2,0.4,0.2,0.7c0,0.4,0,0.4,0,0.7c0,0.4-0.2,0.4-0.2,0.7
			c0,0.4,0.2,0.4,0.2,0.7c0,0.4-0.2,0.4-0.2,0.7c0,0.4,0.1,0.4,0.1,0.7c0,0.4,0,0.4,0,0.7c0,0.4,0,0.4,0,0.7c0,0.4-0.2,0.4-0.2,0.7
			c0,0.4,0.2,0.4,0.2,0.7c0,0.4-0.2,0.4-0.2,0.7c0,0.4,0,0.4,0,0.7c0,0.4,0,0.4,0,0.7c0,0.4,0.1,0.4,0.1,0.7c0,0.4-0.1,0.4-0.1,0.7
			c0,0.4,0,0.4,0,0.7c0,0.4,0.2,0.4,0.2,0.7c0,0.4,0,0.4,0,0.7c0,0.4-0.1,0.4-0.1,0.7c0,0.4,0.1,0.4,0.1,0.7c0,0.4,0,0.4,0,0.7
			c0,0.4-0.1,0.4-0.1,0.7c0,0.4,0,0.4,0,0.7c0,0.4,0.1,0.4,0.1,0.7c0,0.4,0,0.4,0,0.7c0,0.4-0.1,0.4-0.1,0.7c0,0.4-0.1,0.4-0.1,0.7
			c0,0.4,0,0.4,0,0.7c0,0.4,0.1,0.4,0.1,0.7c0,0.4,0.1,0.4,0.1,0.7c0,0.4-0.1,0.4-0.1,0.7c0,0.4,0.1,0.4,0.1,0.7c0,0.4,0,0.4,0,0.7
			s0,0.4,0,0.7c0,0.2,0,0.5,0,0.7c0,0.2,0,0.5,0,0.7c0,0.2-0.2,0.5-0.2,0.7c0,0.2,0,0.5-0.1,0.7c0,0.2,0,0.5,0,0.7
			c0,0.2-0.1,0.5-0.1,0.7c0,0.2-0.1,0.5-0.1,0.7c0,0.2,0,0.5-0.1,0.7c-0.1,0.2-0.2,0.4-0.3,0.7c-0.1,0.2-0.1,0.5-0.1,0.7
			c-0.1,0.2-0.3,0.4-0.3,0.6c-0.1,0.2-0.1,0.5-0.2,0.7c-0.1,0.2-0.2,0.4-0.2,0.7c-0.1,0.2-0.2,0.4-0.3,0.7c-0.1,0.2-0.1,0.5-0.2,0.7
			c-0.1,0.2-0.2,0.4-0.3,0.6c-0.1,0.2-0.3,0.4-0.4,0.6c-0.1,0.2-0.3,0.4-0.4,0.6c-0.1,0.2-0.2,0.4-0.3,0.6c-0.1,0.2-0.1,0.5-0.2,0.7
			c-0.1,0.2-0.3,0.4-0.4,0.6c-0.1,0.2-0.4,0.3-0.5,0.5c-0.1,0.2-0.3,0.3-0.5,0.5c-0.1,0.2-0.2,0.5-0.3,0.6c-0.2,0.2-0.4,0.3-0.5,0.5
			c-0.2,0.2-0.2,0.4-0.4,0.6c-0.2,0.2-0.5,0.2-0.6,0.4c-0.2,0.2-0.3,0.3-0.5,0.5c-0.2,0.2-0.3,0.4-0.5,0.5c-0.2,0.1-0.3,0.4-0.5,0.5
			c-0.2,0.1-0.5,0.2-0.7,0.3c-0.2,0.1-0.4,0.3-0.6,0.4c-0.2,0.1-0.3,0.4-0.5,0.5c-0.2,0.1-0.5,0.1-0.7,0.2c-0.2,0.1-0.4,0.3-0.6,0.4
			c-0.2,0.1-0.4,0.2-0.7,0.3c-0.2,0.1-0.5,0.1-0.7,0.2c-0.2,0.1-0.5,0.1-0.7,0.2c-0.2,0.1-0.4,0.3-0.6,0.4c-0.2,0.1-0.5,0-0.7,0
			c-0.2,0.1-0.4,0.2-0.7,0.2c-0.2,0-0.5-0.1-0.7,0c-0.2,0-0.4,0.2-0.7,0.3c-0.2,0-0.5,0-0.7,0c-0.2,0-0.5-0.1-0.7-0.1
			c-0.2,0-0.5,0-0.7,0c-0.2,0-0.5-0.1-0.7-0.1c-0.2,0-0.5,0-0.7,0c-0.2,0-0.5-0.1-0.7-0.1c-0.2,0-0.5-0.2-0.7-0.2
			c-0.2-0.1-0.5,0-0.7,0c-0.2-0.1-0.5-0.2-0.7-0.2c-0.2-0.1-0.4-0.3-0.6-0.4c-0.2-0.1-0.5-0.1-0.7-0.2c-0.2-0.1-0.4-0.3-0.6-0.4
			c-0.2-0.1-0.4-0.2-0.7-0.3c-0.2-0.1-0.4-0.3-0.6-0.4c-0.2-0.1-0.5-0.1-0.7-0.2c-0.2-0.1-0.3-0.3-0.5-0.5c-0.2-0.1-0.5-0.2-0.6-0.3
			c-0.2-0.1-0.3-0.4-0.5-0.6c-0.2-0.2-0.4-0.3-0.5-0.5c-0.2-0.2-0.4-0.2-0.6-0.4c-0.2-0.2-0.4-0.3-0.5-0.5c-0.2-0.2-0.2-0.4-0.4-0.6
			c-0.2-0.2-0.4-0.3-0.6-0.5c-0.2-0.2-0.2-0.4-0.4-0.6c-0.2-0.2-0.4-0.3-0.5-0.5c-0.1-0.2-0.3-0.4-0.4-0.6c-0.1-0.2-0.2-0.5-0.3-0.7
			c-0.1-0.2-0.3-0.4-0.4-0.6c-0.1-0.2-0.3-0.4-0.4-0.6c-0.1-0.2-0.1-0.5-0.2-0.7c-0.1-0.2-0.4-0.4-0.5-0.6c-0.1-0.2-0.2-0.5-0.3-0.7
			c-0.1-0.2-0.2-0.4-0.3-0.7c-0.1-0.2-0.2-0.5-0.3-0.7c-0.1-0.2-0.1-0.5-0.2-0.7c-0.1-0.2-0.1-0.5-0.2-0.7c-0.1-0.2,0-0.5-0.1-0.7
			c-0.1-0.2-0.2-0.4-0.3-0.7c-0.1-0.2,0-0.5,0-0.7c0-0.2-0.3-0.4-0.3-0.7c0-0.2,0-0.5-0.1-0.7c0-0.2,0.1-0.5,0-0.7
			c0-0.2-0.2-0.5-0.2-0.7c0-0.2,0.1-0.5,0.1-0.7c0-0.2-0.1-0.5-0.1-0.7c0-0.2,0.1-0.5,0.1-0.7c0-0.4,0.1-0.4,0.1-0.7
			c0-0.4-0.2-0.4-0.2-0.7c0-0.4,0-0.4,0-0.7c0-0.4,0-0.4,0-0.7c0-0.4,0.1-0.4,0.1-0.7c0-0.4,0.1-0.4,0.1-0.7c0-0.4,0-0.4,0-0.7
			c0-0.4-0.1-0.4-0.1-0.7c0-0.4,0.1-0.4,0.1-0.7c0-0.4-0.2-0.4-0.2-0.7c0-0.4,0-0.4,0-0.7c0-0.4,0.2-0.4,0.2-0.7
			c0-0.4-0.1-0.4-0.1-0.7c0-0.4-0.1-0.4-0.1-0.7c0-0.4,0.2-0.4,0.2-0.7c0-0.4,0-0.4,0-0.7c0-0.4-0.2-0.4-0.2-0.7c0-0.4,0-0.4,0-0.7
			c0-0.4,0.1-0.4,0.1-0.7c0-0.4-0.2-0.4-0.2-0.7c0-0.4,0.1-0.4,0.1-0.7c0-0.4,0.1-0.4,0.1-0.7c0-0.4,0-0.4,0-0.7
			c0-0.4,0.1-0.4,0.1-0.7c0-0.4,0-0.4,0-0.7c0-0.4-0.1-0.4-0.1-0.7c0-0.4,0-0.4,0-0.7c0-0.4,0.1-0.4,0.1-0.7s0-0.4,0-0.7
			c0-0.4,0-0.4,0-0.7c0-0.4-0.2-0.4-0.2-0.7c0-0.4,0.2-0.4,0.2-0.7c0-0.4-0.1-0.4-0.1-0.7c0-0.4-0.1-0.4-0.1-0.7
			c0-0.4,0.1-0.4,0.1-0.7c0-0.4,0-0.4,0-0.7c0-0.4,0-0.4,0-0.7c0-0.4-0.1-0.4-0.1-0.7c0-0.4,0.1-0.4,0.1-0.7c0-0.4-0.1-0.4-0.1-0.7
			c0-0.4,0.1-0.4,0.1-0.7c0-0.4,0-0.4,0-0.7c0-0.4,0.1-0.4,0.1-0.7c0-0.4-0.1-0.4-0.1-0.7c0-0.4,0-0.4,0-0.7c0-0.4-0.1-0.4-0.1-0.7
			c0-0.4,0.1-0.4,0.1-0.7c0-0.4-0.1-0.4-0.1-0.7c0-0.4,0-0.4,0-0.7c0-0.4,0.1-0.4,0.1-0.7s-0.1-0.4-0.1-0.7c0-0.4,0-0.4,0-0.7
			c0-0.4,0-0.4,0-0.7c0-0.4,0.1-0.4,0.1-0.7c0-0.4-0.1-0.4-0.1-0.7c0-0.4,0-0.4,0-0.7c0-0.4,0-0.4,0-0.7c0-0.4,0.1-0.4,0.1-0.7
			c0-0.4-0.1-0.4-0.1-0.7c0-0.4,0.1-0.4,0.1-0.7c0-0.4-0.2-0.4-0.2-0.7c0-0.4,0.2-0.4,0.2-0.7c0-0.4-0.1-0.4-0.1-0.7
			c0-0.4,0-0.4,0-0.7c0-0.4-0.1-0.4-0.1-0.7c0-0.4,0.2-0.4,0.2-0.7c0-0.4-0.2-0.4-0.2-0.7c0-0.4,0-0.4,0-0.7c0-0.4,0-0.4,0-0.7
			c0-0.4,0-0.4,0-0.7c0-0.4,0.1-0.4,0.1-0.7c0-0.4,0-0.4,0-0.7c0-0.4,0-0.4,0-0.7c0-0.4,0-0.4,0-0.7c0-0.4,0.1-0.4,0.1-0.7
			c0-0.4,0-0.4,0-0.7c0-0.4,0-0.4,0-0.7c0-0.4-0.1-0.4-0.1-0.7c0-0.4,0-0.4,0-0.7c0-0.4,0.2-0.4,0.2-0.7c0-0.4-0.1-0.4-0.1-0.7
			c0-0.4,0.1-0.4,0.1-0.7c0-0.4-0.2-0.4-0.2-0.7c0-0.4,0.1-0.4,0.1-0.7c0-0.4-0.1-0.4-0.1-0.7c0-0.4,0.2-0.4,0.2-0.7
			c0-0.4,0-0.4,0-0.7c0-0.4-0.1-0.4-0.1-0.7c0-0.4,0-0.4,0-0.7c0-0.4,0-0.4,0-0.7c0-0.4-0.1-0.4-0.1-0.7c0-0.4,0.1-0.4,0.1-0.7
			c0-0.4-0.1-0.4-0.1-0.7c0-0.4,0.1-0.4,0.1-0.7c0-0.4,0-0.4,0-0.7c0-0.4,0.1-0.4,0.1-0.7c0-0.4-0.1-0.4-0.1-0.7
			c0-0.4,0.1-0.4,0.1-0.7c0-0.4,0-0.4,0-0.7c0-0.4,0.1-0.4,0.1-0.7c0-0.4,0-0.4,0-0.7c0-0.4,0-0.4,0-0.7c0-0.4-0.2-0.4-0.2-0.7
			c0-0.4,0.1-0.4,0.1-0.7c0-0.4,0.1-0.4,0.1-0.7c0-0.4-0.2-0.4-0.2-0.7c0-0.4,0.1-0.4,0.1-0.7c0-0.4-0.1-0.4-0.1-0.7
			c0-0.4,0-0.4,0-0.7c0-0.4,0.1-0.4,0.1-0.7c0-0.4-0.2-0.4-0.2-0.7c0-0.4,0.2-0.4,0.2-0.7c0-0.4,0-0.4,0-0.7c0-0.4-0.2-0.4-0.2-0.7
			c0-0.4,0.1-0.4,0.1-0.7c0-0.4-0.2-0.4-0.2-0.7c0-0.4,0-0.4,0-0.7c0-0.4,0-0.4,0-0.7c0-0.4-0.1-0.4-0.1-0.7c0-0.4,0.1-0.4,0.1-0.7
			c0-0.4-0.1-0.4-0.1-0.7s0.1-0.4,0.1-0.7c0-0.4-0.1-0.4-0.1-0.7c0-0.4,0-0.4,0-0.7c0-0.4,0-0.4,0-0.7c0-0.4,0-0.4,0-0.7
			c0-0.4,0.1-0.4,0.1-0.7c0-0.4-0.1-0.4-0.1-0.7c0-0.4,0-0.4,0-0.7c0-0.4,0.1-0.4,0-0.7c-0.1-0.4-0.1-0.4-0.2-0.7
			c-0.1-0.4,0-0.4-0.1-0.8c-0.1-0.4-0.3-0.3-0.4-0.7c-0.1-0.4,0-0.4-0.1-0.7c-0.1-0.4-0.1-0.4-0.2-0.7c-0.1-0.4-0.2-0.3-0.3-0.7
			c-0.1-0.4-0.2-0.3-0.2-0.7c0-0.1,0-0.2,0.2-0.1c0.1,0.2,0.2,0.4,0.4,0.6c0.2,0.1,0.4,0.3,0.6,0.4c0.2,0.1,0.5,0.1,0.7,0.2
			c0.2,0.1,0.4,0.3,0.6,0.4c0.2,0.1,0.5,0.1,0.7,0.1c0.2,0.1,0.5,0.1,0.7,0.1c0.2,0.1,0.4,0.1,0.7,0.2c0.2,0.1,0.4,0.2,0.7,0.3
			c0.2,0,0.5-0.1,0.7,0c0.2,0,0.5,0.1,0.7,0.1c0.2,0,0.4,0.2,0.7,0.2c0.2,0,0.5,0,0.7,0.1c0.2,0,0.5,0.1,0.7,0.1
			c0.2,0,0.5-0.1,0.7-0.1c0.2,0,0.5,0.1,0.7,0.1c0.2,0,0.5,0.1,0.7,0.2c0.2,0,0.5,0,0.7,0c0.2,0,0.5,0.2,0.7,0.2c0.2,0,0.5,0,0.7,0
			c0.2,0,0.5-0.1,0.7-0.1c0.2,0,0.5,0,0.7,0c0.2,0,0.5,0.2,0.7,0.2c0.2,0,0.5-0.1,0.7-0.1c0.2,0,0.5,0.2,0.7,0.2c0.2,0,0.5,0,0.7,0
			c0.2,0,0.5-0.1,0.7-0.1c0.2,0,0.5,0,0.7,0c0.2,0,0.5,0.1,0.7,0.1c0.2,0,0.5,0,0.7,0c0.1,0,0.1,0,0.3,0c0.2,0,0.5-0.2,0.7-0.2
			c0.2,0,0.5,0.1,0.7,0.1c0.2,0,0.5-0.1,0.7-0.1c0.2,0,0.5,0,0.7,0c0.2,0,0.5-0.1,0.7-0.1c0.2,0,0.5,0.1,0.7,0.1c0.2,0,0.5,0,0.7,0
			c0.2,0,0.5-0.2,0.7-0.2c0.2,0,0.5,0.1,0.7,0.1c0.2,0,0.5,0,0.7,0c0.2,0,0.5,0,0.7,0c0.2,0,0.5,0,0.7,0c0.2,0,0.5-0.3,0.7-0.3
			c0.2,0,0.5,0,0.7,0c0.2,0,0.5,0.1,0.7,0c0.2,0,0.5-0.2,0.7-0.3c0.2,0,0.5,0,0.7,0c0.2,0,0.5,0,0.7,0c0.2,0,0.4-0.2,0.7-0.3
			c0.2,0,0.5,0.1,0.7,0.1c0.2,0,0.5-0.1,0.7-0.1c0.2,0,0.5-0.2,0.7-0.2c0.2-0.1,0.5-0.1,0.7-0.1c0.2-0.1,0.5-0.1,0.7-0.2
			c0.2-0.1,0.5-0.2,0.7-0.3c0.2-0.1,0.4-0.3,0.6-0.4c0.2-0.1,0.4-0.2,0.6-0.3c0.2-0.1,0.5-0.2,0.6-0.3
			C192.1,147.9,192.2,147.7,192.3,147.5C192.2,147.5,192.3,147.5,192.3,147.5z"/>
	</g>
	<g>
		<path class="st2" d="M87.8,147.3c0,0.1,0,0.1,0,0.2c-0.1,0.2-0.2,0.4-0.4,0.6c-0.2,0.1-0.4,0.2-0.6,0.4c-0.2,0.1-0.4,0.2-0.7,0.3
			c-0.2,0.1-0.4,0.2-0.7,0.3c-0.2,0.1-0.4,0.2-0.7,0.2c-0.2,0.1-0.5,0.1-0.7,0.1c-0.2,0.1-0.4,0.1-0.7,0.2c-0.2,0.1-0.5,0.1-0.7,0.2
			c-0.2,0-0.5,0.1-0.7,0.1c-0.2,0-0.5,0.1-0.7,0.2c-0.2,0-0.5,0.1-0.7,0.1c-0.2,0-0.5,0-0.7,0c-0.2,0-0.5,0.1-0.7,0.2
			c-0.2,0-0.5,0-0.7,0.1c-0.2,0-0.5,0.1-0.7,0.1c-0.2,0-0.5,0-0.7,0c-0.2,0-0.5,0.1-0.7,0.1c-0.2,0-0.5,0.1-0.7,0.1
			c-0.2,0-0.5,0-0.7,0c-0.2,0-0.5,0-0.7,0.1c-0.2,0-0.5,0-0.7,0c-0.2,0-0.5,0-0.7,0c-0.2,0-0.5,0.1-0.7,0.1c-0.2,0-0.5,0-0.7,0
			c-0.2,0-0.5,0-0.7,0c-0.2,0-0.5,0-0.7,0c-0.2,0-0.5,0-0.7,0c-0.2,0-0.5,0-0.7,0c-0.2,0-0.5,0-0.7,0c-0.1,0-0.1,0-0.3,0
			c-0.2,0-0.5,0-0.7,0c-0.2,0-0.5,0-0.7,0c-0.2,0-0.5,0-0.7,0c-0.2,0-0.5,0-0.7,0c-0.2,0-0.5,0-0.7,0c-0.2,0-0.5,0-0.7-0.1
			c-0.2,0-0.5,0-0.7,0c-0.2,0-0.5,0-0.7,0c-0.2,0-0.5,0-0.7,0c-0.2,0-0.5,0-0.7,0c-0.2,0-0.5,0-0.7-0.1c-0.2,0-0.5-0.1-0.7-0.1
			c-0.2,0-0.5,0-0.7-0.1c-0.2,0-0.5-0.1-0.7-0.1c-0.2,0-0.5,0-0.7-0.1c-0.2,0-0.5,0-0.7-0.1c-0.2,0-0.5-0.1-0.7-0.1
			c-0.2,0-0.5-0.1-0.7-0.1c-0.2,0-0.5-0.1-0.7-0.1c-0.2,0-0.5-0.1-0.7-0.1c-0.2,0-0.5-0.1-0.7-0.1c-0.2,0-0.5-0.1-0.7-0.2
			c-0.2-0.1-0.5-0.1-0.7-0.2c-0.2-0.1-0.5-0.1-0.7-0.2c-0.2-0.1-0.5-0.1-0.7-0.2c-0.2-0.1-0.4-0.2-0.7-0.3c-0.2-0.1-0.5-0.2-0.6-0.3
			c-0.2-0.1-0.4-0.3-0.6-0.4c-0.2-0.2-0.4-0.3-0.5-0.5c0-0.1,0-0.1,0-0.2c0-0.2,0.1-0.4,0.3-0.6c0.1-0.1,0.3-0.3,0.5-0.5
			c0.2-0.1,0.4-0.2,0.6-0.3c0.2-0.1,0.4-0.1,0.7-0.2c0.2-0.1,0.4-0.2,0.7-0.2c0.2-0.1,0.5-0.1,0.7-0.2c0.2-0.1,0.5-0.1,0.7-0.2
			c0.2-0.1,0.5-0.1,0.7-0.2c0.2,0,0.5-0.1,0.7-0.2c0.2,0,0.5-0.1,0.7-0.2c0.2,0,0.5,0,0.7-0.1c0.2,0,0.5-0.1,0.7-0.1
			c0.2,0,0.5-0.1,0.7-0.1c0.2,0,0.5,0,0.7,0c0.2,0,0.5-0.1,0.7-0.1c0.2,0,0.5,0,0.7-0.1c0.2,0,0.5-0.1,0.7-0.1c0.2,0,0.5,0,0.7,0
			c0.2,0,0.5,0,0.7,0c0.2,0,0.5-0.1,0.7-0.1c0.2,0,0.5,0,0.7,0c0.2,0,0.5-0.1,0.7-0.1c0.2,0,0.5,0,0.7,0c0.2,0,0.5,0,0.7,0
			c0.2,0,0.5-0.1,0.7-0.1c0.2,0,0.5,0,0.7,0c0.2,0,0.5-0.1,0.7-0.1c0.2,0,0.5,0.1,0.7,0.1c0.2,0,0.5,0,0.7,0c0.1,0,0.1,0,0.3,0
			c0.2,0,0.5,0,0.7,0c0.2,0,0.5,0,0.7,0c0.2,0,0.5,0,0.7,0c0.2,0,0.5,0,0.7,0c0.2,0,0.5,0,0.7,0c0.2,0,0.5,0.1,0.7,0.1
			c0.2,0,0.5,0,0.7,0c0.2,0,0.5,0,0.7,0c0.2,0,0.5,0.1,0.7,0.1c0.2,0,0.5,0.1,0.7,0.1c0.2,0,0.5,0,0.7,0c0.2,0,0.5,0.1,0.7,0.1
			c0.2,0,0.5,0,0.7,0.1c0.2,0,0.5,0.1,0.7,0.1c0.2,0,0.5,0.1,0.7,0.1c0.2,0,0.5,0.1,0.7,0.1c0.2,0,0.5,0,0.7,0
			c0.2,0,0.5,0.1,0.7,0.1c0.2,0,0.5,0.1,0.7,0.1c0.2,0,0.5,0.1,0.7,0.1c0.2,0,0.5,0.1,0.7,0.2c0.2,0.1,0.5,0.1,0.7,0.2
			c0.2,0.1,0.5,0.1,0.7,0.1c0.2,0.1,0.5,0.1,0.7,0.2c0.2,0.1,0.5,0.2,0.7,0.2c0.2,0.1,0.5,0.2,0.7,0.3c0.2,0.1,0.4,0.2,0.6,0.3
			c0.2,0.1,0.5,0.2,0.6,0.4C87.7,146.8,87.8,147.1,87.8,147.3z"/>
	</g>
	<g>
		<path class="st2" d="M86.9,149.5c-0.1,0.4-0.1,0.4-0.2,0.7c-0.1,0.4-0.1,0.4-0.2,0.7c-0.1,0.4-0.1,0.4-0.2,0.7
			c-0.1,0.4-0.1,0.4-0.2,0.7c-0.1,0.4-0.1,0.4-0.3,0.7c-0.1,0.4-0.1,0.4-0.3,0.7s-0.2,0.3-0.3,0.7c-0.1,0.4,0,0.4,0,0.7
			c0,0.4,0,0.4,0,0.7c0,0.4,0.1,0.4,0.1,0.7c0,0.4,0,0.4,0,0.7c0,0.4,0,0.4,0,0.7c0,0.4,0,0.4,0,0.7c0,0.4,0,0.4,0,0.7
			c0,0.4-0.1,0.4-0.1,0.7c0,0.4,0.1,0.4,0.1,0.7c0,0.4,0,0.4,0,0.7c0,0.4,0,0.4,0,0.7c0,0.4,0,0.4,0,0.7c0,0.4,0,0.4,0,0.7
			c0,0.4,0.1,0.4,0.1,0.7c0,0.4,0,0.4,0,0.7c0,0.4,0,0.4,0,0.7c0,0.4,0,0.4,0,0.7c0,0.4,0,0.4,0,0.7c0,0.4,0,0.4,0,0.7
			c0,0.4-0.1,0.4-0.1,0.7c0,0.4,0,0.4,0,0.7c0,0.4,0,0.4,0,0.7c0,0.4,0,0.4,0,0.7c0,0.4,0,0.4,0,0.7c0,0.4,0,0.4,0,0.7
			c0,0.4,0,0.4,0,0.7c0,0.4,0,0.4,0,0.7c0,0.4-0.1,0.4-0.1,0.7c0,0.4,0.1,0.4,0.1,0.7c0,0.4-0.1,0.4-0.1,0.7c0,0.4,0.1,0.4,0.1,0.7
			c0,0.4-0.1,0.4-0.1,0.7c0,0.4,0,0.4,0,0.7c0,0.4,0,0.4,0,0.7c0,0.4,0,0.4,0,0.7c0,0.4,0,0.4,0,0.7c0,0.4,0,0.4,0,0.7
			c0,0.4-0.1,0.4-0.1,0.7c0,0.4,0,0.4,0,0.7c0,0.4,0,0.4,0,0.7c0,0.4,0,0.4,0,0.7c0,0.4,0,0.4,0,0.7c0,0.4,0,0.4,0,0.7
			c0,0.4,0,0.4,0,0.7c0,0.4,0.1,0.4,0.1,0.7c0,0.4,0,0.4,0,0.7c0,0.4-0.1,0.4-0.1,0.7c0,0.4,0,0.4,0,0.7c0,0.4,0,0.4,0,0.7
			c0,0.4,0,0.4,0,0.7c0,0.4,0,0.4,0,0.7c0,0.4,0.1,0.4,0.1,0.7c0,0.4,0,0.4,0,0.7c0,0.4,0,0.4,0,0.7c0,0.4,0,0.4,0,0.7
			c0,0.4,0,0.4,0,0.7c0,0.4,0,0.4,0,0.7c0,0.4,0,0.4,0,0.7c0,0.4,0,0.4,0,0.7c0,0.4,0,0.4,0,0.7c0,0.4,0,0.4,0,0.7
			c0,0.4,0,0.4,0,0.7c0,0.4,0,0.4,0,0.7c0,0.4,0,0.4,0,0.7c0,0.4,0,0.4,0,0.7c0,0.4-0.1,0.4-0.1,0.7c0,0.4,0,0.4,0,0.7
			c0,0.4,0,0.4,0,0.7c0,0.4,0,0.4,0,0.7c0,0.4,0,0.4,0,0.7c0,0.4,0,0.4,0,0.7c0,0.4,0.2,0.4,0,0.7c-0.1,0.2-0.2,0-0.4,0
			c-0.4,0-0.4,0-0.7,0c-0.4,0-0.4,0-0.7,0c-0.4,0-0.4,0-0.7,0c-0.4,0-0.4,0-0.7,0c-0.4,0-0.4,0-0.7,0c-0.4,0-0.4,0-0.7,0
			c-0.4,0-0.4-0.1-0.7-0.1c-0.4,0-0.4,0.1-0.7,0.1c-0.4,0-0.4,0-0.7,0c-0.4,0-0.4,0-0.7,0c-0.4,0-0.4,0-0.7,0
			c-0.4,0-0.4,0.1-0.7,0.1c-0.4,0-0.4,0-0.7,0c-0.4,0-0.4,0.1-0.7,0.1c-0.4,0-0.4-0.1-0.7-0.1c-0.4,0-0.4,0-0.7,0
			c-0.4,0-0.4,0.1-0.7,0.1c-0.4,0-0.4,0-0.7,0c-0.4,0-0.4,0-0.7,0c-0.4,0-0.4-0.1-0.7-0.1c-0.4,0-0.4,0-0.7,0c-0.4,0-0.4,0-0.7,0
			c-0.4,0-0.4,0-0.7,0c-0.4,0-0.4,0.1-0.7,0.1c-0.4,0-0.4-0.1-0.7-0.1c-0.4,0-0.4,0-0.7,0c-0.4,0-0.4,0-0.7,0c-0.4,0-0.4,0-0.7,0
			c-0.4,0-0.4,0-0.7,0c-0.4,0-0.4,0-0.7,0c-0.4,0-0.4,0.1-0.7,0.1c-0.4,0-0.4,0-0.7,0c-0.4,0-0.4,0-0.7,0c-0.4,0-0.4,0.1-0.7,0.1
			c-0.4,0-0.4-0.1-0.7-0.1c-0.4,0-0.4,0-0.7,0c-0.4,0-0.4,0-0.7,0c-0.4,0-0.4,0.1-0.7,0.1c-0.4,0-0.4-0.1-0.7-0.1
			c-0.4,0-0.4,0.1-0.7,0.1c-0.4,0-0.4,0-0.7,0c-0.4,0-0.4,0-0.7,0c-0.4,0-0.4,0-0.7,0c-0.4,0-0.4,0-0.7,0c-0.4,0-0.4,0-0.7,0
			c-0.4,0-0.4-0.1-0.7-0.1c-0.4,0-0.4,0-0.7,0c-0.4,0-0.4,0-0.7,0c-0.4,0-0.4,0.1-0.7,0.1c-0.4,0-0.4,0-0.7,0c-0.4,0-0.5,0.2-0.7,0
			c-0.3-0.2-0.1-0.3-0.1-0.7c0-0.4,0-0.4,0-0.7c0-0.4,0-0.4,0-0.7c0-0.4,0-0.4,0-0.7c0-0.4,0.1-0.4,0.1-0.7c0-0.4,0-0.4,0-0.7
			c0-0.4,0-0.4,0-0.7c0-0.4-0.1-0.4-0.1-0.7c0-0.4,0.1-0.4,0.1-0.7c0-0.4-0.1-0.4-0.1-0.7c0-0.4,0-0.4,0-0.7c0-0.4,0.1-0.4,0.1-0.7
			c0-0.4,0-0.4,0-0.7c0-0.4,0-0.4,0-0.7c0-0.4,0-0.4,0-0.7c0-0.4,0-0.4,0-0.7c0-0.4,0-0.4,0-0.7c0-0.4,0-0.4,0-0.7
			c0-0.4,0.1-0.4,0.1-0.7c0-0.4,0-0.4,0-0.7c0-0.4-0.1-0.4-0.1-0.7c0-0.4,0.1-0.4,0.1-0.7c0-0.4,0-0.4,0-0.7c0-0.4-0.1-0.4-0.1-0.7
			c0-0.4,0-0.4,0-0.7c0-0.4,0-0.4,0-0.7c0-0.4,0-0.4,0-0.7c0-0.4,0-0.4,0-0.7c0-0.4,0-0.4,0-0.7c0-0.4,0.1-0.4,0.1-0.7
			c0-0.4,0-0.4,0-0.7c0-0.4,0-0.4,0-0.7c0-0.4,0.1-0.4,0.1-0.7c0-0.4,0-0.4,0-0.7c0-0.4,0-0.4,0-0.7c0-0.4,0-0.4,0-0.7
			c0-0.4-0.1-0.4-0.1-0.7c0-0.4,0-0.4,0-0.7c0-0.4,0.1-0.4,0.1-0.7c0-0.4,0-0.4,0-0.7c0-0.4,0-0.4,0-0.7c0-0.4,0-0.4,0-0.7
			c0-0.4,0-0.4,0-0.7c0-0.4,0-0.4,0-0.7c0-0.4,0-0.4,0-0.7c0-0.4,0-0.4,0-0.7c0-0.4,0.1-0.4,0.1-0.7c0-0.4-0.1-0.4-0.1-0.7
			c0-0.4,0-0.4,0-0.7c0-0.4,0.1-0.4,0.1-0.7c0-0.4,0-0.4,0-0.7c0-0.4,0-0.4,0-0.7c0-0.4,0-0.4,0-0.7c0-0.4,0-0.4,0-0.7
			c0-0.4,0-0.4,0-0.7c0-0.4,0-0.4,0-0.7c0-0.4,0-0.4,0-0.7c0-0.4,0-0.4,0-0.7c0-0.4,0-0.4,0-0.7c0-0.4-0.1-0.4-0.1-0.7
			c0-0.4,0-0.4,0-0.7c0-0.4,0.1-0.4,0.1-0.7c0-0.4-0.1-0.4-0.1-0.7c0-0.4,0-0.4,0-0.7c0-0.4,0-0.4,0-0.7c0-0.4,0-0.4,0-0.7
			c0-0.4,0-0.4,0-0.7c0-0.4,0.1-0.4,0.1-0.7c0-0.4-0.1-0.4-0.1-0.7c0-0.4,0-0.4,0-0.7c0-0.4,0.1-0.4,0.1-0.7c0-0.4,0-0.4-0.1-0.7
			c-0.1-0.4-0.2-0.3-0.3-0.7c-0.1-0.4-0.1-0.4-0.2-0.7c-0.1-0.4-0.1-0.4-0.2-0.7c-0.1-0.4-0.2-0.3-0.3-0.7c-0.1-0.4-0.1-0.4-0.2-0.7
			c-0.1-0.4-0.2-0.3-0.3-0.7c-0.1-0.4-0.1-0.4-0.1-0.7c0-0.1,0.1-0.2,0.2-0.1c0.1,0.2,0.2,0.4,0.4,0.6c0.2,0.1,0.4,0.2,0.6,0.4
			c0.2,0.1,0.4,0.2,0.7,0.3c0.2,0.1,0.4,0.2,0.7,0.2c0.2,0.1,0.4,0.2,0.7,0.3c0.2,0.1,0.5,0.1,0.7,0.2c0.2,0.1,0.5,0.1,0.7,0.2
			c0.2,0.1,0.5,0.1,0.7,0.1c0.2,0,0.5,0.1,0.7,0.2c0.2,0,0.5,0,0.7,0.1c0.2,0,0.5,0.1,0.7,0.2c0.2,0,0.5,0,0.7,0
			c0.2,0,0.5,0.1,0.7,0.1c0.2,0,0.5,0.1,0.7,0.1c0.2,0,0.5,0.1,0.7,0.1c0.2,0,0.5,0,0.7,0c0.2,0,0.5,0,0.7,0.1
			c0.2,0,0.5,0.1,0.7,0.1c0.2,0,0.5,0.1,0.7,0.1c0.2,0,0.5,0,0.7,0c0.2,0,0.5,0.1,0.7,0.1c0.2,0,0.5,0,0.7,0c0.2,0,0.5,0,0.7,0
			c0.2,0,0.5,0,0.7,0c0.2,0,0.5,0.1,0.7,0.1c0.2,0,0.5-0.1,0.7-0.1c0.2,0,0.5,0.1,0.7,0.1c0.2,0,0.5,0,0.7,0s0.5-0.1,0.7-0.1
			c0.1,0,0.1,0,0.3,0c0.2,0,0.5,0,0.7,0c0.2,0,0.5,0,0.7,0c0.2,0,0.5,0,0.7,0c0.2,0,0.5,0,0.7,0c0.2,0,0.5,0.1,0.7,0.1
			c0.2,0,0.5-0.1,0.7-0.1c0.2,0,0.5,0,0.7,0c0.2,0,0.5,0,0.7,0c0.2,0,0.5,0,0.7,0c0.2,0,0.5-0.1,0.7-0.1c0.2,0,0.5,0,0.7,0
			c0.2,0,0.5-0.1,0.7-0.1c0.2,0,0.5-0.1,0.7-0.1c0.2,0,0.5,0,0.7,0c0.2,0,0.5-0.1,0.7-0.1c0.2,0,0.5,0.1,0.7,0
			c0.2,0,0.5-0.1,0.7-0.1c0.2,0,0.5-0.1,0.7-0.1c0.2,0,0.5,0,0.7-0.1c0.2,0,0.5-0.1,0.7-0.2c0.2,0,0.5-0.1,0.7-0.2
			c0.2,0,0.5-0.1,0.7-0.1c0.2-0.1,0.5-0.1,0.7-0.1c0.2-0.1,0.4-0.2,0.7-0.2c0.2-0.1,0.5-0.1,0.7-0.1c0.2-0.1,0.5-0.2,0.7-0.3
			c0.2-0.1,0.5-0.2,0.6-0.3c0.2-0.1,0.4-0.3,0.6-0.4C86.7,149.9,86.8,149.7,86.9,149.5C86.9,149.5,86.9,149.5,86.9,149.5z"/>
	</g>
	<g>
		<path class="st9" d="M213.6,61.7c-0.3,0.3-0.3,0.2-0.5,0.5c-0.3,0.3-0.2,0.3-0.4,0.6c-0.3,0.3-0.2,0.3-0.5,0.5
			c-0.3,0.3-0.4,0.1-0.6,0.4c-0.3,0.3-0.2,0.3-0.4,0.6c-0.3,0.3-0.2,0.3-0.5,0.5c-0.3,0.3-0.4,0.1-0.6,0.4c-0.3,0.3-0.2,0.3-0.5,0.5
			c-0.3,0.3-0.3,0.2-0.5,0.5c-0.3,0.3-0.1,0.4-0.4,0.6c-0.3,0.3-0.3,0.2-0.6,0.4c-0.3,0.3-0.2,0.3-0.5,0.5c-0.3,0.3-0.3,0.2-0.6,0.4
			c-0.3,0.3-0.1,0.4-0.4,0.6c-0.3,0.3-0.3,0.2-0.6,0.5c-0.3,0.3-0.3,0.2-0.5,0.5c-0.3,0.3-0.3,0.2-0.5,0.5c-0.3,0.3-0.2,0.3-0.4,0.6
			c-0.3,0.3-0.3,0.2-0.6,0.5c-0.3,0.3-0.3,0.2-0.5,0.5c-0.3,0.3-0.3,0.2-0.5,0.5c-0.3,0.3-0.2,0.3-0.5,0.6c-0.3,0.3-0.3,0.2-0.6,0.4
			c-0.3,0.3-0.2,0.3-0.4,0.6c-0.3,0.3-0.4,0.2-0.6,0.4c-0.3,0.3-0.2,0.3-0.5,0.6c-0.3,0.3-0.3,0.2-0.6,0.5c-0.3,0.3-0.3,0.3-0.5,0.5
			c-0.3,0.3-0.2,0.3-0.5,0.5c-0.3,0.3-0.3,0.2-0.5,0.5c-0.3,0.3-0.3,0.2-0.5,0.5c-0.3,0.3-0.3,0.2-0.5,0.5c-0.3,0.3-0.2,0.3-0.5,0.5
			c-0.3,0.3-0.2,0.3-0.4,0.6c-0.3,0.3-0.3,0.3-0.5,0.5c-0.3,0.3-0.2,0.3-0.5,0.5c-0.3,0.3-0.3,0.2-0.5,0.5c-0.3,0.3-0.3,0.2-0.6,0.4
			c-0.3,0.3-0.2,0.3-0.5,0.5c-0.3,0.3-0.3,0.2-0.5,0.5c-0.3,0.3-0.2,0.3-0.4,0.6c-0.3,0.3-0.3,0.2-0.6,0.4c-0.3,0.3-0.2,0.3-0.5,0.5
			c-0.3,0.3-0.2,0.3-0.4,0.6c-0.3,0.3-0.3,0.2-0.5,0.5c-0.3,0.3-0.3,0.2-0.6,0.4c-0.3,0.3-0.3,0.3-0.5,0.5c-0.3,0.3-0.3,0.2-0.5,0.5
			c-0.3,0.3-0.2,0.3-0.5,0.5c-0.3,0.3-0.3,0.2-0.5,0.5c-0.3,0.3-0.2,0.3-0.4,0.6c-0.3,0.3-0.3,0.2-0.5,0.5c-0.3,0.3-0.2,0.3-0.5,0.5
			c-0.3,0.3-0.3,0.2-0.6,0.5c-0.3,0.3-0.2,0.3-0.5,0.5c-0.3,0.3-0.3,0.2-0.5,0.5c-0.3,0.3-0.3,0.3-0.5,0.5c-0.3,0.3-0.2,0.3-0.5,0.6
			c-0.3,0.3-0.3,0.3-0.5,0.5c-0.3,0.3-0.2,0.3-0.5,0.5c-0.3,0.3-0.3,0.2-0.5,0.5c-0.3,0.3-0.3,0.2-0.6,0.4c-0.3,0.3-0.2,0.3-0.4,0.6
			c-0.3,0.3-0.3,0.2-0.6,0.4c-0.3,0.3-0.1,0.4-0.4,0.6c-0.3,0.3-0.3,0.2-0.6,0.5c-0.3,0.3-0.2,0.3-0.5,0.5c-0.3,0.3-0.2,0.3-0.5,0.5
			c-0.3,0.3-0.3,0.3-0.5,0.5c-0.3,0.3-0.3,0.2-0.6,0.5c-0.3,0.3-0.2,0.3-0.5,0.6c-0.3,0.3-0.3,0.2-0.6,0.4c-0.3,0.3-0.2,0.3-0.4,0.6
			c-0.3,0.3-0.2,0.3-0.5,0.5c-0.3,0.3-0.3,0.3-0.5,0.5c-0.3,0.3-0.3,0.2-0.6,0.5c-0.3,0.3-0.3,0.2-0.6,0.5c-0.3,0.3-0.2,0.4-0.4,0.6
			c-0.3,0.3-0.2,0.3-0.5,0.5c-0.3,0.3-0.3,0.2-0.6,0.5c-0.2,0.2-0.3,0.4-0.5,0.5c-0.2,0.2-0.4,0.3-0.6,0.5c-0.2,0.2-0.4,0.3-0.6,0.4
			c-0.2,0.2-0.3,0.4-0.5,0.5c-0.2,0.2-0.4,0.3-0.6,0.5c-0.2,0.2-0.4,0.2-0.6,0.4c-0.2,0.2-0.4,0.3-0.5,0.5c-0.2,0.1-0.4,0.3-0.6,0.5
			c-0.2,0.1-0.4,0.3-0.6,0.5c-0.2,0.1-0.5,0.2-0.7,0.3c-0.2,0.1-0.4,0.3-0.6,0.4c-0.2,0.1-0.4,0.2-0.6,0.4c-0.2,0.1-0.4,0.3-0.6,0.4
			s-0.3,0.4-0.6,0.5c-0.2,0.1-0.4,0.2-0.6,0.4c-0.2,0.1-0.5,0.1-0.7,0.2c-0.2,0.1-0.4,0.3-0.6,0.4c-0.2,0.1-0.4,0.2-0.7,0.3
			c-0.2,0.1-0.4,0.2-0.7,0.3c-0.2,0.1-0.4,0.2-0.7,0.3c-0.2,0.1-0.4,0.3-0.6,0.4c-0.2,0.1-0.5,0.1-0.7,0.2c-0.2,0.1-0.5,0.1-0.7,0.2
			c-0.2,0.1-0.5,0.2-0.7,0.2c-0.2,0.1-0.5,0.2-0.7,0.2c-0.2,0.1-0.5,0.2-0.7,0.2c-0.3,0.1-0.4,0-0.7,0.1c-0.3,0.1-0.3,0.2-0.6,0.3
			c-0.3,0.1-0.4,0-0.7,0.1c-0.3,0.1-0.3,0.1-0.7,0.2c-0.3,0.1-0.3,0.1-0.7,0.2c-0.3,0.1-0.3,0.1-0.7,0.2c-0.3,0.1-0.3,0.2-0.7,0.3
			c-0.3,0.1-0.4,0-0.7,0.1c-0.3,0.1-0.4,0-0.7,0.1c-0.3,0.1-0.3,0.2-0.7,0.3c-0.3,0.1-0.3,0.2-0.7,0.3c-0.3,0.1-0.4,0.1-0.7,0.2
			c-0.3,0.1-0.3,0.1-0.7,0.2c-0.3,0.1-0.4,0-0.7,0.1c-0.2,0.1-0.5,0.1-0.7,0.2c-0.2,0.1-0.5,0.1-0.7,0.2c-0.2,0.1-0.4,0.2-0.7,0.4
			c-0.2,0.1-0.4,0.2-0.7,0.4c-0.2,0.1-0.4,0.3-0.6,0.4c-0.2,0.1-0.4,0.3-0.6,0.4c-0.2,0.1-0.5,0.2-0.7,0.4c-0.2,0.2-0.4,0.3-0.6,0.5
			c-0.2,0.2-0.3,0.4-0.5,0.5c-0.3,0.3-0.3,0.2-0.5,0.5c-0.3,0.3-0.2,0.3-0.5,0.5c-0.2,0.2-0.2,0.3-0.5,0.5c-0.2,0.2-0.2,0.3-0.5,0.5
			c-0.2,0.2-0.2,0.3-0.5,0.5c-0.2,0.2-0.3,0.2-0.5,0.5c-0.3,0.3-0.3,0.2-0.5,0.5c-0.3,0.3-0.2,0.3-0.5,0.5c-0.3,0.3-0.3,0.2-0.5,0.5
			c-0.3,0.3-0.2,0.3-0.5,0.5c-0.3,0.3-0.3,0.2-0.6,0.4c-0.3,0.3-0.1,0.4-0.4,0.6c-0.3,0.3-0.3,0.2-0.5,0.5c-0.3,0.3-0.2,0.3-0.5,0.5
			c-0.3,0.3-0.3,0.2-0.6,0.4c-0.2,0.2-0.2,0.3-0.5,0.5c-0.3,0.3-0.2,0.3-0.5,0.5c-0.3,0.3-0.2,0.3-0.5,0.5c-0.3,0.3-0.2,0.3-0.5,0.5
			c-0.3,0.3-0.3,0.2-0.6,0.4c-0.3,0.3-0.2,0.3-0.5,0.5c-0.3,0.3-0.3,0.2-0.5,0.5c-0.3,0.3-0.2,0.3-0.4,0.6c-0.2,0.2-0.4,0.4-0.6,0.5
			c-0.2,0.1-0.5,0.1-0.7,0.2c-0.2,0.1-0.5,0.2-0.7,0.2c-0.3,0-0.5,0-0.7,0c-0.3,0-0.5,0-0.8,0c-0.2-0.1-0.4-0.3-0.6-0.5
			c-0.2-0.1-0.4-0.3-0.6-0.5c-0.2-0.2-0.2-0.2-0.4-0.4s-0.2-0.2-0.4-0.3s-0.2-0.2-0.4-0.4s-0.1-0.3-0.3-0.5
			c-0.2-0.2-0.5-0.3-0.6-0.5c-0.1-0.2-0.1-0.5-0.2-0.8c-0.1-0.2-0.3-0.5-0.3-0.7c0-0.3,0.1-0.5,0.1-0.8c0-0.3,0.1-0.5,0.2-0.7
			c0.1-0.2,0.2-0.5,0.3-0.7c0.1-0.2,0.2-0.5,0.4-0.6c0.3-0.3,0.3-0.2,0.6-0.4c0.3-0.3,0.2-0.3,0.5-0.5c0.2-0.2,0.3-0.2,0.5-0.5
			c0.2-0.2,0.3-0.2,0.5-0.5c0.2-0.2,0.2-0.3,0.5-0.5c0.2-0.2,0.2-0.3,0.4-0.6c0.3-0.3,0.3-0.2,0.5-0.5c0.3-0.3,0.2-0.3,0.5-0.5
			c0.3-0.3,0.2-0.3,0.5-0.5c0.3-0.3,0.3-0.2,0.5-0.5c0.3-0.3,0.2-0.3,0.5-0.5c0.3-0.3,0.3-0.2,0.5-0.5c0.3-0.3,0.2-0.3,0.5-0.5
			c0.3-0.3,0.3-0.2,0.5-0.5c0.3-0.3,0.3-0.2,0.5-0.5c0.2-0.2,0.3-0.2,0.5-0.5c0.3-0.3,0.2-0.3,0.5-0.5c0.3-0.3,0.3-0.2,0.5-0.5
			c0.3-0.3,0.3-0.2,0.5-0.5c0.3-0.3,0.2-0.3,0.5-0.5c0.3-0.3,0.3-0.2,0.5-0.5c0.3-0.3,0.2-0.3,0.4-0.6c0.3-0.3,0.3-0.2,0.6-0.4
			c0.2-0.2,0.3-0.4,0.5-0.6c0.2-0.2,0.3-0.4,0.4-0.6c0.2-0.2,0.3-0.4,0.5-0.6c0.1-0.2,0.3-0.4,0.4-0.6c0.1-0.2,0.3-0.4,0.4-0.6
			c0.1-0.2,0.3-0.4,0.4-0.6c0.1-0.2,0.3-0.4,0.4-0.7c0.1-0.2,0.1-0.5,0.2-0.7c0.1-0.2,0.2-0.5,0.3-0.7c0.1-0.3,0.2-0.3,0.3-0.6
			c0.1-0.3,0-0.4,0.1-0.7c0.1-0.3,0.1-0.3,0.2-0.7c0.1-0.3,0.1-0.3,0.2-0.7c0.1-0.3,0.1-0.4,0.2-0.7c0.1-0.3,0.2-0.3,0.3-0.7
			c0.1-0.3,0.1-0.3,0.2-0.7c0.1-0.3,0.1-0.3,0.2-0.7c0.1-0.3,0.1-0.4,0.2-0.7c0.1-0.3,0.1-0.4,0.2-0.7c0.1-0.3,0.1-0.4,0.2-0.7
			c0.1-0.3,0.2-0.3,0.3-0.7c0.1-0.3,0.1-0.4,0.2-0.7c0.1-0.3,0.1-0.3,0.2-0.7c0.1-0.2,0.3-0.4,0.4-0.6c0.1-0.2,0.1-0.5,0.2-0.7
			c0.1-0.2,0.1-0.5,0.2-0.7c0.1-0.2,0.1-0.5,0.2-0.7c0.1-0.2,0.3-0.4,0.4-0.6c0.1-0.2,0.2-0.4,0.3-0.6c0.1-0.2,0.2-0.5,0.3-0.7
			c0.1-0.2,0.1-0.5,0.2-0.7c0.1-0.2,0.2-0.4,0.3-0.6c0.1-0.2,0.3-0.4,0.4-0.6c0.1-0.2,0.2-0.4,0.4-0.6c0.1-0.2,0.2-0.5,0.3-0.7
			c0.1-0.2,0.2-0.5,0.3-0.7c0.1-0.2,0.3-0.4,0.5-0.6c0.1-0.2,0.3-0.4,0.4-0.6c0.1-0.2,0.3-0.4,0.4-0.6c0.1-0.2,0.2-0.4,0.4-0.6
			c0.1-0.2,0.3-0.4,0.4-0.6c0.1-0.2,0.4-0.3,0.5-0.5c0.1-0.2,0.2-0.4,0.4-0.6c0.2-0.2,0.3-0.4,0.5-0.5c0.2-0.2,0.3-0.4,0.5-0.6
			c0.2-0.2,0.3-0.4,0.5-0.5c0.2-0.2,0.3-0.4,0.5-0.5c0.2-0.2,0.3-0.4,0.5-0.5c0.2-0.2,0.3-0.4,0.5-0.6c0.3-0.3,0.2-0.3,0.5-0.5
			c0.3-0.3,0.3-0.2,0.6-0.4c0.3-0.3,0.3-0.2,0.6-0.5c0.3-0.3,0.2-0.3,0.4-0.6c0.3-0.3,0.3-0.2,0.5-0.5c0.3-0.3,0.2-0.3,0.5-0.5
			c0.3-0.3,0.3-0.2,0.5-0.5c0.3-0.3,0.3-0.2,0.5-0.5c0.3-0.3,0.3-0.2,0.6-0.4c0.3-0.3,0.3-0.2,0.5-0.5c0.3-0.3,0.2-0.3,0.5-0.6
			c0.3-0.3,0.2-0.3,0.5-0.5c0.3-0.3,0.2-0.3,0.5-0.5c0.3-0.3,0.3-0.2,0.5-0.5c0.3-0.3,0.2-0.3,0.5-0.5c0.3-0.3,0.3-0.2,0.5-0.5
			c0.3-0.3,0.3-0.2,0.5-0.5c0.3-0.3,0.2-0.3,0.5-0.5c0.3-0.3,0.3-0.2,0.5-0.5c0.3-0.3,0.3-0.2,0.5-0.5c0.3-0.3,0.2-0.3,0.4-0.6
			c0.3-0.3,0.3-0.2,0.6-0.4c0.3-0.3,0.3-0.3,0.5-0.5c0.3-0.3,0.2-0.3,0.4-0.6c0.3-0.3,0.3-0.2,0.6-0.4c0.3-0.3,0.3-0.2,0.5-0.5
			c0.3-0.3,0.3-0.2,0.5-0.5c0.3-0.3,0.1-0.4,0.4-0.6c0.3-0.3,0.2-0.3,0.5-0.5c0.3-0.3,0.3-0.2,0.6-0.4c0.3-0.3,0.3-0.2,0.5-0.5
			c0.3-0.3,0.3-0.2,0.5-0.5c0.3-0.3,0.2-0.3,0.4-0.6c0.3-0.3,0.2-0.3,0.5-0.5c0.3-0.3,0.3-0.2,0.5-0.5c0.3-0.3,0.2-0.3,0.5-0.5
			c0.3-0.3,0.2-0.3,0.5-0.5c0.3-0.3,0.3-0.3,0.5-0.5c0.3-0.3,0.3-0.2,0.6-0.5c0.3-0.3,0.2-0.3,0.5-0.5c0.3-0.3,0.3-0.3,0.5-0.5
			c0.3-0.3,0.3-0.2,0.5-0.5c0.3-0.3,0.3-0.2,0.5-0.5c0.3-0.3,0.3-0.2,0.6-0.5c0.3-0.3,0.2-0.3,0.5-0.5c0.3-0.3,0.2-0.3,0.5-0.5
			c0.3-0.3,0.3-0.2,0.5-0.5c0.3-0.3,0.2-0.3,0.4-0.6c0.3-0.3,0.3-0.2,0.5-0.5c0.3-0.3,0.3-0.2,0.5-0.5c0.3-0.3,0.3-0.2,0.5-0.5
			c0.3-0.3,0.2-0.3,0.5-0.5c0.3-0.3,0.2-0.3,0.5-0.5c0.3-0.3,0.2-0.3,0.5-0.6c0.3-0.3,0.3-0.3,0.5-0.5c0.3-0.3,0.3-0.2,0.6-0.4
			c0.3-0.3,0.2-0.3,0.4-0.6c0.3-0.3,0.3-0.2,0.5-0.5c0.3-0.3,0.3-0.2,0.5-0.5c0.3-0.3,0.3-0.2,0.6-0.4c0.3-0.3,0.3-0.3,0.5-0.5
			c0.3-0.3,0.2-0.4,0.4-0.6c0.3-0.3,0.3-0.2,0.5-0.5c0.3-0.3,0.2-0.3,0.5-0.5c0.3-0.3,0.3-0.2,0.5-0.5c0.3-0.3,0.2-0.3,0.5-0.5
			c0.3-0.3,0.3-0.3,0.5-0.5c0.3-0.3,0.3-0.3,0.5-0.5c0.3-0.3,0.2-0.3,0.5-0.5c0.3-0.3,0.3-0.3,0.5-0.5c0.3-0.3,0.4-0.1,0.6-0.4
			c0.3-0.3,0.1-0.4,0.4-0.6c0.3-0.3,0.3-0.2,0.5-0.5c0.3-0.3,0.3-0.2,0.5-0.5c0.3-0.3,0.2-0.3,0.5-0.5c0.3-0.3,0.3-0.2,0.5-0.5
			c0.3-0.3,0.3-0.2,0.5-0.5c0.3-0.3,0.2-0.3,0.4-0.6c0.3-0.3,0.3-0.2,0.6-0.5c0.3-0.3,0.3-0.2,0.6-0.5"/>
	</g>
	<g>
		<path class="st9" d="M142.1,149.5c-0.1,0.4-0.1,0.4-0.2,0.7c-0.1,0.4-0.1,0.4-0.2,0.7c-0.1,0.4-0.2,0.3-0.3,0.7
			c-0.1,0.4,0,0.4-0.1,0.8c-0.1,0.4-0.3,0.3-0.4,0.7c-0.1,0.4,0,0.4-0.1,0.8c-0.1,0.4-0.3,0.3-0.4,0.7c-0.1,0.4,0,0.4,0,0.7
			c0,0.4,0,0.4,0,0.7c0,0.4,0,0.4,0,0.7c0,0.4,0.2,0.4,0.2,0.7c0,0.4-0.1,0.4-0.1,0.7c0,0.4-0.1,0.4-0.1,0.7c0,0.4-0.1,0.4-0.1,0.7
			c0,0.4,0,0.4,0,0.7c0,0.4,0,0.4,0,0.7c0,0.4-0.1,0.4-0.1,0.7c0,0.4,0.2,0.4,0.2,0.7c0,0.4-0.2,0.4-0.2,0.7c0,0.4,0.2,0.4,0.2,0.7
			c0,0.4,0,0.4,0,0.7c0,0.4,0,0.4,0,0.7c0,0.4-0.2,0.4-0.2,0.7c0,0.4,0,0.4,0,0.7c0,0.4,0.2,0.4,0.2,0.7c0,0.4-0.1,0.4-0.1,0.7
			c0,0.4,0.1,0.4,0.1,0.7c0,0.4-0.2,0.4-0.2,0.7c0,0.4,0,0.4,0,0.7c0,0.4,0,0.4,0,0.7c0,0.4,0.2,0.4,0.2,0.7c0,0.4-0.2,0.4-0.2,0.7
			c0,0.4,0.2,0.4,0.2,0.7c0,0.4-0.1,0.4-0.1,0.7c0,0.4,0.1,0.4,0.1,0.7s0.1,0.4,0.1,0.7c0,0.4-0.1,0.4-0.1,0.7c0,0.4,0,0.4,0,0.7
			c0,0.4,0.1,0.4,0.1,0.7c0,0.4-0.1,0.4-0.1,0.7c0,0.4,0,0.4,0,0.7c0,0.4,0,0.4,0,0.7c0,0.4,0.2,0.4,0.2,0.7c0,0.4,0.1,0.4,0.1,0.7
			c0,0.4-0.1,0.4-0.1,0.7c0,0.4,0,0.4,0,0.7c0,0.4,0,0.4,0,0.7c0,0.4-0.1,0.4-0.1,0.7c0,0.4,0,0.4,0,0.7c0,0.4,0.1,0.4,0.1,0.7
			c0,0.4,0,0.4,0,0.7c0,0.4-0.2,0.4-0.2,0.7c0,0.4,0.1,0.4,0.1,0.7c0,0.4,0,0.4,0,0.7c0,0.4,0,0.4,0,0.7c0,0.4-0.1,0.4-0.1,0.7
			c0,0.4,0,0.4,0,0.7c0,0.4,0,0.4,0,0.7s0.2,0.4,0.2,0.7c0,0.4-0.1,0.4-0.1,0.7c0,0.4,0.1,0.4,0.1,0.7c0,0.4-0.1,0.4-0.1,0.7
			c0,0.4,0.1,0.4,0.1,0.7c0,0.4-0.2,0.4-0.2,0.7c0,0.4,0.1,0.4,0.1,0.7c0,0.4,0,0.4,0,0.7c0,0.4,0.1,0.4,0.1,0.7
			c0,0.4-0.1,0.4-0.1,0.7c0,0.4,0,0.4,0,0.7c0,0.4-0.1,0.4-0.1,0.7c0,0.4,0,0.4,0,0.7c0,0.4,0,0.4,0,0.7c0,0.4,0,0.4,0,0.7
			c0,0.4,0,0.4,0,0.7c0,0.4,0,0.4,0,0.7c0,0.4-0.1,0.4-0.1,0.7c0,0.4,0,0.4,0,0.7c0,0.4,0,0.4,0,0.7c0,0.4,0.1,0.4,0.1,0.7
			c0,0.4,0,0.4,0,0.7c0,0.4-0.1,0.4-0.1,0.7c0,0.4,0.1,0.4,0.1,0.7c0,0.4-0.1,0.4-0.1,0.7c0,0.4,0.1,0.4,0.1,0.7c0,0.4,0,0.4,0,0.7
			c0,0.4-0.1,0.4-0.1,0.7c0,0.4,0.2,0.4,0.2,0.7c0,0.4-0.1,0.4-0.1,0.7c0,0.4,0.1,0.4,0.1,0.7c0,0.4-0.1,0.4-0.1,0.7
			c0,0.4,0,0.4,0,0.7c0,0.4,0,0.4,0,0.7c0,0.4,0.1,0.4,0.1,0.7c0,0.4,0.1,0.4,0.1,0.7c0,0.4,0,0.4,0,0.7c0,0.4,0,0.4,0,0.7
			c0,0.4-0.1,0.4-0.1,0.7c0,0.4-0.1,0.4-0.1,0.7c0,0.4,0.2,0.4,0.2,0.7c0,0.4-0.1,0.4-0.1,0.7c0,0.4-0.1,0.4-0.1,0.7
			c0,0.4,0.2,0.4,0.2,0.7c0,0.4,0,0.4,0,0.7c0,0.4,0,0.4,0,0.7c0,0.4,0,0.4,0,0.7c0,0.4,0,0.4,0,0.7c0,0.4,0,0.4,0,0.7
			c0,0.4,0,0.4,0,0.7c0,0.4-0.1,0.4-0.1,0.7c0,0.4,0,0.4,0,0.7c0,0.4,0,0.4,0,0.7c0,0.4,0,0.4,0,0.7c0,0.4,0,0.4,0,0.7
			c0,0.4,0,0.4,0,0.7c0,0.4,0.1,0.4,0.1,0.7c0,0.4,0.1,0.4,0.1,0.7c0,0.4-0.1,0.4-0.1,0.7c0,0.4,0.1,0.4,0.1,0.7
			c0,0.4-0.2,0.4-0.2,0.7c0,0.4,0,0.4,0,0.7c0,0.4,0,0.4,0,0.7c0,0.4,0.2,0.4,0.2,0.7c0,0.4,0,0.4,0,0.7c0,0.4-0.1,0.4-0.1,0.7
			c0,0.4,0.1,0.4,0.1,0.7c0,0.4-0.2,0.4-0.2,0.7c0,0.4,0,0.4,0,0.7c0,0.4,0.2,0.4,0.2,0.7c0,0.4-0.1,0.4-0.1,0.7
			c0,0.4-0.1,0.4-0.1,0.7c0,0.4,0.1,0.4,0.1,0.7c0,0.4,0,0.4,0,0.7c0,0.4,0,0.4,0,0.7c0,0.4-0.2,0.4-0.2,0.7c0,0.4,0.2,0.4,0.2,0.7
			c0,0.4-0.2,0.4-0.2,0.7c0,0.4,0,0.4,0,0.7c0,0.2,0.1,0.5,0.1,0.7c0,0.2,0,0.5,0,0.7c0,0.2,0,0.5,0,0.7c0,0.2,0,0.5,0,0.7
			c0,0.2-0.2,0.5-0.3,0.7c0,0.2-0.1,0.5-0.1,0.7c0,0.2,0.1,0.5,0.1,0.7c0,0.2-0.2,0.4-0.3,0.7c-0.1,0.2,0,0.5-0.1,0.7
			c-0.1,0.2-0.3,0.4-0.3,0.6c-0.1,0.2-0.2,0.4-0.2,0.7c-0.1,0.2,0,0.5-0.1,0.7c-0.1,0.2-0.2,0.4-0.3,0.7c-0.1,0.2-0.1,0.5-0.2,0.7
			c-0.1,0.2-0.3,0.4-0.4,0.6c-0.1,0.2-0.2,0.4-0.3,0.6c-0.1,0.2-0.3,0.4-0.4,0.6c-0.1,0.2-0.2,0.4-0.3,0.6c-0.1,0.2-0.2,0.4-0.3,0.6
			c-0.1,0.2-0.3,0.4-0.4,0.6c-0.1,0.2-0.3,0.4-0.4,0.6c-0.1,0.2-0.3,0.4-0.4,0.6c-0.1,0.2-0.2,0.5-0.3,0.6c-0.1,0.2-0.3,0.4-0.4,0.6
			c-0.2,0.2-0.3,0.3-0.5,0.5c-0.2,0.2-0.4,0.3-0.6,0.4c-0.2,0.2-0.4,0.3-0.5,0.5c-0.2,0.2-0.3,0.4-0.5,0.5c-0.2,0.2-0.3,0.4-0.5,0.5
			c-0.2,0.1-0.4,0.3-0.6,0.4c-0.2,0.1-0.3,0.3-0.5,0.5c-0.2,0.1-0.5,0.2-0.7,0.3c-0.2,0.1-0.3,0.4-0.5,0.5c-0.2,0.1-0.5,0.2-0.7,0.3
			c-0.2,0.1-0.4,0.2-0.7,0.3c-0.2,0.1-0.4,0.2-0.6,0.3c-0.2,0.1-0.4,0.2-0.7,0.3c-0.2,0.1-0.4,0.2-0.7,0.3c-0.2,0.1-0.5,0.1-0.7,0.2
			c-0.2,0.1-0.5,0.1-0.7,0.2c-0.2,0.1-0.4,0.2-0.7,0.2c-0.2,0-0.5,0-0.7,0c-0.2,0-0.5,0.1-0.7,0.2c-0.2,0-0.5,0.1-0.7,0.1
			c-0.2,0-0.5-0.1-0.7-0.1l0,0l0-0.1c-0.2,0-0.5,0.2-0.7,0.2c-0.2,0-0.5-0.1-0.7-0.1c-0.2,0-0.5-0.1-0.7-0.1c-0.2,0-0.4-0.2-0.7-0.3
			c-0.2,0-0.5,0-0.7,0c-0.2-0.1-0.5-0.1-0.7-0.2c-0.2-0.1-0.4-0.2-0.7-0.3c-0.2-0.1-0.5-0.1-0.7-0.2c-0.2-0.1-0.5-0.2-0.7-0.2
			c-0.2-0.1-0.4-0.2-0.6-0.3c-0.2-0.1-0.5-0.1-0.7-0.2c-0.2-0.1-0.4-0.3-0.6-0.4c-0.2-0.1-0.4-0.2-0.6-0.3c-0.2-0.1-0.4-0.2-0.6-0.4
			c-0.2-0.1-0.3-0.4-0.5-0.6c-0.2-0.1-0.4-0.2-0.6-0.4c-0.2-0.1-0.4-0.2-0.6-0.4c-0.2-0.2-0.2-0.4-0.4-0.6c-0.2-0.2-0.5-0.2-0.6-0.4
			c-0.2-0.2-0.3-0.4-0.5-0.5c-0.2-0.2-0.2-0.5-0.3-0.6c-0.2-0.2-0.4-0.3-0.6-0.5c-0.1-0.2-0.3-0.4-0.4-0.6c-0.1-0.2-0.2-0.4-0.3-0.6
			c-0.1-0.2-0.3-0.4-0.4-0.6c-0.1-0.2-0.3-0.3-0.5-0.5c-0.1-0.2-0.2-0.4-0.3-0.6c-0.1-0.2-0.2-0.4-0.3-0.6c-0.1-0.2-0.2-0.4-0.3-0.6
			c-0.1-0.2-0.4-0.4-0.5-0.6c-0.1-0.2-0.1-0.5-0.2-0.7c-0.1-0.2-0.2-0.4-0.3-0.6c-0.1-0.2-0.2-0.4-0.3-0.7c-0.1-0.2-0.1-0.5-0.1-0.7
			c-0.1-0.2-0.1-0.5-0.2-0.7c-0.1-0.2,0-0.5-0.1-0.7c-0.1-0.2-0.3-0.4-0.3-0.7c-0.1-0.2,0-0.5,0-0.7c0-0.2-0.1-0.5-0.1-0.7
			c0-0.2-0.2-0.5-0.2-0.7c0-0.2,0.1-0.5,0-0.7c0-0.2-0.2-0.5-0.2-0.7c0-0.2,0.1-0.5,0.1-0.7c0-0.2,0-0.5,0-0.7c0-0.2,0-0.5,0-0.7
			c0-0.4-0.2-0.4-0.2-0.7c0-0.4,0.2-0.4,0.2-0.7c0-0.4-0.2-0.4-0.2-0.7c0-0.4,0.1-0.4,0.1-0.7c0-0.4-0.1-0.4-0.1-0.7
			c0-0.4,0.1-0.4,0.1-0.7c0-0.4-0.1-0.4-0.1-0.7c0-0.4,0.1-0.4,0.1-0.7c0-0.4-0.2-0.4-0.2-0.7c0-0.4,0.1-0.4,0.1-0.7
			c0-0.4,0-0.4,0-0.7c0-0.4,0-0.4,0-0.7c0-0.4,0-0.4,0-0.7c0-0.4-0.2-0.4-0.2-0.7c0-0.4,0.1-0.4,0.1-0.7c0-0.4,0.1-0.4,0.1-0.7
			c0-0.4-0.1-0.4-0.1-0.7c0-0.4,0.1-0.4,0.1-0.7c0-0.4,0-0.4,0-0.7c0-0.4,0-0.4,0-0.7c0-0.4,0-0.4,0-0.7c0-0.4,0.2-0.4,0.2-0.7
			c0-0.4-0.1-0.4-0.1-0.7c0-0.4-0.1-0.4-0.1-0.7c0-0.4,0.2-0.4,0.2-0.7c0-0.4-0.1-0.4-0.1-0.7c0-0.4-0.1-0.4-0.1-0.7
			c0-0.4,0.1-0.4,0.1-0.7c0-0.4,0-0.4,0-0.7s-0.2-0.4-0.2-0.7c0-0.4,0.1-0.4,0.1-0.7c0-0.4-0.1-0.4-0.1-0.7c0-0.4,0.1-0.4,0.1-0.7
			c0-0.4,0.1-0.4,0.1-0.7c0-0.4-0.2-0.4-0.2-0.7c0-0.4,0-0.4,0-0.7c0-0.4,0.2-0.4,0.2-0.7c0-0.4,0-0.4,0-0.7c0-0.4,0-0.4,0-0.7
			c0-0.4-0.1-0.4-0.1-0.7c0-0.4,0.1-0.4,0.1-0.7c0-0.4,0-0.4,0-0.7c0-0.4-0.1-0.4-0.1-0.7c0-0.4,0-0.4,0-0.7c0-0.4,0.1-0.4,0.1-0.7
			c0-0.4-0.1-0.4-0.1-0.7c0-0.4,0.1-0.4,0.1-0.7c0-0.4-0.1-0.4-0.1-0.7c0-0.4,0-0.4,0-0.7c0-0.4,0.1-0.4,0.1-0.7
			c0-0.4-0.2-0.4-0.2-0.7c0-0.4,0.2-0.4,0.2-0.7c0-0.4-0.1-0.4-0.1-0.7c0-0.4,0-0.4,0-0.7c0-0.4-0.1-0.4-0.1-0.7
			c0-0.4,0.2-0.4,0.2-0.7c0-0.4-0.2-0.4-0.2-0.7c0-0.4,0.1-0.4,0.1-0.7c0-0.4,0-0.4,0-0.7c0-0.4,0.1-0.4,0.1-0.7
			c0-0.4-0.2-0.4-0.2-0.7c0-0.4,0-0.4,0-0.7c0-0.4,0.1-0.4,0.1-0.7c0-0.4,0.1-0.4,0.1-0.7c0-0.4-0.1-0.4-0.1-0.7
			c0-0.4-0.1-0.4-0.1-0.7c0-0.4,0.1-0.4,0.1-0.7c0-0.4,0-0.4,0-0.7c0-0.4-0.2-0.4-0.2-0.7c0-0.4,0-0.4,0-0.7c0-0.4,0-0.4,0-0.7
			c0-0.4,0.1-0.4,0.1-0.7c0-0.4-0.1-0.4-0.1-0.7c0-0.4,0-0.4,0-0.7c0-0.4,0.1-0.4,0.1-0.7c0-0.4,0-0.4,0-0.7c0-0.4,0-0.4,0-0.7
			c0-0.4-0.2-0.4-0.2-0.7c0-0.4,0.1-0.4,0.1-0.7c0-0.4,0.1-0.4,0.1-0.7c0-0.4-0.1-0.4-0.1-0.7c0-0.4-0.1-0.4-0.1-0.7
			c0-0.4,0-0.4,0-0.7c0-0.4,0-0.4,0-0.7c0-0.4,0.1-0.4,0.1-0.7c0-0.4-0.1-0.4-0.1-0.7c0-0.4,0-0.4,0-0.7c0-0.4-0.1-0.4-0.1-0.7
			c0-0.4,0.2-0.4,0.2-0.7c0-0.4-0.1-0.4-0.1-0.7c0-0.4,0-0.4,0-0.7c0-0.4,0-0.4,0-0.7c0-0.4,0.1-0.4,0.1-0.7c0-0.4-0.1-0.4-0.1-0.7
			c0-0.4,0-0.4,0-0.7c0-0.4,0.1-0.4,0.1-0.7c0-0.4-0.1-0.4-0.1-0.7c0-0.4,0.2-0.4,0.2-0.7c0-0.4-0.2-0.4-0.2-0.7c0-0.4,0-0.4,0-0.7
			c0-0.4,0.1-0.4,0.1-0.7c0-0.4,0.1-0.4,0.1-0.7c0-0.4,0-0.4,0-0.7c0-0.4-0.1-0.4-0.1-0.7c0-0.4,0.1-0.4,0.1-0.7c0-0.4,0-0.4,0-0.7
			c0-0.4,0-0.4,0-0.7c0-0.4,0.1-0.4,0.1-0.7c0-0.4,0-0.4,0-0.7c0-0.4-0.1-0.4-0.1-0.7c0-0.4-0.1-0.4-0.1-0.7c0-0.4,0-0.4,0-0.7
			c0-0.4,0-0.4,0-0.7c0-0.4,0.2-0.4,0.2-0.7c0-0.4-0.2-0.4-0.2-0.7c0-0.4,0-0.4,0-0.7c0-0.4,0-0.4,0-0.7c0-0.4,0-0.4,0-0.7
			c0-0.4,0-0.4,0-0.7c0-0.4,0-0.4,0-0.7c0-0.4,0-0.4,0-0.7s0.1-0.4,0.1-0.7c0-0.4,0-0.4,0-0.7c0-0.4,0.1-0.4,0.1-0.7
			c0-0.4,0-0.4,0-0.7c0-0.4,0-0.4,0-0.7c0-0.4-0.1-0.4-0.1-0.7c0-0.4,0-0.4,0-0.7c0-0.4,0-0.4,0-0.7c0-0.4,0.1-0.4,0-0.7
			c-0.1-0.4-0.1-0.3-0.3-0.7c-0.1-0.4,0-0.4-0.1-0.8c-0.1-0.4-0.1-0.4-0.2-0.7c-0.1-0.4-0.3-0.3-0.4-0.7c-0.1-0.4,0-0.4-0.1-0.8
			c-0.1-0.4-0.2-0.3-0.4-0.7c-0.1-0.4,0-0.4-0.2-0.8"/>
	</g>
	<g>
		<path class="st9" d="M175.7,152.9c0.2,0,0.5,0,0.7,0c0.2,0,0.5,0,0.7,0c0.2,0,0.5,0,0.7,0c0.2,0,0.5,0,0.7,0c0.2,0,0.5,0,0.7-0.1
			c0.2,0,0.5,0,0.7,0c0.2,0,0.5,0,0.7,0c0.2,0,0.5,0,0.7,0c0.2,0,0.5-0.1,0.7-0.1c0.2,0,0.5,0,0.7,0c0.2,0,0.5,0,0.7-0.1
			c0.2,0,0.5-0.1,0.7-0.1c0.2,0,0.5,0,0.7-0.1c0.2,0,0.5-0.1,0.7-0.1c0.2,0,0.5,0,0.7-0.1c0.2,0,0.5,0,0.7-0.1
			c0.2,0,0.5-0.1,0.7-0.1c0.2,0,0.5-0.1,0.7-0.1c0.2,0,0.5-0.1,0.7-0.1c0.2,0,0.5-0.1,0.7-0.1c0.2,0,0.5-0.1,0.7-0.2
			c0.2-0.1,0.5-0.1,0.7-0.1c0.2-0.1,0.5-0.1,0.7-0.2c0.2-0.1,0.5-0.1,0.7-0.2c0.2-0.1,0.5-0.1,0.7-0.2c0.2-0.1,0.5-0.1,0.7-0.2
			c0.2-0.1,0.4-0.2,0.6-0.4c0.2-0.1,0.4-0.3,0.6-0.4c0.2-0.2,0.3-0.4,0.3-0.6c0-0.2-0.1-0.4-0.3-0.6c-0.1-0.1-0.3-0.3-0.5-0.5
			c-0.2-0.1-0.4-0.2-0.7-0.3c-0.2-0.1-0.4-0.2-0.6-0.3c-0.2-0.1-0.4-0.1-0.7-0.2c-0.2-0.1-0.5-0.1-0.7-0.1c-0.2-0.1-0.4-0.2-0.7-0.2
			c-0.2-0.1-0.5-0.1-0.7-0.2c-0.2,0-0.5-0.1-0.7-0.1c-0.2,0-0.5-0.1-0.7-0.1c-0.2,0-0.5-0.1-0.7-0.1c-0.2,0-0.5-0.1-0.7-0.1
			c-0.2,0-0.5,0-0.7-0.1c-0.2,0-0.5-0.1-0.7-0.1c-0.2,0-0.5,0-0.7,0c-0.2,0-0.5-0.1-0.7-0.1c-0.2,0-0.5,0-0.7-0.1
			c-0.2,0-0.5-0.1-0.7-0.1c-0.2,0-0.5-0.1-0.7-0.1c-0.2,0-0.5,0-0.7,0c-0.2,0-0.5,0-0.7,0c-0.2,0-0.5-0.1-0.7-0.1
			c-0.2,0-0.5,0-0.7,0c-0.2,0-0.5,0-0.7-0.1c-0.2,0-0.5,0-0.7-0.1c-0.2,0-0.5,0-0.7,0c-0.2,0-0.5,0-0.7,0c-0.2,0-0.5,0-0.7,0
			c-0.2,0-0.5,0-0.7,0c-0.1,0-0.1,0-0.3,0c-0.2,0-0.5,0-0.7,0c-0.2,0-0.5,0-0.7,0c-0.2,0-0.5,0-0.7,0c-0.2,0-0.5,0-0.7,0
			c-0.2,0-0.5,0-0.7,0c-0.2,0-0.5,0-0.7,0c-0.2,0-0.5,0-0.7,0c-0.2,0-0.5,0-0.7,0c-0.2,0-0.5,0-0.7,0c-0.2,0-0.5,0-0.7,0.1
			c-0.2,0-0.5,0-0.7,0.1c-0.2,0-0.5,0.1-0.7,0.1c-0.2,0-0.5,0-0.7,0c-0.2,0-0.5,0.1-0.7,0.1c-0.2,0-0.5,0.1-0.7,0.1
			c-0.2,0-0.5,0.1-0.7,0.1c-0.2,0-0.5,0-0.7,0c-0.2,0-0.5,0.1-0.7,0.1c-0.2,0-0.5,0.1-0.7,0.1c-0.2,0-0.5,0.1-0.7,0.2
			c-0.2,0-0.5,0.1-0.7,0.1c-0.2,0.1-0.5,0.1-0.7,0.2c-0.2,0.1-0.5,0.1-0.7,0.1c-0.2,0.1-0.5,0.2-0.7,0.2c-0.2,0.1-0.5,0.2-0.7,0.2
			c-0.2,0.1-0.5,0.2-0.7,0.3c-0.2,0.1-0.5,0.2-0.7,0.3c-0.2,0.1-0.4,0.3-0.6,0.4c-0.2,0.2-0.3,0.4-0.3,0.6c0,0.2,0.1,0.4,0.3,0.6
			c0.1,0.1,0.3,0.3,0.6,0.4c0.2,0.1,0.4,0.2,0.6,0.3c0.2,0.1,0.4,0.2,0.7,0.3c0.2,0.1,0.4,0.2,0.7,0.2c0.2,0.1,0.5,0.1,0.7,0.2
			c0.2,0.1,0.5,0.1,0.7,0.2c0.2,0.1,0.5,0.1,0.7,0.1c0.2,0,0.5,0.1,0.7,0.1c0.2,0,0.5,0.1,0.7,0.2c0.2,0,0.5,0.1,0.7,0.1
			c0.2,0,0.5,0,0.7,0.1c0.2,0,0.5,0.1,0.7,0.1c0.2,0,0.5,0,0.7,0.1c0.2,0,0.5,0.1,0.7,0.1c0.2,0,0.5,0.1,0.7,0.1
			c0.2,0,0.5,0.1,0.7,0.1c0.2,0,0.5,0,0.7,0c0.2,0,0.5,0.1,0.7,0.1c0.2,0,0.5,0,0.7,0c0.2,0,0.5,0,0.7,0c0.2,0,0.5,0.1,0.7,0.1
			c0.2,0,0.5,0,0.7,0c0.2,0,0.5,0,0.7,0c0.2,0,0.5,0,0.7,0c0.2,0,0.5,0,0.7,0c0.2,0,0.5,0,0.7,0c0.2,0,0.5-0.1,0.7-0.1
			c0.2,0,0.5,0.1,0.7,0.1C175.5,153,175.5,152.9,175.7,152.9z"/>
	</g>
	<g>
		<path class="st9" d="M195.8,149.5c-0.1,0.4-0.3,0.3-0.4,0.7c-0.1,0.4,0,0.4-0.2,0.7c-0.1,0.4-0.2,0.3-0.3,0.7
			c-0.1,0.4-0.1,0.4-0.2,0.7c-0.1,0.4-0.1,0.4-0.2,0.7c-0.1,0.4-0.2,0.3-0.3,0.7c-0.1,0.4-0.1,0.4-0.1,0.8c-0.1,0.4,0,0.3,0,0.7
			c0,0.4-0.2,0.4-0.2,0.7c0,0.4,0.1,0.4,0.1,0.7c0,0.4-0.1,0.4-0.1,0.7c0,0.4,0,0.4,0,0.7c0,0.4,0.1,0.4,0.1,0.7c0,0.4,0,0.4,0,0.7
			c0,0.4-0.1,0.4-0.1,0.7c0,0.4,0,0.4,0,0.7c0,0.4,0.1,0.4,0.1,0.7c0,0.4-0.1,0.4-0.1,0.7c0,0.4-0.1,0.4-0.1,0.7
			c0,0.4-0.1,0.4-0.1,0.7c0,0.4,0.2,0.4,0.2,0.7c0,0.4-0.1,0.4-0.1,0.7c0,0.4,0.1,0.4,0.1,0.7c0,0.4,0.1,0.4,0.1,0.7
			c0,0.4,0,0.4,0,0.7c0,0.4,0.1,0.4,0.1,0.7c0,0.4-0.1,0.4-0.1,0.7c0,0.4,0.1,0.4,0.1,0.7c0,0.4-0.1,0.4-0.1,0.7
			c0,0.4,0.1,0.4,0.1,0.7c0,0.4-0.1,0.4-0.1,0.7c0,0.4,0,0.4,0,0.7c0,0.4,0.1,0.4,0.1,0.7c0,0.4-0.1,0.4-0.1,0.7
			c0,0.4-0.2,0.4-0.2,0.7s0,0.4,0,0.7c0,0.4,0.2,0.4,0.2,0.7c0,0.4,0,0.4,0,0.7c0,0.4-0.1,0.4-0.1,0.7c0,0.4,0.1,0.4,0.1,0.7
			c0,0.4-0.1,0.4-0.1,0.7c0,0.4,0,0.4,0,0.7c0,0.4,0.2,0.4,0.2,0.7c0,0.4,0,0.4,0,0.7c0,0.4-0.1,0.4-0.1,0.7c0,0.4,0,0.4,0,0.7
			c0,0.4-0.1,0.4-0.1,0.7c0,0.4,0,0.4,0,0.7c0,0.4,0,0.4,0,0.7c0,0.4,0.1,0.4,0.1,0.7c0,0.4-0.2,0.4-0.2,0.7c0,0.4,0.2,0.4,0.2,0.7
			c0,0.4,0,0.4,0,0.7c0,0.4-0.2,0.4-0.2,0.7c0,0.4,0.1,0.4,0.1,0.7c0,0.4,0,0.4,0,0.7c0,0.4,0,0.4,0,0.7c0,0.4-0.1,0.4-0.1,0.7
			s0,0.4,0,0.7c0,0.4-0.1,0.4-0.1,0.7c0,0.4,0.1,0.4,0.1,0.7c0,0.4,0,0.4,0,0.7c0,0.4,0.1,0.4,0.1,0.7c0,0.4,0.1,0.4,0.1,0.7
			c0,0.4-0.1,0.4-0.1,0.7c0,0.4-0.1,0.4-0.1,0.7c0,0.4,0.1,0.4,0.1,0.7c0,0.4-0.1,0.4-0.1,0.7c0,0.4,0.1,0.4,0.1,0.7
			c0,0.4-0.1,0.4-0.1,0.7c0,0.4-0.1,0.4-0.1,0.7c0,0.4,0.1,0.4,0.1,0.7c0,0.4,0,0.4,0,0.7c0,0.4-0.1,0.4-0.1,0.7c0,0.4,0,0.4,0,0.7
			c0,0.4,0,0.4,0,0.7c0,0.4,0,0.4,0,0.7c0,0.4,0,0.4,0,0.7c0,0.4,0.1,0.4,0.1,0.7c0,0.4-0.1,0.4-0.1,0.7c0,0.4,0.1,0.4,0.1,0.7
			c0,0.4,0,0.4,0,0.7c0,0.4,0.1,0.4,0.1,0.7c0,0.4-0.1,0.4-0.1,0.7c0,0.4-0.1,0.4-0.1,0.7c0,0.4,0.2,0.4,0.2,0.7
			c0,0.4-0.2,0.4-0.2,0.7c0,0.4,0.1,0.4,0.1,0.7c0,0.4,0,0.4,0,0.7c0,0.4,0.1,0.4,0.1,0.7c0,0.4-0.2,0.4-0.2,0.7
			c0,0.4,0.2,0.4,0.2,0.7c0,0.4,0,0.4,0,0.7c0,0.4-0.1,0.4-0.1,0.7c0,0.4,0.1,0.4,0.1,0.7c0,0.4-0.1,0.4-0.1,0.7
			c0,0.4-0.1,0.4-0.1,0.7c0,0.4,0.1,0.4,0.1,0.7c0,0.4,0.1,0.4,0.1,0.7c0,0.4,0,0.4,0,0.7c0,0.4-0.1,0.4-0.1,0.7c0,0.4,0,0.4,0,0.7
			c0,0.4,0.1,0.4,0.1,0.7c0,0.4,0,0.4,0,0.7c0,0.4-0.1,0.4-0.1,0.7c0,0.4,0.2,0.4,0.2,0.7c0,0.4-0.1,0.4-0.1,0.7
			c0,0.4-0.2,0.4-0.2,0.7c0,0.4,0.1,0.4,0.1,0.7c0,0.4,0.1,0.4,0.1,0.7c0,0.4-0.1,0.4-0.1,0.7c0,0.4,0,0.4,0,0.7c0,0.4,0,0.4,0,0.7
			c0,0.4,0.1,0.4,0.1,0.7c0,0.4,0,0.4,0,0.7c0,0.4,0.1,0.4,0.1,0.7c0,0.4-0.2,0.4-0.2,0.7c0,0.4,0,0.4,0,0.7c0,0.4,0.1,0.4,0.1,0.7
			c0,0.4-0.1,0.4-0.1,0.7c0,0.4,0,0.4,0,0.7c0,0.4,0.1,0.4,0.1,0.7c0,0.4-0.1,0.4-0.1,0.7c0,0.4,0.1,0.4,0.1,0.7
			c0,0.4-0.2,0.4-0.2,0.7c0,0.4,0.1,0.4,0.1,0.7c0,0.4-0.1,0.4-0.1,0.7c0,0.4,0.1,0.4,0.1,0.7c0,0.4,0.1,0.4,0.1,0.7
			c0,0.4,0,0.4,0,0.7c0,0.4-0.1,0.4-0.1,0.7c0,0.4,0.2,0.4,0.2,0.7c0,0.4-0.1,0.4-0.1,0.7c0,0.4,0,0.4,0,0.7c0,0.4,0,0.4,0,0.7
			c0,0.4-0.1,0.4-0.1,0.7c0,0.4,0.1,0.4,0.1,0.7c0,0.2-0.2,0.5-0.2,0.7c0,0.2,0,0.5,0,0.7c0,0.2,0.1,0.5,0.1,0.7c0,0.2,0,0.5,0,0.7
			c0,0.2-0.1,0.5-0.1,0.7c0,0.2-0.1,0.5-0.1,0.7c0,0.2-0.1,0.5-0.2,0.7c0,0.2-0.2,0.5-0.2,0.7c-0.1,0.2,0,0.5,0,0.7
			c-0.1,0.2-0.3,0.4-0.3,0.6c-0.1,0.2-0.1,0.5-0.2,0.7c-0.1,0.2-0.2,0.4-0.3,0.7c-0.1,0.2,0,0.5-0.1,0.7c-0.1,0.2-0.2,0.4-0.3,0.7
			c-0.1,0.2-0.1,0.5-0.2,0.7c-0.1,0.2-0.4,0.3-0.5,0.6c-0.1,0.2-0.2,0.4-0.3,0.6c-0.1,0.2-0.1,0.5-0.2,0.7c-0.1,0.2-0.3,0.4-0.5,0.6
			c-0.1,0.2-0.1,0.5-0.3,0.7c-0.1,0.2-0.4,0.3-0.5,0.5c-0.1,0.2-0.2,0.4-0.4,0.6c-0.1,0.2-0.3,0.4-0.4,0.6c-0.1,0.2-0.3,0.4-0.5,0.5
			c-0.2,0.2-0.4,0.3-0.6,0.4c-0.2,0.2-0.3,0.3-0.5,0.5c-0.2,0.2-0.2,0.5-0.4,0.6c-0.2,0.2-0.5,0.2-0.7,0.3c-0.2,0.2-0.2,0.5-0.4,0.6
			c-0.2,0.1-0.4,0.3-0.6,0.4c-0.2,0.1-0.4,0.3-0.6,0.4c-0.2,0.1-0.5,0.2-0.7,0.3c-0.2,0.1-0.4,0.3-0.6,0.4c-0.2,0.1-0.4,0.3-0.6,0.4
			c-0.2,0.1-0.4,0.2-0.6,0.3c-0.2,0.1-0.5,0.2-0.7,0.2c-0.2,0.1-0.5,0.1-0.7,0.2c-0.2,0.1-0.4,0.3-0.6,0.4c-0.2,0.1-0.5,0.1-0.7,0.2
			c-0.2,0.1-0.5,0.2-0.7,0.2c-0.2,0.1-0.5,0.1-0.7,0.2c-0.2,0-0.5-0.1-0.7-0.1c-0.2,0-0.5,0.1-0.7,0.1c-0.2,0-0.5,0.1-0.7,0.1
			c-0.2,0-0.5,0-0.7,0l0-0.1l0,0c-0.2,0-0.5,0-0.7,0c-0.2,0-0.5,0-0.7,0c-0.2,0-0.5,0-0.7,0c-0.2,0-0.4-0.2-0.7-0.3
			c-0.2,0-0.5-0.1-0.7-0.1c-0.2-0.1-0.5,0-0.7-0.1c-0.2-0.1-0.5,0-0.7-0.1c-0.2-0.1-0.4-0.3-0.6-0.4c-0.2-0.1-0.5-0.1-0.7-0.2
			c-0.2-0.1-0.4-0.3-0.6-0.4c-0.2-0.1-0.5-0.1-0.7-0.2c-0.2-0.1-0.3-0.4-0.5-0.5c-0.2-0.1-0.5-0.2-0.7-0.3c-0.2-0.1-0.4-0.2-0.6-0.3
			c-0.2-0.1-0.4-0.3-0.6-0.4c-0.2-0.1-0.3-0.4-0.5-0.5c-0.2-0.1-0.4-0.3-0.6-0.4c-0.2-0.2-0.3-0.3-0.5-0.5c-0.2-0.2-0.4-0.3-0.5-0.5
			c-0.2-0.2-0.4-0.2-0.6-0.4c-0.2-0.2-0.2-0.4-0.4-0.6c-0.2-0.2-0.3-0.3-0.5-0.5c-0.1-0.2-0.3-0.4-0.4-0.6c-0.1-0.2-0.2-0.4-0.4-0.6
			c-0.1-0.2-0.3-0.3-0.5-0.5c-0.1-0.2-0.1-0.5-0.2-0.7c-0.1-0.2-0.2-0.4-0.4-0.6c-0.1-0.2-0.4-0.3-0.5-0.5c-0.1-0.2-0.2-0.4-0.3-0.6
			c-0.1-0.2-0.1-0.5-0.2-0.7c-0.1-0.2-0.2-0.4-0.3-0.7c-0.1-0.2-0.2-0.4-0.2-0.7c-0.1-0.2-0.2-0.4-0.3-0.6c-0.1-0.2,0-0.5-0.1-0.7
			c-0.1-0.2-0.2-0.4-0.3-0.7c-0.1-0.2-0.1-0.5-0.2-0.7c-0.1-0.2-0.1-0.5-0.1-0.7c-0.1-0.2,0-0.5-0.1-0.7c0-0.2-0.1-0.5-0.2-0.7
			c0-0.2-0.1-0.5-0.2-0.7c0-0.2-0.1-0.5-0.2-0.7c0-0.2,0.1-0.5,0.1-0.7c0-0.2-0.2-0.5-0.2-0.7c0-0.2,0-0.5,0-0.7
			c0-0.2-0.1-0.5-0.1-0.7c0-0.4,0-0.4,0-0.7c0-0.4,0-0.4,0-0.7c0-0.4,0-0.4,0-0.7c0-0.4-0.1-0.4-0.1-0.7c0-0.4,0.1-0.4,0.1-0.7
			c0-0.4-0.1-0.4-0.1-0.7c0-0.4,0.1-0.4,0.1-0.7c0-0.4-0.2-0.4-0.2-0.7c0-0.4,0.1-0.4,0.1-0.7c0-0.4-0.1-0.4-0.1-0.7
			c0-0.4,0.1-0.4,0.1-0.7c0-0.4,0-0.4,0-0.7c0-0.4-0.1-0.4-0.1-0.7c0-0.4,0.1-0.4,0.1-0.7c0-0.4-0.1-0.4-0.1-0.7c0-0.4,0-0.4,0-0.7
			c0-0.4,0-0.4,0-0.7c0-0.4-0.1-0.4-0.1-0.7c0-0.4,0.1-0.4,0.1-0.7c0-0.4,0-0.4,0-0.7c0-0.4,0-0.4,0-0.7c0-0.4,0-0.4,0-0.7
			c0-0.4,0.1-0.4,0.1-0.7c0-0.4-0.1-0.4-0.1-0.7c0-0.4-0.1-0.4-0.1-0.7c0-0.4,0.1-0.4,0.1-0.7c0-0.4,0-0.4,0-0.7
			c0-0.4,0.1-0.4,0.1-0.7s-0.2-0.4-0.2-0.7c0-0.4,0.1-0.4,0.1-0.7c0-0.4,0-0.4,0-0.7c0-0.4-0.1-0.4-0.1-0.7c0-0.4,0.1-0.4,0.1-0.7
			c0-0.4,0.1-0.4,0.1-0.7c0-0.4,0-0.4,0-0.7c0-0.4-0.2-0.4-0.2-0.7c0-0.4,0.2-0.4,0.2-0.7c0-0.4-0.1-0.4-0.1-0.7c0-0.4,0-0.4,0-0.7
			c0-0.4,0-0.4,0-0.7c0-0.4,0.1-0.4,0.1-0.7c0-0.4-0.1-0.4-0.1-0.7c0-0.4,0.2-0.4,0.2-0.7c0-0.4-0.2-0.4-0.2-0.7
			c0-0.4,0.1-0.4,0.1-0.7c0-0.4,0-0.4,0-0.7c0-0.4-0.1-0.4-0.1-0.7c0-0.4,0.1-0.4,0.1-0.7c0-0.4,0-0.4,0-0.7c0-0.4,0.1-0.4,0.1-0.7
			s0-0.4,0-0.7s0-0.4,0-0.7c0-0.4,0-0.4,0-0.7c0-0.4-0.2-0.4-0.2-0.7c0-0.4,0.2-0.4,0.2-0.7c0-0.4-0.1-0.4-0.1-0.7
			c0-0.4,0-0.4,0-0.7c0-0.4,0-0.4,0-0.7c0-0.4,0.1-0.4,0.1-0.7c0-0.4-0.2-0.4-0.2-0.7c0-0.4,0.1-0.4,0.1-0.7c0-0.4-0.1-0.4-0.1-0.7
			c0-0.4,0.2-0.4,0.2-0.7c0-0.4-0.1-0.4-0.1-0.7c0-0.4,0.1-0.4,0.1-0.7c0-0.4-0.1-0.4-0.1-0.7c0-0.4,0-0.4,0-0.7c0-0.4,0-0.4,0-0.7
			c0-0.4,0.1-0.4,0.1-0.7c0-0.4-0.2-0.4-0.2-0.7c0-0.4,0.1-0.4,0.1-0.7c0-0.4-0.2-0.4-0.2-0.7c0-0.4,0-0.4,0-0.7
			c0-0.4,0.2-0.4,0.2-0.7c0-0.4-0.1-0.4-0.1-0.7c0-0.4,0.2-0.4,0.2-0.7c0-0.4-0.2-0.4-0.2-0.7c0-0.4,0.1-0.4,0.1-0.7
			c0-0.4-0.2-0.4-0.2-0.7c0-0.4-0.1-0.4-0.1-0.7c0-0.4,0.1-0.4,0.1-0.7c0-0.4,0-0.4,0-0.7c0-0.4,0.1-0.4,0.1-0.7
			c0-0.4-0.2-0.4-0.2-0.7c0-0.4,0.1-0.4,0.1-0.7c0-0.4,0-0.4,0-0.7c0-0.4-0.2-0.4-0.2-0.7c0-0.4,0.1-0.4,0.1-0.7
			c0-0.4,0.1-0.4,0.1-0.7c0-0.4-0.2-0.4-0.2-0.7c0-0.4,0-0.4,0-0.7c0-0.4,0.2-0.4,0.2-0.7c0-0.4-0.1-0.4-0.1-0.7c0-0.4,0-0.4,0-0.7
			c0-0.4,0-0.4,0-0.7c0-0.4,0-0.4,0-0.7c0-0.4-0.1-0.4-0.1-0.7c0-0.4,0.1-0.4,0.1-0.7c0-0.4-0.2-0.4-0.2-0.7c0-0.4,0.1-0.4,0.1-0.7
			c0-0.4-0.1-0.4-0.1-0.7c0-0.4,0-0.4,0-0.7c0-0.4,0-0.4,0-0.7c0-0.4-0.1-0.4-0.1-0.7c0-0.4,0.1-0.4,0.1-0.7c0-0.4-0.1-0.4-0.1-0.7
			c0-0.4,0.1-0.4,0.1-0.7c0-0.4-0.2-0.4-0.2-0.7c0-0.4,0.1-0.4,0.1-0.7c0-0.4,0-0.4,0-0.7c0-0.4,0.2-0.4,0.2-0.7
			c0-0.4-0.2-0.4-0.2-0.7c0-0.4,0.2-0.4,0.2-0.7c0-0.4-0.1-0.4-0.1-0.7c0-0.4-0.1-0.4-0.1-0.7c0-0.4,0.1-0.4,0.1-0.7
			c0-0.4,0.1-0.4,0.1-0.7c0-0.4,0-0.4,0-0.7c0-0.4-0.1-0.4-0.1-0.7c0-0.4-0.1-0.4-0.1-0.7c0-0.4,0-0.4,0-0.7c0-0.4,0.1-0.4,0.1-0.7
			c0-0.4-0.1-0.4-0.1-0.7c0-0.4,0.1-0.4,0.1-0.7c0-0.4,0.1-0.4,0.1-0.7c0-0.4-0.1-0.4-0.1-0.7c0-0.4,0-0.4,0-0.7c0-0.4,0-0.4,0-0.7
			c0-0.4,0-0.4,0-0.7c0-0.4,0.1-0.4,0.1-0.7c-0.1-0.4-0.2-0.3-0.3-0.7c-0.1-0.4,0-0.4-0.1-0.8c-0.1-0.4-0.1-0.4-0.2-0.7
			c-0.1-0.4-0.2-0.3-0.3-0.7c-0.1-0.4-0.1-0.4-0.2-0.7c-0.1-0.4-0.2-0.3-0.3-0.7c-0.1-0.4-0.2-0.3-0.3-0.7"/>
	</g>
	<g>
		<path class="st9" d="M68.6,152.9c0.2,0,0.5,0,0.7,0c0.2,0,0.5-0.1,0.7-0.1c0.2,0,0.5,0,0.7,0c0.2,0,0.5,0,0.7,0c0.2,0,0.5,0,0.7,0
			c0.2,0,0.5,0,0.7,0c0.2,0,0.5,0,0.7,0c0.2,0,0.5,0,0.7,0c0.2,0,0.5,0,0.7,0c0.2,0,0.5,0,0.7,0c0.2,0,0.5,0,0.7-0.1
			c0.2,0,0.5-0.1,0.7-0.1c0.2,0,0.5,0,0.7,0c0.2,0,0.5,0,0.7,0c0.2,0,0.5-0.1,0.7-0.1c0.2,0,0.5,0,0.7-0.1c0.2,0,0.5-0.1,0.7-0.2
			c0.2,0,0.5,0,0.7,0c0.2,0,0.5-0.1,0.7-0.2c0.2,0,0.5,0,0.7-0.1c0.2,0,0.5-0.1,0.7-0.1c0.2-0.1,0.5-0.1,0.7-0.2
			c0.2-0.1,0.5-0.1,0.7-0.2c0.2-0.1,0.5-0.2,0.7-0.2c0.2-0.1,0.5-0.2,0.7-0.2c0.2-0.1,0.5-0.2,0.7-0.3c0.2-0.1,0.4-0.2,0.6-0.3
			c0.2-0.1,0.4-0.3,0.6-0.4c0.2-0.2,0.3-0.4,0.3-0.6c0-0.2-0.1-0.4-0.3-0.6c-0.1-0.1-0.3-0.3-0.6-0.4c-0.2-0.1-0.4-0.2-0.7-0.3
			c-0.2-0.1-0.4-0.2-0.7-0.3c-0.2-0.1-0.4-0.1-0.7-0.2c-0.2-0.1-0.4-0.1-0.7-0.2c-0.2-0.1-0.5-0.1-0.7-0.2c-0.2-0.1-0.5-0.1-0.7-0.2
			c-0.2,0-0.5-0.1-0.7-0.1c-0.2,0-0.5-0.1-0.7-0.2c-0.2,0-0.5-0.1-0.7-0.1c-0.2,0-0.5,0-0.7-0.1c-0.2,0-0.5,0-0.7-0.1
			c-0.2,0-0.5-0.1-0.7-0.1c-0.2,0-0.5-0.1-0.7-0.1c-0.2,0-0.5,0-0.7,0c-0.2,0-0.5-0.1-0.7-0.1c-0.2,0-0.5,0-0.7,0
			c-0.2,0-0.5,0-0.7-0.1c-0.2,0-0.5,0-0.7,0c-0.2,0-0.5-0.1-0.7-0.1c-0.2,0-0.5,0-0.7,0c-0.2,0-0.5,0-0.7,0c-0.2,0-0.5,0-0.7,0
			c-0.2,0-0.5,0-0.7,0c-0.2,0-0.5,0-0.7,0c-0.2,0-0.5,0-0.7,0c-0.2,0-0.5,0-0.7,0s-0.5,0-0.7,0c-0.1,0-0.1,0-0.3,0
			c-0.2,0-0.5,0-0.7,0c-0.2,0-0.5,0-0.7,0c-0.2,0-0.5,0-0.7,0c-0.2,0-0.5,0-0.7,0.1c-0.2,0-0.5,0-0.7,0c-0.2,0-0.5,0-0.7,0
			c-0.2,0-0.5,0-0.7,0c-0.2,0-0.5,0.1-0.7,0.1c-0.2,0-0.5,0-0.7,0c-0.2,0-0.5,0-0.7,0c-0.2,0-0.5,0.1-0.7,0.1c-0.2,0-0.5,0-0.7,0
			c-0.2,0-0.5,0-0.7,0.1c-0.2,0-0.5,0.1-0.7,0.1c-0.2,0-0.5,0.1-0.7,0.1c-0.2,0-0.5,0.1-0.7,0.1c-0.2,0-0.5,0-0.7,0.1
			c-0.2,0-0.5,0-0.7,0.1c-0.2,0-0.5,0.1-0.7,0.1c-0.2,0-0.5,0.1-0.7,0.1c-0.2,0-0.5,0.1-0.7,0.1c-0.2,0.1-0.5,0.1-0.7,0.2
			c-0.2,0.1-0.5,0.1-0.7,0.2c-0.2,0.1-0.5,0.1-0.7,0.2c-0.2,0.1-0.5,0.2-0.7,0.3c-0.2,0.1-0.5,0.1-0.7,0.2c-0.2,0.1-0.4,0.2-0.6,0.3
			c-0.2,0.1-0.4,0.3-0.6,0.4c-0.2,0.2-0.3,0.4-0.3,0.6c0,0.2,0.1,0.4,0.3,0.7c0.1,0.1,0.3,0.3,0.6,0.4c0.2,0.1,0.4,0.2,0.6,0.3
			c0.2,0.1,0.4,0.2,0.7,0.3c0.2,0.1,0.4,0.1,0.7,0.2c0.2,0.1,0.5,0.1,0.7,0.2c0.2,0.1,0.5,0.1,0.7,0.2c0.2,0.1,0.5,0.1,0.7,0.1
			c0.2,0,0.5,0.1,0.7,0.2c0.2,0,0.5,0,0.7,0.1c0.2,0,0.5,0.1,0.7,0.2c0.2,0,0.5,0,0.7,0.1c0.2,0,0.5,0.1,0.7,0.2
			c0.2,0,0.5,0,0.7,0.1c0.2,0,0.5,0,0.7,0.1c0.2,0,0.5,0.1,0.7,0.1c0.2,0,0.5,0,0.7,0c0.2,0,0.5,0,0.7,0c0.2,0,0.5,0,0.7,0
			c0.2,0,0.5,0.1,0.7,0.1c0.2,0,0.5,0,0.7,0c0.2,0,0.5,0.1,0.7,0.1c0.2,0,0.5,0,0.7,0c0.2,0,0.5,0,0.7,0c0.2,0,0.5,0,0.7,0
			c0.2,0,0.5,0,0.7,0c0.2,0,0.5,0,0.7,0c0.2,0,0.5,0,0.7,0c0.2,0,0.5,0,0.7,0C68.4,153,68.4,152.9,68.6,152.9z"/>
	</g>
	<g>
		<path class="st9" d="M88.6,149.5c-0.1,0.4-0.2,0.3-0.3,0.7c-0.1,0.4,0,0.4-0.1,0.8c-0.1,0.4-0.1,0.4-0.2,0.7
			c-0.1,0.4-0.3,0.3-0.4,0.7c-0.1,0.4,0,0.4-0.1,0.8c-0.1,0.4-0.1,0.4-0.3,0.7c-0.1,0.4-0.3,0.3-0.4,0.7c-0.1,0.4,0,0.4,0,0.7
			c0,0.4,0.1,0.4,0.1,0.7c0,0.4,0,0.4,0,0.7c0,0.4-0.1,0.4-0.1,0.7c0,0.4,0.1,0.4,0.1,0.7c0,0.4-0.1,0.4-0.1,0.7c0,0.4,0,0.4,0,0.7
			c0,0.4,0.1,0.4,0.1,0.7c0,0.4-0.1,0.4-0.1,0.7c0,0.4,0,0.4,0,0.7c0,0.4,0,0.4,0,0.7c0,0.4,0,0.4,0,0.7c0,0.4,0,0.4,0,0.7
			c0,0.4,0.2,0.4,0.2,0.7c0,0.4,0,0.4,0,0.7c0,0.4-0.1,0.4-0.1,0.7c0,0.4,0,0.4,0,0.7c0,0.4,0,0.4,0,0.7c0,0.4,0.1,0.4,0.1,0.7
			c0,0.4-0.1,0.4-0.1,0.7c0,0.4,0.1,0.4,0.1,0.7c0,0.4,0,0.4,0,0.7c0,0.4,0,0.4,0,0.7c0,0.4-0.2,0.4-0.2,0.7c0,0.4,0.2,0.4,0.2,0.7
			c0,0.4-0.2,0.4-0.2,0.7c0,0.4,0.2,0.4,0.2,0.7c0,0.4-0.2,0.4-0.2,0.7s0.2,0.4,0.2,0.7c0,0.4-0.1,0.4-0.1,0.7c0,0.4,0,0.4,0,0.7
			c0,0.4,0,0.4,0,0.7c0,0.4,0,0.4,0,0.7c0,0.4,0.1,0.4,0.1,0.7c0,0.4,0,0.4,0,0.7c0,0.4-0.2,0.4-0.2,0.7c0,0.4,0.2,0.4,0.2,0.7
			c0,0.4-0.1,0.4-0.1,0.7c0,0.4,0.1,0.4,0.1,0.7c0,0.4-0.1,0.4-0.1,0.7c0,0.4,0,0.4,0,0.7c0,0.4-0.1,0.4-0.1,0.7
			c0,0.4,0.1,0.4,0.1,0.7c0,0.4,0,0.4,0,0.7c0,0.4,0.1,0.4,0.1,0.7c0,0.4-0.1,0.4-0.1,0.7c0,0.4,0.1,0.4,0.1,0.7
			c0,0.4-0.1,0.4-0.1,0.7c0,0.4-0.1,0.4-0.1,0.7c0,0.4,0.2,0.4,0.2,0.7c0,0.4-0.1,0.4-0.1,0.7s0,0.4,0,0.7c0,0.4,0,0.4,0,0.7
			c0,0.4,0.1,0.4,0.1,0.7c0,0.4,0.1,0.4,0.1,0.7c0,0.4-0.1,0.4-0.1,0.7c0,0.4,0,0.4,0,0.7c0,0.4,0,0.4,0,0.7c0,0.4,0,0.4,0,0.7
			c0,0.4,0.1,0.4,0.1,0.7c0,0.4-0.2,0.4-0.2,0.7c0,0.4,0.2,0.4,0.2,0.7c0,0.4-0.1,0.4-0.1,0.7c0,0.4,0,0.4,0,0.7
			c0,0.4,0.1,0.4,0.1,0.7c0,0.4-0.1,0.4-0.1,0.7c0,0.4,0,0.4,0,0.7c0,0.4,0,0.4,0,0.7c0,0.4,0,0.4,0,0.7c0,0.4,0,0.4,0,0.7
			c0,0.4-0.1,0.4-0.1,0.7c0,0.4,0.1,0.4,0.1,0.7c0,0.4-0.1,0.4-0.1,0.7c0,0.4,0,0.4,0,0.7c0,0.4,0.1,0.4,0.1,0.7c0,0.4,0,0.4,0,0.7
			c0,0.4,0,0.4,0,0.7c0,0.4,0,0.4,0,0.7c0,0.4,0.1,0.4,0.1,0.7c0,0.4,0.1,0.4,0.1,0.7c0,0.4,0,0.4,0,0.7c0,0.4,0.1,0.4,0.1,0.7
			c0,0.4-0.1,0.4-0.1,0.7c0,0.4,0,0.4,0,0.7c0,0.4,0,0.4,0,0.7c0,0.4,0.2,0.4,0.2,0.7c0,0.4-0.2,0.4-0.2,0.7c0,0.4,0.2,0.4,0.2,0.7
			c0,0.4,0,0.4,0,0.7c0,0.4-0.1,0.4-0.1,0.7c0,0.4-0.1,0.4-0.1,0.7c0,0.4,0.1,0.4,0.1,0.7c0,0.4-0.1,0.4-0.1,0.7
			c0,0.4,0.1,0.4,0.1,0.7c0,0.4-0.2,0.4-0.2,0.7c0,0.4,0.1,0.4,0.1,0.7c0,0.4,0,0.4,0,0.7c0,0.4-0.1,0.4-0.1,0.7
			c0,0.4-0.1,0.4-0.1,0.7c0,0.4,0.1,0.4,0.1,0.7c0,0.4,0.1,0.4,0.1,0.7c0,0.4-0.1,0.4-0.1,0.7c0,0.4,0.1,0.4,0.1,0.7
			c0,0.4-0.1,0.4-0.1,0.7c0,0.4,0.1,0.4,0.1,0.7c0,0.4,0,0.4,0,0.7c0,0.4-0.1,0.4-0.1,0.7c0,0.4-0.1,0.4-0.1,0.7
			c0,0.4,0.1,0.4,0.1,0.7c0,0.4,0,0.4,0,0.7c0,0.4-0.1,0.4-0.1,0.7c0,0.4,0.2,0.4,0.2,0.7c0,0.4,0,0.4,0,0.7c0,0.4-0.1,0.4-0.1,0.7
			c0,0.4,0.1,0.4,0.1,0.7c0,0.4-0.1,0.4-0.1,0.7c0,0.4,0,0.4,0,0.7c0,0.4-0.1,0.4-0.1,0.7c0,0.4,0,0.4,0,0.7c0,0.4,0,0.4,0,0.7
			c0,0.4,0.2,0.4,0.2,0.7c0,0.4-0.2,0.4-0.2,0.7c0,0.4,0,0.4,0,0.7c0,0.4,0.2,0.4,0.2,0.7c0,0.4-0.2,0.4-0.2,0.7c0,0.4,0,0.4,0,0.7
			c0,0.4,0.2,0.4,0.2,0.7c0,0.4-0.1,0.4-0.1,0.7c0,0.4,0.1,0.4,0.1,0.7c0,0.4-0.2,0.4-0.2,0.7c0,0.2,0,0.5,0,0.7c0,0.2,0,0.5,0,0.7
			c0,0.2,0.1,0.5,0.1,0.7c0,0.2-0.2,0.5-0.2,0.7c0,0.2-0.1,0.5-0.2,0.7c0,0.2,0.1,0.5,0,0.7c0,0.2,0,0.5-0.1,0.7
			c0,0.2-0.2,0.4-0.3,0.7c-0.1,0.2-0.2,0.4-0.2,0.7c-0.1,0.2,0,0.5,0,0.7c-0.1,0.2-0.2,0.4-0.2,0.7c-0.1,0.2-0.1,0.5-0.2,0.7
			c-0.1,0.2-0.2,0.4-0.3,0.7c-0.1,0.2-0.3,0.4-0.4,0.6c-0.1,0.2-0.2,0.4-0.2,0.7c-0.1,0.2-0.1,0.5-0.2,0.7c-0.1,0.2-0.2,0.4-0.3,0.6
			c-0.1,0.2-0.2,0.4-0.3,0.6c-0.1,0.2-0.2,0.5-0.3,0.7c-0.1,0.2-0.3,0.4-0.4,0.6c-0.1,0.2-0.4,0.3-0.5,0.5c-0.1,0.2-0.2,0.4-0.4,0.6
			c-0.1,0.2-0.3,0.4-0.5,0.5c-0.1,0.2-0.3,0.4-0.4,0.6c-0.2,0.2-0.3,0.4-0.4,0.6c-0.2,0.2-0.3,0.4-0.5,0.6c-0.2,0.2-0.4,0.3-0.6,0.4
			c-0.2,0.2-0.3,0.4-0.5,0.5c-0.2,0.2-0.4,0.2-0.6,0.4c-0.2,0.1-0.3,0.3-0.5,0.5c-0.2,0.1-0.4,0.2-0.6,0.3c-0.2,0.1-0.3,0.4-0.5,0.6
			c-0.2,0.1-0.4,0.3-0.6,0.4c-0.2,0.1-0.4,0.2-0.6,0.3c-0.2,0.1-0.5,0.1-0.7,0.2c-0.2,0.1-0.5,0.1-0.7,0.2c-0.2,0.1-0.4,0.2-0.6,0.3
			s-0.4,0.3-0.6,0.4c-0.2,0.1-0.4,0.2-0.7,0.3c-0.2,0.1-0.5-0.1-0.7,0c-0.2,0.1-0.4,0.2-0.7,0.2c-0.2,0-0.5,0.1-0.7,0.1
			c-0.2,0-0.5,0-0.7,0c-0.2,0-0.5,0.1-0.7,0.1c-0.2,0-0.5,0-0.7,0l0,0l0,0.1c-0.2,0-0.5-0.1-0.7-0.1c-0.2,0-0.5,0-0.7-0.1
			c-0.2,0-0.5,0-0.7,0c-0.2,0-0.5-0.1-0.7-0.1c-0.2,0-0.5,0-0.7-0.1c-0.2-0.1-0.5-0.2-0.7-0.2c-0.2-0.1-0.5-0.1-0.7-0.2
			c-0.2-0.1-0.4-0.2-0.7-0.2c-0.2-0.1-0.4-0.2-0.6-0.3c-0.2-0.1-0.5-0.2-0.7-0.3c-0.2-0.1-0.4-0.3-0.6-0.4c-0.2-0.1-0.5-0.1-0.7-0.2
			c-0.2-0.1-0.4-0.3-0.6-0.4c-0.2-0.1-0.4-0.3-0.6-0.4c-0.2-0.1-0.4-0.2-0.6-0.4c-0.2-0.1-0.4-0.3-0.5-0.5c-0.2-0.1-0.3-0.3-0.5-0.5
			c-0.2-0.2-0.3-0.3-0.5-0.5c-0.2-0.2-0.4-0.3-0.6-0.4c-0.2-0.2-0.4-0.3-0.5-0.5c-0.2-0.2-0.2-0.4-0.4-0.6c-0.2-0.2-0.4-0.3-0.5-0.5
			c-0.1-0.2-0.2-0.4-0.3-0.6c-0.1-0.2-0.3-0.3-0.5-0.5c-0.1-0.2-0.4-0.3-0.5-0.5c-0.1-0.2-0.2-0.4-0.4-0.6c-0.1-0.2-0.2-0.4-0.4-0.6
			c-0.1-0.2-0.2-0.5-0.3-0.7c-0.1-0.2-0.2-0.4-0.3-0.7c-0.1-0.2-0.4-0.4-0.5-0.6c-0.1-0.2-0.1-0.5-0.2-0.7c-0.1-0.2-0.2-0.4-0.3-0.7
			c-0.1-0.2-0.1-0.5-0.2-0.7c-0.1-0.2-0.2-0.4-0.3-0.6c-0.1-0.2-0.2-0.4-0.2-0.7c-0.1-0.2-0.1-0.5-0.2-0.7c-0.1-0.2,0-0.5,0-0.7
			c-0.1-0.2-0.2-0.4-0.2-0.7c0-0.2-0.2-0.4-0.2-0.7c0-0.2,0-0.5,0-0.7c0-0.2-0.1-0.5-0.1-0.7c0-0.2,0.1-0.5,0-0.7
			c0-0.2-0.1-0.5-0.1-0.7c0-0.2-0.1-0.5-0.1-0.7c0-0.2,0-0.5,0-0.7c0-0.4,0-0.4,0-0.7c0-0.4-0.1-0.4-0.1-0.7c0-0.4,0.1-0.4,0.1-0.7
			c0-0.4-0.1-0.4-0.1-0.7c0-0.4,0-0.4,0-0.7c0-0.4,0-0.4,0-0.7c0-0.4,0-0.4,0-0.7c0-0.4,0.2-0.4,0.2-0.7c0-0.4-0.1-0.4-0.1-0.7
			c0-0.4,0-0.4,0-0.7c0-0.4,0.1-0.4,0.1-0.7c0-0.4,0-0.4,0-0.7c0-0.4,0.1-0.4,0.1-0.7c0-0.4,0-0.4,0-0.7c0-0.4,0-0.4,0-0.7
			c0-0.4-0.1-0.4-0.1-0.7c0-0.4,0-0.4,0-0.7c0-0.4,0.1-0.4,0.1-0.7c0-0.4,0.1-0.4,0.1-0.7c0-0.4,0-0.4,0-0.7c0-0.4-0.2-0.4-0.2-0.7
			c0-0.4,0.1-0.4,0.1-0.7c0-0.4,0.1-0.4,0.1-0.7c0-0.4,0-0.4,0-0.7c0-0.4,0-0.4,0-0.7c0-0.4,0.1-0.4,0.1-0.7c0-0.4-0.1-0.4-0.1-0.7
			c0-0.4,0-0.4,0-0.7s0-0.4,0-0.7c0-0.4,0-0.4,0-0.7c0-0.4,0.1-0.4,0.1-0.7c0-0.4-0.1-0.4-0.1-0.7c0-0.4,0.1-0.4,0.1-0.7
			c0-0.4,0-0.4,0-0.7c0-0.4,0-0.4,0-0.7c0-0.4,0-0.4,0-0.7c0-0.4,0.1-0.4,0.1-0.7c0-0.4-0.1-0.4-0.1-0.7c0-0.4,0-0.4,0-0.7
			c0-0.4,0.1-0.4,0.1-0.7c0-0.4-0.2-0.4-0.2-0.7c0-0.4,0.2-0.4,0.2-0.7c0-0.4,0-0.4,0-0.7c0-0.4,0-0.4,0-0.7c0-0.4-0.1-0.4-0.1-0.7
			c0-0.4,0-0.4,0-0.7c0-0.4,0-0.4,0-0.7c0-0.4,0-0.4,0-0.7c0-0.4,0.1-0.4,0.1-0.7c0-0.4-0.1-0.4-0.1-0.7s0.1-0.4,0.1-0.7
			s-0.1-0.4-0.1-0.7c0-0.4,0-0.4,0-0.7c0-0.4,0.1-0.4,0.1-0.7c0-0.4-0.1-0.4-0.1-0.7c0-0.4,0.1-0.4,0.1-0.7c0-0.4,0-0.4,0-0.7
			c0-0.4,0-0.4,0-0.7c0-0.4-0.1-0.4-0.1-0.7c0-0.4,0.1-0.4,0.1-0.7c0-0.4,0.1-0.4,0.1-0.7c0-0.4-0.2-0.4-0.2-0.7
			c0-0.4,0.1-0.4,0.1-0.7c0-0.4-0.1-0.4-0.1-0.7c0-0.4,0.2-0.4,0.2-0.7c0-0.4-0.1-0.4-0.1-0.7c0-0.4-0.1-0.4-0.1-0.7
			c0-0.4,0-0.4,0-0.7c0-0.4-0.1-0.4-0.1-0.7c0-0.4,0.2-0.4,0.2-0.7c0-0.4,0-0.4,0-0.7c0-0.4-0.1-0.4-0.1-0.7c0-0.4,0.1-0.4,0.1-0.7
			c0-0.4,0-0.4,0-0.7c0-0.4-0.1-0.4-0.1-0.7c0-0.4,0-0.4,0-0.7c0-0.4,0.1-0.4,0.1-0.7c0-0.4,0-0.4,0-0.7c0-0.4-0.1-0.4-0.1-0.7
			c0-0.4,0-0.4,0-0.7c0-0.4,0.1-0.4,0.1-0.7c0-0.4,0.1-0.4,0.1-0.7c0-0.4-0.2-0.4-0.2-0.7c0-0.4,0.1-0.4,0.1-0.7c0-0.4,0-0.4,0-0.7
			c0-0.4-0.1-0.4-0.1-0.7c0-0.4,0-0.4,0-0.7c0-0.4-0.1-0.4-0.1-0.7c0-0.4,0.1-0.4,0.1-0.7c0-0.4,0-0.4,0-0.7c0-0.4,0-0.4,0-0.7
			c0-0.4-0.1-0.4-0.1-0.7c0-0.4,0-0.4,0-0.7c0-0.4,0-0.4,0-0.7c0-0.4,0.1-0.4,0.1-0.7c0-0.4,0-0.4,0-0.7c0-0.4-0.1-0.4-0.1-0.7
			c0-0.4,0-0.4,0-0.7c0-0.4,0-0.4,0-0.7c0-0.4,0-0.4,0-0.7c0-0.4-0.1-0.4-0.1-0.7c0-0.4,0-0.4,0-0.7c0-0.4,0.2-0.4,0.2-0.7
			c0-0.4,0-0.4,0-0.7c0-0.4-0.1-0.4-0.1-0.7c0-0.4-0.1-0.4-0.1-0.7c0-0.4,0-0.4,0-0.7c0-0.4-0.1-0.4-0.1-0.7c0-0.4,0-0.4,0-0.7
			c0-0.4,0.1-0.4,0.1-0.7c0-0.4-0.1-0.4-0.1-0.7c0-0.4,0.1-0.4,0.1-0.7c0-0.4,0-0.4,0-0.7c0-0.4-0.1-0.4-0.1-0.7
			c0-0.4-0.1-0.4-0.1-0.7c0-0.4,0.2-0.4,0.2-0.7c0-0.4-0.1-0.4-0.1-0.7c0-0.4-0.1-0.4-0.1-0.7c0-0.4,0.2-0.4,0.2-0.7
			c0-0.4-0.1-0.4-0.1-0.7c0-0.4-0.1-0.4-0.1-0.7c0-0.4,0.1-0.4,0.1-0.7c0-0.4,0-0.4,0-0.7c0-0.4,0-0.4,0-0.7c0-0.4-0.1-0.4-0.1-0.7
			c0-0.4,0.1-0.4,0.1-0.7c0-0.4,0-0.4,0-0.7c0-0.4-0.1-0.4-0.1-0.7c0-0.4,0.1-0.4,0.1-0.7c0-0.4,0-0.4-0.1-0.7
			c-0.1-0.4-0.1-0.4-0.2-0.7c-0.1-0.4-0.1-0.4-0.2-0.7c-0.1-0.4-0.1-0.4-0.2-0.7c-0.1-0.4-0.3-0.3-0.5-0.7c-0.1-0.4,0-0.4-0.1-0.8
			c-0.1-0.4-0.2-0.3-0.4-0.7c-0.1-0.4,0.1-0.4-0.1-0.8"/>
	</g>
	<g>
		<path class="st9" d="M122.1,152.9c0.2,0,0.5,0,0.7,0c0.2,0,0.5,0,0.7-0.1c0.2,0,0.5,0,0.7,0c0.2,0,0.5,0,0.7,0c0.2,0,0.5,0,0.7,0
			c0.2,0,0.5,0,0.7,0c0.2,0,0.5,0,0.7,0c0.2,0,0.5,0,0.7-0.1c0.2,0,0.5,0,0.7,0c0.2,0,0.5,0,0.7-0.1c0.2,0,0.5,0,0.7,0
			c0.2,0,0.5-0.1,0.7-0.1c0.2,0,0.5,0,0.7-0.1c0.2,0,0.5-0.1,0.7-0.1c0.2,0,0.5,0,0.7,0c0.2,0,0.5-0.1,0.7-0.1c0.2,0,0.5,0,0.7-0.1
			c0.2,0,0.5-0.1,0.7-0.1c0.2,0,0.5-0.1,0.7-0.1c0.2,0,0.5,0,0.7-0.1c0.2,0,0.5-0.1,0.7-0.2c0.2-0.1,0.5-0.1,0.7-0.1
			c0.2-0.1,0.5-0.2,0.7-0.2c0.2-0.1,0.5-0.1,0.7-0.2c0.2-0.1,0.5-0.1,0.7-0.2c0.2-0.1,0.5-0.2,0.7-0.3c0.2-0.1,0.5-0.2,0.6-0.3
			c0.2-0.1,0.4-0.3,0.6-0.4c0.2-0.2,0.3-0.4,0.3-0.6c0-0.2-0.1-0.4-0.3-0.7c-0.1-0.1-0.3-0.3-0.6-0.4c-0.2-0.1-0.4-0.2-0.6-0.3
			c-0.2-0.1-0.4-0.2-0.7-0.3c-0.2-0.1-0.5-0.1-0.7-0.2c-0.2-0.1-0.4-0.2-0.7-0.2c-0.2-0.1-0.5-0.1-0.7-0.1c-0.2-0.1-0.5-0.1-0.7-0.2
			c-0.2,0-0.5-0.1-0.7-0.2c-0.2,0-0.5,0-0.7-0.1c-0.2,0-0.5-0.1-0.7-0.2c-0.2,0-0.5-0.1-0.7-0.1c-0.2,0-0.5-0.1-0.7-0.1
			c-0.2,0-0.5,0-0.7-0.1c-0.2,0-0.5-0.1-0.7-0.1c-0.2,0-0.5,0-0.7,0c-0.2,0-0.5,0-0.7-0.1c-0.2,0-0.5-0.1-0.7-0.1
			c-0.2,0-0.5,0-0.7,0c-0.2,0-0.5-0.1-0.7-0.1c-0.2,0-0.5,0-0.7,0c-0.2,0-0.5,0-0.7,0c-0.2,0-0.5-0.1-0.7-0.1c-0.2,0-0.5,0-0.7,0
			c-0.2,0-0.5,0-0.7,0c-0.2,0-0.5-0.1-0.7-0.1c-0.2,0-0.5,0-0.7,0c-0.2,0-0.5,0-0.7,0c-0.2,0-0.5,0-0.7,0c-0.1,0-0.1,0-0.3,0
			c-0.2,0-0.5,0-0.7,0c-0.2,0-0.5,0-0.7,0c-0.2,0-0.5,0-0.7,0c-0.2,0-0.5,0-0.7,0c-0.2,0-0.5,0-0.7,0c-0.2,0-0.5,0.1-0.7,0.1
			c-0.2,0-0.5,0-0.7,0c-0.2,0-0.5,0-0.7,0c-0.2,0-0.5,0-0.7,0c-0.2,0-0.5,0-0.7,0.1c-0.2,0-0.5,0.1-0.7,0.1c-0.2,0-0.5,0.1-0.7,0.1
			c-0.2,0-0.5,0-0.7,0c-0.2,0-0.5,0-0.7,0.1c-0.2,0-0.5,0.1-0.7,0.1c-0.2,0-0.5,0-0.7,0c-0.2,0-0.5,0.1-0.7,0.1
			c-0.2,0-0.5,0.1-0.7,0.1c-0.2,0-0.5,0-0.7,0.1c-0.2,0-0.5,0.1-0.7,0.1c-0.2,0-0.5,0.1-0.7,0.2c-0.2,0.1-0.5,0.1-0.7,0.1
			c-0.2,0.1-0.5,0.1-0.7,0.2c-0.2,0.1-0.5,0.1-0.7,0.2c-0.2,0.1-0.5,0.2-0.7,0.3c-0.2,0.1-0.5,0.2-0.7,0.2c-0.2,0.1-0.4,0.2-0.6,0.4
			c-0.2,0.1-0.5,0.3-0.6,0.4c-0.2,0.2-0.3,0.4-0.3,0.6c0,0.2,0.1,0.4,0.3,0.6c0.1,0.1,0.4,0.3,0.6,0.4c0.2,0.1,0.4,0.2,0.6,0.3
			c0.2,0.1,0.4,0.2,0.7,0.3c0.2,0.1,0.5,0.1,0.7,0.2c0.2,0.1,0.5,0.1,0.7,0.2c0.2,0.1,0.5,0.1,0.7,0.2c0.2,0.1,0.5,0.1,0.7,0.2
			c0.2,0,0.5,0.1,0.7,0.1c0.2,0,0.5,0.1,0.7,0.1c0.2,0,0.5,0.1,0.7,0.1c0.2,0,0.5,0.1,0.7,0.1c0.2,0,0.5,0.1,0.7,0.1
			c0.2,0,0.5,0,0.7,0c0.2,0,0.5,0.1,0.7,0.1c0.2,0,0.5,0.1,0.7,0.1c0.2,0,0.5,0.1,0.7,0.1c0.2,0,0.5,0,0.7,0c0.2,0,0.5,0,0.7,0
			c0.2,0,0.5,0.1,0.7,0.1c0.2,0,0.5,0,0.7,0c0.2,0,0.5,0,0.7,0c0.2,0,0.5,0,0.7,0.1c0.2,0,0.5,0,0.7,0c0.2,0,0.5,0,0.7,0
			c0.2,0,0.5,0,0.7,0c0.2,0,0.5,0,0.7,0c0.2,0,0.5,0,0.7,0c0.2,0,0.5,0,0.7,0C122,152.9,122,152.9,122.1,152.9z"/>
	</g>
	<g>
		<path class="st9" d="M186.9,153.9c0,0.4,0,0.4,0,0.8c0,0.4,0.1,0.4,0.1,0.8c0,0.4,0,0.4,0,0.7c0,0.4,0,0.4,0,0.7
			c0,0.4,0,0.4,0,0.7c0,0.4,0,0.4,0,0.7c0,0.4-0.1,0.4-0.1,0.7c0,0.4,0,0.4,0,0.7c0,0.4,0,0.4,0,0.7c0,0.4,0.1,0.4,0.1,0.7
			c0,0.4,0,0.4,0,0.7c0,0.4,0,0.4,0,0.7c0,0.4,0,0.4,0,0.7c0,0.4,0.1,0.4,0.1,0.7c0,0.4,0,0.4,0,0.7c0,0.4,0,0.4,0,0.7
			c0,0.4,0,0.4,0,0.7c0,0.4,0,0.4,0,0.7c0,0.4,0,0.4,0,0.7c0,0.4,0,0.4,0,0.7c0,0.4,0,0.4,0,0.7c0,0.4,0,0.4,0,0.7
			c0,0.4,0,0.4,0,0.7c0,0.4,0,0.4,0,0.7c0,0.4-0.1,0.4-0.1,0.7c0,0.4-0.1,0.4-0.1,0.7c0,0.4-0.1,0.4-0.1,0.7c0,0.4,0,0.4,0,0.7
			c0,0.4,0.1,0.4,0.1,0.7c0,0.4,0,0.4,0,0.7c0,0.4,0,0.4,0,0.7c0,0.4,0,0.4,0,0.7c0,0.4,0,0.4,0,0.7c0,0.4,0,0.4,0,0.7
			c0,0.4,0,0.4,0,0.7c0,0.4,0,0.4,0,0.7c0,0.4,0,0.4,0,0.7c0,0.4,0,0.4,0,0.7c0,0.4,0,0.4,0,0.7c0,0.4,0,0.4,0,0.7
			c0,0.4,0,0.4,0,0.7c0,0.4,0,0.4,0,0.7c0,0.4,0,0.4,0,0.7c0,0.4,0,0.4,0,0.7c0,0.4-0.1,0.4-0.1,0.7c0,0.4-0.1,0.4-0.1,0.7
			s0,0.4,0,0.4"/>
	</g>
	<g>
		<path class="st9" d="M134.5,215c0,0.4,0,0.3,0,0.7c0,0.2,0,0.4,0,0.7c0,0.2,0.1,0.5,0.1,0.7c0,0.2,0,0.5,0,0.7c0,0.2,0,0.5,0,0.7
			c0,0.2,0,0.5,0,0.7c0,0.2,0,0.5,0,0.7c0,0.2,0,0.5,0,0.7c0,0.2,0.1,0.5,0.1,0.7c0,0.2,0.1,0.5,0.1,0.7c0,0.2,0,0.5,0,0.7
			c0,0.2-0.1,0.5-0.1,0.7c0,0.2-0.1,0.5-0.1,0.7c0,0.2-0.1,0.5-0.1,0.7c0,0.2,0,0.5,0,0.7c0,0.2-0.1,0.5-0.1,0.7
			c0,0.2,0.1,0.5,0.1,0.7c0,0.2,0,0.5,0,0.7c0,0.2,0.1,0.5,0.1,0.7c0,0.2,0.1,0.5,0.1,0.7c0,0.2,0,0.5,0,0.7c0,0.2-0.1,0.5-0.1,0.7
			c0,0.2,0,0.5,0,0.7c0,0.2-0.1,0.5-0.1,0.7c0,0.2,0,0.5,0,0.7c0,0.2,0,0.5,0,0.7c0,0.2,0,0.5,0,0.7c0,0.2,0,0.5,0,0.7
			c0,0.2,0,0.5,0,0.7c0,0.2,0.1,0.5,0.1,0.7c0,0.2,0,0.5,0,0.7c0,0.2,0,0.5,0,0.7c0,0.2,0,0.5,0,0.7c0,0.2,0,0.5,0,0.7
			c0,0.2,0,0.5,0,0.7c0,0.2,0,0.5,0,0.7c0,0.2,0,0.5,0,0.7c0,0.2,0,0.5,0,0.7c0,0.2,0,0.5,0,0.7c0,0.2,0,0.5,0,0.7
			c0,0.2,0,0.5,0,0.7c0,0.2-0.1,0.5-0.1,0.7c0,0.3,0,0.5,0,0.7c0,0.2,0,0.5,0,0.7c0,0.2,0,0.5,0,0.7c0,0.2,0.1,0.5,0,0.7
			c0,0.2,0,0.5-0.1,0.7c0,0.2-0.1,0.5-0.1,0.7c0,0.2,0,0.5-0.1,0.7c0,0.2-0.1,0.5-0.1,0.7c0,0.2-0.1,0.5-0.1,0.7
			c0,0.2-0.1,0.5-0.2,0.7c0,0.2-0.1,0.5-0.1,0.7c-0.1,0.2-0.1,0.5-0.2,0.7c-0.1,0.2-0.1,0.5-0.2,0.7c-0.1,0.2-0.1,0.5-0.2,0.7
			c-0.1,0.2-0.1,0.5-0.2,0.7c-0.1,0.2-0.1,0.5-0.2,0.7c-0.1,0.2-0.2,0.4-0.3,0.6c-0.1,0.2-0.1,0.5-0.2,0.7c-0.1,0.2-0.3,0.4-0.4,0.6
			c-0.1,0.2-0.2,0.4-0.3,0.6c-0.1,0.2-0.2,0.4-0.4,0.6c-0.1,0.2-0.3,0.4-0.4,0.6c-0.1,0.2-0.2,0.4-0.4,0.6c-0.1,0.2-0.3,0.3-0.5,0.5
			c-0.2,0.2-0.3,0.3-0.5,0.5c-0.2,0.2-0.3,0.4-0.5,0.5c-0.2,0.2-0.3,0.3-0.5,0.5c-0.2,0.2-0.4,0.3-0.6,0.4c-0.2,0.1-0.4,0.3-0.6,0.4
			c-0.2,0.1-0.4,0.2-0.6,0.3c-0.2,0.1-0.4,0.2-0.6,0.3c-0.2,0.1-0.4,0.2-0.7,0.3c-0.2,0.1-0.4,0.2-0.7,0.3c-0.2,0.1-0.4,0.2-0.7,0.2
			c-0.2,0.1-0.5,0.1-0.7,0.2c-0.2,0.1-0.5,0.1-0.7,0.1c-0.2,0-0.5,0-0.7,0.1c-0.2,0-0.5,0.1-0.7,0.1c-0.2,0-0.5,0.1-0.7,0.1
			c-0.2,0-0.5,0-0.7,0"/>
	</g>
	<g>
		<path class="st9" d="M78.6,152c0,0.4,0,0.4,0,0.7c0,0.4,0,0.4,0,0.7c0,0.4,0.1,0.4,0.1,0.7c0,0.4,0,0.4,0,0.7c0,0.4,0,0.4,0,0.7
			c0,0.4-0.1,0.4-0.1,0.7c0,0.4,0.1,0.4,0.1,0.7c0,0.4,0,0.4,0,0.7c0,0.4,0,0.4,0,0.7c0,0.4-0.1,0.4-0.1,0.7c0,0.4,0,0.4,0,0.7
			c0,0.4,0.1,0.4,0.1,0.7c0,0.4,0,0.4,0,0.7c0,0.4,0.1,0.4,0.1,0.7c0,0.4-0.1,0.4-0.1,0.7c0,0.4,0,0.4,0,0.7c0,0.4,0,0.4,0,0.7
			c0,0.4,0.1,0.4,0.1,0.7c0,0.4,0,0.4,0,0.7s-0.1,0.4-0.1,0.7s0,0.4,0,0.7c0,0.4,0,0.4,0,0.7c0,0.4,0.1,0.4,0.1,0.7
			c0,0.4-0.1,0.4-0.1,0.7c0,0.4,0,0.4,0,0.7c0,0.4,0,0.4,0,0.7c0,0.4,0.1,0.4,0.1,0.7c0,0.4,0,0.4,0,0.7c0,0.4-0.1,0.4-0.1,0.7
			c0,0.4,0.1,0.4,0.1,0.7c0,0.4-0.2,0.4-0.2,0.7c0,0.4,0.1,0.4,0.1,0.7c0,0.4-0.1,0.4-0.1,0.7c0,0.4,0,0.4,0,0.7c0,0.4,0,0.4,0,0.7
			c0,0.4,0.1,0.4,0.1,0.7c0,0.4-0.1,0.4-0.1,0.7c0,0.4,0.1,0.4,0.1,0.7c0,0.4,0,0.4,0,0.7c0,0.4,0,0.4,0,0.7c0,0.4,0,0.4,0,0.7
			c0,0.4,0.1,0.4,0.1,0.7s-0.1,0.4-0.1,0.7s0,0.4,0,0.7c0,0.4,0,0.4,0,0.7c0,0.4,0,0.4,0,0.7c0,0.4,0,0.4,0,0.7c0,0.4,0,0.4,0,0.7
			c0,0.4,0.1,0.4,0.1,0.7c0,0.4,0,0.4,0,0.7c0,0.4,0,0.4,0,0.7c0,0.4,0,0.4,0,0.7c0,0.4,0,0.4,0,0.7c0,0.4,0,0.4,0,0.7
			c0,0.4-0.1,0.4-0.1,0.7c0,0.4,0,0.4,0,0.7c0,0.4-0.1,0.4-0.1,0.7c0,0.4,0.1,0.4,0.1,0.7c0,0.4-0.1,0.4-0.1,0.7
			c0,0.4,0.1,0.4,0.1,0.7c0,0.4,0.1,0.4,0.1,0.7c0,0.4,0,0.4,0,0.7c0,0.4,0,0.4,0,0.7c0,0.4,0,0.4,0,0.7c0,0.4,0,0.4,0,0.7
			c0,0.4-0.1,0.4-0.1,0.7c0,0.4,0.1,0.4,0.1,0.7c0,0.4,0,0.4,0,0.7c0,0.4-0.1,0.4-0.1,0.7c0,0.4,0.1,0.4,0.1,0.7c0,0.4,0,0.4,0,0.7
			c0,0.4,0,0.4,0,0.7c0,0.4,0.1,0.4,0.1,0.7c0,0.4,0,0.4,0,0.7c0,0.4,0,0.4,0,0.7c0,0.4-0.1,0.4-0.1,0.7c0,0.4,0,0.4,0,0.7
			c0,0.4,0,0.4,0,0.7c0,0.4,0,0.4,0,0.7c0,0.4-0.1,0.4-0.1,0.7c0,0.4,0,0.4,0,0.7c0,0.4,0,0.4,0,0.7c0,0.4-0.2,0.4-0.2,0.7
			c0,0.4,0,0.4,0,0.7c0,0.4,0,0.4,0,0.7c0,0.4,0.1,0.4,0.1,0.7c0,0.4-0.1,0.4-0.1,0.7c0,0.4-0.1,0.4-0.1,0.7c0,0.4,0,0.4,0,0.7
			c0,0.4,0.1,0.4,0.1,0.7c0,0.4,0,0.4,0,0.7c0,0.4-0.1,0.4-0.1,0.7c0,0.4,0,0.4,0,0.7c0,0.4,0.1,0.4,0.1,0.7c0,0.4,0.2,0.4,0.2,0.7
			c0,0.4,0,0.4,0,0.7c0,0.4,0,0.4,0,0.7c0,0.4-0.1,0.4-0.1,0.7c0,0.4,0,0.4,0,0.7c0,0.4,0,0.4,0,0.7c0,0.4-0.1,0.4-0.1,0.7
			c0,0.4,0.1,0.4,0.1,0.7c0,0.4,0,0.4,0,0.7c0,0.4,0.1,0.4,0.1,0.7c0,0.4,0.1,0.4,0.1,0.7c0,0.4,0,0.4,0,0.7c0,0.4-0.1,0.4-0.1,0.7
			c0,0.4,0,0.4,0,0.7c0,0.4,0,0.4,0,0.7c0,0.4-0.1,0.4-0.1,0.7c0,0.4-0.1,0.4-0.1,0.7c0,0.4,0.1,0.4,0.1,0.7c0,0.4,0,0.4,0,0.7
			c0,0.4,0.1,0.4,0.1,0.7c0,0.4,0,0.4,0,0.7c0,0.4,0,0.4,0,0.7c0,0.4-0.1,0.4-0.1,0.7c0,0.4,0,0.4,0,0.7c0,0.4,0.1,0.4,0.1,0.7
			c0,0.4,0,0.4,0,0.7c0,0.4,0,0.4,0,0.7c0,0.4,0,0.4,0,0.7"/>
	</g>
	<g>
		<path class="st3" d="M126.7,136.1c-0.1-0.2-0.3-0.4-0.5-0.6c-0.2-0.2-0.4-0.4-0.6-0.5c-0.2-0.1-0.4-0.2-0.7-0.3
			c-0.2-0.1-0.5,0-0.7-0.1c-0.2,0-0.5-0.2-0.7-0.1c-0.2,0-0.5,0.1-0.7,0.2c-0.2,0.1-0.4,0.3-0.6,0.4c-0.2,0.1-0.3,0.4-0.5,0.6
			c-0.2,0.2-0.4,0.3-0.5,0.5c-0.1,0.2-0.3,0.3-0.5,0.5c-0.1,0.2-0.3,0.4-0.5,0.6c-0.1,0.2-0.2,0.4-0.3,0.6c-0.1,0.2-0.3,0.4-0.5,0.6
			c-0.1,0.2-0.2,0.4-0.3,0.6c-0.1,0.2-0.2,0.4-0.3,0.6c-0.1,0.2-0.3,0.4-0.4,0.6c-0.1,0.2-0.2,0.5-0.3,0.7c-0.1,0.2-0.2,0.5-0.2,0.7
			c-0.1,0.2-0.2,0.5-0.2,0.7c0,0.2-0.1,0.5-0.1,0.7c0,0.2,0,0.5,0.1,0.7c0,0.2,0.1,0.5,0.1,0.7c0.1,0.2,0.1,0.5,0.2,0.7
			c0.1,0.2,0.3,0.4,0.4,0.6c0.1,0.2,0.2,0.4,0.4,0.6c0.2,0.2,0.3,0.4,0.5,0.5c0.2,0.2,0.4,0.3,0.6,0.4c0.2,0.1,0.4,0.3,0.6,0.4
			c0.2,0.1,0.4,0.2,0.7,0.3c0.2,0.1,0.5,0.1,0.7,0.2c0.2,0.1,0.5,0.2,0.7,0.2c0.2,0,0.5,0.1,0.8,0.1c0.2,0,0.5,0,0.7,0
			c0.2,0,0.5-0.1,0.7-0.1c0.2,0,0.5-0.1,0.7-0.1c0.2,0,0.5-0.1,0.7-0.1c0.2-0.1,0.4-0.2,0.7-0.3c0.2-0.1,0.5-0.1,0.7-0.2
			c0.2-0.1,0.4-0.3,0.5-0.5c0.2-0.2,0.3-0.3,0.5-0.5c0.1-0.2,0.3-0.4,0.4-0.6c0.1-0.2,0.2-0.4,0.3-0.7c0.1-0.2,0.1-0.5,0.1-0.7
			c0-0.2,0.1-0.5,0.1-0.7c0-0.2-0.1-0.5-0.1-0.7c0-0.2-0.1-0.5-0.1-0.7c0-0.2-0.1-0.5-0.1-0.7c-0.1-0.2-0.1-0.5-0.2-0.7
			c-0.1-0.2-0.1-0.5-0.1-0.7c-0.1-0.2-0.2-0.4-0.2-0.7c-0.1-0.2-0.2-0.4-0.3-0.6c-0.1-0.2-0.2-0.4-0.3-0.6c-0.1-0.2-0.1-0.5-0.2-0.7
			c-0.1-0.2-0.2-0.4-0.3-0.6c-0.1-0.2-0.2-0.4-0.3-0.6C126.9,136.6,126.8,136.4,126.7,136.1z"/>
	</g>
</g>
</svg>
