<?xml version="1.0" encoding="utf-8"?>
<!-- Generator: Adobe Illustrator 19.2.0, SVG Export Plug-In . SVG Version: 6.00 Build 0)  -->
<svg version="1.1" xmlns="http://www.w3.org/2000/svg" xmlns:xlink="http://www.w3.org/1999/xlink" x="0px" y="0px"
	 viewBox="0 0 244.8 334.7" style="enable-background:new 0 0 244.8 334.7;" xml:space="preserve">
<style type="text/css">
	.st0{fill:#0D1533;}
	.st1{fill:none;stroke:#FFFFFF;stroke-miterlimit:10;}
	.st2{fill:#153053;}
	.st3{fill:#FFCC06;}
	.st4{fill:#FFFFFF;}
	.st5{fill:none;stroke:#FFFFFF;stroke-width:2;stroke-linecap:round;stroke-miterlimit:10;}
	.st6{fill:none;stroke:#FFCC06;stroke-width:2;stroke-linecap:round;stroke-miterlimit:10;}
	.st7{fill:#132F53;}
	.st8{fill:none;stroke:#FFFFFF;stroke-width:2;stroke-miterlimit:10;}
	.st9{fill:none;stroke:#FFFFFF;stroke-width:2;stroke-linecap:round;stroke-linejoin:round;stroke-miterlimit:10;}
	.st10{clip-path:url(#SVGID_2_);}
</style>
<g id="Layer_2">
	<rect class="st0" width="244.8" height="334.7"/>
</g>
<g id="Layer_1">
	<g>
		<g>
			<g>
				<path class="st4" d="M184.1,169c0.1,0.2,0.1,0.5,0.2,0.7c0.1,0.2,0.3,0.4,0.4,0.6c0.1,0.2,0.3,0.4,0.4,0.6
					c0.1,0.2,0.3,0.4,0.5,0.5c0.1,0.2,0.2,0.5,0.3,0.6c0.2,0.2,0.3,0.3,0.5,0.5c0.2,0.2,0.3,0.4,0.5,0.5c0.2,0.2,0.5,0.2,0.6,0.4
					c0.2,0.2,0.3,0.4,0.5,0.5c0.2,0.1,0.4,0.3,0.6,0.4c0.2,0.1,0.4,0.3,0.6,0.4c0.2,0.1,0.5,0.1,0.7,0.2c0.2,0.1,0.4,0.3,0.6,0.4
					c0.2,0.1,0.5,0.1,0.7,0.2c0.2,0.1,0.5,0,0.8,0.1c0.2,0.3-0.1,0.3-0.2,0.7c-0.1,0.2-0.1,0.4-0.2,0.7c-0.1,0.2-0.3,0.4-0.4,0.6
					c-0.1,0.2-0.3,0.4-0.4,0.6c-0.1,0.2-0.2,0.4-0.3,0.6c-0.1,0.2-0.2,0.4-0.3,0.6c-0.1,0.2-0.1,0.5-0.2,0.7
					c-0.1,0.2-0.5,0.2-0.6,0.4c-0.1,0.2-0.1,0.5-0.3,0.7c-0.1,0.2-0.4,0.3-0.5,0.5c-0.1,0.2-0.2,0.4-0.4,0.6
					c-0.2,0.2-0.4,0.3-0.5,0.5c-0.2,0.2-0.3,0.4-0.5,0.6c-0.2,0.2-0.5,0.1-0.7,0.3c-0.2,0.1-0.3,0.4-0.5,0.5
					c-0.2,0.1-0.4,0.2-0.6,0.3c-0.2,0.1-0.4,0.3-0.6,0.4c-0.2,0.1-0.4,0.4-0.6,0.5c-0.2,0.1-0.4,0.2-0.7,0.3c-0.2,0.1-0.5-0.1-0.8,0
					c-0.2,0.1-0.4,0.4-0.6,0.4c-0.2,0.1-0.5,0.1-0.7,0.2c-0.2,0.1-0.5,0-0.7,0c-0.2,0-0.5,0.1-0.7,0.1c-0.2,0-0.5,0.2-0.7,0.2
					c-0.2,0-0.5-0.1-0.7-0.1c-0.2,0-0.5-0.1-0.7-0.1c-0.2,0-0.5,0.1-0.7,0.1c-0.2,0-0.5,0-0.7,0c-0.2,0-0.5-0.1-0.7-0.1
					c-0.2,0-0.4-0.2-0.7-0.2c-0.2,0-0.5,0.2-0.7,0.1c-0.2,0-0.4-0.3-0.7-0.4c-0.2-0.1-0.5,0.1-0.7,0c-0.2-0.1-0.5-0.1-0.7-0.2
					c-0.2-0.1-0.4-0.2-0.7-0.3c-0.2-0.1-0.5-0.1-0.7-0.2c-0.2-0.1-0.4-0.3-0.6-0.4c-0.2-0.1-0.4-0.2-0.7-0.3c-0.2-0.1-0.5,0-0.7-0.1
					c-0.2-0.1-0.4-0.3-0.6-0.4c-0.2-0.1-0.4-0.2-0.6-0.3c0.1-0.2,0.2-0.4,0.3-0.6c0.1-0.2,0.2-0.4,0.3-0.6c0.1-0.2,0.2-0.4,0.3-0.6
					c0.1-0.2,0.2-0.4,0.3-0.7c0.1-0.2,0.3-0.4,0.4-0.6c0.1-0.2,0-0.5,0.1-0.7c0.1-0.2,0.3-0.4,0.4-0.6c0.1-0.2,0-0.5,0-0.7
					c0.1-0.2,0.3-0.4,0.4-0.6c0.1-0.2,0-0.5,0.1-0.7c0.1-0.2,0.1-0.4,0.2-0.7c0.1-0.2,0.2-0.4,0.2-0.7c0.1-0.2,0.3-0.4,0.4-0.6
					c0.1-0.2,0.1-0.5,0.2-0.7c0.1-0.2,0-0.5,0.1-0.7c0.1-0.2,0.2-0.4,0.2-0.7c0.1-0.2,0.1-0.5,0.2-0.7c0.1-0.2,0.2-0.4,0.3-0.7
					c0.1-0.2,0.1-0.5,0.2-0.7c0.1-0.2,0-0.5,0.1-0.7c0.1-0.2,0-0.5,0.1-0.7c0-0.2,0.2-0.4,0.2-0.7c0-0.2,0.1-0.5,0.1-0.7
					c0-0.2,0.1-0.5,0.1-0.7c0-0.2,0.1-0.5,0.1-0.7c0-0.2,0.1-0.5,0.1-0.7c0-0.2,0.1-0.5,0.1-0.7c0-0.2,0-0.5,0.1-0.7
					c0-0.2,0.1-0.5,0.1-0.7c0-0.2-0.1-0.5,0-0.7c0-0.2,0.2-0.5,0.2-0.7c0-0.2,0.1-0.5,0.1-0.7c0-0.2,0-0.5,0-0.7
					c0-0.2-0.1-0.5-0.1-0.7c0-0.2,0-0.5,0-0.7c0-0.2,0.1-0.5,0.1-0.7c0-0.2,0-0.5,0-0.7c0-0.4-0.1-0.4-0.1-0.7
					c0-0.4,0.1-0.4,0.1-0.7c0-0.4-0.2-0.4-0.2-0.7c0-0.4-0.1-0.4-0.1-0.7c0-0.4,0-0.4,0-0.7c0-0.4,0.1-0.4,0.1-0.7
					c0-0.4,0-0.4,0-0.7c0-0.4-0.1-0.4-0.1-0.7c0-0.4,0-0.4,0-0.7c0-0.4,0-0.4,0-0.7c0-0.4,0-0.4,0-0.7c0-0.4,0-0.4,0-0.7
					c0-0.4,0-0.4,0-0.7c0-0.4,0.1-0.4,0.1-0.7c0-0.4,0.1-0.4,0.1-0.7c0-0.4-0.1-0.4-0.1-0.7c0-0.4,0-0.4,0-0.7c0-0.4,0-0.4,0-0.7
					c0-0.4,0.1-0.4,0.1-0.7c0-0.4-0.2-0.4-0.2-0.7c0-0.4,0.1-0.4,0.1-0.7c0-0.4,0.1-0.4,0.1-0.7c0-0.4,0-0.4,0-0.7
					c0-0.4-0.1-0.4-0.1-0.7c0-0.4,0-0.4,0-0.7c0-0.4-0.1-0.4-0.1-0.7c0-0.4,0-0.4,0-0.7c0-0.4,0.2-0.4,0.2-0.7
					c0-0.4,0.1-0.4,0.1-0.7c0-0.4-0.2-0.4-0.2-0.7c0-0.4,0.2-0.4,0.2-0.7s0-0.4,0-0.7c0-0.4-0.1-0.4-0.1-0.7c0-0.4-0.1-0.4-0.1-0.7
					c0-0.4,0.2-0.4,0.2-0.7c0-0.4,0-0.4,0-0.7c0-0.4-0.1-0.4-0.1-0.7c0-0.4-0.1-0.4-0.1-0.7c0-0.4,0-0.4,0-0.7
					c0-0.4,0.2-0.4,0.2-0.7c0-0.2,0-0.5,0-0.7c0-0.2-0.1-0.5-0.1-0.7c0-0.2-0.2-0.4-0.3-0.6c-0.1-0.2-0.1-0.5-0.1-0.7
					c-0.1-0.2-0.2-0.4-0.3-0.6c-0.1-0.2-0.2-0.4-0.4-0.6c-0.1-0.2-0.3-0.4-0.4-0.6c-0.1-0.2-0.2-0.5-0.4-0.6
					c-0.2-0.2-0.4-0.2-0.6-0.4c-0.2-0.1-0.3-0.4-0.5-0.5c-0.2-0.1-0.5-0.1-0.7-0.2c-0.2-0.1-0.5-0.1-0.7-0.2
					c-0.2-0.1-0.4-0.2-0.6-0.3c-0.2-0.1-0.4-0.2-0.7-0.2c-0.2-0.1-0.4-0.2-0.7-0.3c-0.2,0-0.5,0.1-0.7,0.1c-0.2,0-0.5-0.1-0.7-0.1
					c-0.2,0-0.5-0.1-0.7-0.1c-0.2,0-0.5-0.1-0.7-0.2c-0.2,0-0.5-0.1-0.7-0.1c-0.2-0.1-0.4-0.3-0.6-0.4c-0.2-0.1-0.5-0.1-0.7-0.1
					c-0.2-0.1-0.4-0.2-0.7-0.3c-0.2-0.1-0.5,0.1-0.8,0c-0.2-0.1-0.4-0.3-0.6-0.3c-0.2-0.1-0.4-0.3-0.6-0.4c-0.2-0.1-0.5,0-0.7-0.1
					c-0.2-0.1-0.4-0.4-0.6-0.5c-0.2-0.1-0.5-0.1-0.7-0.2c-0.2-0.1-0.4-0.2-0.6-0.3c-0.2-0.1-0.4-0.3-0.6-0.4
					c-0.2-0.1-0.3-0.4-0.5-0.5c-0.2-0.1-0.4-0.3-0.6-0.4c-0.2-0.1-0.5-0.1-0.7-0.3c-0.2-0.2-0.4-0.3-0.5-0.5
					c-0.2-0.2-0.4-0.3-0.5-0.5c-0.2-0.2-0.2-0.4-0.4-0.6c-0.2-0.2-0.3-0.4-0.5-0.6c-0.2-0.2-0.3-0.4-0.4-0.6
					c-0.1-0.2-0.2-0.4-0.3-0.6c-0.1-0.2-0.4-0.3-0.5-0.5c-0.1-0.2-0.1-0.5-0.2-0.7c-0.1-0.2-0.1-0.5-0.2-0.7
					c-0.1-0.2-0.3-0.4-0.4-0.6c-0.1-0.2-0.2-0.5-0.2-0.7c-0.1-0.3,0-0.5-0.1-0.7c-0.1-0.4,0.2-0.5-0.1-0.7c-0.2,0-0.5,0-0.8,0
					c-0.2,0-0.5-0.1-0.7-0.1c-0.2,0-0.5,0.1-0.7,0.1c-0.2,0-0.5-0.1-0.7-0.1c-0.2,0-0.5-0.2-0.7-0.2c-0.2,0-0.5,0.2-0.8,0.1
					c-0.2,0-0.4-0.3-0.7-0.3c-0.2-0.1-0.5-0.1-0.7-0.1c-0.2-0.1-0.5,0-0.7-0.1c-0.2-0.1-0.4-0.3-0.7-0.3c-0.2-0.1-0.5,0-0.7-0.1
					c-0.2-0.1-0.4-0.3-0.6-0.4c-0.2-0.1-0.4-0.3-0.6-0.4c-0.2-0.1-0.4-0.2-0.6-0.3c-0.2-0.1-0.4-0.2-0.6-0.4
					c-0.2-0.1-0.4-0.3-0.6-0.5c-0.2-0.1-0.4-0.2-0.6-0.4c-0.2-0.2-0.5-0.2-0.7-0.3c-0.2-0.2-0.4-0.3-0.5-0.5
					c-0.2-0.2-0.3-0.4-0.5-0.6c-0.2-0.2-0.3-0.4-0.5-0.6c-0.2-0.2-0.2-0.5-0.3-0.7c-0.1-0.2-0.3-0.4-0.4-0.6
					c-0.1-0.2-0.4-0.3-0.5-0.5c-0.1-0.2-0.1-0.5-0.2-0.7c-0.1-0.2-0.3-0.4-0.4-0.6c-0.1-0.2-0.1-0.5-0.2-0.7
					c-0.1-0.2-0.4-0.4-0.4-0.6c-0.1-0.2-0.1-0.5-0.2-0.7c-0.1-0.2-0.2-0.4-0.3-0.7c-0.1-0.2,0.1-0.5,0-0.8c-0.1-0.2-0.3-0.4-0.3-0.7
					c-0.1-0.2,0-0.5-0.1-0.7c0-0.2,0-0.5-0.1-0.7c0-0.2-0.3-0.4-0.3-0.7c0-0.2,0.1-0.5,0.1-0.7c0-0.2,0-0.5-0.1-0.7
					c0-0.2-0.1-0.5-0.1-0.7c0-0.2-0.1-0.5-0.1-0.7c0-0.2,0.1-0.5,0.1-0.7c0-0.2,0-0.5,0-0.7c0-0.2,0-0.5,0-0.7
					c0-0.3-0.1-0.5-0.1-0.8c-0.1-0.3-0.1-0.5-0.2-0.8c-0.1-0.2-0.3-0.4-0.4-0.6c-0.2-0.2-0.4-0.4-0.6-0.5c-0.2-0.2-0.4-0.3-0.6-0.4
					c-0.2-0.1-0.5-0.1-0.7-0.2c-0.2-0.1-0.5,0-0.8,0c-0.3,0-0.3,0-0.7,0c-0.4,0-0.4-0.1-0.7-0.1c-0.3,0-0.3,0-0.7,0
					c-0.3,0-0.3-0.2-0.7-0.2c-0.3,0-0.3,0-0.7,0c-0.4,0-0.4,0.2-0.7,0.2c-0.4,0-0.4-0.2-0.7-0.2s-0.4,0.2-0.7,0.2
					c-0.4,0-0.4,0-0.7,0c-0.4,0-0.4-0.2-0.7-0.2c-0.4,0-0.4,0.1-0.7,0.1c-0.3,0-0.3,0.1-0.7,0.1c-0.4,0-0.4-0.2-0.7-0.2
					c-0.4,0-0.4,0-0.7,0c-0.4,0-0.4,0-0.7,0c-0.4,0-0.4,0.1-0.7,0.1c-0.4,0-0.4,0-0.7,0c-0.4,0-0.4-0.1-0.7-0.1
					c-0.4,0-0.4,0.1-0.7,0.1c-0.4,0-0.4,0.1-0.7,0.1c-0.4,0-0.4,0-0.7,0c-0.4,0-0.4-0.1-0.7-0.1c-0.4,0-0.4,0-0.7,0
					c-0.4,0-0.4,0.1-0.7,0.1c-0.4,0-0.4-0.1-0.7-0.1c-0.4,0-0.4,0.1-0.7,0.1c-0.4,0-0.4,0.1-0.7,0.1c-0.4,0-0.4,0-0.7,0
					c-0.4,0-0.4-0.1-0.7-0.1c-0.4,0-0.4,0-0.7,0c-0.4,0-0.4,0-0.7,0c-0.3,0-0.5,0.1-0.7,0.1c-0.2,0.1-0.4,0.2-0.7,0.3
					c-0.2,0.1-0.4,0.3-0.6,0.4c-0.2,0.2-0.3,0.3-0.5,0.5c-0.2,0.2-0.5,0.3-0.6,0.5c-0.1,0.2,0,0.5-0.1,0.8c-0.1,0.2-0.2,0.5-0.2,0.7
					c0,0.2,0.1,0.5,0.1,0.7c0,0.2,0,0.5,0,0.7c0,0.2-0.1,0.5-0.2,0.7c0,0.2,0.1,0.5,0.1,0.7c0,0.2-0.2,0.5-0.3,0.7
					c0,0.2,0,0.5-0.1,0.7c0,0.2-0.1,0.5-0.2,0.7c0,0.2,0.1,0.5,0,0.7c0,0.2-0.2,0.5-0.2,0.7c-0.1,0.2-0.1,0.5-0.2,0.7
					c-0.1,0.2-0.1,0.5-0.2,0.7c-0.1,0.2-0.2,0.4-0.3,0.7c-0.1,0.2-0.1,0.5-0.2,0.7c-0.1,0.2-0.1,0.5-0.2,0.7
					c-0.1,0.2-0.3,0.4-0.4,0.6c-0.1,0.2-0.2,0.4-0.3,0.7c-0.1,0.2-0.2,0.5-0.3,0.7c-0.1,0.2-0.3,0.4-0.4,0.6
					c-0.1,0.2-0.3,0.3-0.5,0.5c-0.1,0.2-0.2,0.4-0.3,0.6c-0.1,0.2-0.3,0.4-0.4,0.6c-0.2,0.2-0.4,0.3-0.5,0.5
					c-0.2,0.2-0.3,0.4-0.5,0.6c-0.2,0.2-0.3,0.4-0.5,0.5c-0.2,0.2-0.3,0.3-0.5,0.5c-0.2,0.2-0.4,0.3-0.6,0.5
					c-0.2,0.1-0.3,0.4-0.5,0.5c-0.2,0.1-0.5,0.1-0.7,0.2c-0.2,0.1-0.3,0.4-0.5,0.6c-0.2,0.1-0.5,0.1-0.7,0.3
					c-0.2,0.1-0.5,0.1-0.7,0.2c-0.2,0.1-0.4,0.3-0.6,0.4c-0.2,0.1-0.5,0-0.7,0.1c-0.2,0.1-0.4,0.3-0.6,0.3c-0.2,0.1-0.5,0-0.7,0.1
					c-0.2,0.1-0.5,0.1-0.7,0.2c-0.2,0-0.5,0.1-0.7,0.2c-0.2,0-0.4,0.3-0.7,0.3c-0.2,0-0.5,0-0.7,0c-0.2,0-0.5,0-0.7,0.1
					c-0.2,0-0.5-0.1-0.7-0.1c-0.2,0-0.5,0.1-0.7,0.1c-0.2,0-0.4,0.2-0.7,0.2c-0.3,0.2-0.1,0.2-0.2,0.6c0,0.2,0,0.5-0.1,0.7
					c-0.1,0.2-0.4,0.3-0.5,0.6c-0.1,0.2-0.1,0.5-0.2,0.7c-0.1,0.2-0.2,0.4-0.3,0.7c-0.1,0.2-0.1,0.5-0.3,0.7
					c-0.1,0.2-0.3,0.4-0.4,0.6c-0.1,0.2-0.5,0.2-0.6,0.4c-0.1,0.2-0.2,0.4-0.4,0.6c-0.2,0.2-0.2,0.5-0.3,0.7
					c-0.2,0.2-0.4,0.3-0.5,0.5c-0.2,0.2-0.5,0.2-0.6,0.4c-0.2,0.2-0.3,0.4-0.5,0.6c-0.2,0.1-0.3,0.3-0.5,0.5
					c-0.2,0.1-0.4,0.3-0.6,0.4c-0.2,0.1-0.4,0.3-0.6,0.4c-0.2,0.1-0.4,0.3-0.6,0.4c-0.2,0.1-0.4,0.2-0.7,0.3
					c-0.2,0.1-0.5,0.1-0.7,0.2c-0.2,0.1-0.4,0.3-0.6,0.4c-0.2,0.1-0.5,0.1-0.7,0.2c-0.2,0.1-0.4,0.3-0.6,0.4
					c-0.2,0.1-0.5,0.1-0.7,0.1c-0.2,0.1-0.4,0.1-0.7,0.2c-0.2,0.1-0.4,0.3-0.6,0.4c-0.2,0.1-0.5,0.1-0.7,0.1c-0.2,0.1-0.5,0-0.7,0
					c-0.2,0.1-0.4,0.2-0.7,0.3c-0.2,0.1-0.5,0.1-0.7,0.2c-0.2,0-0.5-0.1-0.7,0c-0.2,0-0.4,0.2-0.7,0.2c-0.2,0-0.5,0-0.7,0.1
					c-0.2,0-0.5,0.1-0.7,0.1c-0.2,0-0.5,0-0.7,0.1c-0.2,0.1-0.4,0.2-0.7,0.2c-0.2,0.1-0.5,0.1-0.7,0.2c-0.2,0.1-0.4,0.3-0.6,0.4
					c-0.2,0.1-0.4,0.2-0.6,0.3c-0.2,0.1-0.3,0.3-0.5,0.5c-0.2,0.2-0.4,0.3-0.5,0.5c-0.2,0.2-0.3,0.4-0.4,0.5
					c-0.1,0.2-0.4,0.3-0.5,0.5c-0.1,0.2-0.1,0.5-0.2,0.7c-0.1,0.2-0.3,0.4-0.4,0.6c-0.1,0.2-0.1,0.5-0.1,0.7
					c-0.1,0.2-0.2,0.4-0.2,0.7c0,0.2-0.1,0.5-0.2,0.7c0,0.2,0,0.5,0,0.7c0,0.4,0.1,0.4,0.1,0.7c0,0.4,0,0.4,0,0.7c0,0.4,0,0.4,0,0.7
					c0,0.4,0.1,0.4,0.1,0.7c0,0.4,0,0.4,0,0.7c0,0.4-0.1,0.4-0.1,0.7c0,0.4-0.1,0.4-0.1,0.7c0,0.4,0.2,0.4,0.2,0.7
					c0,0.4,0,0.4,0,0.7c0,0.4-0.1,0.4-0.1,0.7c0,0.4,0,0.4,0,0.7c0,0.4-0.2,0.4-0.2,0.7c0,0.4,0,0.4,0,0.7c0,0.4,0.2,0.4,0.2,0.7
					c0,0.4-0.2,0.4-0.2,0.7c0,0.4,0.2,0.4,0.2,0.7c0,0.4-0.1,0.4-0.1,0.7c0,0.4-0.2,0.4-0.2,0.7c0,0.4,0,0.4,0,0.7
					c0,0.4,0.2,0.4,0.2,0.7c0,0.4-0.2,0.4-0.2,0.7c0,0.4,0.1,0.4,0.1,0.7c0,0.4-0.2,0.4-0.2,0.7c0,0.4,0.1,0.4,0.1,0.7
					c0,0.4-0.1,0.4-0.1,0.7c0,0.4,0.2,0.4,0.2,0.7c0,0.4,0,0.4,0,0.7c0,0.4-0.1,0.4-0.1,0.7s-0.1,0.4-0.1,0.7c0,0.4,0.1,0.4,0.1,0.7
					c0,0.4-0.2,0.4-0.2,0.7c0,0.4,0,0.4,0,0.7c0,0.4,0,0.4,0,0.7c0,0.4,0,0.4,0,0.7c0,0.4,0,0.4,0,0.7c0,0.4-0.1,0.4-0.1,0.7
					s0.2,0.4,0.2,0.7c0,0.2-0.2,0.5-0.2,0.7c0,0.2,0.2,0.5,0.2,0.7c0,0.2,0.1,0.5,0.1,0.7c0,0.2-0.1,0.5-0.1,0.7c0,0.2,0,0.5,0,0.7
					c0,0.2-0.1,0.5-0.1,0.7c0,0.2,0.2,0.5,0.3,0.7c0,0.2-0.1,0.5-0.1,0.7c0,0.2,0.2,0.5,0.2,0.7c0,0.2-0.2,0.5-0.1,0.7
					c0,0.2,0.2,0.5,0.2,0.7c0,0.2,0.2,0.5,0.2,0.7c0,0.2-0.1,0.5,0,0.7c0,0.2,0.1,0.5,0.1,0.7c0,0.2,0.2,0.4,0.2,0.7
					c0,0.2-0.1,0.5-0.1,0.7c0,0.2,0.1,0.5,0.1,0.7c0.1,0.2,0.2,0.4,0.2,0.7c0.1,0.2,0.2,0.4,0.3,0.7c0.1,0.2,0,0.5,0.1,0.7
					c0.1,0.2,0.1,0.5,0.2,0.7c0.1,0.2,0.2,0.4,0.3,0.7c0.1,0.2-0.1,0.5,0,0.7c0.1,0.2,0.1,0.5,0.2,0.7c0.1,0.2,0.3,0.4,0.4,0.6
					c0.1,0.2,0,0.5,0.1,0.7c0.1,0.2,0.2,0.4,0.3,0.7c0.1,0.2,0.2,0.4,0.2,0.7c0.1,0.2,0.3,0.4,0.4,0.6c0.1,0.2,0.2,0.4,0.3,0.6
					c0.1,0.2,0.1,0.5,0.2,0.7c0.1,0.2,0.3,0.4,0.4,0.7c0.1,0.2,0,0.5,0,0.8c0,0.2,0.2,0.5,0.2,0.7c0,0.2-0.1,0.5-0.2,0.7
					c0,0.2-0.1,0.5-0.2,0.7c-0.1,0.2,0,0.5,0,0.7c-0.1,0.2-0.3,0.4-0.4,0.6c-0.1,0.2-0.3,0.4-0.4,0.6c-0.1,0.2-0.2,0.4-0.4,0.6
					c-0.2,0.2-0.3,0.4-0.5,0.5c-0.2,0.2-0.4,0.3-0.6,0.5c-0.2,0.1-0.3,0.4-0.5,0.6c-0.2,0.1-0.4,0.2-0.7,0.3
					c-0.2,0.1-0.5,0.1-0.7,0.2c-0.2,0.1-0.5,0-0.7,0.1c-0.2,0-0.4,0.2-0.7,0.3c-0.2,0-0.5-0.1-0.7-0.1c-0.2,0-0.5,0.1-0.7,0.1
					c-0.2,0-0.5,0-0.7,0c-0.2,0-0.5,0.1-0.7,0.1c-0.2,0-0.5-0.2-0.7-0.2c-0.2,0-0.5,0.1-0.7,0.1c-0.2,0-0.4-0.3-0.7-0.4
					c-0.2,0-0.5,0.1-0.7,0c-0.2-0.1-0.4-0.3-0.6-0.4c-0.2-0.1-0.5,0-0.7-0.1c-0.2-0.1-0.5,0-0.7-0.1c-0.2-0.1-0.3-0.4-0.6-0.5
					c-0.2-0.1-0.5-0.2-0.7-0.3c-0.2-0.1-0.5-0.2-0.7-0.3c-0.2-0.1-0.4-0.2-0.6-0.4c-0.2-0.1-0.4-0.3-0.6-0.4
					c-0.2-0.1-0.2-0.5-0.4-0.6c-0.2-0.2-0.5-0.2-0.6-0.4c-0.2-0.2-0.3-0.3-0.5-0.5c-0.2-0.2-0.4-0.3-0.5-0.5
					c-0.2-0.2-0.3-0.4-0.4-0.6c-0.1-0.2-0.3-0.4-0.4-0.6c-0.1-0.2-0.2-0.4-0.3-0.6c-0.1-0.2-0.1-0.5-0.2-0.7
					c-0.1-0.2-0.4-0.3-0.5-0.5c-0.1-0.2-0.1-0.5-0.2-0.7c-0.1-0.2-0.3-0.4-0.3-0.6c-0.1-0.2-0.1-0.5-0.1-0.7
					c-0.1-0.3-0.1-0.5-0.2-0.7c-0.1-0.4-0.6-0.4-0.5-0.7c0.2-0.1,0.6-0.1,0.8-0.2c0.2-0.1,0.5-0.1,0.7-0.2c0.2-0.1,0.4-0.2,0.6-0.3
					c0.2-0.1,0.4-0.3,0.6-0.4c0.2-0.1,0.4-0.3,0.6-0.4c0.2-0.1,0.5-0.1,0.7-0.3c0.2-0.1,0.4-0.3,0.6-0.4c0.2-0.2,0.3-0.3,0.5-0.5
					c0.2-0.2,0.3-0.4,0.4-0.6c0.2-0.2,0.4-0.3,0.5-0.5c0.2-0.2,0.3-0.4,0.4-0.6c0.1-0.2,0.3-0.4,0.4-0.6c0.1-0.2,0.3-0.4,0.4-0.6
					c0.1-0.2,0.2-0.4,0.4-0.6c0.1-0.2,0.1-0.5,0.2-0.7c0.1-0.2,0.5-0.3,0.6-0.5c0.1-0.2,0-0.5,0.1-0.8c0.1-0.2,0.4-0.3,0.5-0.6
					c0.1-0.2,0.1-0.5,0.2-0.7c0.1-0.2-0.1-0.5,0-0.8c0.1-0.2,0.3-0.4,0.3-0.7c0.1-0.2,0.2-0.4,0.3-0.7c0.1-0.2,0.1-0.5,0.1-0.7
					c0-0.2,0-0.5,0-0.7c0-0.2,0-0.5,0-0.7c0-0.2,0.1-0.5,0.1-0.7c0-0.2-0.1-0.5-0.1-0.7c0-0.2,0.2-0.5,0.2-0.7
					c0-0.4-0.1-0.4-0.1-0.7c0-0.4-0.1-0.4-0.1-0.7c0-0.4,0.1-0.4,0.1-0.7c0-0.4,0.1-0.4,0.1-0.7c0-0.4-0.2-0.4-0.2-0.7
					c0-0.4,0.2-0.4,0.2-0.7c0-0.4-0.2-0.4-0.2-0.7c0-0.4,0-0.4,0-0.7c0-0.4,0.1-0.4,0.1-0.7c0-0.4,0-0.4,0-0.7
					c0-0.4-0.2-0.4-0.2-0.7c0-0.4,0.3-0.4,0.3-0.7c0-0.4-0.1-0.4-0.1-0.7c0-0.4,0.2-0.4,0.2-0.7c0-0.4-0.2-0.4-0.2-0.7
					c0-0.4,0.2-0.4,0.2-0.7c0-0.4,0-0.4,0-0.7c0-0.4-0.3-0.4-0.3-0.7c0-0.4,0.1-0.4,0.1-0.7c0-0.4,0.1-0.4,0.1-0.7
					c0-0.4,0-0.4,0-0.7c0-0.4,0-0.4,0-0.7c0-0.4-0.1-0.4-0.1-0.7c0-0.4,0.1-0.4,0.1-0.7c0-0.4,0-0.4,0-0.7c0-0.4,0-0.4,0-0.7
					c0-0.4,0-0.4,0-0.7c0-0.4,0-0.4,0-0.7c0-0.4,0.1-0.4,0.1-0.7c0-0.4-0.1-0.4-0.1-0.7c0-0.4,0.1-0.4,0.1-0.7c0-0.4,0-0.4,0-0.7
					c0-0.4-0.1-0.4-0.1-0.7c0-0.4,0.1-0.4,0.1-0.7c0-0.4-0.2-0.4-0.2-0.7c0-0.4,0-0.4,0-0.7c0-0.4,0-0.4,0-0.7c0-0.4,0-0.4,0-0.7
					c0-0.4,0-0.4,0-0.7c0-0.4-0.1-0.4-0.1-0.7c0-0.4,0.1-0.4,0.1-0.7c0-0.4,0-0.4,0-0.7s0.1-0.4,0.1-0.7c0-0.4-0.1-0.4-0.1-0.7
					c0-0.4,0-0.4,0-0.7c0-0.4,0.1-0.4,0.1-0.7c0-0.4-0.2-0.4-0.2-0.7c0-0.4,0.2-0.4,0.2-0.7c0-0.4,0.1-0.4,0.1-0.7
					c0-0.4-0.2-0.4-0.2-0.7c0-0.4-0.1-0.4-0.1-0.7c0-0.2,0.2-0.5,0.2-0.7c0-0.2,0-0.5,0-0.7c0-0.2-0.1-0.5-0.1-0.7
					c0-0.2,0.2-0.5,0.2-0.7c0-0.2-0.2-0.5-0.2-0.7c0-0.2,0-0.5,0-0.7c0-0.2,0.2-0.5,0.2-0.7c0-0.2,0-0.5,0-0.7
					c0-0.2,0.2-0.5,0.2-0.7c0-0.2-0.2-0.5-0.2-0.7c0-0.2,0-0.5,0-0.7c0-0.2,0.2-0.5,0.2-0.7c0-0.2,0-0.5,0-0.7c0-0.2,0-0.5,0.1-0.7
					c0-0.2,0.4-0.4,0.4-0.7c0-0.2,0-0.5,0-0.7c0-0.2,0-0.5,0-0.7c0-0.2,0.2-0.4,0.3-0.7c0-0.2,0-0.5,0.1-0.7c0.1-0.2,0-0.5,0-0.7
					c0.1-0.2,0.3-0.4,0.4-0.6c0.1-0.2,0-0.5,0.1-0.7c0.1-0.2,0-0.5,0.1-0.7c0.1-0.2,0.2-0.4,0.3-0.7c0.1-0.2,0.2-0.4,0.3-0.7
					c0.1-0.2,0-0.5,0.1-0.7c0.1-0.2,0.3-0.4,0.3-0.6c0.1-0.2,0.1-0.5,0.2-0.7c0.1-0.2,0.2-0.4,0.2-0.7c0.1-0.2,0-0.5,0.1-0.7
					c0.1-0.2,0.1-0.5,0.2-0.7c0.1-0.2,0.4-0.4,0.5-0.6c0.1-0.2,0-0.5,0-0.8c0.1-0.2,0.2-0.4,0.3-0.6c0.1-0.2,0.3-0.4,0.4-0.6
					c0.1-0.2,0.2-0.4,0.3-0.7c0.1-0.2,0.2-0.4,0.3-0.7c0.1-0.2,0.1-0.5,0.2-0.7c0.1-0.2,0.2-0.5,0.3-0.7c0.1-0.2,0.3-0.4,0.4-0.6
					c0.1-0.2,0.2-0.4,0.3-0.6c0.1-0.2,0.2-0.5,0.3-0.7c0.1-0.2,0.4-0.3,0.5-0.5c0.1-0.2,0.2-0.4,0.3-0.7c0.1-0.2,0.2-0.5,0.3-0.7
					c0.1-0.2,0.2-0.4,0.3-0.6c0.1-0.2,0.3-0.4,0.4-0.6c0.1-0.2,0.2-0.4,0.3-0.7c0.1-0.2,0.2-0.4,0.4-0.6c0.1-0.2,0.2-0.4,0.3-0.6
					c0.1-0.2,0.3-0.3,0.5-0.5c0.1-0.2,0.3-0.4,0.5-0.6c0.1-0.2,0.3-0.4,0.4-0.6c0.1-0.2,0.2-0.5,0.3-0.6c0.1-0.2,0.3-0.4,0.4-0.6
					c0.1-0.2,0.2-0.5,0.3-0.7c0.1-0.2,0.3-0.4,0.4-0.6c0.1-0.2,0.5-0.2,0.6-0.4c0.1-0.2,0.1-0.5,0.2-0.7c0.1-0.2,0.4-0.3,0.5-0.5
					c0.2-0.2,0.4-0.3,0.6-0.5c0.2-0.2,0.1-0.5,0.2-0.7c0.2-0.2,0.3-0.4,0.5-0.5c0.2-0.2,0.4-0.3,0.6-0.4c0.2-0.2,0.2-0.5,0.3-0.7
					c0.2-0.2,0.5-0.2,0.6-0.4c0.2-0.2,0.4-0.3,0.5-0.5c0.2-0.2,0.3-0.3,0.5-0.5c0.2-0.2,0.2-0.5,0.4-0.6s0.4-0.2,0.6-0.4
					c0.2-0.2,0.3-0.3,0.5-0.5c0.2-0.2,0.2-0.5,0.4-0.7c0.2-0.2,0.4-0.3,0.6-0.4c0.2-0.2,0.3-0.4,0.4-0.6c0.2-0.2,0.5-0.2,0.6-0.4
					c0.2-0.2,0.3-0.4,0.4-0.6c0.2-0.2,0.5-0.1,0.7-0.3c0.2-0.2,0.3-0.4,0.5-0.5c0.2-0.2,0.4-0.2,0.6-0.4c0.2-0.2,0.2-0.5,0.4-0.6
					c0.2-0.1,0.5-0.2,0.7-0.3c0.2-0.1,0.3-0.4,0.5-0.5c0.2-0.1,0.4-0.3,0.5-0.5c0.2-0.1,0.4-0.3,0.6-0.4c0.2-0.1,0.5-0.2,0.7-0.3
					c0.2-0.1,0.3-0.3,0.5-0.5c0.2-0.1,0.4-0.2,0.6-0.3c0.2-0.1,0.4-0.2,0.6-0.4c0.2-0.1,0.4-0.3,0.6-0.4c0.2-0.1,0.3-0.4,0.5-0.6
					c0.2-0.1,0.6,0,0.8-0.1c0.2-0.1,0.4-0.2,0.6-0.4c0.2-0.1,0.3-0.4,0.6-0.5c0.2-0.1,0.4-0.3,0.6-0.4c0.2-0.1,0.4-0.2,0.6-0.3
					c0.2-0.1,0.5-0.1,0.7-0.2c0.2-0.1,0.3-0.4,0.6-0.5c0.2-0.1,0.5-0.1,0.7-0.2c0.2-0.1,0.4-0.2,0.7-0.3c0.2-0.1,0.5-0.1,0.7-0.2
					c0.2-0.1,0.4-0.4,0.6-0.5c0.2-0.1,0.5-0.1,0.7-0.2c0.2-0.1,0.5-0.1,0.7-0.2c0.2-0.1,0.4-0.3,0.6-0.4c0.2-0.1,0.5-0.1,0.7-0.2
					c0.2-0.1,0.4-0.3,0.6-0.4c0.2-0.1,0.5-0.1,0.7-0.2c0.2-0.1,0.4-0.2,0.6-0.3c0.2-0.1,0.5-0.1,0.7-0.1c0.2-0.1,0.5-0.1,0.7-0.2
					c0.2-0.1,0.4-0.2,0.7-0.3c0.2-0.1,0.5-0.1,0.7-0.1c0.2-0.1,0.4-0.2,0.7-0.3c0.2-0.1,0.4-0.2,0.7-0.3c0.2-0.1,0.5-0.1,0.7-0.2
					c0.2-0.1,0.4-0.2,0.7-0.2c0.2-0.1,0.5-0.1,0.7-0.2c0.2-0.1,0.5-0.1,0.7-0.2c0.2-0.1,0.5,0,0.7,0c0.2-0.1,0.5-0.1,0.7-0.1
					c0.2-0.1,0.4-0.4,0.6-0.4c0.2,0,0.5,0,0.7-0.1c0.2,0,0.5-0.1,0.7-0.2c0.2,0,0.5,0.1,0.7,0c0.2,0,0.5-0.2,0.7-0.2
					c0.2,0,0.5,0.1,0.7,0.1c0.2,0,0.5-0.2,0.7-0.2c0.2,0,0.5-0.1,0.7-0.1c0.2,0,0.5-0.1,0.7-0.1c0.2,0,0.5-0.2,0.7-0.2
					c0.2,0,0.5,0.2,0.7,0.2c0.2,0,0.5-0.1,0.7-0.1c0.2,0,0.5-0.2,0.7-0.2c0.2,0,0.5,0.2,0.7,0.1c0.2,0,0.5-0.1,0.7-0.1
					c0.2,0,0.5-0.1,0.7-0.1c0.2,0,0.5-0.1,0.7-0.1c0.2,0,0.5,0,0.7,0c0.2,0,0.5,0.1,0.7,0.1c0.5,0,0.5-0.1,1-0.1
					c0.2,0,0.5,0.1,0.7,0.1c0.2,0,0.5-0.1,0.7-0.1c0.2,0,0.5,0.1,0.7,0.1c0.2,0,0.5,0.1,0.7,0.1c0.2,0,0.5,0,0.7,0.1
					c0.2,0,0.5-0.2,0.7-0.1c0.2,0,0.5,0.2,0.7,0.2c0.2,0,0.5-0.1,0.7-0.1c0.2,0,0.5,0.2,0.7,0.2c0.2,0,0.5-0.1,0.7-0.1
					c0.2,0,0.5,0.2,0.7,0.2c0.2,0,0.5,0.2,0.7,0.2c0.2,0,0.5-0.1,0.7-0.1c0.2,0,0.5,0.2,0.7,0.2c0.2,0,0.5,0,0.7,0.1
					c0.2,0,0.5,0.2,0.7,0.2c0.2,0,0.5,0,0.7,0c0.2,0,0.4,0.2,0.7,0.3c0.2,0,0.5-0.1,0.7,0c0.2,0.1,0.4,0.2,0.7,0.3
					c0.2,0.1,0.5-0.1,0.7,0c0.2,0.1,0.5,0.1,0.7,0.2c0.2,0.1,0.5,0.2,0.7,0.2c0.2,0.1,0.5,0.1,0.7,0.1c0.2,0.1,0.4,0.3,0.7,0.3
					c0.2,0.1,0.4,0.2,0.7,0.3c0.2,0.1,0.5-0.1,0.7,0c0.2,0.1,0.4,0.3,0.6,0.4c0.2,0.1,0.4,0.2,0.7,0.3c0.2,0.1,0.5,0,0.7,0.1
					c0.2,0.1,0.4,0.3,0.6,0.3c0.2,0.1,0.4,0.2,0.6,0.3c0.2,0.1,0.5-0.1,0.8,0c0.2,0.1,0.4,0.3,0.6,0.3c0.2,0.1,0.4,0.3,0.6,0.4
					c0.2,0.1,0.5,0.1,0.7,0.2c0.2,0.1,0.4,0.3,0.6,0.4c0.2,0.1,0.5,0.2,0.7,0.3c0.2,0.1,0.4,0.2,0.6,0.3c0.2,0.1,0.5,0,0.8,0.1
					c0.2,0.1,0.4,0.3,0.6,0.4c0.2,0.1,0.4,0.3,0.6,0.4c0.2,0.1,0.4,0.2,0.6,0.3c0.2,0.1,0.4,0.2,0.6,0.3c0.2,0.1,0.5,0.1,0.7,0.2
					c0.2,0.1,0.3,0.4,0.5,0.5c0.2,0.1,0.5,0.2,0.7,0.3c0.2,0.1,0.4,0.3,0.6,0.4c0.2,0.1,0.5,0.1,0.7,0.2c0.2,0.1,0.4,0.3,0.6,0.4
					c0.2,0.1,0.4,0.3,0.6,0.5c0.2,0.1,0.4,0.3,0.6,0.4c0.2,0.1,0.4,0.2,0.6,0.4c0.2,0.1,0.4,0.3,0.5,0.5c0.2,0.1,0.4,0.2,0.6,0.3
					c0.2,0.1,0.3,0.4,0.5,0.6c0.2,0.1,0.5,0.1,0.7,0.3c0.2,0.1,0.3,0.4,0.4,0.6c0.2,0.1,0.5,0.1,0.7,0.3c0.2,0.1,0.3,0.4,0.4,0.6
					c0.2,0.2,0.4,0.3,0.6,0.5c0.2,0.2,0.5,0.2,0.7,0.3c0.2,0.2,0.2,0.5,0.4,0.6c0.2,0.2,0.5,0.2,0.6,0.4c0.2,0.2,0.4,0.3,0.5,0.5
					c0.2,0.2,0.2,0.4,0.4,0.6c0.2,0.2,0.5,0.2,0.7,0.3c0.2,0.2,0.4,0.3,0.6,0.5c0.2,0.2,0.2,0.5,0.4,0.6c0.2,0.2,0.4,0.3,0.5,0.5
					c0.2,0.2,0.3,0.4,0.4,0.6c0.2,0.2,0.5,0.2,0.7,0.4c0.2,0.2,0.2,0.5,0.3,0.7c0.2,0.2,0.4,0.3,0.5,0.5c0.2,0.2,0.4,0.3,0.6,0.5
					c0.2,0.2,0.3,0.4,0.5,0.5c0.2,0.2,0.3,0.4,0.4,0.6c0.2,0.2,0.2,0.4,0.4,0.6c0.2,0.2,0.4,0.3,0.5,0.5c0.2,0.2,0.3,0.4,0.4,0.6
					c0.1,0.2,0.3,0.4,0.4,0.6c0.1,0.2,0.2,0.4,0.4,0.6c0.1,0.2,0.3,0.4,0.5,0.5c0.1,0.2,0.2,0.4,0.4,0.6c0.1,0.2,0.3,0.4,0.4,0.6
					c0.1,0.2,0.3,0.4,0.4,0.6c0.1,0.2,0.4,0.3,0.5,0.5c0.1,0.2,0.2,0.4,0.4,0.6c0.1,0.2,0.3,0.4,0.4,0.6c0.1,0.2,0.1,0.5,0.3,0.7
					c0.1,0.2,0.4,0.3,0.6,0.5c0.1,0.2,0.1,0.5,0.3,0.7c0.1,0.2,0.2,0.5,0.3,0.7c0.1,0.2,0.3,0.4,0.4,0.6c0.1,0.2,0.2,0.4,0.3,0.7
					c0.1,0.2,0.4,0.3,0.5,0.6c0.1,0.2,0.2,0.4,0.3,0.6c0.1,0.2,0,0.5,0.1,0.7c0.1,0.2,0.3,0.4,0.4,0.6c0.1,0.2,0.3,0.4,0.4,0.6
					c0.1,0.2,0.1,0.5,0.2,0.7c0.1,0.2,0.3,0.4,0.4,0.6c0.1,0.2,0,0.5,0.1,0.7c0.1,0.2,0.3,0.4,0.4,0.6c0.1,0.2,0.2,0.4,0.3,0.7
					c0.1,0.2,0.3,0.4,0.4,0.6c0.1,0.2,0.1,0.5,0.2,0.7c0.1,0.2,0.2,0.4,0.3,0.7c0.1,0.2,0.1,0.5,0.1,0.7c0.1,0.2,0.1,0.5,0.2,0.7
					c0.1,0.2,0.4,0.4,0.5,0.6c0.1,0.2,0.1,0.5,0.1,0.7c0.1,0.2,0,0.5,0.1,0.7c0.1,0.2,0.2,0.4,0.3,0.7c0.1,0.2,0.2,0.4,0.3,0.7
					c0.1,0.2,0.1,0.5,0.1,0.7c0.1,0.2,0.2,0.5,0.2,0.7c0.1,0.2,0,0.5,0,0.7c0.1,0.2,0.2,0.4,0.3,0.7c0.1,0.2,0.2,0.4,0.3,0.7
					c0.1,0.2-0.1,0.5,0,0.7c0,0.2,0.1,0.5,0.1,0.7c0,0.2,0.3,0.4,0.4,0.7c0,0.2-0.1,0.5,0,0.7c0,0.2,0.1,0.5,0.2,0.7
					c0,0.2,0.1,0.5,0.1,0.7c0,0.2,0.1,0.5,0.2,0.7c0,0.2-0.1,0.5-0.1,0.7c0,0.2,0.3,0.4,0.3,0.7c0,0.2-0.2,0.5-0.2,0.7
					c0,0.2,0.2,0.5,0.2,0.7c0,0.2-0.1,0.5-0.1,0.7c0,0.2,0.3,0.5,0.3,0.7c0,0.2-0.1,0.5-0.1,0.7c0,0.2,0.1,0.5,0.1,0.7
					c0,0.2-0.1,0.5-0.1,0.7c0,0.2,0,0.5,0,0.7c0,0.2,0.1,0.5,0.1,0.7s0.1,0.5,0.1,0.7c0,0.4,0,0.4,0,0.7c0,0.4-0.2,0.4-0.2,0.7
					c0,0.4,0,0.4,0,0.7c0,0.4,0.1,0.4,0.1,0.7c0,0.4-0.1,0.4-0.1,0.7c0,0.4,0,0.4,0,0.7c0,0.4,0.1,0.4,0.1,0.7
					c0,0.4-0.1,0.4-0.1,0.7c0,0.4,0.1,0.4,0.1,0.7c0,0.4,0.1,0.4,0.1,0.7c0,0.4-0.1,0.4-0.1,0.7c0,0.4,0,0.4,0,0.7
					c0,0.4-0.1,0.4-0.1,0.7c0,0.4,0.1,0.4,0.1,0.7c0,0.4,0.1,0.4,0.1,0.7c0,0.4-0.1,0.4-0.1,0.7c0,0.4,0.1,0.4,0.1,0.7
					c0,0.4,0,0.4,0,0.7c0,0.4-0.1,0.4-0.1,0.7c0,0.4-0.1,0.4-0.1,0.7c0,0.4,0.2,0.4,0.2,0.7c0,0.4,0,0.4,0,0.7
					c0,0.4-0.1,0.4-0.1,0.7c0,0.4-0.1,0.4-0.1,0.7c0,0.4,0.1,0.4,0.1,0.7c0,0.4,0,0.4,0,0.7c0,0.4,0.1,0.4,0.1,0.7
					c0,0.4-0.1,0.4-0.1,0.7c0,0.4,0.1,0.4,0.1,0.7c0,0.4-0.1,0.4-0.1,0.7c0,0.4-0.1,0.4-0.1,0.7c0,0.4,0,0.4,0,0.7
					c0,0.4,0.3,0.4,0.3,0.7c0,0.4-0.2,0.4-0.2,0.7c0,0.4,0,0.4,0,0.7c0,0.4-0.1,0.4-0.1,0.7c0,0.4-0.1,0.4-0.1,0.7
					c0,0.4,0.2,0.4,0.2,0.7c0,0.4-0.2,0.4-0.2,0.7c0,0.4,0.1,0.4,0.1,0.7c0,0.4,0.1,0.4,0.1,0.7c0,0.4-0.2,0.4-0.2,0.7s0,0.4,0,0.7
					c0,0.4,0.1,0.4,0.1,0.7c0,0.4-0.1,0.4-0.1,0.7c0,0.4,0.2,0.4,0.2,0.7c0,0.4-0.1,0.4-0.1,0.7c0,0.4,0,0.4,0,0.7
					c0,0.4,0,0.4,0,0.7c0,0.4,0,0.4,0,0.7s0.1,0.4,0.1,0.7c0,0.2,0.1,0.5,0.1,0.7c0,0.2-0.1,0.5-0.1,0.7c0,0.2,0,0.5,0.1,0.7
					c0,0.2,0.3,0.5,0.3,0.7c0,0.2-0.1,0.5,0,0.7c0,0.2,0.1,0.5,0.1,0.7c0.1,0.2,0,0.5,0.1,0.7c0.1,0.2,0.3,0.4,0.4,0.6
					c0.1,0.2,0,0.5,0.1,0.7c0.1,0.2,0.3,0.4,0.4,0.6c0.1,0.2,0.1,0.5,0.2,0.7c0.1,0.2,0.2,0.4,0.3,0.6
					C183.9,168.6,184,168.8,184.1,169z"/>
			</g>
		</g>
	</g>
	<g>
		<path class="st5" d="M102.1,168.7c-0.3,0.2-0.2,0.1-0.6,0.4c-0.2,0.1-0.4,0.3-0.6,0.4c-0.2,0.1-0.4,0.2-0.6,0.3
			c-0.2,0.1-0.4,0.3-0.6,0.4c-0.2,0.1-0.4,0.2-0.6,0.4c-0.2,0.1-0.4,0.3-0.6,0.4c-0.2,0.1-0.4,0.3-0.6,0.4c-0.2,0.1-0.4,0.3-0.6,0.4
			c-0.2,0.1-0.4,0.2-0.6,0.4c-0.2,0.1-0.4,0.3-0.6,0.5c-0.2,0.2-0.4,0.3-0.6,0.4c-0.2,0.2-0.4,0.3-0.5,0.5c-0.2,0.2-0.4,0.3-0.5,0.5
			c-0.2,0.2-0.3,0.4-0.5,0.5c-0.2,0.2-0.4,0.3-0.6,0.5c-0.2,0.2-0.3,0.4-0.4,0.6c-0.2,0.2-0.3,0.4-0.5,0.6c-0.1,0.2-0.3,0.4-0.4,0.6
			c-0.1,0.2-0.3,0.4-0.4,0.6"/>
	</g>
	<g>
		<path class="st5" d="M150.4,176.5c-0.2,0.3-0.4,0-0.7,0.4c-0.1,0.2-0.1,0.5-0.3,0.7c-0.2,0.2-0.3,0.3-0.5,0.5
			c-0.2,0.2-0.4,0.3-0.6,0.5c-0.2,0.2-0.4,0.3-0.6,0.4c-0.2,0.1-0.3,0.4-0.5,0.5c-0.2,0.1-0.4,0.3-0.6,0.4c-0.2,0.1-0.4,0.3-0.6,0.5
			c-0.2,0.1-0.5,0.1-0.7,0.2c-0.2,0.1-0.3,0.4-0.5,0.5c-0.2,0.1-0.5,0.1-0.7,0.2c-0.2,0.1-0.5,0.1-0.7,0.3c-0.2,0.1-0.3,0.5-0.5,0.6
			c-0.2,0.1-0.5,0-0.7,0.1c-0.2,0.1-0.4,0.3-0.6,0.4c-0.2,0.1-0.4,0.2-0.7,0.3c-0.2,0.1-0.4,0.3-0.6,0.4c-0.2,0.1-0.4,0.2-0.7,0.3
			c-0.2,0.1-0.5-0.1-0.8,0c-0.2,0.1-0.4,0.3-0.6,0.4c-0.2,0.1-0.5,0.2-0.7,0.2c-0.2,0.1-0.5,0-0.7,0.1c-0.2,0.1-0.4,0.2-0.7,0.3
			c-0.2,0.1-0.5,0.2-0.7,0.2c-0.2,0.1-0.5,0.1-0.7,0.2c-0.2,0.1-0.5,0.1-0.7,0.1c-0.2,0-0.5,0.1-0.7,0.2c-0.2,0-0.5-0.1-0.8-0.1
			c-0.2,0-0.5,0.2-0.7,0.2c-0.2,0-0.5,0.1-0.7,0.1c-0.2,0-0.5,0.2-0.7,0.2c-0.2,0-0.5-0.1-0.7-0.1c-0.2,0-0.5,0.1-0.7,0.1
			c-0.2,0-0.5-0.1-0.7-0.1c-0.2,0-0.5,0-0.7,0c-0.2,0-0.5,0-0.7,0c-0.2,0-0.5,0.1-0.7,0.1c-0.2,0-0.5,0-0.7,0s-0.5,0.1-0.7,0.1
			c-0.1,0-0.1-0.1-0.2-0.1c-0.2,0-0.5,0-0.7,0c-0.2,0-0.5,0-0.7,0c-0.2,0-0.5,0.1-0.7,0.1c-0.2,0-0.5-0.3-0.7-0.3
			c-0.2,0-0.5,0.3-0.7,0.3c-0.2,0-0.5-0.4-0.7-0.4c-0.2,0-0.5,0.1-0.7,0.1c-0.2,0-0.5-0.1-0.7-0.2c-0.2,0-0.5,0-0.7,0
			c-0.2,0-0.5,0.1-0.7,0.1c-0.2,0-0.5-0.3-0.7-0.3c-0.2,0-0.5,0-0.7,0c-0.2,0-0.5-0.2-0.7-0.3c-0.2,0-0.5,0-0.7,0
			c-0.2-0.1-0.4-0.3-0.7-0.4c-0.2-0.1-0.5,0-0.7-0.1c-0.2-0.1-0.5-0.1-0.7-0.1c-0.2-0.1-0.5,0.1-0.8,0c-0.2-0.1-0.5-0.2-0.7-0.2
			c-0.2-0.1-0.5-0.1-0.7-0.2c-0.2-0.1-0.5-0.1-0.7-0.2c-0.2-0.1-0.3-0.5-0.6-0.6c-0.2-0.1-0.5-0.1-0.7-0.2c-0.2-0.1-0.5-0.1-0.7-0.2
			c-0.2-0.1-0.4-0.3-0.6-0.4c-0.2-0.1-0.5-0.2-0.7-0.3c-0.2-0.1-0.4-0.2-0.7-0.3c-0.2-0.1-0.4-0.2-0.6-0.3c-0.2-0.1-0.4-0.4-0.6-0.5
			c-0.2-0.1-0.6,0.1-0.8,0c-0.2-0.1-0.4-0.4-0.6-0.5c-0.2-0.1-0.3-0.5-0.5-0.6c-0.2-0.1-0.5-0.1-0.7-0.3c-0.2-0.2-0.4-0.3-0.6-0.5
			c-0.2-0.2-0.4-0.3-0.6-0.5c-0.2-0.2-0.3-0.4-0.5-0.5c-0.2-0.2-0.2-0.5-0.4-0.6c-0.2-0.2-0.4-0.3-0.5-0.5c-0.3-0.3-0.3-0.2-0.5-0.5
			"/>
	</g>
	<g>
		<path class="st5" d="M146.7,123.8c-0.3-0.1-0.2-0.1-0.7-0.2c-0.2-0.1-0.5,0-0.7-0.1c-0.2-0.1-0.4-0.3-0.6-0.4
			c-0.2-0.1-0.5-0.1-0.7-0.1c-0.2-0.1-0.5,0.1-0.7,0c-0.2-0.1-0.4-0.2-0.7-0.3c-0.2-0.1-0.4-0.1-0.7-0.2c-0.2-0.1-0.5-0.1-0.7-0.2
			c-0.2-0.1-0.5,0-0.7-0.1c-0.2-0.1-0.4-0.3-0.6-0.4c-0.2-0.1-0.5-0.1-0.7-0.2c-0.2-0.1-0.5,0.1-0.7,0.1c-0.2,0-0.4-0.2-0.7-0.3
			c-0.2,0-0.5,0-0.7-0.1c-0.2,0-0.5,0-0.7,0c-0.2,0-0.4-0.2-0.7-0.3c-0.2,0-0.4-0.2-0.7-0.3c-0.2,0-0.5,0-0.7,0c-0.2,0-0.5,0-0.7,0
			c-0.2,0-0.5,0-0.7-0.1c-0.2,0-0.4-0.3-0.7-0.3c-0.2,0-0.5,0-0.7,0c-0.2,0-0.5,0-0.7,0c-0.2,0-0.5-0.1-0.7-0.1
			c-0.2,0-0.5,0.1-0.7,0.1c-0.2,0-0.5-0.2-0.7-0.2c-0.2,0-0.5-0.1-0.7-0.2c-0.2,0-0.5,0.2-0.7,0.1c-0.2,0-0.5-0.1-0.7-0.1
			c-0.2,0-0.5,0.1-0.7,0.1c-0.2,0-0.5-0.1-0.7-0.1c-0.2,0-0.5,0-0.7,0c-0.2,0-0.5,0-0.7,0c-0.2,0-0.5-0.1-0.7-0.1
			c-0.2,0-0.5-0.1-0.7,0c-0.2,0-0.5,0.2-0.7,0.2c-0.2,0-0.5-0.1-0.7-0.1c-0.2,0-0.5,0-0.7,0c-0.2,0-0.5,0-0.7,0
			c-0.2,0-0.5,0-0.7,0.1c-0.2,0-0.5,0.3-0.7,0.3c-0.2,0-0.5,0-0.7,0c-0.2,0-0.5-0.1-0.7,0c-0.2,0-0.5,0.1-0.7,0.1
			c-0.2,0-0.5,0.1-0.7,0.2c-0.2,0-0.5,0.2-0.7,0.2c-0.2,0-0.5-0.1-0.7,0c-0.2,0-0.4,0.3-0.7,0.3c-0.2,0-0.5-0.1-0.7,0
			c-0.2,0-0.5,0.2-0.7,0.2c-0.2,0-0.5,0.1-0.7,0.1c-0.2,0.1-0.5,0-0.7,0.1c-0.2,0.1-0.5,0.1-0.7,0.2c-0.2,0.1-0.4,0.3-0.7,0.3
			c-0.2,0.1-0.5,0.1-0.7,0.1c-0.2,0.1-0.5,0-0.7,0.1c-0.2,0.1-0.4,0.2-0.7,0.3c-0.2,0.1-0.4,0.2-0.7,0.3c-0.2,0.1-0.4,0.2-0.7,0.2
			c-0.2,0.1-0.5,0.1-0.7,0.1c-0.2,0.1-0.5,0.1-0.7,0.1c-0.2,0.1-0.4,0.2-0.7,0.3c-0.3,0.1-0.5,0.2-0.7,0.3c-0.4,0.1-0.4-0.1-0.7,0"
			/>
	</g>
	<g>
		<path class="st5" d="M173.7,189.1c0.2,0.1,0.4,0.3,0.6,0.4c0.2,0.1,0.5,0.1,0.7,0.2c0.2,0.1,0.4,0.3,0.6,0.4
			c0.2,0.1,0.4,0.2,0.7,0.3c0.2,0.1,0.5,0.2,0.7,0.2c0.2,0.1,0.5,0,0.7,0.1c0.2,0.1,0.4,0.4,0.6,0.4c0.2,0.1,0.5,0.1,0.7,0.1
			c0.2,0.1,0.5,0.1,0.7,0.1c0.2,0.1,0.5,0,0.7,0c0.2,0,0.5,0.1,0.7,0.1c0.2,0,0.5,0,0.7,0c0.2,0,0.5,0.1,0.7,0.2
			c0.2,0,0.5,0.2,0.7,0.2c0.2,0,0.5,0.1,0.7,0.1c0.2,0,0.5-0.2,0.7-0.2c0.2,0,0.5,0.1,0.7,0.1c0.2,0,0.5-0.2,0.7-0.2
			c0.2,0,0.5,0.1,0.7,0c0.2,0,0.4-0.3,0.7-0.3c0.2-0.1,0.4-0.2,0.7-0.2c0.2-0.1,0.5,0.1,0.7,0c0.2-0.1,0.4-0.3,0.6-0.4
			c0.2-0.1,0.4-0.2,0.7-0.3c0.2-0.1,0.4-0.3,0.6-0.4c0.2-0.1,0.5-0.1,0.7-0.2c0.2-0.1,0.3-0.4,0.5-0.5c0.2-0.1,0.5-0.2,0.7-0.3
			c0.2-0.1,0.2-0.5,0.4-0.6c0.2-0.2,0.5-0.2,0.6-0.4c0.2-0.2,0.3-0.4,0.5-0.5c0.2-0.2,0.4-0.3,0.5-0.5c0.2-0.2,0.1-0.5,0.3-0.7
			c0.1-0.2,0.3-0.4,0.4-0.6c0.1-0.2,0.4-0.3,0.5-0.5c0.1-0.2,0.1-0.5,0.2-0.7c0.1-0.2,0.3-0.4,0.4-0.6c0.1-0.2,0.2-0.4,0.3-0.6
			c0.1-0.2,0.3-0.4,0.4-0.6c0.1-0.2,0.1-0.5,0.2-0.7c0.1-0.3,0.2-0.5,0.3-0.6c0.1-0.4,0.3-0.4,0.1-0.7c-0.2-0.1-0.4-0.1-0.7-0.2
			c-0.2-0.1-0.5-0.1-0.7-0.2c-0.2-0.1-0.4-0.2-0.6-0.3c-0.2-0.1-0.3-0.4-0.5-0.5c-0.2-0.1-0.4-0.2-0.6-0.4c-0.2-0.1-0.5-0.1-0.7-0.3
			c-0.2-0.1-0.4-0.3-0.5-0.4c-0.2-0.2-0.4-0.3-0.6-0.4c-0.2-0.2-0.4-0.3-0.5-0.5c-0.2-0.2-0.2-0.5-0.4-0.6c-0.2-0.2-0.4-0.3-0.6-0.4
			c-0.1-0.2-0.1-0.5-0.2-0.7c-0.1-0.2-0.3-0.4-0.4-0.6c-0.1-0.2-0.4-0.3-0.5-0.5c-0.1-0.2-0.2-0.4-0.3-0.6c-0.1-0.2-0.3-0.4-0.4-0.6
			c-0.1-0.2-0.3-0.4-0.4-0.6c-0.1-0.2,0-0.5-0.1-0.8c-0.1-0.2-0.3-0.4-0.3-0.7c-0.1-0.2-0.1-0.5-0.2-0.7c-0.1-0.2-0.2-0.4-0.3-0.7
			c-0.1-0.2-0.1-0.5-0.2-0.7c-0.1-0.2-0.1-0.5-0.1-0.7c0-0.2-0.1-0.5-0.2-0.7c0-0.2,0-0.5,0-0.7c0-0.2,0-0.5,0-0.7
			c0-0.2,0.1-0.5,0.1-0.7c0-0.2-0.1-0.5-0.1-0.7c0-0.4,0.1-0.4,0.1-0.7c0-0.4-0.3-0.4-0.3-0.7c0-0.4,0.2-0.4,0.2-0.7
			c0-0.4-0.2-0.4-0.2-0.7c0-0.4,0-0.4,0-0.7c0-0.4,0.1-0.4,0.1-0.7c0-0.4,0-0.4,0-0.7c0-0.4,0.1-0.4,0.1-0.7c0-0.4-0.1-0.4-0.1-0.7
			c0-0.4,0.1-0.4,0.1-0.7c0-0.4-0.1-0.4-0.1-0.7c0-0.4,0-0.4,0-0.7c0-0.4-0.1-0.4-0.1-0.7c0-0.4,0.2-0.4,0.2-0.7
			c0-0.4-0.1-0.4-0.1-0.7c0-0.4,0.2-0.4,0.2-0.7c0-0.4-0.2-0.4-0.2-0.7c0-0.4,0.1-0.4,0.1-0.7c0-0.4-0.1-0.4-0.1-0.7
			c0-0.4,0.2-0.4,0.2-0.7c0-0.4-0.2-0.4-0.2-0.7c0-0.4,0.2-0.4,0.2-0.7c0-0.4-0.2-0.4-0.2-0.7c0-0.4,0.2-0.4,0.2-0.7
			c0-0.4,0-0.4,0-0.7c0-0.4-0.1-0.4-0.1-0.7c0-0.4,0-0.4,0-0.7c0-0.4,0-0.4,0-0.7c0-0.4-0.1-0.4-0.1-0.7c0-0.4,0.1-0.4,0.1-0.7
			c0-0.4-0.1-0.4-0.1-0.7c0-0.4,0.1-0.4,0.1-0.7c0-0.4,0-0.4,0-0.7c0-0.4,0-0.4,0-0.7c0-0.4-0.1-0.4-0.1-0.7c0-0.4,0.1-0.4,0.1-0.7
			c0-0.4-0.2-0.4-0.2-0.7c0-0.4,0.2-0.4,0.2-0.7c0-0.4-0.2-0.4-0.2-0.7c0-0.4,0.1-0.4,0.1-0.7c0-0.4-0.2-0.4-0.2-0.7
			c0-0.4,0-0.4,0-0.7c0-0.4,0.1-0.4,0.1-0.7c0-0.4,0.1-0.4,0.1-0.7c0-0.4,0.1-0.4,0.1-0.7c0-0.4-0.1-0.4-0.1-0.7
			c0-0.4-0.1-0.4-0.1-0.7c0-0.4-0.1-0.4-0.1-0.7c0-0.4,0.2-0.4,0.2-0.7c0-0.4-0.1-0.4-0.1-0.7c0-0.4,0.1-0.4,0.1-0.7
			c0-0.2,0.1-0.5,0.1-0.7c0-0.2-0.2-0.5-0.2-0.7c0-0.2,0-0.5,0-0.7c0-0.2,0.1-0.5,0.1-0.7c0-0.2-0.1-0.5-0.1-0.7c0-0.2,0-0.5,0-0.7
			c0-0.2,0-0.5,0-0.7c0-0.2,0-0.5-0.1-0.7c0-0.2-0.1-0.5-0.2-0.7c0-0.2,0.1-0.5,0.1-0.7c0-0.2-0.2-0.5-0.2-0.7c0-0.2,0-0.5-0.1-0.7
			c0-0.2-0.2-0.5-0.2-0.7c0-0.2,0-0.5,0-0.7c0-0.2-0.1-0.5-0.2-0.7c0-0.2,0.1-0.5,0.1-0.7c0-0.2-0.2-0.5-0.2-0.7
			c0-0.2-0.1-0.5-0.2-0.7c0-0.2-0.2-0.4-0.3-0.7c-0.1-0.2,0-0.5-0.1-0.7c-0.1-0.2-0.2-0.4-0.3-0.7c-0.1-0.2,0.1-0.5,0-0.7
			c-0.1-0.2-0.3-0.4-0.4-0.6c-0.1-0.2,0-0.5,0-0.7c-0.1-0.2-0.2-0.5-0.2-0.7c-0.1-0.2-0.2-0.4-0.3-0.7c-0.1-0.2,0.1-0.5,0-0.7
			c-0.1-0.2-0.4-0.4-0.4-0.6c-0.1-0.2-0.2-0.4-0.3-0.7c-0.1-0.2-0.2-0.4-0.3-0.7c-0.1-0.2-0.1-0.5-0.2-0.7c-0.1-0.2-0.1-0.5-0.1-0.7
			c-0.1-0.2-0.3-0.4-0.4-0.6c-0.1-0.2,0-0.5-0.1-0.7c-0.1-0.2-0.4-0.3-0.5-0.6c-0.1-0.2,0-0.5-0.1-0.7c-0.1-0.2-0.2-0.4-0.3-0.6
			c-0.1-0.2-0.2-0.4-0.3-0.7c-0.1-0.2-0.3-0.4-0.4-0.6c-0.1-0.2-0.1-0.5-0.2-0.7c-0.1-0.2-0.3-0.4-0.5-0.6c-0.1-0.2-0.2-0.4-0.3-0.7
			c-0.1-0.2-0.2-0.4-0.3-0.7c-0.1-0.2-0.1-0.5-0.2-0.7c-0.1-0.2-0.4-0.3-0.6-0.5c-0.1-0.2-0.1-0.5-0.2-0.7c-0.1-0.2-0.2-0.5-0.3-0.7
			c-0.1-0.2-0.3-0.4-0.4-0.6c-0.1-0.2-0.4-0.3-0.5-0.5c-0.1-0.2-0.2-0.5-0.3-0.7c-0.1-0.2-0.2-0.4-0.4-0.6c-0.1-0.2-0.2-0.4-0.4-0.6
			c-0.1-0.2-0.4-0.3-0.5-0.5c-0.1-0.2-0.3-0.4-0.4-0.6c-0.1-0.2-0.1-0.5-0.3-0.7c-0.1-0.2-0.3-0.4-0.4-0.6c-0.1-0.2-0.4-0.3-0.6-0.5
			c-0.1-0.2-0.2-0.5-0.3-0.7c-0.1-0.2-0.3-0.4-0.4-0.6c-0.1-0.2-0.2-0.5-0.4-0.6c-0.2-0.2-0.5-0.2-0.6-0.4c-0.2-0.2-0.2-0.5-0.4-0.6
			c-0.2-0.2-0.4-0.3-0.5-0.5c-0.2-0.2-0.4-0.3-0.5-0.5c-0.2-0.2-0.2-0.4-0.4-0.6c-0.2-0.2-0.5-0.2-0.6-0.4c-0.2-0.2-0.3-0.3-0.5-0.5
			c-0.2-0.2-0.2-0.5-0.4-0.6c-0.2-0.2-0.4-0.2-0.6-0.4s-0.4-0.3-0.5-0.5c-0.2-0.2-0.2-0.5-0.3-0.7c-0.2-0.2-0.5-0.2-0.7-0.3
			c-0.2-0.2-0.3-0.4-0.4-0.6c-0.2-0.2-0.4-0.3-0.6-0.5c-0.2-0.2-0.4-0.3-0.5-0.5c-0.2-0.2-0.3-0.4-0.5-0.5c-0.2-0.2-0.3-0.4-0.5-0.5
			c-0.2-0.2-0.4-0.2-0.6-0.4c-0.2-0.2-0.4-0.3-0.6-0.5c-0.2-0.2-0.4-0.3-0.5-0.5c-0.2-0.1-0.5-0.2-0.7-0.3c-0.2-0.1-0.3-0.5-0.4-0.6
			c-0.2-0.1-0.5-0.2-0.7-0.3c-0.2-0.1-0.5-0.2-0.6-0.3c-0.2-0.1-0.2-0.5-0.4-0.6c-0.2-0.1-0.4-0.2-0.6-0.4c-0.2-0.1-0.5-0.1-0.7-0.2
			c-0.2-0.1-0.4-0.3-0.6-0.5c-0.2-0.1-0.4-0.3-0.6-0.4c-0.2-0.1-0.3-0.4-0.5-0.5c-0.2-0.1-0.5-0.1-0.7-0.2c-0.2-0.1-0.3-0.4-0.5-0.5
			c-0.2-0.1-0.5-0.1-0.7-0.3c-0.2-0.1-0.4-0.2-0.6-0.3c-0.2-0.1-0.4-0.3-0.6-0.4c-0.2-0.1-0.5-0.1-0.7-0.2c-0.2-0.1-0.5-0.2-0.7-0.3
			c-0.2-0.1-0.3-0.4-0.5-0.6c-0.2-0.1-0.5-0.2-0.7-0.3c-0.2-0.1-0.5-0.1-0.7-0.2c-0.2-0.1-0.4-0.2-0.7-0.3c-0.2-0.1-0.4-0.3-0.6-0.4
			c-0.2-0.1-0.5-0.1-0.7-0.2c-0.2-0.1-0.4-0.3-0.6-0.4c-0.2-0.1-0.5-0.1-0.7-0.1c-0.2-0.1-0.5-0.1-0.7-0.2c-0.2-0.1-0.4-0.4-0.6-0.5
			c-0.2-0.1-0.5,0-0.8,0c-0.2-0.1-0.4-0.4-0.6-0.5c-0.2-0.1-0.5,0-0.7-0.1c-0.2-0.1-0.4-0.2-0.6-0.3c-0.2-0.1-0.5-0.1-0.7-0.2
			c-0.2-0.1-0.5-0.1-0.7-0.1c-0.2-0.1-0.5-0.1-0.7-0.1c-0.2-0.1-0.4-0.2-0.7-0.3c-0.2-0.1-0.5-0.2-0.7-0.2c-0.2-0.1-0.5,0-0.7-0.1
			c-0.2-0.1-0.5-0.1-0.7-0.2c-0.2-0.1-0.4-0.3-0.7-0.4c-0.2-0.1-0.5-0.1-0.7-0.2c-0.2-0.1-0.5,0-0.7,0c-0.2,0-0.5-0.1-0.7-0.1
			c-0.2,0-0.5,0-0.7,0c-0.2,0-0.5-0.1-0.7-0.2c-0.2,0-0.5-0.2-0.7-0.2c-0.2,0-0.5,0-0.7,0c-0.2,0-0.5-0.2-0.7-0.3
			c-0.2,0-0.5,0-0.7-0.1c-0.2,0-0.5,0.1-0.7,0.1c-0.2,0-0.5-0.1-0.7-0.1c-0.2,0-0.5-0.1-0.7-0.1c-0.2,0-0.5,0-0.7,0
			c-0.2,0-0.5-0.2-0.7-0.2c-0.2,0-0.5,0-0.7,0c-0.2,0-0.5,0-0.7,0c-0.2,0-0.5-0.1-0.7-0.1c-0.2,0-0.5,0-0.7,0
			c-0.2,0-0.5,0.1-0.7,0.1c-0.2,0-0.5-0.2-0.7-0.2c-0.5,0-0.5,0-1,0c-0.2,0-0.5-0.1-0.7-0.1c-0.2,0-0.5,0.2-0.7,0.2
			c-0.2,0-0.5,0.1-0.7,0.1c-0.2,0-0.5,0-0.7,0c-0.2,0-0.5-0.1-0.7-0.1c-0.2,0-0.5,0-0.7,0c-0.2,0-0.5,0.2-0.7,0.2
			c-0.2,0-0.5-0.1-0.7,0c-0.2,0-0.5,0.1-0.7,0.1c-0.2,0-0.5-0.1-0.7,0c-0.2,0-0.5,0.2-0.7,0.2c-0.2,0-0.5-0.1-0.7-0.1
			c-0.2,0-0.5,0.1-0.7,0.1c-0.2,0-0.5,0.1-0.7,0.1c-0.2,0-0.5,0.1-0.7,0.2c-0.2,0-0.5,0.2-0.7,0.2c-0.2,0-0.5,0-0.7,0
			c-0.2,0-0.5,0.1-0.7,0.1c-0.2,0-0.5,0.1-0.7,0.1c-0.2,0.1-0.5,0-0.7,0.1c-0.2,0.1-0.4,0.3-0.7,0.3c-0.2,0.1-0.5,0.1-0.7,0.1
			c-0.2,0.1-0.5,0-0.7,0.1c-0.2,0.1-0.4,0.2-0.7,0.3c-0.2,0.1-0.4,0.2-0.7,0.3c-0.2,0.1-0.5,0.1-0.7,0.2c-0.2,0.1-0.5,0.1-0.7,0.2
			c-0.2,0.1-0.4,0.2-0.7,0.3c-0.2,0.1-0.5,0.1-0.7,0.1c-0.2,0.1-0.5,0.2-0.7,0.2c-0.2,0.1-0.5,0.1-0.7,0.2c-0.2,0.1-0.5,0.1-0.7,0.2
			c-0.2,0.1-0.4,0.3-0.6,0.4c-0.2,0.1-0.5,0.1-0.7,0.2c-0.2,0.1-0.4,0.4-0.6,0.5c-0.2,0.1-0.4,0.2-0.7,0.3c-0.2,0.1-0.4,0.2-0.7,0.3
			c-0.2,0.1-0.5,0.1-0.7,0.2c-0.2,0.1-0.4,0.2-0.7,0.3c-0.2,0.1-0.4,0.3-0.6,0.4c-0.2,0.1-0.5,0.1-0.7,0.2c-0.2,0.1-0.4,0.2-0.6,0.3
			c-0.2,0.1-0.4,0.3-0.6,0.5c-0.2,0.1-0.4,0.3-0.6,0.4c-0.2,0.1-0.5,0-0.7,0.1c-0.2,0.1-0.3,0.4-0.5,0.6c-0.2,0.1-0.4,0.2-0.6,0.3
			c-0.2,0.1-0.5,0.1-0.7,0.2c-0.2,0.1-0.3,0.4-0.5,0.5c-0.2,0.1-0.5,0.1-0.7,0.2c-0.2,0.1-0.3,0.4-0.5,0.5c-0.2,0.1-0.4,0.3-0.6,0.4
			c-0.2,0.1-0.4,0.3-0.6,0.4c-0.2,0.1-0.4,0.3-0.6,0.4c-0.2,0.1-0.4,0.2-0.6,0.4c-0.2,0.1-0.3,0.4-0.5,0.5c-0.2,0.1-0.5,0.1-0.7,0.3
			c-0.2,0.1-0.3,0.4-0.5,0.5c-0.2,0.1-0.4,0.3-0.6,0.4c-0.2,0.1-0.3,0.4-0.5,0.6c-0.2,0.2-0.5,0.1-0.7,0.3c-0.2,0.2-0.3,0.4-0.5,0.5
			c-0.2,0.2-0.4,0.3-0.6,0.4c-0.2,0.2-0.4,0.3-0.6,0.4c-0.2,0.2-0.3,0.4-0.4,0.6c-0.2,0.2-0.5,0.2-0.6,0.4c-0.2,0.2-0.2,0.5-0.4,0.6
			c-0.2,0.2-0.5,0.2-0.7,0.3c-0.2,0.2-0.2,0.5-0.4,0.6c-0.2,0.2-0.5,0.2-0.6,0.4s-0.3,0.4-0.4,0.6c-0.2,0.2-0.3,0.4-0.4,0.6
			c-0.2,0.2-0.4,0.2-0.6,0.4c-0.2,0.2-0.2,0.4-0.4,0.6c-0.2,0.2-0.4,0.2-0.6,0.4c-0.2,0.2-0.3,0.4-0.4,0.6c-0.2,0.2-0.4,0.3-0.5,0.5
			c-0.2,0.2-0.3,0.4-0.5,0.5c-0.2,0.2-0.2,0.4-0.4,0.6c-0.2,0.2-0.3,0.4-0.4,0.6c-0.1,0.2-0.3,0.4-0.4,0.6c-0.1,0.2-0.2,0.4-0.4,0.6
			c-0.1,0.2-0.3,0.4-0.4,0.6c-0.1,0.2-0.5,0.3-0.6,0.4c-0.1,0.2-0.1,0.5-0.2,0.7c-0.1,0.2-0.4,0.3-0.5,0.5c-0.1,0.2-0.1,0.5-0.3,0.7
			c-0.1,0.2-0.5,0.3-0.6,0.5c-0.1,0.2-0.2,0.5-0.3,0.7c-0.1,0.2-0.2,0.4-0.3,0.6c-0.1,0.2-0.2,0.4-0.3,0.6c-0.1,0.2-0.4,0.3-0.6,0.5
			c-0.1,0.2-0.2,0.4-0.4,0.6c-0.1,0.2,0,0.5-0.1,0.7c-0.1,0.2-0.4,0.3-0.5,0.6c-0.1,0.2-0.1,0.5-0.3,0.7c-0.1,0.2-0.4,0.3-0.5,0.6
			c-0.1,0.2-0.2,0.5-0.3,0.7c-0.1,0.2-0.2,0.4-0.4,0.6c-0.1,0.2-0.1,0.5-0.2,0.7c-0.1,0.2-0.1,0.5-0.2,0.7c-0.1,0.2-0.4,0.3-0.5,0.5
			c-0.1,0.2,0.1,0.6,0,0.8c-0.1,0.2-0.3,0.4-0.4,0.6c-0.1,0.2-0.1,0.5-0.2,0.7c-0.1,0.2-0.2,0.4-0.3,0.7c-0.1,0.2-0.3,0.4-0.4,0.6
			c-0.1,0.2-0.1,0.5-0.2,0.7c-0.1,0.2,0,0.5-0.1,0.7c-0.1,0.2-0.3,0.4-0.3,0.6c-0.1,0.2-0.1,0.5-0.2,0.7c-0.1,0.2-0.2,0.5-0.2,0.7
			c-0.1,0.2-0.3,0.4-0.4,0.6c-0.1,0.2-0.1,0.5-0.1,0.7c-0.1,0.2-0.2,0.4-0.3,0.7c-0.1,0.2,0.1,0.5,0.1,0.8c-0.1,0.2-0.1,0.5-0.2,0.7
			c-0.1,0.2-0.3,0.4-0.4,0.6c-0.1,0.2-0.1,0.5-0.2,0.7c-0.1,0.2-0.2,0.4-0.3,0.7c-0.1,0.2-0.1,0.5-0.1,0.7c0,0.2,0.1,0.5,0,0.7
			c0,0.2-0.2,0.5-0.2,0.7c0,0.2-0.2,0.5-0.2,0.7c0,0.2,0,0.5,0,0.7c0,0.2-0.1,0.5-0.1,0.7c0,0.2,0,0.5,0,0.7c0,0.2-0.1,0.5-0.1,0.7
			c0,0.2-0.2,0.5-0.2,0.7c0,0.2,0.1,0.5,0.1,0.7c0,0.2-0.2,0.5-0.2,0.7c0,0.2,0.2,0.5,0.1,0.7c0,0.2-0.1,0.5-0.1,0.7
			c0,0.2-0.1,0.5-0.1,0.7c0,0.2-0.1,0.5-0.1,0.7c0,0.2,0,0.5,0,0.7c0,0.2,0.1,0.5,0,0.7c0,0.2,0,0.5,0,0.7c0,0.2,0.1,0.5,0.1,0.7
			c0,0.4-0.1,0.4-0.1,0.7c0,0.4,0.1,0.4,0.1,0.7c0,0.4-0.2,0.4-0.2,0.7c0,0.4,0.2,0.4,0.2,0.7c0,0.4-0.2,0.4-0.2,0.7
			c0,0.4,0,0.4,0,0.7c0,0.4,0.1,0.4,0.1,0.7c0,0.4,0.1,0.4,0.1,0.7c0,0.4,0,0.4,0,0.7c0,0.4-0.1,0.4-0.1,0.7c0,0.4,0.2,0.4,0.2,0.7
			c0,0.4-0.2,0.4-0.2,0.7c0,0.4,0.1,0.4,0.1,0.7c0,0.4-0.1,0.4-0.1,0.7c0,0.4,0.1,0.4,0.1,0.7c0,0.4,0.1,0.4,0.1,0.7
			c0,0.4-0.2,0.4-0.2,0.7c0,0.4,0.1,0.4,0.1,0.7c0,0.4,0.1,0.4,0.1,0.7c0,0.4-0.1,0.4-0.1,0.7c0,0.4,0.2,0.4,0.2,0.7
			c0,0.4-0.1,0.4-0.1,0.7c0,0.4,0.1,0.4,0.1,0.7c0,0.4,0,0.4,0,0.7c0,0.4-0.2,0.4-0.2,0.7c0,0.4,0,0.4,0,0.7c0,0.4,0,0.4,0,0.7
			c0,0.4-0.1,0.4-0.1,0.7c0,0.4,0.1,0.4,0.1,0.7c0,0.4,0,0.4,0,0.7c0,0.4-0.2,0.4-0.2,0.7c0,0.4,0,0.4,0,0.7c0,0.4,0,0.4,0,0.7
			c0,0.4-0.1,0.4-0.1,0.7c0,0.4,0.2,0.4,0.2,0.7c0,0.4-0.2,0.4-0.2,0.7c0,0.4-0.1,0.4-0.1,0.7c0,0.4,0.2,0.4,0.2,0.7
			c0,0.4,0,0.4,0,0.7c0,0.4-0.1,0.4-0.1,0.7c0,0.4,0.2,0.4,0.2,0.7c0,0.4-0.1,0.4-0.1,0.7c0,0.4,0.1,0.4,0.1,0.7c0,0.4,0,0.4,0,0.7
			c0,0.4-0.1,0.4-0.1,0.7c0,0.4-0.1,0.4-0.1,0.7c0,0.4,0.1,0.4,0.1,0.7c0,0.4-0.1,0.4-0.1,0.7c0,0.4,0.2,0.4,0.2,0.7
			c0,0.4,0,0.4,0,0.7c0,0.4-0.1,0.4-0.1,0.7c0,0.2-0.1,0.5-0.1,0.7c0,0.2,0.1,0.5,0.1,0.7c0,0.2-0.2,0.5-0.2,0.7
			c0,0.2,0,0.5-0.1,0.7c0,0.2,0,0.5,0,0.7c0,0.2,0,0.5-0.1,0.7c-0.1,0.2-0.2,0.5-0.3,0.7c-0.1,0.2-0.3,0.4-0.3,0.7
			c-0.1,0.2,0.1,0.5,0,0.8c-0.1,0.2-0.2,0.4-0.3,0.7c-0.1,0.2-0.2,0.5-0.3,0.7c-0.1,0.2-0.2,0.5-0.3,0.7c-0.1,0.2-0.2,0.5-0.3,0.7
			c-0.1,0.2-0.3,0.4-0.4,0.6c-0.1,0.2-0.2,0.5-0.3,0.7c-0.1,0.2-0.3,0.4-0.4,0.5c-0.1,0.2-0.3,0.3-0.5,0.5c-0.1,0.2-0.2,0.5-0.3,0.6
			c-0.2,0.2-0.4,0.3-0.5,0.5c-0.2,0.2-0.2,0.4-0.4,0.6c-0.2,0.2-0.5,0.1-0.7,0.3c-0.2,0.1-0.2,0.4-0.4,0.6c-0.2,0.1-0.5,0.2-0.6,0.3
			c-0.2,0.1-0.4,0.2-0.6,0.3c-0.2,0.1-0.4,0.2-0.6,0.3c-0.2,0.1-0.4,0.2-0.6,0.3c-0.2,0.1-0.3,0.4-0.6,0.5c-0.2,0.1-0.5,0-0.7,0.1"
			/>
	</g>
	<g>
		<path class="st5" d="M73.9,189.2c0.1,0.2,0.3,0.4,0.4,0.6c0.1,0.2,0.3,0.4,0.4,0.6c0.1,0.2,0.1,0.5,0.2,0.7
			c0.1,0.2,0.3,0.4,0.4,0.6c0.1,0.2,0.2,0.4,0.3,0.7c0.1,0.2,0.3,0.4,0.4,0.6c0.1,0.2,0.3,0.4,0.4,0.6c0.1,0.2,0.3,0.4,0.4,0.6
			c0.1,0.2,0.3,0.4,0.4,0.6c0.1,0.2,0.3,0.4,0.4,0.6c0.1,0.2,0.3,0.4,0.4,0.6c0.1,0.2,0.4,0.3,0.5,0.5c0.1,0.2,0.2,0.5,0.3,0.7
			c0.1,0.2,0.4,0.3,0.5,0.5c0.1,0.2,0.3,0.3,0.5,0.5c0.2,0.2,0.3,0.4,0.5,0.6c0.2,0.2,0.3,0.4,0.4,0.6c0.2,0.2,0.2,0.4,0.4,0.6
			c0.2,0.2,0.4,0.3,0.6,0.4c0.2,0.2,0.3,0.4,0.4,0.6c0.2,0.2,0.3,0.4,0.4,0.6s0.3,0.4,0.5,0.5c0.2,0.2,0.5,0.2,0.6,0.4
			c0.2,0.2,0.3,0.4,0.5,0.6c0.2,0.2,0.4,0.3,0.6,0.4c0.2,0.2,0.3,0.4,0.5,0.5c0.2,0.2,0.4,0.3,0.6,0.4c0.2,0.2,0.3,0.4,0.4,0.6
			c0.2,0.2,0.4,0.2,0.6,0.4c0.2,0.2,0.3,0.4,0.5,0.5c0.2,0.2,0.4,0.2,0.6,0.4c0.2,0.2,0.3,0.3,0.5,0.5c0.2,0.1,0.4,0.3,0.6,0.4
			c0.2,0.1,0.3,0.4,0.5,0.6c0.2,0.1,0.5,0.2,0.7,0.3c0.2,0.1,0.3,0.4,0.5,0.5c0.2,0.1,0.4,0.2,0.6,0.4c0.2,0.1,0.4,0.2,0.6,0.3
			c0.2,0.1,0.3,0.4,0.5,0.5c0.2,0.1,0.4,0.3,0.6,0.4c0.2,0.1,0.4,0.2,0.6,0.4c0.2,0.1,0.5,0.1,0.7,0.3c0.2,0.1,0.4,0.3,0.6,0.4
			c0.2,0.1,0.4,0.2,0.6,0.4c0.2,0.1,0.4,0.3,0.6,0.4c0.2,0.1,0.4,0.3,0.6,0.4c0.2,0.1,0.4,0.3,0.6,0.4c0.2,0.1,0.4,0.2,0.6,0.3
			c0.2,0.1,0.5,0.1,0.7,0.3c0.2,0.1,0.4,0.2,0.6,0.3c0.2,0.1,0.4,0.3,0.6,0.4c0.2,0.1,0.5,0.1,0.7,0.2c0.2,0.1,0.4,0.3,0.6,0.4
			c0.2,0.1,0.5,0.1,0.7,0.1c0.2,0.1,0.4,0.3,0.6,0.4c0.2,0.1,0.5,0.2,0.7,0.2c0.2,0.1,0.4,0.2,0.7,0.3c0.2,0.1,0.5,0,0.7,0.1
			c0.2,0.1,0.4,0.3,0.6,0.4c0.2,0.1,0.5,0,0.7,0.1c0.2,0.1,0.4,0.3,0.6,0.4c0.2,0.1,0.5,0,0.7,0.1c0.2,0.1,0.4,0.2,0.7,0.3
			c0.2,0.1,0.5,0.1,0.7,0.1c0.2,0.1,0.4,0.3,0.7,0.3c0.2,0.1,0.5,0.1,0.7,0.2c0.2,0.1,0.5,0,0.7,0c0.2,0.1,0.5,0.1,0.7,0.2
			c0.2,0.1,0.5,0.2,0.7,0.3c0.2,0,0.5,0.1,0.7,0.2c0.2,0,0.5,0,0.7,0.1c0.2,0,0.5,0,0.7,0c0.2,0,0.5,0.2,0.7,0.2
			c0.2,0,0.5,0.1,0.7,0.1c0.2,0,0.5,0,0.7,0c0.2,0,0.5,0.2,0.7,0.2c0.2,0,0.5,0,0.7,0c0.2,0,0.5,0.1,0.7,0.2c0.2,0,0.5-0.1,0.7-0.1
			c0.2,0,0.5,0.2,0.7,0.2c0.2,0,0.5,0,0.7,0c0.2,0,0.5,0.1,0.7,0.1c0.2,0,0.5-0.1,0.7-0.1c0.2,0,0.5,0,0.7,0s0.5,0.1,0.7,0.1
			c0,0,0-0.1,0.1-0.1c0.2,0,0.2,0,0.4,0c0.2,0,0.5,0,0.7,0c0.2,0,0.5,0,0.7,0c0.2,0,0.5-0.1,0.7-0.1c0.2,0,0.5-0.1,0.7-0.1
			c0.2,0,0.5,0.1,0.7,0.1c0.2,0,0.5-0.2,0.7-0.2c0.2,0,0.5,0,0.7,0c0.2,0,0.5,0,0.7,0c0.2,0,0.5,0,0.7-0.1c0.2,0,0.5-0.1,0.7-0.1
			c0.2,0,0.5-0.2,0.7-0.2c0.2,0,0.5,0,0.7-0.1c0.2,0,0.5,0,0.7-0.1c0.2,0,0.5-0.1,0.7-0.1c0.2,0,0.5-0.1,0.7-0.2
			c0.2,0,0.5-0.1,0.7-0.2c0.2-0.1,0.5,0,0.7,0c0.2-0.1,0.4-0.3,0.7-0.3c0.2-0.1,0.5,0.1,0.7,0c0.2-0.1,0.4-0.2,0.7-0.3
			s0.5-0.1,0.7-0.2c0.2-0.1,0.4-0.2,0.7-0.3c0.2-0.1,0.5-0.1,0.7-0.2c0.2-0.1,0.5-0.1,0.7-0.2c0.2-0.1,0.5-0.1,0.7-0.2
			c0.2-0.1,0.5-0.1,0.7-0.2c0.2-0.1,0.4-0.2,0.7-0.3c0.2-0.1,0.5-0.1,0.7-0.2c0.2-0.1,0.5-0.2,0.7-0.2c0.2-0.1,0.4-0.4,0.6-0.5
			c0.2-0.1,0.4-0.2,0.7-0.3c0.2-0.1,0.5-0.1,0.7-0.2c0.2-0.1,0.4-0.2,0.6-0.3c0.2-0.1,0.4-0.3,0.6-0.4c0.2-0.1,0.5-0.2,0.7-0.3
			c0.2-0.1,0.5-0.1,0.7-0.2c0.2-0.1,0.3-0.4,0.5-0.5c0.2-0.1,0.5-0.1,0.7-0.2c0.2-0.1,0.4-0.3,0.6-0.4c0.2-0.1,0.5-0.1,0.7-0.2
			c0.2-0.1,0.4-0.3,0.6-0.4c0.2-0.1,0.4-0.2,0.6-0.4c0.2-0.1,0.4-0.2,0.6-0.3c0.2-0.1,0.4-0.3,0.6-0.5c0.2-0.1,0.3-0.3,0.5-0.5
			c0.2-0.1,0.5-0.2,0.7-0.3c0.2-0.1,0.4-0.3,0.6-0.4c0.2-0.1,0.4-0.3,0.6-0.4c0.2-0.1,0.4-0.2,0.6-0.4c0.2-0.1,0.3-0.4,0.5-0.5
			c0.2-0.1,0.4-0.2,0.6-0.4c0.2-0.1,0.4-0.3,0.6-0.5c0.2-0.2,0.4-0.3,0.6-0.4c0.2-0.2,0.3-0.4,0.5-0.5c0.2-0.2,0.4-0.2,0.6-0.4
			c0.2-0.2,0.4-0.3,0.6-0.4c0.2-0.2,0.3-0.3,0.5-0.5c0.2-0.2,0.3-0.3,0.5-0.5c0.2-0.2,0.3-0.4,0.5-0.5s0.4-0.3,0.6-0.4
			c0.2-0.2,0.3-0.3,0.5-0.5c0.2-0.2,0.2-0.4,0.4-0.6c0.2-0.2,0.4-0.3,0.6-0.5c0.2-0.2,0.2-0.4,0.4-0.6c0.2-0.2,0.4-0.3,0.6-0.4
			c0.2-0.2,0.3-0.4,0.4-0.6c0.2-0.2,0.3-0.3,0.5-0.5c0.2-0.2,0.2-0.4,0.4-0.6c0.2-0.2,0.4-0.3,0.5-0.5c0.1-0.2,0.3-0.4,0.4-0.6
			c0.1-0.2,0.4-0.3,0.5-0.5c0.1-0.2,0.3-0.4,0.4-0.6c0.1-0.2,0.3-0.4,0.4-0.6c0.1-0.2,0.3-0.4,0.4-0.6c0.1-0.2,0.2-0.5,0.3-0.7
			c0.1-0.2,0.3-0.4,0.4-0.6c0.1-0.2,0.3-0.4,0.4-0.6c0.1-0.2,0.2-0.4,0.4-0.6c0.1-0.2,0.3-0.4,0.4-0.6c0.1-0.2,0.2-0.5,0.3-0.7
			c0.1-0.2,0.2-0.4,0.3-0.6c0.1-0.2,0.3-0.4,0.4-0.6c0.1-0.2,0.2-0.4,0.3-0.6s0.3-0.4,0.4-0.6c0.1-0.2,0.2-0.4,0.3-0.6
			c0.1-0.2,0.3-0.4,0.4-0.6c0.1-0.2,0.2-0.4,0.3-0.6c0.1-0.2,0-0.5,0.1-0.7c0.1-0.2,0.3-0.4,0.3-0.6c0.1-0.2,0.1-0.5,0.2-0.7
			c0.1-0.2,0.3-0.4,0.4-0.6c0.1-0.2,0.2-0.4,0.3-0.7c0.1-0.2,0.2-0.4,0.3-0.7c0.1-0.2,0-0.5,0.1-0.7c0.1-0.2,0.2-0.4,0.2-0.7
			c0.1-0.2,0.2-0.4,0.3-0.7c0.1-0.2,0.2-0.4,0.3-0.6c0.1-0.2,0.1-0.5,0.2-0.7c0.1-0.2,0.1-0.5,0.2-0.7c0.1-0.2,0.1-0.5,0.2-0.7
			c0.1-0.2,0-0.5,0.1-0.7c0.1-0.2,0.2-0.4,0.3-0.7c0.1-0.2,0.2-0.4,0.2-0.7c0.1-0.2,0-0.5,0.1-0.7c0.1-0.2,0.2-0.5,0.2-0.7
			c0-0.2,0.1-0.5,0.2-0.7c0-0.2,0-0.5,0.1-0.7c0-0.2,0.1-0.5,0.2-0.7c0-0.2,0-0.5,0.1-0.7c0-0.2,0.2-0.5,0.2-0.7
			c0-0.2,0.1-0.5,0.1-0.7c0-0.2,0-0.5,0-0.7c0-0.2,0.2-0.5,0.2-0.7c0-0.2,0-0.5,0-0.7c0-0.2,0.1-0.5,0.1-0.7c0-0.2-0.1-0.5-0.1-0.7
			c0-0.2,0.2-0.5,0.2-0.7c0-0.2,0-0.5,0-0.7c0-0.2-0.1-0.5-0.1-0.7c0-0.2,0.1-0.5,0.1-0.7c0-0.2-0.1-0.5-0.1-0.7
			c0-0.4,0.2-0.4,0.2-0.7c0-0.4,0-0.4,0-0.7c0-0.4,0-0.4,0-0.7c0-0.4-0.1-0.4-0.1-0.7c0-0.4-0.1-0.4-0.1-0.7c0-0.4,0-0.4,0-0.7
			c0-0.4,0-0.4,0-0.7c0-0.4-0.1-0.4-0.1-0.7c0-0.4,0.1-0.4,0.1-0.7c0-0.4,0-0.4,0-0.7c0-0.4,0.1-0.4,0.1-0.7c0-0.4,0-0.4,0-0.7
			c0-0.4-0.2-0.4-0.2-0.7c0-0.4,0.2-0.4,0.2-0.7c0-0.4,0-0.4,0-0.7c0-0.4-0.1-0.4-0.1-0.7c0-0.4,0-0.4,0-0.7c0-0.4,0.1-0.4,0.1-0.7
			c0-0.4,0.1-0.4,0.1-0.7c0-0.4,0-0.4,0-0.7c0-0.4-0.2-0.4-0.2-0.7c0-0.4,0.1-0.4,0.1-0.7c0-0.4-0.1-0.4-0.1-0.7
			c0-0.4,0.2-0.4,0.2-0.7c0-0.4-0.1-0.4-0.1-0.7c0-0.4-0.1-0.4-0.1-0.7c0-0.4,0-0.4,0-0.7c0-0.4,0.1-0.4,0.1-0.7
			c0-0.4-0.1-0.4-0.1-0.7c0-0.4,0-0.4,0-0.7c0-0.4,0-0.4,0-0.7c0-0.4,0-0.4,0-0.7c0-0.4,0.1-0.4,0.1-0.7c0-0.4,0-0.4,0-0.7
			c0-0.4-0.2-0.4-0.2-0.7c0-0.4,0.2-0.4,0.2-0.7c0-0.4,0-0.4,0-0.7c0-0.4-0.1-0.4-0.1-0.7c0-0.4,0.1-0.4,0.1-0.7c0-0.4,0-0.4,0-0.7"
			/>
	</g>
	<g>
		<path class="st5" d="M124.2,92c-0.4,0-0.4,0-0.7,0c-0.4,0-0.4,0-0.7,0c-0.4,0-0.4-0.1-0.7-0.1c-0.4,0-0.4,0-0.7,0
			c-0.4,0-0.4,0-0.7,0c-0.4,0-0.4,0-0.7,0c-0.4,0-0.4,0-0.7,0c-0.4,0-0.4,0-0.7,0c-0.4,0-0.4,0-0.7,0c-0.4,0-0.4,0-0.7,0
			c-0.4,0-0.4,0-0.7,0c-0.4,0-0.4,0-0.7,0c-0.4,0-0.4-0.1-0.7-0.1c-0.4,0-0.4,0.1-0.7,0.1c-0.4,0-0.4,0-0.7,0c-0.3,0-0.5,0-0.7,0.1
			c-0.2,0.1-0.5,0.1-0.7,0.2c-0.2,0.1-0.5,0.2-0.7,0.3c-0.2,0.2-0.3,0.4-0.5,0.6c-0.2,0.2-0.3,0.4-0.4,0.6c-0.1,0.2-0.2,0.4-0.3,0.7
			c-0.1,0.2-0.1,0.5-0.1,0.7c0,0.2,0.1,0.5,0.1,0.7c0,0.2-0.1,0.5-0.1,0.7c0,0.2,0,0.5,0,0.7c0,0.2-0.1,0.5-0.1,0.7
			c0,0.2,0,0.5-0.1,0.7c0,0.2-0.1,0.5-0.2,0.7c0,0.2,0,0.5-0.1,0.7c0,0.2-0.1,0.5-0.2,0.7c0,0.2-0.1,0.5-0.1,0.7
			c-0.1,0.2-0.1,0.5-0.2,0.7c-0.1,0.2-0.1,0.5-0.2,0.7c-0.1,0.2-0.2,0.4-0.3,0.7c-0.1,0.2-0.1,0.5-0.2,0.7c-0.1,0.2-0.2,0.4-0.3,0.6
			c-0.1,0.2-0.2,0.4-0.3,0.7c-0.1,0.2-0.2,0.5-0.3,0.7c-0.1,0.2-0.3,0.4-0.4,0.6c-0.1,0.2-0.2,0.4-0.4,0.6c-0.1,0.2-0.2,0.4-0.4,0.6
			c-0.1,0.2-0.2,0.4-0.4,0.6c-0.1,0.2-0.3,0.4-0.4,0.6c-0.2,0.2-0.3,0.4-0.5,0.6c-0.2,0.2-0.3,0.3-0.5,0.5c-0.2,0.2-0.3,0.3-0.5,0.5
			c-0.2,0.2-0.4,0.3-0.6,0.5c-0.2,0.2-0.4,0.3-0.6,0.5c-0.2,0.1-0.4,0.3-0.6,0.5c-0.2,0.1-0.4,0.3-0.6,0.4c-0.2,0.1-0.4,0.2-0.6,0.3
			c-0.2,0.1-0.4,0.3-0.6,0.4c-0.2,0.1-0.5,0.1-0.7,0.2c-0.2,0.1-0.4,0.3-0.6,0.3c-0.2,0.1-0.5,0.1-0.7,0.2c-0.2,0.1-0.4,0.2-0.7,0.2
			c-0.2,0.1-0.5,0.1-0.7,0.2c-0.2,0.1-0.4,0.2-0.7,0.3c-0.2,0-0.5,0-0.7,0c-0.2,0-0.5,0.2-0.7,0.2c-0.2,0-0.5,0-0.7,0
			c-0.2,0-0.5,0.1-0.7,0.2c-0.2,0-0.5,0-0.7,0c-0.2,0-0.5,0.1-0.7,0.1c-0.2,0-0.5-0.1-0.8-0.1c-0.3,0.2,0,0.3-0.1,0.7
			c0,0.2,0,0.4-0.1,0.7c-0.1,0.2-0.2,0.4-0.3,0.7c-0.1,0.2-0.2,0.4-0.3,0.6c-0.1,0.2-0.2,0.4-0.3,0.6c-0.1,0.2-0.2,0.4-0.3,0.6
			c-0.1,0.2-0.2,0.4-0.3,0.6c-0.1,0.2-0.3,0.3-0.5,0.5c-0.1,0.2-0.3,0.4-0.4,0.6c-0.2,0.2-0.3,0.4-0.4,0.6c-0.2,0.2-0.4,0.3-0.6,0.5
			c-0.2,0.2-0.3,0.4-0.5,0.5c-0.2,0.2-0.4,0.3-0.6,0.4c-0.2,0.1-0.3,0.4-0.5,0.5c-0.2,0.1-0.4,0.2-0.6,0.4c-0.2,0.1-0.4,0.3-0.6,0.4
			c-0.2,0.1-0.4,0.2-0.6,0.3c-0.2,0.1-0.4,0.3-0.6,0.4c-0.2,0.1-0.4,0.2-0.6,0.4c-0.2,0.1-0.4,0.2-0.7,0.3c-0.2,0.1-0.4,0.2-0.6,0.3
			c-0.2,0.1-0.4,0.2-0.7,0.3c-0.2,0.1-0.4,0.2-0.7,0.2c-0.2,0.1-0.4,0.1-0.7,0.2c-0.2,0.1-0.4,0.2-0.7,0.2c-0.2,0.1-0.4,0.2-0.7,0.2
			c-0.2,0.1-0.5,0.1-0.7,0.1c-0.2,0.1-0.4,0.2-0.7,0.2c-0.2,0.1-0.5,0.1-0.7,0.1c-0.2,0-0.5,0.1-0.7,0.1c-0.2,0-0.5,0.1-0.7,0.1
			c-0.2,0-0.5,0.1-0.7,0.1c-0.2,0-0.5,0.1-0.7,0.2c-0.2,0-0.5,0-0.7,0.1c-0.2,0.1-0.5,0.1-0.7,0.2c-0.2,0.1-0.4,0.2-0.7,0.2
			c-0.2,0.1-0.4,0.2-0.6,0.3c-0.2,0.1-0.4,0.3-0.6,0.4c-0.2,0.1-0.4,0.2-0.6,0.4c-0.2,0.2-0.3,0.4-0.5,0.5c-0.2,0.2-0.4,0.3-0.5,0.5
			c-0.1,0.2-0.2,0.4-0.4,0.6c-0.1,0.2-0.3,0.4-0.4,0.6c-0.1,0.2-0.2,0.4-0.3,0.7c-0.1,0.2-0.2,0.4-0.3,0.7c-0.1,0.2-0.1,0.4-0.2,0.7
			c0,0.2-0.1,0.5-0.1,0.7c0,0.2,0,0.5,0,0.7"/>
	</g>
	<g>
		<path class="st5" d="M148.7,169.7c0.3,0.2,0.2,0.1,0.6,0.4c0.2,0.1,0.4,0.2,0.6,0.4c0.2,0.1,0.4,0.2,0.6,0.3
			c0.2,0.1,0.4,0.3,0.6,0.4c0.2,0.1,0.4,0.2,0.6,0.4c0.2,0.1,0.4,0.3,0.6,0.4c0.2,0.1,0.4,0.3,0.6,0.4c0.2,0.1,0.4,0.3,0.6,0.5
			c0.2,0.1,0.4,0.3,0.6,0.4c0.2,0.1,0.4,0.3,0.6,0.5c0.2,0.2,0.4,0.3,0.6,0.4c0.2,0.2,0.4,0.3,0.5,0.5c0.2,0.2,0.4,0.3,0.5,0.5
			c0.2,0.2,0.3,0.4,0.5,0.5c0.2,0.2,0.4,0.3,0.5,0.5c0.2,0.2,0.3,0.4,0.5,0.6c0.2,0.2,0.3,0.4,0.5,0.6c0.1,0.2,0.3,0.4,0.4,0.6
			c0.1,0.2,0.2,0.4,0.3,0.7"/>
	</g>
	<g id="XMLID_1_">
		<g>
			<g>
				<g>
					<path class="st2" d="M213,284.4c-0.3,0.1-0.6,0.1-1,0.1c-0.4,0-0.4-0.3-0.7-0.3c-0.4,0-0.4,0.1-0.7,0.1c-0.4,0-0.4,0.4-0.7,0.4
						c-0.4,0-0.4-0.3-0.7-0.3c-0.4,0-0.4-0.5-0.7-0.5c-0.4,0-0.4,0.1-0.7,0.1c-0.4,0-0.4,0.1-0.7,0.1c-0.4,0-0.4,0.1-0.7,0.1
						c-0.4,0-0.4,0.2-0.7,0.2c-0.4,0-0.4,0.1-0.7,0.1c-0.4,0-0.4-0.5-0.7-0.5c-0.4,0-0.4-0.1-0.7-0.1c-0.4,0-0.4-0.4-0.7-0.4
						c-0.4,0-0.4,0.9-0.7,0.9c-0.4,0-0.4-0.6-0.7-0.6c-0.4,0-0.4,0.9-0.7,0.9c-0.4,0-0.4-0.9-0.7-0.9c-0.4,0-0.4,0.4-0.7,0.4
						c-0.4,0-0.4-0.2-0.7-0.2c-0.4,0-0.4,0.5-0.7,0.5c-0.4,0-0.4-0.3-0.7-0.3c-0.4,0-0.4-0.3-0.7-0.3c-0.4,0-0.4,0.1-0.7,0.1
						c-0.4,0-0.4,0.1-0.7,0.1c-0.4,0-0.4-0.8-0.7-0.8c-0.4,0-0.4,0.2-0.7,0.2c-0.4,0-0.4,0.1-0.7,0.1c-0.4,0-0.4,0.7-0.7,0.7
						c-0.4,0-0.4,0.1-0.7,0.1c-0.4,0-0.4,0-0.7,0c-0.4,0-0.4-0.2-0.7-0.2c-0.4,0-0.4-0.5-0.7-0.5c-0.4,0-0.4,0-0.7,0
						c-0.4,0-0.4,0.7-0.7,0.7c-0.4,0-0.4-0.5-0.7-0.5s-0.4,0.5-0.7,0.5c-0.4,0-0.4-0.7-0.7-0.7c-0.4,0-0.4,0.6-0.7,0.6
						s-0.4,0.2-0.7,0.2c-0.4,0-0.4-0.9-0.7-0.9c-0.4,0-0.4,0.5-0.7,0.5c-0.4,0-0.4,0.3-0.7,0.3c-0.4,0-0.4,0-0.7,0
						c-0.4,0-0.4-0.3-0.7-0.3c-0.4,0-0.4,0.3-0.7,0.3c-0.4,0-0.4-0.6-0.7-0.6c-0.4,0-0.4,0.5-0.7,0.5c-0.4,0-0.4-0.2-0.7-0.2
						c-0.4,0-0.4-0.1-0.7-0.1c-0.4,0-0.4-0.4-0.7-0.4c-0.4,0-0.4,0.9-0.7,0.9c-0.4,0-0.4-0.1-0.7-0.1c-0.4,0-0.4-0.6-0.7-0.6
						c-0.4,0-0.4,0.6-0.7,0.6c-0.4,0-0.4-0.5-0.7-0.5c-0.4,0-0.4,0-0.7,0c-0.4,0-0.4,0.1-0.7,0.1c-0.4,0-0.4,0.2-0.7,0.2
						c-0.4,0-0.4-0.4-0.7-0.4c-0.4,0-0.4,0.2-0.7,0.2c-0.4,0-0.4,0.2-0.7,0.2c-0.4,0-0.4,0.2-0.7,0.2c-0.4,0-0.4,0.2-0.7,0.2
						c-0.4,0-0.4-1-0.7-1c-0.4,0-0.4-0.1-0.7-0.1c-0.4,0-0.4,0.4-0.7,0.4c-0.4,0-0.4,0.2-0.7,0.2c-0.4,0-0.4,0.3-0.7,0.3
						c-0.4,0-0.4,0.1-0.7,0.1c-0.4,0-0.4-0.8-0.7-0.8c-0.4,0-0.4,0.8-0.7,0.8c-0.4,0-0.4-1.1-0.7-1.1c-0.4,0-0.4,0.3-0.7,0.3
						c-0.4,0-0.4,0-0.7,0c-0.4,0-0.4,0.1-0.7,0.1c-0.4,0-0.4,0.1-0.7,0.1c-0.4,0-0.4,0.7-0.7,0.7c-0.4,0-0.4-1-0.7-1
						c-0.4,0-0.4,0.7-0.7,0.7c-0.4,0-0.4-0.2-0.7-0.2c-0.4,0-0.4,0.4-0.7,0.4c-0.4,0-0.4-0.2-0.7-0.2c-0.4,0-0.4-0.1-0.7-0.1
						c-0.4,0-0.4,0.1-0.7,0.1c-0.4,0-0.4-0.3-0.7-0.3c-0.4,0-0.4,0.2-0.7,0.2c-0.4,0-0.4-0.3-0.7-0.3c-0.4,0-0.4-0.1-0.7-0.1
						c-0.4,0-0.4-0.5-0.7-0.5c-0.4,0-0.4,1.1-0.7,1.1c-0.4,0-0.4-0.3-0.7-0.3c-0.4,0-0.4,0.4-0.7,0.4c-0.4,0-0.4-0.1-0.7-0.1
						s-0.4-0.2-0.7-0.2c-0.4,0-0.4-0.2-0.7-0.2c-0.4,0-0.4,0.1-0.7,0.1c-0.4,0-0.4,0-0.7,0c-0.4,0-0.4,0-0.7,0
						c-0.4,0-0.4,0.2-0.7,0.2c-0.4,0-0.4-0.2-0.7-0.2c-0.4,0-0.4,0.3-0.7,0.3c-0.4,0-0.4-0.4-0.7-0.4c-0.4,0-0.4,0.4-0.7,0.4
						c-0.4,0-0.4-0.8-0.7-0.8c-0.4,0-0.4,1-0.7,1c-0.4,0-0.4-0.5-0.7-0.5c-0.4,0-0.4,0.2-0.7,0.2c-0.4,0-0.4-0.7-0.7-0.7
						c-0.4,0-0.4,1-0.7,1c-0.4,0-0.4-0.6-0.7-0.6c-0.4,0-0.4,0.6-0.7,0.6c-0.4,0-0.4-0.6-0.7-0.6c-0.4,0-0.4-0.4-0.7-0.4
						c-0.4,0-0.4,0.3-0.7,0.3c-0.4,0-0.4,0.1-0.7,0.1c-0.4,0-0.4,0-0.7,0c-0.4,0-0.4,0.6-0.7,0.6c-0.4,0-0.4-0.5-0.7-0.5
						c-0.4,0-0.4,0.3-0.7,0.3c-0.4,0-0.4-0.5-0.7-0.5c-0.4,0-0.4,0.2-0.7,0.2c-0.4,0-0.4,0.1-0.7,0.1c-0.4,0-0.4,0-0.7,0
						c-0.4,0-0.4-0.2-0.7-0.2c-0.4,0-0.4,0.4-0.7,0.4c-0.4,0-0.4-0.7-0.7-0.7c-0.4,0-0.4,0.6-0.7,0.6c-0.4,0-0.4-0.5-0.7-0.5
						c-0.4,0-0.4,0.4-0.7,0.4c-0.4,0-0.4,0-0.7,0c-0.4,0-0.4-0.1-0.7-0.1c-0.4,0-0.4-0.2-0.7-0.2c-0.4,0-0.4-0.3-0.7-0.3
						c-0.4,0-0.4,0-0.7,0c-0.4,0-0.4,0.6-0.7,0.6c-0.4,0-0.4,0.4-0.7,0.4c-0.4,0-0.4-0.7-0.7-0.7c-0.4,0-0.4,0-0.7,0
						c-0.4,0-0.4-0.2-0.7-0.2c-0.4,0-0.4,0-0.7,0c-0.4,0-0.4,0.5-0.7,0.5c-0.4,0-0.4,0-0.7,0c-0.4,0-0.4-0.4-0.7-0.4
						c-0.4,0-0.4,0.2-0.7,0.2c-0.4,0-0.4,0-0.7,0c-0.4,0-0.4-0.5-0.7-0.5c-0.4,0-0.4,0.1-0.7,0.1c-0.4,0-0.4,0.5-0.7,0.5
						c-0.4,0-0.4-0.8-0.7-0.8c-0.4,0-0.4,0.9-0.7,0.9c-0.4,0-0.4-0.2-0.7-0.2c-0.4,0-0.4,0.4-0.7,0.4c-0.4,0-0.4-0.4-0.7-0.4
						c-0.4,0-0.4,0.3-0.7,0.3c-0.4,0-0.4-1-0.7-1c-0.4,0-0.4,0.5-0.7,0.5c-0.4,0-0.4,0.1-0.7,0.1c-0.4,0-0.4,0.3-0.7,0.3
						c-0.4,0-0.4-0.3-0.7-0.3c-0.4,0-0.4,0.6-0.7,0.6c-0.4,0-0.4-0.7-0.7-0.7c-0.4,0-0.4,0.3-0.7,0.3c-0.4,0-0.4-0.3-0.7-0.3
						c-0.4,0-0.4,0.1-0.7,0.1c-0.4,0-0.4,0.4-0.7,0.4c-0.4,0-0.4-1-0.7-1c-0.4,0-0.4,1-0.7,1c-0.4,0-0.4,0-0.7,0
						c-0.4,0-0.4,0.2-0.7,0.2c-0.4,0-0.4-0.4-0.7-0.4c-0.4,0-0.4-0.4-0.7-0.4c-0.4,0-0.4,0.4-0.7,0.4c-0.4,0-0.4-0.5-0.7-0.5
						c-0.4,0-0.4,1.1-0.7,1.1c-0.4,0-0.4-1.1-0.7-1.1c-0.4,0-0.4,0.2-0.7,0.2c-0.4,0-0.4,0-0.7,0c-0.4,0-0.4,0.1-0.7,0.1
						c-0.4,0-0.4-0.1-0.7-0.1c-0.4,0-0.4,0.3-0.7,0.3c-0.4,0-0.4,0.2-0.7,0.2c-0.4,0-0.4-0.1-0.7-0.1c-0.4,0-0.4-0.4-0.7-0.4
						c-0.4,0-0.4,0.6-0.7,0.6c-0.4,0-0.4-0.5-0.7-0.5c-0.4,0-0.4-0.2-0.7-0.2c-0.4,0-0.4,0.5-0.7,0.5c-0.4,0-0.4,0.5-0.7,0.5
						c-0.4,0-0.4-0.3-0.7-0.3c-0.4,0-0.4-0.3-0.7-0.3c-0.4,0-0.4,0-0.7,0c-0.4,0-0.4,0.5-0.7,0.5c-0.4,0-0.4-0.3-0.7-0.3
						c-0.4,0-0.4-0.3-0.7-0.3c-0.4,0-0.4,0.1-0.7,0.1c-0.4,0-0.4,0.7-0.7,0.7c-0.4,0-0.4-0.6-0.7-0.6c-0.4,0-0.4,0.1-0.7,0.1
						c-0.4,0-0.4-0.4-0.7-0.4c-0.4,0-0.4,0.7-0.7,0.7c-0.4,0-0.4-0.4-0.7-0.4c-0.4,0-0.4,0.2-0.7,0.2c-0.4,0-0.4,0.1-0.7,0.1
						c-0.4,0-0.4-0.5-0.7-0.5c-0.4,0-0.4,0.7-0.7,0.7c-0.4,0-0.4,0-0.7,0c-0.4,0-0.4-0.3-0.7-0.3c-0.4,0-0.4,0.2-0.7,0.2
						c-0.4,0-0.4,0-0.7,0c-0.4,0-0.4-0.5-0.7-0.5c-0.4,0-0.4,0.5-0.7,0.5c-0.4,0-0.4-0.6-0.7-0.6c-0.4,0-0.4,0.5-0.7,0.5
						c-0.4,0-0.4-0.2-0.7-0.2c-0.4,0-0.4-0.3-0.7-0.3c-0.4,0-0.4-0.4-0.7-0.4c-0.4,0-0.4,0.7-0.7,0.7c-0.4,0-0.4,0-0.7,0
						c-0.4,0-0.4-0.2-0.7-0.2c-0.4,0-0.4,0.5-0.7,0.5c-0.4,0-0.4-0.8-0.7-0.8c-0.4,0-0.4,0.8-0.7,0.8c-0.4,0-0.4,0.2-0.7,0.2
						c-0.4,0-0.4-0.8-0.7-0.8c-0.4,0-0.4,0-0.7,0c-0.4,0-0.4,0.6-0.7,0.6c-0.4,0-0.4,0-0.7,0c-0.4,0-0.5,0-0.8-0.1
						c0-0.2,0.7-0.6,0.7-0.9c0-0.2-0.7-0.5-0.7-0.7c0-0.2,0.4-0.5,0.4-0.7c0-0.2-0.3-0.5-0.3-0.7c0-0.2-0.2-0.5-0.2-0.7
						c0-0.2,0.6-0.4,0.7-0.7c0-0.2-0.7-0.5-0.7-0.8c0-0.2,0.2-0.5,0.2-0.7c0-0.2,0.8-0.4,0.8-0.6c0-0.2,0-0.5,0-0.7
						c0-0.2-0.4-0.5-0.4-0.8c0-0.2-0.2-0.5-0.1-0.8c0-0.2,0.8-0.3,0.9-0.6c0-0.2-0.3-0.5-0.3-0.8c0-0.2,0.2-0.4,0.3-0.7
						c0.1-0.2-0.3-0.6-0.3-0.8c0.1-0.2,0.1-0.5,0.1-0.7c0.1-0.2,1.1-0.2,1.1-0.5c0.1-0.2-0.8-0.7-0.8-1c0.1-0.2,0.9-0.3,0.9-0.5
						c0.1-0.2-0.5-0.7-0.4-0.9c0.1-0.2,0.3-0.4,0.4-0.6c0.1-0.2,0.7-0.3,0.7-0.5c0.1-0.2-0.3-0.6-0.2-0.8c0.1-0.2-0.4-0.7-0.3-0.9
						c0.1-0.2,0.4-0.4,0.5-0.6c0.1-0.2,0.5-0.3,0.6-0.5c0.1-0.2-0.2-0.6-0.1-0.8c0.1-0.2,0.3-0.4,0.4-0.6c0.1-0.2,0.9-0.1,1.1-0.3
						c0.1-0.2,0.3-0.4,0.4-0.6c0.1-0.2,0.1-0.5,0.2-0.7c0.1-0.2,0.1-0.5,0.2-0.7c0.1-0.2-0.6-0.9-0.5-1.1c0.1-0.2,0.7-0.2,0.8-0.4
						c0.1-0.2,0.5-0.2,0.7-0.4c0.1-0.2-0.3-0.8-0.2-1c0.1-0.2,0.9,0,1-0.2c0.1-0.2,0.3-0.4,0.4-0.6c0.1-0.2-0.2-0.7,0-0.9
						c0.1-0.2,0.3-0.4,0.4-0.6c0.1-0.2,0.4-0.3,0.6-0.5c0.1-0.2,0.2-0.5,0.3-0.7c0.1-0.2,0.6-0.1,0.8-0.3c0.1-0.2,0.2-0.4,0.4-0.6
						c0.2-0.2-0.1-0.7,0-0.9c0.2-0.2,0.6-0.1,0.8-0.3c0.2-0.2,0.5-0.2,0.6-0.4c0.2-0.2-0.1-0.7,0.1-0.9c0.2-0.2,0.8,0.1,1-0.1
						c0.2-0.2,0.5-0.2,0.6-0.4c0.2-0.2,0.3-0.4,0.5-0.5c0.2-0.2-0.1-0.8,0.1-0.9c0.2-0.2,0.3-0.4,0.5-0.5c0.2-0.2,0.5-0.1,0.7-0.3
						c0.2-0.2,0.4-0.3,0.6-0.4c0.2-0.2,0.4-0.3,0.5-0.5c0.2-0.2-0.1-0.8,0.1-1c0.2-0.2,0.7,0.1,0.9-0.1c0.2-0.2,0.3-0.4,0.5-0.5
						c0.2-0.2,0.6,0,0.8-0.2c0.2-0.2,0-0.8,0.1-1c0.2-0.1,0.8,0.2,1,0.1c0.2-0.1,0.5-0.1,0.7-0.2c0.2-0.1,0.2-0.6,0.4-0.7
						c0.2-0.1,0.2-0.5,0.4-0.7c0.2-0.1,0.3-0.4,0.5-0.5c0.2-0.1,0.5-0.2,0.7-0.3c0.2-0.1,0.6,0,0.8-0.1c0.2-0.1,0.4-0.2,0.6-0.4
						c0.2-0.1,0.4-0.2,0.6-0.3c0.2-0.1,0.1-0.8,0.3-0.9c0.2-0.1,0.6,0,0.8-0.1c0.2-0.1,0.5,0,0.8-0.1c0.2-0.1,0.2-0.5,0.4-0.7
						c0.2-0.1,0.4-0.4,0.6-0.5c0.2-0.1,0.4-0.4,0.6-0.5c0.2-0.1,0.6,0,0.8-0.1c0.2-0.1,0.4-0.3,0.6-0.4c0.2-0.1,0.5,0,0.7-0.2
						c0.2-0.1,0.4-0.2,0.6-0.3c0.2-0.1,0.4-0.2,0.7-0.3c0.2-0.1,0.6,0.2,0.9,0.1c0.2-0.1,0.1-0.9,0.3-1c0.2-0.1,0.8,0.5,1,0.4
						c0.2-0.1,0.1-0.9,0.3-1c0.2-0.1,0.3-0.4,0.6-0.5c0.2-0.1,0.5-0.1,0.7-0.2c0.2-0.1,0.5-0.1,0.7-0.2c0.2-0.1,0.7,0.4,0.9,0.3
						c0.2-0.1,0.2-0.7,0.4-0.8c0.2-0.1,0.6,0.3,0.9,0.2c0.2-0.1,0.5-0.1,0.7-0.1c0.2-0.1,0.2-1,0.4-1c0.2-0.1,0.4-0.4,0.6-0.5
						c0.2-0.1,0.9,0.9,1.1,0.8c0.2-0.1,0.1-1.1,0.3-1.2c0.2-0.1,0.6,0.1,0.8,0c0.2-0.1,0.6,0.3,0.8,0.3c0.2-0.1,0.2-0.8,0.5-0.9
						c0.2-0.1,0.7,0.6,0.9,0.6c0.2-0.1,0.3-0.6,0.5-0.7c0.2-0.1,0.5,0,0.7-0.1c0.2-0.1,0.4-0.3,0.6-0.4c0.2-0.1,0.4-0.3,0.7-0.3
						c0.2-0.1,0.5-0.1,0.7-0.2c0.2-0.1,0.4-0.3,0.6-0.3c0.2-0.1,0.6,0.3,0.8,0.3c0.2-0.1,0.4-0.3,0.7-0.3c0.2-0.1,0.5-0.1,0.7-0.2
						c0.2-0.1,0.4-0.6,0.6-0.7c0.3-0.1,0.7,1,0.9,0.9c0.3-0.1,0.4-0.7,0.6-0.7c0.4-0.1,0.4,0.1,0.7,0c0.1,0-0.2,0.1-0.1,0.1
						c0.1,0.1,0.5-0.1,0.7,0.2c0.1,0.1-0.1,0.8,0.1,1c0.2,0.2,1-0.3,1.1-0.2c0.2,0.2-0.2,0.9,0,1c0.2,0.2,0.9-0.3,1-0.1
						c0.2,0.2-0.3,1-0.1,1.2c0.2,0.2,0.8-0.2,1,0c0.2,0.1,0.6,0,0.8,0.2c0.2,0.1,0,0.7,0.2,0.9c0.2,0.1,0.6,0,0.8,0.1
						c0.2,0.1-0.1,0.9,0.1,1c0.2,0.1,0.5,0.1,0.7,0.3c0.2,0.1,0.4,0.2,0.6,0.4c0.2,0.1,0.3,0.4,0.5,0.5c0.2,0.1,0.6,0,0.8,0.1
						c0.2,0.1,0.4,0.2,0.6,0.3c0.2,0.1,0.5,0.1,0.7,0.3c0.2,0.1,0.6-0.1,0.8,0c0.2,0.1,0.4,0.2,0.6,0.4c0.2,0.1,0,1,0.2,1.1
						c0.2,0.1,0.8-0.5,1-0.4c0.2,0.1,0.2,0.7,0.4,0.8c0.2,0.1,0.7-0.4,0.9-0.3c0.2,0.1,0.1,0.9,0.3,1c0.2,0.1,0.4,0.2,0.6,0.3
						c0.2,0.1,0.7-0.4,0.9-0.3c0.2,0.1,0.4,0.2,0.6,0.3c0.2,0.1,0.3,0.7,0.5,0.8c0.2,0.1,0.5,0.2,0.7,0.3c0.2,0.1,0.7-0.7,0.9-0.7
						c0.2,0.1,0.3,0.8,0.5,0.8c0.2,0.1,0.5-0.1,0.7,0c0.2,0.1,0.4,0.4,0.6,0.4c0.2,0,0.5,0,0.7,0c0.2,0,0.4,0.4,0.7,0.5
						c0.2,0,0.6-0.6,0.8-0.6c0.2,0,0.5-0.4,0.8-0.4c0.2,0,0.4,1.3,0.6,1.3c0.2,0,0.5-0.9,0.8-0.9c0.2,0,0.5,0.4,0.7,0.5
						c0.2,0,0.5-0.2,0.7-0.2c0.4,0,0.4-0.1,0.7-0.1c0.4,0,0.4,0.5,0.7,0.5c0.4,0,0.4-0.3,0.7-0.3c0.4,0,0.4-0.7,0.7-0.7
						c0.4,0,0.4,0.5,0.7,0.5c0.4,0,0.4-0.1,0.7-0.1c0.4,0,0.4-0.2,0.7-0.2c0.4,0,0.4,0.8,0.7,0.8c0.4,0,0.4-0.5,0.7-0.5
						s0.4,0.7,0.7,0.7c0.2,0,0.5-1,0.7-1.1c0.2,0,0.5,0.1,0.7,0.1c0.2,0,0.5,0.5,0.7,0.5c0.2,0,0.4-0.5,0.7-0.5
						c0.2,0,0.6,0.7,0.8,0.7c0.2,0,0.5-0.2,0.7-0.3c0.2,0,0.3-0.9,0.6-1c0.2,0,0.6,0.4,0.8,0.4c0.2,0,0.5,0.2,0.8,0.1
						c0.2-0.1,0.5-0.1,0.7-0.2c0.2-0.1,0.3-0.7,0.5-0.8c0.2-0.1,0.4-0.2,0.7-0.2c0.2-0.1,0.5,0.2,0.8,0.1c0.2-0.1,0.6,0.2,0.8,0.1
						c0.2-0.1,0.3-0.6,0.5-0.7c0.2-0.1,0.6,0.3,0.9,0.2c0.2-0.1,0.2-0.7,0.4-0.8c0.2-0.1,0.5-0.1,0.7-0.2c0.2-0.1,0.5-0.1,0.7-0.2
						c0.2-0.1,0.5-0.2,0.7-0.3c0.2-0.1,0.5-0.1,0.7-0.2c0.2-0.1,0.2-0.6,0.4-0.7c0.2-0.1,0.4-0.2,0.6-0.3c0.2-0.1,0.4-0.3,0.6-0.4
						c0.2-0.1,0.4-0.2,0.6-0.3c0.2-0.1,0.2-0.5,0.4-0.6c0.2-0.1,0.9,0.4,1.1,0.3c0.2-0.1,0-0.8,0.2-0.9c0.2-0.1,0.7,0.2,0.9,0
						c0.2-0.1,0.3-0.4,0.5-0.6c0.2-0.1,0.4-0.3,0.5-0.5c0.2-0.1,0.1-0.6,0.3-0.8c0.2-0.1,0.5-0.2,0.6-0.3c0.2-0.2,0.5-0.2,0.7-0.3
						c0.2-0.2,0-0.7,0.2-0.8c0.2-0.2,1,0.4,1.1,0.2c0.2-0.2-0.1-0.8,0.1-1c0.2-0.2,0.8,0.1,1,0c0.2-0.2,0.1-0.6,0.3-0.7
						c0.2-0.2-0.1-0.8,0-1c0.2-0.2,1.1,0.5,1.2,0.4c0.1,0-0.3-0.1-0.2-0.1c0.3,0.1,0.3-0.1,0.8,0c0.2,0,0.4,0.5,0.6,0.5
						c0.2,0,0.6-0.7,0.9-0.6c0.2,0,0.3,0.7,0.6,0.7c0.2,0.1,0.6-0.3,0.8-0.3c0.2,0.1,0.4,0.4,0.6,0.5c0.2,0.1,0.4,0.5,0.6,0.5
						c0.2,0.1,0.5-0.1,0.8-0.1c0.2,0.1,0.4,0.2,0.7,0.2c0.2,0.1,0.5,0.1,0.7,0.2c0.2,0.1,0.6-0.3,0.8-0.3c0.2,0.1,0.5,0.1,0.7,0.2
						c0.2,0.1,0.2,0.8,0.5,0.9c0.2,0.1,0.5-0.1,0.7,0c0.2,0.1,0.5,0.1,0.7,0.2c0.2,0.1,0.4,0.4,0.6,0.4c0.2,0.1,0.7-0.4,0.9-0.4
						c0.2,0.1,0.1,1,0.4,1.1c0.2,0.1,0.5,0,0.7,0.1c0.2,0.1,0.7-0.4,0.9-0.4c0.2,0.1,0.5,0,0.7,0.1c0.2,0.1,0.3,0.6,0.5,0.7
						c0.2,0.1,0.7-0.5,0.9-0.4c0.2,0.1,0.3,0.6,0.5,0.7c0.2,0.1,0.4,0.2,0.6,0.3c0.2,0.1,0.5,0,0.7,0.1c0.2,0.1,0.2,0.7,0.5,0.8
						c0.2,0.1,0.4,0.3,0.6,0.4c0.2,0.1,0.5,0,0.8,0.1c0.2,0.1,0.2,0.7,0.4,0.8c0.2,0.1,0.9-0.8,1.1-0.7c0.2,0.1,0.2,0.6,0.5,0.7
						c0.2,0.1,0.4,0.3,0.6,0.4c0.2,0.1,0.4,0.3,0.6,0.4c0.2,0.1,0.8-0.4,1-0.3c0.2,0.1-0.1,1.1,0.1,1.2c0.2,0.1,0.5,0.1,0.7,0.2
						c0.2,0.1,0.8-0.5,1-0.3c0.2,0.1,0.5,0.2,0.7,0.3c0.2,0.1,0.2,0.7,0.4,0.8c0.2,0.1,0.2,0.5,0.4,0.6c0.2,0.1,0.7-0.3,0.9-0.2
						c0.2,0.1,0.1,0.7,0.3,0.8c0.2,0.1,0.6,0,0.8,0.2c0.2,0.1,0.4,0.3,0.6,0.4c0.2,0.1,0.6,0,0.8,0.2c0.2,0.1,0.1,0.7,0.3,0.9
						c0.2,0.1,0.8-0.2,1-0.1c0.2,0.1,0.2,0.6,0.4,0.7c0.2,0.1,0.1,0.7,0.3,0.8c0.2,0.1,0.9-0.4,1.1-0.2c0.2,0.1,0.1,0.7,0.3,0.9
						c0.2,0.1,0.6,0,0.8,0.1c0.2,0.1-0.1,0.9,0.1,1c0.2,0.2,0.6,0,0.8,0.1c0.2,0.2,0.1,0.6,0.3,0.7c0.2,0.2,0.2,0.5,0.3,0.7
						c0.2,0.2,0.6,0.1,0.8,0.2c0.2,0.2,0.2,0.5,0.4,0.6c0.2,0.2,0.8-0.2,1,0c0.2,0.2,0.3,0.4,0.5,0.5c0.2,0.2-0.3,0.9-0.1,1.1
						c0.2,0.2,1.1-0.4,1.2-0.2c0.2,0.2-0.4,1-0.2,1.2c0.2,0.2,0.7,0,0.9,0.1c0.2,0.2,0.4,0.3,0.5,0.5c0.2,0.2,0,0.7,0.1,0.8
						c0.2,0.2,0.6,0.1,0.8,0.3c0.2,0.2,0.1,0.5,0.3,0.7c0.2,0.2,0.4,0.3,0.5,0.5c0.1,0.2,0.1,0.6,0.2,0.7c0.1,0.2,0.2,0.4,0.4,0.6
						c0.1,0.2,0.8,0,1,0.2c0.1,0.2,0.5,0.3,0.6,0.5c0.1,0.2,0.1,0.5,0.2,0.7c0.1,0.2,0.2,0.5,0.3,0.7c0.1,0.2,0.3,0.4,0.5,0.6
						c0.1,0.2,0,0.6,0.1,0.8c0.1,0.2,0.2,0.4,0.3,0.6c0.1,0.2,0.5,0.3,0.6,0.5c0.1,0.2-0.3,0.7-0.2,0.9c0.1,0.2,0.4,0.3,0.5,0.6
						c0.1,0.2,0.5,0.3,0.6,0.5c0.1,0.2,0.3,0.4,0.4,0.6c0.1,0.2,0.6,0.3,0.7,0.5c0.1,0.2-0.7,0.8-0.6,1.1c0.1,0.2,0.3,0.4,0.4,0.6
						c0.1,0.2,0.3,0.4,0.4,0.6c0.1,0.2-0.1,0.5,0,0.8c0.1,0.2,0.9,0.2,1,0.4c0.1,0.2-0.3,0.6-0.2,0.9c0.1,0.2,0,0.5,0.1,0.7
						c0.1,0.2,0.4,0.4,0.5,0.6c0.1,0.2,0.1,0.5,0.1,0.7c0.1,0.2-0.5,0.7-0.5,0.9c0.1,0.2,0.9,0.3,0.9,0.5c0.1,0.2,0.1,0.5,0.2,0.7
						c0.1,0.2,0,0.5,0.1,0.7c0.1,0.2-0.3,0.6-0.2,0.8c0.1,0.2,0.4,0.4,0.5,0.6c0,0.2-0.3,0.5-0.3,0.8c0,0.2,0.2,0.4,0.3,0.7
						c0,0.2,0.5,0.4,0.6,0.6c0,0.2,0.2,0.5,0.2,0.7c0,0.2,0.1,0.5,0.1,0.7c0,0.2-0.1,0.5-0.1,0.7c0,0.2-0.2,0.5-0.2,0.7
						c0,0.2,0.2,0.5,0.2,0.7c0,0.2-0.4,0.5-0.4,0.8c0,0.2,0.2,0.5,0.2,0.7c0,0.2,0.1,0.5,0.1,0.7c0,0.2-0.1,0.5-0.1,0.7
						c0,0.2-0.1,0.5-0.1,0.7C212.5,283.8,213,284.2,213,284.4z"/>
				</g>
			</g>
			<g>
				<g>
					<path class="st5" d="M139.6,217c0.3,0.2,0.3,0.1,0.6,0.3c0.3,0.2,0.2,0.4,0.5,0.6c0.3,0.2,0.4,0.1,0.7,0.3
						c0.3,0.2,0.4,0.1,0.7,0.3c0.3,0.2,0.1,0.4,0.4,0.6c0.3,0.2,0.2,0.3,0.5,0.5c0.3,0.2,0.5-0.1,0.8,0.1c0.3,0.2,0.2,0.4,0.5,0.6
						c0.3,0.2,0.5-0.1,0.8,0.1c0.3,0.2,0.1,0.5,0.4,0.7c0.3,0.2,0.3,0.1,0.6,0.3c0.3,0.2,0.3,0.1,0.6,0.3c0.3,0.2,0.4,0.1,0.7,0.3
						c0.3,0.2,0.2,0.4,0.5,0.6c0.3,0.2,0.3,0.3,0.6,0.5c0.3,0.2,0.4,0.1,0.7,0.3c0.3,0.2,0.3,0.2,0.6,0.4c0.3,0.2,0.3,0.2,0.6,0.4
						c0.3,0.2,0.4,0.1,0.6,0.3c0.3,0.2,0.3,0.1,0.6,0.3c0.3,0.2,0.2,0.4,0.4,0.6c0.3,0.2,0.4,0.1,0.7,0.3c0.3,0.2,0.3,0.2,0.6,0.4
						c0.3,0.2,0.4,0.1,0.7,0.3c0.1,0.1-0.3,0.1-0.4,0.1c-0.1,0.1-0.1,0.5-0.3,0.7c-0.1,0.1-0.5,0.1-0.7,0.3
						c-0.2,0.2-0.1,0.6-0.2,0.8c-0.2,0.2-0.5,0.2-0.7,0.3c-0.2,0.2-0.2,0.5-0.4,0.6c-0.2,0.2-0.5,0.1-0.7,0.3
						c-0.2,0.2-0.3,0.4-0.4,0.6c-0.2,0.1-0.3,0.4-0.5,0.5c-0.2,0.1-0.6,0-0.8,0.2c-0.2,0.1-0.3,0.3-0.5,0.5
						c-0.2,0.1-0.3,0.4-0.5,0.5c-0.2,0.1-0.3,0.3-0.5,0.5c-0.2,0.1-0.3,0.4-0.5,0.5c-0.2,0.1-0.6,0-0.8,0.2
						c-0.2,0.1-0.3,0.4-0.5,0.5c-0.2,0.1-0.4,0.3-0.6,0.4c-0.2,0.1-0.4,0.3-0.6,0.4c-0.2,0.1-0.5,0.1-0.7,0.2
						c-0.2,0.1-0.4,0.3-0.6,0.4c-0.2,0.1-0.4,0.3-0.6,0.4c-0.2,0.1-0.4,0.3-0.6,0.4c-0.2,0.1-0.4,0.2-0.7,0.3
						c-0.2,0.1-0.5,0.1-0.7,0.2c-0.2,0.1-0.4,0.1-0.7,0.2c-0.2,0.1-0.4,0.3-0.6,0.4c-0.2,0.1-0.4,0.3-0.6,0.4
						c-0.2,0.1-0.5-0.1-0.8,0c-0.2,0.1-0.4,0.3-0.6,0.3c-0.2,0.1-0.4,0.2-0.7,0.3c-0.2,0.1-0.5,0.1-0.7,0.1
						c-0.2,0.1-0.4,0.3-0.6,0.4c-0.2,0.1-0.5,0.1-0.7,0.1c-0.2,0.1-0.4,0.2-0.7,0.2c-0.2,0-0.5-0.1-0.7,0c-0.2,0-0.5,0.2-0.7,0.2
						c-0.2,0-0.5,0.1-0.7,0.1c-0.2,0-0.5,0-0.7,0c-0.2,0-0.5,0-0.7,0c-0.2,0-0.5,0.1-0.7,0.1c-0.2,0-0.5,0-0.7,0
						c-0.2,0-0.5,0.1-0.7,0.1c-0.4,0-0.4-0.2-0.7-0.2c-0.4,0-0.4,0.2-0.7,0.2c-0.4,0-0.4,0.1-0.7,0.1c-0.4,0-0.4-0.3-0.7-0.3
						c-0.4,0-0.4-0.1-0.7-0.1c-0.4,0-0.4,0.4-0.7,0.4c-0.4,0-0.4-0.2-0.7-0.2c-0.4,0-0.4-0.1-0.7-0.1c-0.4,0-0.4-0.1-0.7-0.1
						c-0.4,0-0.4,0.3-0.7,0.3c-0.2,0-0.5-0.2-0.7-0.2c-0.2,0-0.5,0-0.7,0c-0.2,0-0.5,0-0.7,0c-0.2,0-0.5-0.1-0.7-0.2
						c-0.2,0-0.5,0.1-0.7,0c-0.2,0-0.5,0-0.7,0c-0.2,0-0.5,0-0.7,0c-0.2,0-0.4-0.5-0.6-0.6c-0.2,0-0.5,0-0.7,0
						c-0.2-0.1-0.5-0.2-0.7-0.2c-0.2-0.1-0.5,0.2-0.8,0.1c-0.2-0.1-0.4-0.4-0.6-0.5c-0.2-0.1-0.4-0.2-0.6-0.3
						c-0.2-0.1-0.5,0.1-0.7,0c-0.2-0.1-0.4-0.3-0.6-0.4c-0.2-0.1-0.5-0.1-0.7-0.2c-0.2-0.1-0.4-0.3-0.6-0.4c-0.2-0.1-0.5,0-0.7-0.1
						c-0.2-0.1-0.3-0.5-0.5-0.6c-0.2-0.1-0.5-0.1-0.7-0.2c-0.2-0.1-0.4-0.2-0.7-0.3c-0.2-0.1-0.5-0.2-0.7-0.3
						c-0.2-0.1-0.4-0.3-0.6-0.4c-0.2-0.1-0.3-0.4-0.5-0.5c-0.2-0.1-0.4-0.2-0.6-0.4c-0.2-0.1-0.5-0.1-0.7-0.2
						c-0.2-0.1-0.4-0.3-0.6-0.4c-0.2-0.1-0.4-0.3-0.6-0.4c-0.2-0.1-0.3-0.5-0.5-0.6c-0.2-0.1-0.6,0-0.7-0.2
						c-0.2-0.1-0.3-0.4-0.5-0.5c-0.2-0.1-0.4-0.2-0.6-0.3c-0.2-0.1-0.4-0.3-0.6-0.4c-0.2-0.2-0.2-0.5-0.4-0.7
						c-0.2-0.2-0.4-0.3-0.6-0.4c-0.2-0.2-0.5-0.1-0.7-0.3c-0.2-0.2-0.4-0.3-0.5-0.5c-0.2-0.2-0.3-0.4-0.5-0.6
						c-0.2-0.2-0.3-0.4-0.5-0.5c-0.2-0.2-0.4-0.3-0.6-0.4c-0.2-0.2-0.3-0.5-0.4-0.6c-0.1-0.1-0.3,0-0.2-0.1c0.3-0.2,0.4,0,0.7-0.2
						c0.3-0.2,0.3-0.3,0.6-0.5c0.3-0.2,0.1-0.5,0.4-0.7c0.3-0.2,0.3-0.1,0.6-0.4c0.3-0.2,0.3-0.1,0.6-0.3c0.3-0.2,0.2-0.3,0.5-0.6
						c0.3-0.2,0.3-0.2,0.6-0.4c0.3-0.2,0.3-0.1,0.6-0.4c0.3-0.2,0.4-0.1,0.7-0.3c0.3-0.2,0.3-0.3,0.6-0.5c0.3-0.2,0.3-0.2,0.6-0.4
						c0.3-0.2,0.4-0.1,0.7-0.3c0.3-0.2,0.3-0.2,0.6-0.4c0.3-0.2,0.3-0.2,0.6-0.4s0.1-0.5,0.4-0.7c0.3-0.2,0.4-0.1,0.7-0.3
						c0.3-0.2,0.4-0.1,0.7-0.3c0.3-0.2,0.2-0.4,0.5-0.6c0.3-0.2,0.4,0,0.7-0.2c0.3-0.2,0.3-0.3,0.6-0.5c0.3-0.2,0.2-0.4,0.5-0.6
						c0.3-0.2,0.4-0.1,0.7-0.4c0.3-0.2,0.4-0.1,0.7-0.3"/>
				</g>
				<g>
					<path class="st5" d="M42.2,280.2c0-0.2-0.1-0.5-0.1-0.7c0-0.2,0.1-0.5,0.1-0.7c0-0.2-0.1-0.5-0.1-0.7c0-0.2,0.1-0.5,0.1-0.7
						c0-0.2,0.1-0.5,0.1-0.7c0-0.2-0.2-0.5-0.2-0.7c0-0.2,0.2-0.5,0.2-0.7c0-0.2,0.2-0.5,0.2-0.7c0-0.2-0.2-0.5-0.2-0.7
						c0-0.2,0.1-0.5,0.1-0.7c0-0.2,0-0.5,0.1-0.7c0-0.2,0.3-0.4,0.3-0.7c0-0.2,0-0.5,0-0.7c0-0.2,0.2-0.5,0.2-0.7
						c0-0.2,0.1-0.5,0.2-0.7c0.1-0.2,0-0.5,0-0.7c0.1-0.2,0.3-0.4,0.3-0.7c0.1-0.2,0-0.5,0.1-0.7c0.1-0.2,0.1-0.5,0.2-0.7
						c0.1-0.2,0.3-0.4,0.4-0.6c0.1-0.2,0.1-0.5,0.2-0.7c0.1-0.2,0.2-0.5,0.2-0.7c0.1-0.2,0.3-0.4,0.3-0.6c0.1-0.2-0.1-0.5,0-0.8
						c0.1-0.2,0.3-0.4,0.4-0.6c0.1-0.2,0.1-0.5,0.2-0.7c0.1-0.2,0.3-0.4,0.4-0.6c0.1-0.2,0.1-0.5,0.2-0.7c0.1-0.2,0.1-0.5,0.2-0.7
						c0.1-0.2,0.3-0.4,0.4-0.6c0.1-0.2,0.1-0.5,0.2-0.7c0.1-0.2,0.4-0.3,0.5-0.6c0.1-0.2,0.3-0.4,0.4-0.6c0.1-0.2,0.2-0.4,0.3-0.6
						c0.1-0.2,0-0.5,0.2-0.7c0.1-0.2,0.3-0.4,0.4-0.6c0.1-0.2,0.3-0.4,0.4-0.6c0.1-0.2,0.3-0.4,0.4-0.6c0.1-0.2,0.1-0.5,0.2-0.7
						c0.1-0.2,0.3-0.4,0.4-0.6c0.1-0.2,0.4-0.3,0.5-0.5c0.1-0.2,0.2-0.5,0.3-0.6c0.1-0.2,0.5-0.3,0.6-0.4c0.1-0.2,0.1-0.6,0.2-0.7
						c0.1-0.2,0.4-0.3,0.5-0.5c0.2-0.2,0.4-0.3,0.5-0.5c0.2-0.2,0.2-0.5,0.3-0.7c0.2-0.2,0.4-0.3,0.5-0.5c0.2-0.2,0.3-0.4,0.4-0.6
						c0.2-0.2,0.3-0.3,0.5-0.5c0.2-0.2,0.3-0.4,0.5-0.5c0.2-0.2,0.5-0.2,0.7-0.4c0.2-0.2,0.3-0.3,0.5-0.5c0.2-0.2,0.4-0.3,0.5-0.5
						c0.2-0.2,0.3-0.4,0.5-0.5c0.2-0.2,0.2-0.4,0.4-0.6c0.2-0.2,0.3-0.4,0.5-0.5c0.2-0.2,0.5-0.2,0.7-0.3c0.2-0.2,0.4-0.2,0.6-0.4
						c0.2-0.2,0.2-0.5,0.4-0.6c0.2-0.2,0.3-0.3,0.5-0.5c0.2-0.2,0.4-0.2,0.6-0.4c0.2-0.1,0.3-0.4,0.5-0.5c0.2-0.1,0.4-0.3,0.6-0.4
						c0.2-0.1,0.4-0.3,0.6-0.4c0.2-0.1,0.5-0.1,0.7-0.3c0.2-0.1,0.3-0.4,0.5-0.5c0.2-0.1,0.4-0.3,0.6-0.4c0.2-0.1,0.4-0.3,0.6-0.4
						c0.2-0.1,0.4-0.3,0.6-0.4c0.2-0.1,0.4-0.2,0.6-0.4c0.2-0.1,0.3-0.4,0.5-0.5c0.2-0.1,0.4-0.2,0.6-0.4c0.2-0.1,0.5-0.1,0.7-0.2
						c0.2-0.1,0.4-0.2,0.6-0.3c0.2-0.1,0.3-0.4,0.5-0.5c0.2-0.1,0.5-0.2,0.7-0.3c0.2-0.1,0.5-0.1,0.7-0.2c0.2-0.1,0.3-0.4,0.5-0.5
						c0.2-0.1,0.5-0.2,0.7-0.3c0.2-0.1,0.4-0.3,0.6-0.4c0.2-0.1,0.5-0.1,0.7-0.2c0.2-0.1,0.4-0.3,0.6-0.4c0.2-0.1,0.5-0.1,0.7-0.2
						c0.2-0.1,0.3-0.4,0.6-0.5c0.2-0.1,0.4-0.2,0.6-0.3c0.2-0.1,0.5-0.1,0.7-0.2c0.2-0.1,0.5-0.1,0.7-0.2c0.2-0.1,0.5-0.1,0.7-0.2
						c0.2-0.1,0.5-0.1,0.7-0.2c0.2-0.1,0.3-0.4,0.6-0.5c0.2-0.1,0.6,0.1,0.8,0c0.2-0.1,0.4-0.2,0.6-0.3c0.2-0.1,0.4-0.2,0.7-0.3
						c0.2-0.1,0.4-0.3,0.6-0.4c0.2-0.1,0.4-0.2,0.7-0.3c0.2-0.1,0.5-0.1,0.7-0.2c0.2-0.1,0.5,0,0.7-0.1c0.2-0.1,0.4-0.2,0.7-0.3
						c0.2-0.1,0.5-0.2,0.7-0.2c0.2-0.1,0.4-0.2,0.7-0.3c0.2-0.1,0.5,0.1,0.8,0c0.2-0.1,0.4-0.3,0.6-0.4c0.2-0.1,0.5-0.1,0.7-0.2
						c0.2-0.1,0.5-0.1,0.7-0.1c0.2-0.1,0.4-0.2,0.7-0.3c0.2-0.1,0.4-0.2,0.7-0.3c0.2-0.1,0.5-0.2,0.7-0.2c0.2-0.1,0.5,0.1,0.8,0.1
						c0.2-0.1,0.5,0,0.7-0.1c0.2-0.1,0.5-0.2,0.7-0.2c0.3-0.1,0.5-0.1,0.7-0.2c0.3-0.1,0.5-0.1,0.7-0.1c0.4-0.1,0.3-0.2,0.7-0.2"/>
				</g>
				<g>
					<path class="st5" d="M153.8,226.6c0.4,0.1,0.2,0.2,0.7,0.3c0.2,0,0.4,0.1,0.7,0.2c0.2,0,0.5,0,0.7,0c0.2,0,0.5,0,0.7,0.1
						c0.2,0.1,0.4,0.2,0.7,0.3c0.2,0.1,0.4,0.2,0.7,0.3c0.2,0.1,0.5-0.1,0.7,0c0.2,0.1,0.4,0.4,0.6,0.4c0.2,0.1,0.5-0.1,0.8-0.1
						c0.2,0.1,0.4,0.3,0.7,0.3c0.2,0.1,0.5,0.1,0.7,0.2c0.2,0.1,0.5,0,0.7,0.1c0.2,0.1,0.5,0.2,0.7,0.2c0.2,0.1,0.5,0.1,0.7,0.2
						c0.2,0.1,0.4,0.4,0.6,0.5c0.2,0.1,0.5-0.1,0.8,0c0.2,0.1,0.4,0.4,0.6,0.4c0.2,0.1,0.5,0,0.7,0.1c0.2,0.1,0.4,0.2,0.7,0.2
						c0.2,0.1,0.3,0.4,0.6,0.5c0.2,0.1,0.5,0,0.7,0.1c0.2,0.1,0.4,0.2,0.6,0.3c0.2,0.1,0.4,0.2,0.6,0.3c0.2,0.1,0.5-0.1,0.8,0
						c0.2,0.1,0.4,0.3,0.6,0.4c0.2,0.1,0.4,0.2,0.6,0.3c0.2,0.1,0.4,0.2,0.6,0.3c0.2,0.1,0.5,0,0.7,0.1c0.2,0.1,0.4,0.2,0.7,0.3
						c0.2,0.1,0.4,0.3,0.6,0.4c0.2,0.1,0.5,0.1,0.7,0.2c0.2,0.1,0.4,0.3,0.6,0.4c0.2,0.1,0.5,0.2,0.7,0.3c0.2,0.1,0.3,0.4,0.6,0.5
						c0.2,0.1,0.5,0.1,0.7,0.2c0.2,0.1,0.3,0.4,0.5,0.6c0.2,0.1,0.6-0.1,0.8,0.1c0.2,0.1,0.4,0.2,0.6,0.3c0.2,0.1,0.3,0.4,0.5,0.5
						c0.2,0.1,0.4,0.2,0.6,0.3c0.2,0.1,0.3,0.3,0.6,0.5c0.2,0.1,0.4,0.3,0.6,0.4c0.2,0.1,0.5,0.1,0.7,0.2c0.2,0.1,0.4,0.3,0.6,0.4
						c0.2,0.1,0.5,0.1,0.7,0.3c0.2,0.1,0.3,0.5,0.5,0.6c0.2,0.1,0.5,0.1,0.7,0.2c0.2,0.1,0.2,0.6,0.4,0.7c0.2,0.1,0.5,0.2,0.7,0.3
						c0.2,0.1,0.4,0.2,0.6,0.4c0.2,0.1,0.4,0.2,0.6,0.4c0.2,0.1,0.3,0.5,0.4,0.6c0.2,0.1,0.5,0.1,0.7,0.3c0.2,0.1,0.3,0.4,0.5,0.6
						c0.2,0.2,0.4,0.2,0.6,0.4c0.2,0.2,0.4,0.3,0.6,0.4c0.2,0.2,0.2,0.5,0.4,0.6c0.2,0.2,0.4,0.3,0.6,0.4c0.2,0.2,0.3,0.4,0.5,0.5
						c0.2,0.2,0.4,0.3,0.6,0.4c0.2,0.2,0.3,0.3,0.5,0.5c0.2,0.2,0.2,0.5,0.3,0.7c0.2,0.2,0.5,0.2,0.7,0.4c0.2,0.2,0.2,0.5,0.3,0.7
						c0.2,0.2,0.4,0.2,0.6,0.4c0.2,0.2,0.2,0.4,0.4,0.6c0.2,0.2,0.3,0.3,0.5,0.5c0.2,0.2,0.5,0.2,0.7,0.4c0.2,0.2,0.2,0.4,0.4,0.6
						c0.2,0.2,0.2,0.5,0.3,0.6c0.1,0.2,0.4,0.3,0.5,0.5c0.1,0.2,0.3,0.4,0.4,0.6c0.1,0.2,0.4,0.3,0.5,0.5c0.1,0.2,0.2,0.4,0.4,0.6
						c0.1,0.2,0.2,0.4,0.4,0.6c0.1,0.2,0.2,0.5,0.3,0.7c0.1,0.2,0.1,0.5,0.3,0.7c0.1,0.2,0.4,0.3,0.5,0.5c0.1,0.2,0.4,0.3,0.5,0.6
						c0.1,0.2,0.2,0.5,0.3,0.7c0.1,0.2,0.1,0.5,0.3,0.7c0.1,0.2,0.3,0.4,0.5,0.6c0.1,0.2,0.3,0.4,0.4,0.6c0.1,0.2,0.1,0.5,0.2,0.7
						c0.1,0.2,0.3,0.4,0.4,0.6c0.1,0.2,0.2,0.5,0.3,0.7c0.1,0.2,0.3,0.4,0.4,0.6c0.1,0.2,0.2,0.4,0.3,0.7c0.1,0.2-0.1,0.6,0,0.8
						c0.1,0.2,0.3,0.4,0.3,0.6c0.1,0.2,0.4,0.4,0.4,0.6c0.1,0.2-0.1,0.5,0,0.8c0.1,0.2,0.4,0.4,0.4,0.6c0.1,0.2,0.1,0.5,0.2,0.7
						c0.1,0.2-0.1,0.5,0,0.7c0.1,0.2,0.2,0.4,0.3,0.7c0.1,0.2,0,0.5,0.1,0.7c0.1,0.2,0.3,0.4,0.4,0.6c0.1,0.2,0.1,0.5,0.1,0.7
						c0.1,0.2-0.1,0.5,0,0.7c0,0.2,0.1,0.5,0.2,0.7c0,0.2,0.2,0.5,0.2,0.7c0,0.2-0.1,0.5-0.1,0.7c0,0.2,0.2,0.5,0.2,0.7
						c0,0.2-0.1,0.5,0,0.7c0,0.2,0.3,0.4,0.3,0.7c0,0.2,0.2,0.5,0.2,0.7c0,0.2,0,0.5,0,0.7c0,0.2-0.1,0.5-0.1,0.7
						c0,0.2-0.1,0.5-0.1,0.7c0,0.2,0.1,0.5,0.1,0.7c0,0.2-0.1,0.5-0.1,0.7c0,0.2,0.3,0.5,0.3,0.7c0,0.2,0,0.5,0,0.7"/>
				</g>
			</g>
		</g>
	</g>
	<g>
		<path class="st4" d="M146.3,153.1c0.2-0.1,0.4-0.3,0.6-0.5c0.2-0.2,0.3-0.4,0.4-0.6c0.1-0.2,0.3-0.4,0.4-0.6
			c0.1-0.2,0.1-0.5,0.2-0.7c0-0.2,0.1-0.5,0.1-0.7c0-0.2,0-0.5-0.1-0.7c0-0.2-0.1-0.5-0.2-0.7c-0.1-0.2-0.2-0.4-0.3-0.6
			c-0.1-0.2-0.3-0.4-0.4-0.6c-0.1-0.2-0.3-0.4-0.5-0.5c-0.2-0.1-0.4-0.3-0.6-0.4c-0.2-0.1-0.4-0.2-0.6-0.3c-0.2-0.1-0.4-0.1-0.7-0.2
			c-0.2,0-0.5-0.1-0.7-0.1c-0.2,0-0.5,0-0.7,0.1c-0.2,0-0.5,0.1-0.7,0.2c-0.2,0.1-0.4,0.2-0.6,0.3c-0.2,0.1-0.4,0.2-0.6,0.4
			c-0.2,0.1-0.3,0.3-0.5,0.5c-0.1,0.2-0.3,0.4-0.4,0.6c-0.1,0.2-0.2,0.4-0.3,0.6c-0.1,0.2-0.1,0.4-0.2,0.7c0,0.2,0,0.5,0,0.7
			c0,0.3,0,0.5,0.1,0.8c0.1,0.3,0.1,0.5,0.2,0.7c0.1,0.2,0.2,0.5,0.4,0.7c0.2,0,0.5,0.1,0.7,0.1c0.2,0,0.5,0.1,0.7,0.1
			c0.2,0,0.5,0,0.7,0.1c0.2,0,0.5,0.1,0.7,0.2c0.2,0,0.5,0,0.7,0.1c0.2,0,0.5,0.1,0.7,0.1c0.2,0,0.5,0.1,0.7,0.2
			C145.9,153,146.1,153,146.3,153.1z"/>
	</g>
	<g>
		<path class="st4" d="M102.1,152.8c0.2,0,0.4-0.1,0.7-0.1c0.2,0,0.5-0.1,0.7-0.1c0.2,0,0.5-0.1,0.7-0.1c0.2,0,0.5-0.1,0.7-0.1
			c0.2,0,0.5-0.1,0.7-0.1c0.2,0,0.5-0.1,0.7-0.1c0.2,0,0.5-0.1,0.7-0.1c0.2,0,0.5-0.1,0.7-0.1c0.2,0,0.5,0,0.7-0.1
			c0.1-0.2,0.2-0.4,0.3-0.6c0.1-0.2,0.1-0.4,0.2-0.6c0-0.2,0.1-0.4,0.1-0.7c0-0.2,0-0.5-0.1-0.7c0-0.2-0.1-0.4-0.2-0.7
			c-0.1-0.2-0.2-0.4-0.3-0.6c-0.1-0.2-0.2-0.4-0.4-0.6c-0.1-0.2-0.3-0.3-0.5-0.5c-0.2-0.1-0.3-0.3-0.5-0.4c-0.2-0.1-0.4-0.2-0.6-0.3
			c-0.2-0.1-0.4-0.2-0.7-0.2c-0.2,0-0.5-0.1-0.7-0.1c-0.2,0-0.5,0.1-0.7,0.1c-0.2,0-0.4,0.1-0.7,0.2c-0.2,0.1-0.4,0.2-0.6,0.3
			c-0.2,0.1-0.4,0.2-0.6,0.4c-0.2,0.1-0.3,0.3-0.5,0.5c-0.1,0.2-0.3,0.4-0.4,0.6c-0.1,0.2-0.2,0.4-0.3,0.6c-0.1,0.2-0.1,0.4-0.2,0.7
			c0,0.2-0.1,0.5-0.1,0.7c0,0.3,0,0.5,0.1,0.8c0.1,0.3,0.2,0.5,0.3,0.8c0.1,0.2,0.3,0.5,0.4,0.7
			C101.8,152.4,101.9,152.6,102.1,152.8z"/>
	</g>
	<g>
		<path class="st6" d="M114.4,150.2c0,0.2,0.1,0.5,0.1,0.7c0,0.2,0,0.5-0.1,0.7c0,0.2-0.2,0.5-0.2,0.7c0,0.2,0,0.5-0.1,0.7
			c-0.1,0.2-0.2,0.5-0.2,0.7c-0.1,0.2-0.2,0.5-0.2,0.7c-0.1,0.2-0.1,0.5-0.2,0.7c-0.1,0.2-0.2,0.4-0.3,0.6c-0.1,0.2-0.1,0.5-0.2,0.7
			c-0.1,0.2-0.2,0.4-0.4,0.6c-0.1,0.2-0.2,0.4-0.4,0.6c-0.1,0.2-0.3,0.4-0.4,0.6c-0.1,0.2-0.3,0.4-0.5,0.6c-0.2,0.2-0.3,0.4-0.5,0.5
			c-0.2,0.2-0.3,0.4-0.5,0.5c-0.2,0.2-0.4,0.3-0.6,0.5c-0.2,0.2-0.4,0.3-0.6,0.5c-0.2,0.2-0.4,0.2-0.6,0.4c-0.2,0.1-0.4,0.3-0.6,0.5
			c-0.2,0.1-0.4,0.3-0.6,0.5c-0.2,0.1-0.5,0.1-0.7,0.2c-0.2,0.1-0.4,0.2-0.7,0.3c-0.2,0.1-0.4,0.3-0.6,0.4c-0.2,0.1-0.5,0.2-0.7,0.2
			c-0.2,0.1-0.5,0.1-0.7,0.1c-0.2,0.1-0.5,0.1-0.7,0.1c-0.2,0-0.4,0.2-0.7,0.3c-0.2,0-0.5,0-0.7,0c-0.2,0-0.5,0.1-0.7,0.1
			c-0.2,0-0.5,0-0.7,0c-0.2,0-0.5,0-0.7,0c-0.2,0-0.5-0.1-0.7-0.1c-0.2,0-0.5-0.1-0.7-0.1c-0.2,0-0.5,0-0.7,0
			c-0.2-0.1-0.5-0.2-0.7-0.3c-0.2-0.1-0.5,0-0.7-0.1c-0.2-0.1-0.5-0.2-0.7-0.2c-0.2-0.1-0.5-0.1-0.7-0.2c-0.2-0.1-0.4-0.3-0.6-0.4
			c-0.2-0.1-0.4-0.2-0.7-0.3c-0.2-0.1-0.4-0.2-0.6-0.4c-0.2-0.1-0.4-0.2-0.6-0.4c-0.2-0.1-0.3-0.4-0.5-0.5c-0.2-0.2-0.3-0.3-0.5-0.5
			c-0.2-0.2-0.4-0.2-0.6-0.4s-0.3-0.4-0.4-0.6c-0.2-0.2-0.4-0.3-0.5-0.5c-0.2-0.2-0.2-0.4-0.4-0.6c-0.1-0.2-0.3-0.4-0.4-0.6
			c-0.1-0.2-0.3-0.4-0.4-0.6c-0.1-0.2-0.2-0.4-0.3-0.6c-0.1-0.2-0.2-0.4-0.3-0.7c-0.1-0.2-0.1-0.5-0.2-0.7c-0.1-0.2-0.2-0.4-0.3-0.7
			c-0.1-0.2-0.1-0.5-0.2-0.7c-0.1-0.2-0.2-0.5-0.2-0.7c0-0.2-0.1-0.5-0.1-0.7c0-0.2,0-0.5,0-0.7c0-0.2-0.1-0.5-0.1-0.7
			c0-0.2,0-0.5,0-0.7c0-0.2,0-0.5,0-0.7c0-0.2-0.1-0.5-0.1-0.7c0-0.2,0.1-0.5,0.2-0.7c0-0.2,0.1-0.5,0.1-0.7
			c0.1-0.2,0.1-0.5,0.2-0.7c0.1-0.2,0-0.5,0.1-0.7c0.1-0.2,0.2-0.5,0.2-0.7c0.1-0.2,0.3-0.4,0.3-0.6c0.1-0.2,0.2-0.5,0.3-0.7
			c0.1-0.2,0.3-0.4,0.4-0.6c0.1-0.2,0.2-0.4,0.3-0.6c0.1-0.2,0.4-0.3,0.5-0.5c0.1-0.2,0.3-0.4,0.4-0.6c0.2-0.2,0.3-0.3,0.5-0.5
			c0.2-0.2,0.2-0.5,0.4-0.6c0.2-0.2,0.4-0.3,0.6-0.5c0.2-0.2,0.4-0.3,0.6-0.4c0.2-0.2,0.4-0.3,0.6-0.4c0.2-0.1,0.4-0.2,0.6-0.4
			c0.2-0.1,0.4-0.2,0.6-0.4c0.2-0.1,0.4-0.3,0.6-0.4c0.2-0.1,0.4-0.2,0.7-0.3c0.2-0.1,0.4-0.2,0.7-0.3c0.2-0.1,0.5-0.1,0.7-0.1
			c0.2-0.1,0.4-0.3,0.7-0.3c0.2-0.1,0.5,0,0.7,0c0.2,0,0.5-0.1,0.7-0.2c0.2,0,0.5-0.2,0.7-0.2c0.2,0,0.5-0.1,0.7-0.1
			c0.2,0,0.5,0.1,0.7,0.1c0.2,0,0.5-0.1,0.7-0.1c0.2,0,0.5,0.1,0.7,0.1c0.2,0,0.5,0,0.7,0c0.2,0,0.5,0.1,0.7,0.1
			c0.2,0.1,0.5,0.2,0.7,0.2c0.2,0.1,0.5,0.2,0.7,0.2c0.2,0.1,0.5,0.1,0.7,0.2c0.2,0.1,0.5,0.2,0.7,0.3c0.2,0.1,0.4,0.2,0.7,0.3
			c0.2,0.1,0.4,0.3,0.6,0.4c0.2,0.1,0.4,0.2,0.6,0.3c0.2,0.1,0.4,0.3,0.6,0.5c0.2,0.1,0.4,0.2,0.6,0.4c0.2,0.2,0.4,0.3,0.5,0.5
			c0.2,0.2,0.3,0.4,0.5,0.5c0.2,0.2,0.4,0.2,0.6,0.4c0.2,0.2,0.3,0.4,0.5,0.6c0.2,0.2,0.2,0.5,0.3,0.7c0.1,0.2,0.3,0.4,0.5,0.6
			c0.1,0.2,0.3,0.4,0.4,0.6c0.1,0.2,0.3,0.4,0.4,0.6c0.1,0.2,0.2,0.5,0.3,0.7c0.1,0.2,0.2,0.4,0.3,0.7c0.1,0.2,0.1,0.5,0.1,0.7
			c0.1,0.2,0.1,0.5,0.2,0.7c0.1,0.2,0.1,0.5,0.2,0.7c0,0.2,0.2,0.5,0.2,0.7c0,0.2,0.1,0.5,0.1,0.7c0,0.2,0,0.5,0,0.7
			C114.4,149.8,114.4,150,114.4,150.2z"/>
	</g>
	<g>
		<path class="st6" d="M161.5,150.2c0,0.2,0.1,0.5,0.1,0.7c0,0.2,0,0.5,0,0.7c0,0.2-0.1,0.5-0.1,0.7c0,0.2-0.1,0.5-0.1,0.7
			c-0.1,0.2-0.2,0.4-0.3,0.7c-0.1,0.2-0.1,0.5-0.2,0.7c-0.1,0.2-0.2,0.4-0.3,0.7c-0.1,0.2-0.1,0.5-0.2,0.7c-0.1,0.2-0.3,0.4-0.4,0.6
			c-0.1,0.2-0.2,0.5-0.3,0.7c-0.1,0.2-0.2,0.4-0.4,0.6c-0.1,0.2-0.3,0.4-0.4,0.6c-0.1,0.2-0.3,0.4-0.4,0.6c-0.2,0.2-0.3,0.4-0.5,0.6
			c-0.2,0.2-0.4,0.3-0.6,0.5s-0.3,0.4-0.5,0.6c-0.2,0.2-0.5,0.2-0.7,0.4c-0.2,0.2-0.3,0.4-0.5,0.6c-0.2,0.1-0.4,0.2-0.6,0.4
			c-0.2,0.1-0.4,0.2-0.7,0.3c-0.2,0.1-0.4,0.2-0.6,0.3c-0.2,0.1-0.4,0.2-0.7,0.3c-0.2,0.1-0.4,0.2-0.7,0.3c-0.2,0.1-0.5,0.1-0.7,0.2
			c-0.2,0.1-0.5,0.1-0.7,0.2c-0.2,0.1-0.4,0.3-0.7,0.3c-0.2,0-0.5,0-0.7,0c-0.2,0-0.5,0.1-0.7,0.1c-0.2,0-0.5,0-0.7,0
			c-0.2,0-0.5,0.1-0.7,0.1c-0.2,0-0.5,0-0.7,0c-0.2,0-0.5,0-0.7,0c-0.2,0-0.5-0.1-0.7-0.2c-0.2,0-0.5,0-0.7,0
			c-0.2-0.1-0.5-0.1-0.7-0.2c-0.2-0.1-0.5-0.2-0.7-0.2c-0.2-0.1-0.5-0.1-0.7-0.2c-0.2-0.1-0.5-0.2-0.7-0.3c-0.2-0.1-0.4-0.3-0.6-0.4
			c-0.2-0.1-0.4-0.2-0.6-0.3c-0.2-0.1-0.4-0.2-0.6-0.4c-0.2-0.1-0.4-0.3-0.6-0.4c-0.2-0.1-0.4-0.3-0.5-0.5c-0.2-0.2-0.4-0.2-0.6-0.4
			c-0.2-0.2-0.3-0.4-0.4-0.6c-0.2-0.2-0.4-0.3-0.6-0.4c-0.2-0.2-0.3-0.4-0.4-0.6c-0.2-0.2-0.4-0.3-0.5-0.5c-0.1-0.2-0.3-0.4-0.4-0.6
			c-0.1-0.2-0.2-0.5-0.3-0.7c-0.1-0.2-0.2-0.4-0.3-0.7c-0.1-0.2-0.3-0.4-0.4-0.6c-0.1-0.2-0.2-0.5-0.2-0.7c-0.1-0.2-0.3-0.4-0.4-0.6
			c-0.1-0.2-0.1-0.5-0.2-0.7c-0.1-0.2,0-0.5-0.1-0.7c0-0.2-0.2-0.5-0.2-0.7c0-0.2,0-0.5,0-0.7c0-0.2-0.1-0.5-0.1-0.7
			c0-0.2,0-0.5,0-0.7c0-0.2,0-0.5,0-0.7c0-0.2,0-0.5,0-0.7c0-0.2,0.2-0.5,0.2-0.7c0-0.2,0-0.5,0.1-0.7c0.1-0.2,0.1-0.5,0.2-0.7
			c0.1-0.2,0.2-0.4,0.3-0.7c0.1-0.2,0.1-0.5,0.2-0.7c0.1-0.2,0.1-0.5,0.2-0.7c0.1-0.2,0.3-0.4,0.4-0.6c0.1-0.2,0.2-0.4,0.4-0.6
			c0.1-0.2,0.2-0.4,0.4-0.6c0.1-0.2,0.3-0.4,0.4-0.6c0.1-0.2,0.3-0.4,0.4-0.6c0.2-0.2,0.3-0.4,0.5-0.5c0.2-0.2,0.4-0.3,0.5-0.5
			c0.2-0.2,0.3-0.4,0.5-0.5c0.2-0.2,0.4-0.3,0.6-0.5c0.2-0.2,0.3-0.4,0.5-0.5c0.2-0.1,0.4-0.2,0.6-0.3c0.2-0.1,0.4-0.2,0.6-0.4
			c0.2-0.1,0.4-0.3,0.6-0.4c0.2-0.1,0.5-0.2,0.7-0.3c0.2-0.1,0.5-0.2,0.7-0.2c0.2-0.1,0.4-0.3,0.6-0.3c0.2-0.1,0.5-0.1,0.7-0.2
			c0.2-0.1,0.5,0,0.7-0.1c0.2,0,0.5-0.1,0.7-0.1c0.2,0,0.5-0.2,0.7-0.2c0.2,0,0.5-0.1,0.7-0.1c0.2,0,0.5,0.1,0.7,0.1
			c0.2,0,0.5,0,0.7,0c0.2,0,0.5,0,0.7,0c0.2,0,0.5,0.1,0.7,0.1c0.2,0,0.5,0.1,0.7,0.1c0.2,0.1,0.5,0.1,0.7,0.2
			c0.2,0.1,0.5,0.1,0.7,0.2c0.2,0.1,0.5,0.2,0.7,0.2c0.2,0.1,0.4,0.2,0.7,0.3c0.2,0.1,0.4,0.2,0.7,0.3c0.2,0.1,0.4,0.2,0.6,0.3
			c0.2,0.1,0.5,0.2,0.7,0.3c0.2,0.1,0.3,0.4,0.5,0.5c0.2,0.1,0.4,0.2,0.6,0.4c0.2,0.2,0.3,0.4,0.5,0.5c0.2,0.2,0.4,0.3,0.5,0.5
			c0.2,0.2,0.4,0.3,0.6,0.5c0.2,0.2,0.2,0.5,0.4,0.6c0.2,0.2,0.3,0.4,0.5,0.6c0.1,0.2,0.3,0.4,0.4,0.6c0.1,0.2,0.3,0.4,0.4,0.6
			c0.1,0.2,0.2,0.4,0.3,0.6c0.1,0.2,0.2,0.4,0.3,0.7c0.1,0.2,0.3,0.4,0.4,0.6c0.1,0.2,0.2,0.5,0.3,0.7c0.1,0.2,0.1,0.5,0.2,0.7
			c0.1,0.2,0.1,0.5,0.2,0.7c0,0.2,0.1,0.5,0.1,0.7c0,0.2,0,0.5,0,0.7c0,0.2,0.1,0.5,0.1,0.7C161.5,149.8,161.5,150,161.5,150.2z"/>
	</g>
	<g>
		<path class="st5" d="M122.7,145.7c-0.1,0.3,0,0.4,0,0.7c-0.1,0.3-0.1,0.3-0.1,0.7c-0.1,0.3-0.1,0.3-0.1,0.7
			c-0.1,0.3,0,0.4-0.1,0.7c-0.1,0.4,0,0.4-0.1,0.7c-0.1,0.4-0.1,0.3-0.2,0.7c-0.1,0.3,0,0.4-0.1,0.7c-0.1,0.3,0,0.4-0.1,0.7
			c-0.1,0.4,0,0.4-0.1,0.7c-0.1,0.4-0.1,0.3-0.2,0.7c-0.1,0.4,0,0.4,0,0.7s-0.1,0.3-0.2,0.7c-0.1,0.4,0,0.4,0,0.7
			c-0.1,0.4-0.1,0.3-0.2,0.7c-0.1,0.4,0,0.4-0.1,0.7c-0.1,0.4-0.1,0.4-0.1,0.7c-0.1,0.4-0.1,0.3-0.2,0.7c-0.1,0.4-0.1,0.3-0.2,0.7
			c-0.1,0.4,0,0.4-0.1,0.7s-0.1,0.3-0.1,0.7c0,0.2,0,0.5,0,0.7c0,0.2,0,0.5,0,0.7c0,0.2,0,0.5,0.1,0.7c0.1,0.2,0.2,0.4,0.3,0.7
			c0.1,0.2,0.2,0.5,0.3,0.7c0.1,0.2,0.3,0.4,0.5,0.5c0.2,0.2,0.3,0.4,0.5,0.5c0.2,0.2,0.4,0.3,0.6,0.4c0.2,0.1,0.4,0.2,0.7,0.3
			c0.2,0.1,0.4,0.3,0.7,0.3c0.4,0.1,0.4,0.1,0.8,0.1c0.4,0.1,0.4,0.1,0.8,0.2c0.4,0.1,0.4,0.1,0.7,0.2c0.4,0.1,0.4,0.1,0.8,0.2
			c0.4,0.1,0.4,0,0.8,0.1c0.4,0.1,0.4,0.1,0.7,0.2"/>
	</g>
	<g>
		<path class="st6" d="M114.2,151c0.4,0,0.4,0,0.7,0c0.4,0,0.4,0,0.7,0c0.4,0,0.4,0.1,0.7,0.1c0.4,0,0.4-0.1,0.7-0.1
			c0.4,0,0.4,0.1,0.7,0.1c0.4,0,0.4-0.1,0.7-0.1c0.4,0,0.4,0,0.7,0c0.4,0,0.4,0,0.7,0c0.4,0,0.4,0,0.7,0c0.4,0,0.4,0,0.7,0
			c0.4,0,0.4,0,0.7,0c0.4,0,0.4,0.1,0.7,0.1c0.4,0,0.4-0.1,0.7-0.1c0.4,0,0.4,0,0.7,0c0.4,0,0.4,0,0.7,0c0.4,0,0.4-0.1,0.7-0.1
			c0.4,0,0.4,0.1,0.7,0.1c0.4,0,0.4-0.1,0.7-0.1c0.4,0,0.4,0.1,0.7,0.1c0.4,0,0.4,0,0.7,0c0.4,0,0.4,0,0.7,0c0.4,0,0.4-0.1,0.7-0.1
			c0.4,0,0.4,0,0.7,0c0.4,0,0.4,0.1,0.7,0.1c0.4,0,0.4-0.1,0.7-0.1c0.4,0,0.4,0,0.7,0"/>
	</g>
</g>
</svg>
