<?xml version="1.0" encoding="utf-8"?>
<!-- Generator: Adobe Illustrator 19.2.0, SVG Export Plug-In . SVG Version: 6.00 Build 0)  -->
<svg version="1.1" id="Layer_1" xmlns="http://www.w3.org/2000/svg" xmlns:xlink="http://www.w3.org/1999/xlink" x="0px" y="0px"
	 viewBox="0 0 556.7 216.7" style="enable-background:new 0 0 556.7 216.7;" xml:space="preserve">
<style type="text/css">
	.st0{fill:#FFFFFF;}
</style>
<g>
	<g>
		<g>
			<g>
				<path d="M30.6,211.5c-6.7,0-12.3-2.2-16.7-6.7c-4.5-4.5-6.7-10.1-6.7-16.7s2.2-12.2,6.7-16.7c4.5-4.5,10-6.7,16.7-6.7
					c4.3,0,8.3,1,11.8,3.1c3.6,2.1,6.2,4.9,8.1,8.3l-9.9,5.8c-0.9-1.8-2.2-3.3-4-4.4c-1.8-1.1-3.8-1.6-6.1-1.6
					c-3.4,0-6.3,1.1-8.5,3.4c-2.2,2.3-3.4,5.2-3.4,8.7c0,3.5,1.1,6.4,3.4,8.7c2.2,2.3,5.1,3.4,8.5,3.4c2.3,0,4.4-0.5,6.2-1.6
					c1.8-1,3.2-2.5,4-4.3l9.9,5.7c-2,3.5-4.7,6.3-8.3,8.4C38.8,210.4,34.9,211.5,30.6,211.5z"/>
			</g>
			<g>
				<path d="M73.8,173.5c1.1-2.8,2.8-5,5.3-6.4c2.5-1.4,5.2-2.1,8.2-2.1v12.8c-3.5-0.4-6.6,0.3-9.4,2.1c-2.8,1.8-4.1,4.9-4.1,9.1
					v21.2H62.4v-44.4h11.5V173.5z"/>
			</g>
			<g>
				<path d="M107.3,192.7c1.5,5.6,5.7,8.3,12.5,8.3c4.4,0,7.7-1.5,9.9-4.4l9.2,5.3c-4.4,6.3-10.8,9.5-19.4,9.5
					c-7.3,0-13.2-2.2-17.7-6.7c-4.4-4.4-6.7-10-6.7-16.8c0-6.7,2.2-12.3,6.6-16.7c4.4-4.5,10-6.7,16.9-6.7c6.5,0,11.9,2.2,16.1,6.7
					c4.2,4.5,6.3,10.1,6.3,16.7c0,1.5-0.1,3-0.4,4.7H107.3z M107.1,183.8h22.6c-0.7-3-2-5.3-4-6.7c-2-1.5-4.4-2.2-7-2.2
					c-3.1,0-5.6,0.8-7.6,2.4C109.1,178.8,107.8,181,107.1,183.8z"/>
			</g>
			<g>
				<path d="M187.9,165.8h11.5v44.4h-11.5V205c-3.4,4.3-8.3,6.5-14.5,6.5c-5.9,0-11-2.3-15.2-6.8c-4.2-4.5-6.3-10.1-6.3-16.6
					c0-6.6,2.1-12.1,6.3-16.6c4.2-4.5,9.3-6.8,15.2-6.8c6.2,0,11,2.2,14.5,6.5V165.8z M166.8,197c2.3,2.3,5.2,3.5,8.8,3.5
					c3.6,0,6.5-1.2,8.8-3.5c2.3-2.3,3.5-5.3,3.5-9s-1.2-6.7-3.5-9c-2.3-2.3-5.3-3.5-8.8-3.5c-3.6,0-6.5,1.2-8.8,3.5
					c-2.3,2.3-3.5,5.3-3.5,9S164.5,194.7,166.8,197z"/>
			</g>
			<g>
				<path d="M240.4,176.8h-10v18.5c0,1.5,0.4,2.7,1.2,3.4c0.8,0.7,1.9,1.1,3.4,1.2c1.5,0.1,3.3,0.1,5.5,0v10.4
					c-7.9,0.9-13.4,0.1-16.6-2.2c-3.2-2.4-4.8-6.6-4.8-12.7v-18.5h-7.7v-11h7.7v-9l11.5-3.5v12.4h10V176.8z"/>
			</g>
			<g>
				<path d="M259.5,160.9c-1.9,0-3.5-0.7-4.9-2.1c-1.4-1.4-2.1-3-2.1-4.9c0-1.9,0.7-3.6,2.1-5c1.4-1.4,3-2.1,4.9-2.1
					c2,0,3.6,0.7,5,2.1c1.4,1.4,2.1,3.1,2.1,5c0,1.9-0.7,3.5-2.1,4.9C263.2,160.2,261.5,160.9,259.5,160.9z M253.8,210.2v-44.4h11.5
					v44.4H253.8z"/>
			</g>
			<g>
				<path d="M309.4,165.8H322l-16.9,44.4h-13l-16.9-44.4h12.6l10.8,31.1L309.4,165.8z"/>
			</g>
			<g>
				<path d="M339.9,192.7c1.5,5.6,5.7,8.3,12.5,8.3c4.4,0,7.7-1.5,9.9-4.4l9.2,5.3c-4.4,6.3-10.8,9.5-19.4,9.5
					c-7.3,0-13.2-2.2-17.7-6.7c-4.4-4.4-6.7-10-6.7-16.8c0-6.7,2.2-12.3,6.6-16.7c4.4-4.5,10-6.7,16.9-6.7c6.5,0,11.9,2.2,16.1,6.7
					c4.2,4.5,6.3,10.1,6.3,16.7c0,1.5-0.1,3-0.4,4.7H339.9z M339.7,183.8h22.6c-0.7-3-2-5.3-4-6.7c-2-1.5-4.4-2.2-7-2.2
					c-3.1,0-5.6,0.8-7.6,2.4C341.7,178.8,340.3,181,339.7,183.8z"/>
			</g>
			<g>
				<path d="M414.6,210.2v-56.8h11.5v56.8H414.6z"/>
			</g>
			<g>
				<path d="M475.6,165.8h11.5v44.4h-11.5V205c-3.4,4.3-8.3,6.5-14.5,6.5c-5.9,0-11-2.3-15.2-6.8c-4.2-4.5-6.3-10.1-6.3-16.6
					c0-6.6,2.1-12.1,6.3-16.6c4.2-4.5,9.3-6.8,15.2-6.8c6.2,0,11,2.2,14.5,6.5V165.8z M454.5,197c2.3,2.3,5.2,3.5,8.8,3.5
					c3.6,0,6.5-1.2,8.8-3.5c2.3-2.3,3.5-5.3,3.5-9s-1.2-6.7-3.5-9c-2.3-2.3-5.3-3.5-8.8-3.5c-3.6,0-6.5,1.2-8.8,3.5
					c-2.3,2.3-3.5,5.3-3.5,9S452.2,194.7,454.5,197z"/>
			</g>
			<g>
				<path d="M528.6,164.6c6,0,11.1,2.3,15.3,6.8c4.2,4.5,6.3,10.1,6.3,16.6c0,6.6-2.1,12.1-6.3,16.6c-4.2,4.5-9.3,6.8-15.3,6.8
					c-6.2,0-11-2.2-14.4-6.5v5.2h-11.5v-56.8h11.5v17.7C517.6,166.7,522.4,164.6,528.6,164.6z M517.7,197c2.3,2.3,5.2,3.5,8.8,3.5
					c3.6,0,6.5-1.2,8.8-3.5c2.3-2.3,3.5-5.3,3.5-9s-1.2-6.7-3.5-9c-2.3-2.3-5.3-3.5-8.8-3.5c-3.6,0-6.5,1.2-8.8,3.5
					c-2.3,2.3-3.5,5.3-3.5,9S515.4,194.7,517.7,197z"/>
			</g>
		</g>
	</g>
	<g>
		<path d="M476.4,102.2V52.7c0-10.7,6.7-20.4,22-20.4s22,9.7,22,20.4v51.5c9.7,0.5,19.2,1,28.5,1.6V52.2c0-21-13-47.2-50.5-47.2
			S448,31.2,448,52.2v48.9C457.6,101.4,467.1,101.8,476.4,102.2z"/>
		<path d="M36.7,104.2V52.4c-0.2-7.4,4.5-19.9,20.5-19.9c16,0,20.6,12.1,20.6,19.9v49.9c9.3-0.4,18.7-0.7,28.2-1.1V52.4
			c0-8.2,4.6-19.9,20.6-19.9c16.1,0,20.7,12.5,20.5,19.9V100c9.3-0.2,18.7-0.5,28.2-0.7V52C175.1,30.5,164.1,5,126.6,5
			c-16.2,0-29.3,6.6-34.7,14.7C86.1,11.7,73.4,5,57.2,5C19.8,5,9.7,30.5,8.5,52v53.8C17.7,105.3,27.1,104.7,36.7,104.2z"/>
		<path d="M218.1,98.6c19.9-0.2,40.1-0.4,60.6-0.4c0.6,0,1.2,0,1.8,0c13.2-9.4,21.4-24.7,21.4-41.8c0-28.4-22.3-51.5-52.6-51.5
			c-30.3,0-52.8,23.4-52.8,51.8C196.6,74.1,204.8,89.3,218.1,98.6z M249,31.2c16.6,0,24.7,11.8,24.7,25.6c0,13.6-7.8,25.3-24.4,25.3
			c-16.4,0-24.6-11.8-24.6-25.6C224.7,42.9,232.5,31.2,249,31.2z"/>
		<path d="M343,98.7c20.4,0.3,40.5,0.6,60.1,1.1c14.5-9.3,23.6-25.3,23.6-43.3c0-28.4-22.3-51.5-52.6-51.5
			c-30.3,0-52.8,23.4-52.8,51.8C321.4,74.1,329.7,89.4,343,98.7z M373.9,31.2c16.6,0,24.7,11.8,24.7,25.6c0,13.6-7.8,25.3-24.4,25.3
			c-16.4,0-24.6-11.8-24.6-25.6C349.6,42.9,357.4,31.2,373.9,31.2z"/>
	</g>
</g>
</svg>
