<svg id="Layer_1" data-name="Layer 1" xmlns="http://www.w3.org/2000/svg" viewBox="0 0 150 70"><title>partner-logos</title><path d="M63.79,26H55V44h8.6c5.57-.06,9.41-4,9.41-9S69.26,26.16,63.79,26ZM63.63,40.89H58.24V29.11h5.44A5.68,5.68,0,0,1,69.52,35,5.64,5.64,0,0,1,63.63,40.89Z"/><polygon points="50.27 29.18 50.27 26.02 32.31 26.02 32.31 29.18 39.68 29.18 39.68 40.82 32.31 40.82 32.31 43.98 50.27 43.98 50.27 40.82 42.91 40.82 42.91 29.18 50.27 29.18"/><polygon points="95.06 29.16 95.06 26.02 76.96 26.02 76.96 43.98 95.06 43.98 95.06 40.84 80.21 40.84 80.21 36.57 91.8 36.57 91.8 33.43 80.21 33.43 80.21 29.16 95.06 29.16"/><path d="M107.82,25.23A9.77,9.77,0,1,0,117.69,35,9.82,9.82,0,0,0,107.82,25.23Zm0,16.17a6.4,6.4,0,1,1,6.46-6.4A6.43,6.43,0,0,1,107.82,41.4Z"/></svg>