<?xml version="1.0" encoding="utf-8"?>
<!-- Generator: Adobe Illustrator 19.2.0, SVG Export Plug-In . SVG Version: 6.00 Build 0)  -->
<svg version="1.1" id="Layer_1" xmlns="http://www.w3.org/2000/svg" xmlns:xlink="http://www.w3.org/1999/xlink" x="0px" y="0px"
	 viewBox="0 0 150 70" style="enable-background:new 0 0 150 70;" xml:space="preserve">
<g>
	<path d="M52.3,39.3c0,1.9,0,3.8,0,5.6c-0.7,0-1.4,0-2.1,0c0-3.5,0-7.1,0-10.6c2.7,2.5,5.4,5,8.2,7.5c0-2.2,0-4.4,0-6.6
		c0.7,0,1.4,0,2.1,0c0,3.2,0,6.5,0,9.7c-0.1,0-0.1,0-0.2,0c-0.7,0-1.3,0-2,0c-0.1,0-0.2,0-0.3-0.1c-1.8-1.7-3.5-3.4-5.3-5.1
		C52.7,39.6,52.5,39.4,52.3,39.3z"/>
	<path d="M124.5,28.5c0-1.3,0-2.6,0-3.8c0.9,0,1.7,0,2.5,0c0,3.4,0,6.9,0,10.3c-0.8,0-1.7,0-2.5,0c0-0.4,0-0.8,0-1.3
		c-0.1,0-0.1,0.1-0.1,0.1c-0.7,0.9-1.6,1.3-2.7,1.4c-0.8,0-1.5,0-2.2-0.4c-1-0.6-1.5-1.4-1.7-2.6c-0.1-1.1,0-2.1,0.7-3.1
		c0.8-1,1.8-1.5,3.1-1.5c1,0,1.9,0.2,2.7,0.8C124.5,28.5,124.5,28.5,124.5,28.5z M124.5,31.2c0-0.4,0-0.8,0-1.3
		c0-0.1-0.1-0.2-0.1-0.3c-0.4-0.3-0.8-0.5-1.3-0.6c-1.1-0.2-1.8,0.2-2.3,1.2c-0.3,0.8-0.4,1.5-0.1,2.3c0.3,0.8,0.8,1.2,1.7,1.2
		c0.8,0,1.5-0.5,2-1c0,0,0.1-0.1,0.1-0.2C124.5,32,124.5,31.6,124.5,31.2z"/>
	<path d="M77.5,37.7c0.8,0,1.5,0,2.3,0c0.1,0,0.1,0.1,0.2,0.2c0.5,1.5,1.1,3,1.6,4.4c0,0.1,0.1,0.2,0.2,0.4c0.7-1.7,1.3-3.4,2-5
		c0.7,0,1.4,0,2.1,0c0.1,0,0.1,0.1,0.2,0.2c0.4,1.2,0.8,2.3,1.2,3.5c0.2,0.5,0.3,0.9,0.5,1.4c0.7-1.7,1.3-3.4,2-5c0.6,0,1.2,0,1.8,0
		c0,0.1-0.1,0.1-0.1,0.2c-0.9,2.3-1.8,4.5-2.6,6.8c-0.1,0.2-0.1,0.2-0.3,0.2c-0.7,0-1.3,0-2,0c-0.2,0-0.2,0-0.3-0.2
		c-0.5-1.5-1-3-1.6-4.5c0,0,0-0.1-0.1-0.2c-0.2,0.4-0.3,0.9-0.5,1.3c-0.4,1.1-0.9,2.3-1.3,3.4c-0.1,0.2-0.1,0.2-0.3,0.2
		c-0.7,0-1.4,0-2,0c-0.1,0-0.2,0-0.2-0.2c-0.8-2.3-1.7-4.6-2.5-6.9C77.6,37.8,77.5,37.8,77.5,37.7z"/>
	<path d="M112.7,41.3c0,1.2,0,2.4,0,3.6c-0.8,0-1.7,0-2.5,0c0-2.9,0-5.8,0-8.8c0.8,0,1.7,0,2.5,0c0,1.6,0,3.3,0,5
		c0.1-0.1,0.2-0.1,0.3-0.2c1-1,2.1-2.1,3.1-3.1c0.1-0.1,0.2-0.1,0.3-0.1c0.6,0,1.3,0,1.9,0c-1,1-2,2-3,3.1c1.4,1.4,2.7,2.7,4.1,4.1
		c-0.1,0-0.2,0-0.2,0c-0.9,0-1.7,0-2.6,0c-0.2,0-0.3-0.1-0.4-0.2c-1-1.1-2-2.2-3.1-3.3C112.9,41.4,112.9,41.3,112.7,41.3
		C112.8,41.3,112.7,41.3,112.7,41.3z"/>
	<path d="M76.6,29.1c0-0.4,0-0.8,0-1.2c0.4,0,0.8,0,1.3,0c0-0.2,0-0.4,0-0.6c0-1.5,0.7-2.3,2.2-2.6c1.2-0.2,2.4-0.1,3.6,0.1
		c0,0.4,0,0.9,0,1.3C83.4,26,83.2,26,83,25.9c-0.6-0.1-1.1-0.2-1.7-0.1c-0.5,0.1-0.8,0.4-0.9,0.9c0,0.4,0,0.7-0.1,1.1
		c0.8,0,1.6,0,2.4,0c0,0.4,0,0.8,0,1.2c-0.8,0-1.6,0-2.4,0c0,1,0,2,0,3c0,1,0,2,0,3c-0.9,0-1.7,0-2.5,0c0-2,0-4,0-6
		C77.4,29.1,77,29.1,76.6,29.1z"/>
	<path d="M120.2,43.3c0.7,0.2,1.3,0.3,2,0.4c0.6,0.1,1.2,0.2,1.8,0.1c0.2,0,0.5-0.1,0.7-0.3c0.4-0.3,0.4-0.7,0-1
		c-0.2-0.1-0.5-0.2-0.7-0.3c-0.7-0.2-1.3-0.4-2-0.7c-0.3-0.1-0.6-0.3-0.9-0.5c-1.1-0.7-1.1-2.1-0.1-2.8c0.6-0.4,1.2-0.6,1.9-0.7
		c1.3-0.2,2.7,0,4,0.2c0,0.5,0,0.9,0,1.4c-0.4-0.1-0.9-0.2-1.3-0.3c-0.6-0.1-1.3-0.2-1.9-0.1c-0.2,0-0.4,0.1-0.6,0.2
		c-0.4,0.2-0.4,0.6,0,0.9c0.3,0.2,0.6,0.3,0.9,0.4c0.8,0.3,1.6,0.5,2.3,0.8c0.2,0.1,0.4,0.2,0.6,0.3c0.9,0.6,1,1.7,0.3,2.5
		c-0.6,0.6-1.3,0.9-2.1,1c-1.3,0.2-2.6,0.1-3.9-0.1c-0.3,0-0.5-0.1-0.8-0.2c-0.1,0-0.1-0.1-0.1-0.1
		C120.2,44.1,120.2,43.7,120.2,43.3z"/>
	<path d="M74.9,36.3c0,0.5,0,1,0,1.4c0.7,0,1.3,0,2,0c0,0.4,0,0.8,0,1.2c-0.7,0-1.3,0-2,0c0,0.1,0,0.2,0,0.2c0,1.1,0,2.3,0,3.4
		c0,0.1,0,0.2,0,0.3c0.1,0.6,0.5,0.9,1.1,0.9c0.3,0,0.7,0,1,0c0,0.3,0,0.7,0,1.1c-0.4,0.1-0.8,0.1-1.2,0.2c-0.6,0-1.3,0-1.9-0.2
		c-1.1-0.3-1.6-1-1.6-2.2c0-1.2,0-2.4,0-3.5c0-0.1,0-0.2,0-0.3c-0.4,0-0.7,0-1,0c0-0.4,0-0.8,0-1.2c0.3,0,0.6,0,0.9,0
		c0.1,0,0.2,0,0.3-0.1c0.7-0.4,1.4-0.8,2.2-1.2C74.7,36.4,74.8,36.3,74.9,36.3z"/>
	<path d="M101.5,35c0-2.4,0-4.8,0-7.2c0.8,0,1.7,0,2.5,0c0,0.4,0,0.8,0,1.3c0.2-0.2,0.3-0.4,0.5-0.5c0.8-0.7,1.7-1,2.8-0.9
		c0.1,0,0.2,0.1,0.2,0.1c0,0.5,0,1.1,0,1.6c-0.4,0-0.7-0.1-1.1-0.1c-0.9,0-1.7,0.4-2.3,1.1c-0.1,0.1-0.1,0.2-0.1,0.3
		c0,1.4,0,2.7,0,4.1c0,0.1,0,0.2,0,0.3C103.2,35,102.4,35,101.5,35z"/>
	<path d="M105.6,44.9c-0.9,0-1.7,0-2.5,0c0-2.4,0-4.8,0-7.2c0.8,0,1.7,0,2.5,0c0,0.4,0,0.8,0,1.2c0.4-0.5,0.9-0.9,1.6-1.1
		c0.6-0.2,1.2-0.3,1.9-0.2c0,0.6,0,1.1,0,1.7c-0.2,0-0.5-0.1-0.7-0.1c-1-0.1-1.9,0.2-2.6,1c-0.1,0.1-0.1,0.2-0.1,0.3
		c0,1.4,0,2.7,0,4.1C105.6,44.7,105.6,44.8,105.6,44.9z"/>
	<path d="M100.1,29.5c-0.7-0.2-1.3-0.2-2,0c-0.6,0.2-1,0.5-1.4,0.9c-0.1,0.1-0.1,0.2-0.1,0.3c0,1.4,0,2.8,0,4.1c0,0.1,0,0.2,0,0.2
		c-0.8,0-1.7,0-2.5,0c0-2.4,0-4.8,0-7.2c0.8,0,1.7,0,2.5,0c0,0.4,0,0.8,0,1.3c0.1-0.1,0.1-0.1,0.1-0.1c0.8-1,1.9-1.4,3.2-1.4
		c0.2,0,0.2,0.1,0.2,0.2C100.1,28.4,100.1,28.9,100.1,29.5z"/>
	<path d="M60.5,35.1c0-2.4,0-4.8,0-7.2c0.8,0,1.7,0,2.5,0c0,0.4,0,0.8,0,1.3c0.9-1.2,2.1-1.6,3.5-1.5c0,0.6,0,1.2,0,1.7
		c-0.2,0-0.4-0.1-0.6-0.1c-1.1-0.1-2,0.2-2.7,1c-0.1,0.1-0.1,0.2-0.1,0.3c0,1.4,0,2.8,0,4.1c0,0.1,0,0.2,0,0.3
		C62.2,35.1,61.4,35.1,60.5,35.1z"/>
	<path d="M39,23.1c0.6,0,1.1,0.5,1.1,1.1c0,0.6-0.5,1.1-1.1,1.1c-0.6,0-1.1-0.5-1.1-1.1C37.9,23.5,38.3,23.1,39,23.1z"/>
	<path d="M44.3,31.8c-0.3-1.2-1-2.2-1.9-3.1c-1.2-1.1-2.7-1.9-4.3-2.5c-2-0.8-4.2-1.2-6.3-1.3c-0.2,0-0.8,0-0.8,0c0,1.4,0,2.8,0,4.2
		c1,0,1.1,0,1.6,0c1.9,0,3.7,0.3,5.5,0.9c1,0.4,2,0.8,2.7,1.6c1.1,1,1.2,2.1,0.3,3.2c-0.5,0.7-1.2,1.2-1.9,1.6
		c-1.5,0.9-3.2,1.4-4.9,1.8c-0.4,0.1-0.7,0.1-1.1,0.2c1.2-2.4,2.2-4.9,3-7.4c-0.3,0.6-0.7,1.1-1,1.7c-1.3,2-2.6,4-4.2,5.7
		c-0.1,0.1-0.2,0.2-0.3,0.2c-1.1,0-2.2,0-3.3-0.1c-0.4-0.1-0.9-0.1-1.3-0.2c-1.2,2.8-2.3,5.6-3.5,8.4c0.9,0.3,1.8,0.3,2.7,0
		c1.5-0.4,2.7-1.3,3.9-2.3c1.3-1.3,2.3-2.7,3.2-4.3c0.1-0.2,0.2-0.2,0.4-0.3c0.6,0,1.2,0,1.8-0.1c1.8-0.2,3.5-0.5,5.2-1.2
		c1.4-0.6,2.7-1.3,3.6-2.5C44.3,34.8,44.7,33.3,44.3,31.8z M29.6,39.7c-1.1,1.1-2.3,2.1-3.7,2.7c-0.4,0.2-0.8,0.2-1.2,0.3
		c0,0-0.1,0-0.2,0c0.6-1.2,1.3-2.4,1.9-3.6C27.5,39.3,28.5,39.5,29.6,39.7C29.6,39.7,29.6,39.7,29.6,39.7z"/>
	<path d="M58.8,27.2c-0.2-1-0.9-1.6-1.8-1.8c-0.7-0.2-1.4-0.3-2.2-0.3c-1.4,0-2.9-0.1-4.3-0.1c-0.1,0-0.2,0-0.2,0c0,0,0,0.2,0,0.3
		c0,2.5,0,5.1,0,7.7c0,0.1,0.1,0.2,0.1,0.3c0.7,0.6,1.4,1.3,2,1.9c0.2,0.1,0.6,0.3,0.6,0.5c0-1.5,0-2.9,0-4.5c1,0,1.2,0,1.8,0
		c0.9-0.1,1.8-0.3,2.6-0.7C58.7,29.6,59,28.5,58.8,27.2z M55.8,29c-0.5,0.5-1,0.7-1.7,0.8c-0.4,0-1.1,0-1.1,0c0-1.1,0-2.1,0-3.2
		c0,0,0.8,0,1.2,0c0.3,0,0.7,0,1,0.1C56.2,27,56.5,28.2,55.8,29z"/>
	<path d="M99.6,38c-0.9-0.4-1.8-0.5-2.8-0.6c-0.9,0-1.8,0.1-2.6,0.5c-1.4,0.6-2.2,1.7-2.2,3.2c0,1.5,0.6,2.6,2,3.3
		c0.8,0.4,1.6,0.5,2.5,0.6c1,0,2.1,0,3.1-0.4c1.4-0.6,2.2-1.6,2.2-3.1C101.7,39.8,101,38.7,99.6,38z M99,41.2c0,0.7-0.2,1.4-0.7,1.9
		c-1,1-2.8,0.7-3.4-0.6c-0.4-0.9-0.4-1.8,0-2.7c0.4-0.9,1.1-1.2,2-1.2c0.9,0,1.5,0.5,1.8,1.3C98.9,40.4,98.9,40.8,99,41.2
		C99,41.2,99,41.2,99,41.2z"/>
	<path d="M113.5,33.8c-0.6,0-1.3,0-1.8-0.4c-0.5-0.4-0.8-1.4-0.8-1.4c1.9,0,3.8,0,5.8,0c-0.1-1-0.1-1.1-0.2-1.6
		c-0.2-1.2-0.8-2.1-2-2.5c-1.4-0.5-2.8-0.5-4.2,0.1c-2,0.9-2.8,3.2-1.6,5.1c0.6,1,1.5,1.5,2.6,1.7c1.1,0.3,2.4,0.3,3.5,0.1
		c0.7-0.1,1.3-0.2,2.3-0.3c0-0.5,0-0.9,0-1.4c0,0-0.3,0-0.4,0C115.7,33.6,114.5,33.8,113.5,33.8z M111.7,29.2
		c0.6-0.3,1.2-0.3,1.8,0.1c0.6,0.4,0.6,0.7,0.6,1.7c-1.1,0-2.2,0-3.3,0C110.9,30,111.1,29.6,111.7,29.2z"/>
	<path d="M73.3,33.7c-0.7,0.1-1.4,0.2-2.1-0.1c-0.8-0.3-1.4-0.7-1.4-1.7c1.9,0,3.8,0,5.8,0c-0.1-1-0.1-1.1-0.2-1.6
		c-0.2-1.2-0.9-2.2-2.1-2.5c-1.4-0.4-2.8-0.4-4.1,0.2c-2,0.9-2.8,3.3-1.6,5.2c0.6,0.9,1.5,1.4,2.5,1.6c1.1,0.3,2.2,0.3,3.3,0.1
		c0.7-0.1,1.3-0.2,2-0.3c0.1,0,0.1-0.1,0.1-0.1c0-0.4,0-0.8,0-1.3c-0.1,0-0.2,0-0.2,0C74.6,33.5,74,33.7,73.3,33.7z M71.8,29
		c0.7,0.1,1.1,0.7,1.2,1.5c0,0.1,0-0.5,0,0.5c-1.1,0-2.2,0-3.3,0C69.8,29,70.7,28.8,71.8,29z"/>
	<path d="M90.5,33.7c-0.9,0.1-1.7,0.3-2.6,0.1c-1-0.3-1.6-0.8-1.7-1.8c1.9,0,3.8,0,5.8,0c-0.1-1-0.1-1.1-0.1-1.6
		c-0.2-1.3-0.9-2.2-2.1-2.6c-1.3-0.4-2.7-0.4-4,0.1c-1.8,0.7-2.7,2.6-2.1,4.4c0.4,1.3,1.4,2,2.7,2.4c1.8,0.5,3.7,0.3,5.5-0.1
		c0,0,0.1-0.1,0.1-0.2c0-0.4,0-0.7,0-1.1c0,0,0-0.1,0-0.1C91.5,33.5,91,33.6,90.5,33.7z M88.3,29c0.7,0.1,1.1,0.7,1.2,1.5
		c0,0.1,0-0.5,0,0.5c-1.1,0-2.2,0-3.3,0C86.3,29,87.2,28.8,88.3,29z"/>
	<path d="M68.2,43.6c-0.7,0.1-1.4,0.3-2.1,0c-0.8-0.3-1.4-0.6-1.4-1.6c1.9,0,3.8,0,5.8,0c-0.1-1-0.1-1.2-0.2-1.6
		c-0.2-1.2-0.9-2.2-2.1-2.6c-1.4-0.4-2.8-0.4-4.1,0.2c-2,0.9-2.8,3.3-1.6,5.2c0.6,0.9,1.5,1.4,2.5,1.6c1.1,0.3,2.2,0.3,3.3,0.1
		c0.7-0.1,1.3-0.2,2-0.3c0.1,0,0.1-0.1,0.1-0.1c0-0.4,0-0.8,0-1.3c-0.1,0-0.2,0-0.2,0C69.6,43.4,68.9,43.5,68.2,43.6z M66.8,39
		c0.7,0.1,1.1,0.7,1.2,1.5c0,0.1,0-0.5,0,0.5c-1.1,0-2.2,0-3.3,0C64.8,39,65.7,38.8,66.8,39z"/>
</g>
</svg>
