<svg id="Layer_1" data-name="Layer 1" xmlns="http://www.w3.org/2000/svg" viewBox="0 0 150 70"><title>partner-logos</title><path d="M25.31,21.8a1.21,1.21,0,0,0-1-.86H23.88V20.16h4.57v0.78H26.39l3.14,12h0.06l3.67-12.81h1L37.89,33h0l2.82-10.7c0.23-.91,0-1.33-0.78-1.33H39V20.16h4.38v0.78H43a1.13,1.13,0,0,0-1,.88L38.46,34.9H37.17L33.63,22.54h0L30.07,34.9H28.77Z"/><path d="M45.09,27.53C45.09,22.68,48.25,20,52,20s6.85,2.63,6.85,7.48S55.68,35,52,35,45.09,32.37,45.09,27.53Zm12.39,0c0-4.34-2.4-6.61-5.5-6.61s-5.54,2.28-5.54,6.61,2.42,6.57,5.54,6.57S57.47,31.89,57.47,27.55Z"/><path d="M61.81,34.14h1a0.79,0.79,0,0,0,.72-0.72V21.67a0.81,0.81,0,0,0-.72-0.74h-1V20.16h3.92L70.38,33h0l4.66-12.85H79v0.78H78a0.81,0.81,0,0,0-.72.74l0,11.75a0.75,0.75,0,0,0,.67.72h1V34.9H74.09V34.14H76V21H75.75l-5,13.88H69.81L64.78,21H64.55V34.14h1.92V34.9H61.81V34.14Z"/><path d="M83.2,34.14h1a0.79,0.79,0,0,0,.72-0.72V21.67a0.81,0.81,0,0,0-.72-0.74h-1V20.16H94.09v3.54H93.2L93,21h-6.8v5.9h3.92L90.28,25h0.86v4.59H90.28l-0.17-1.9H86.19v6.38h7.06l0.19-3h0.93V34.9H83.2V34.14Z"/><path d="M98.51,34.14h1a0.79,0.79,0,0,0,.72-0.72V21.67a0.81,0.81,0,0,0-.72-0.74h-1V20.16h3.29l8,12.66h0V20.93h-2.11V20.16h4.85v0.78h-1a0.81,0.81,0,0,0-.72.74V34.9h-1.16l-8.41-13.19h-0.11V34.14h2.17V34.9H98.51V34.14Z"/><path d="M113.64,22.84a1,1,0,0,0,.89-0.93,0.58,0.58,0,0,0-.38-0.44,0.77,0.77,0,0,1-.36-0.7,0.75,0.75,0,0,1,.78-0.72,1,1,0,0,1,.93,1.12,2.07,2.07,0,0,1-1.86,2.3V22.84Z"/><path d="M117.8,34.2a0.67,0.67,0,0,0-.36.72h-0.89V30.78h1l0.19,2.07a5,5,0,0,0,3.48,1.29c2.22,0,3.76-.91,3.76-3.27s-1.9-2.51-4-3.1c-2.28-.63-4.06-1.41-4.06-3.93,0-2.32,1.52-3.8,4.48-3.8a6.41,6.41,0,0,1,2.94.68,0.54,0.54,0,0,0,.32-0.57h0.87v3.72h-0.91L124.37,22a4.37,4.37,0,0,0-3-1.1C119,20.91,118,22,118,23.77c0,2,1.67,2.43,3.63,3,2.45,0.68,4.48,1.35,4.48,4.08s-2,4.2-4.9,4.2A7.12,7.12,0,0,1,117.8,34.2Z"/><polygon points="122.66 39.08 122.21 38.73 122.21 38.73 30.01 38.73 29.56 39.08 30.01 39.43 122.21 39.43 122.21 39.43 122.66 39.08"/><path d="M35,50V49.1H38.7A1.08,1.08,0,0,0,39.11,49a1.07,1.07,0,0,0,.34-0.22,1,1,0,0,0,.23-0.34,1.08,1.08,0,0,0,.08-0.41,1,1,0,0,0-.31-0.74A1,1,0,0,0,38.7,47H36.93a1.83,1.83,0,0,1-1.35-.56A1.86,1.86,0,0,1,35,45.09a1.84,1.84,0,0,1,.56-1.34,1.79,1.79,0,0,1,1.35-.57h3.7V44h-3.7a1.09,1.09,0,0,0-.41.08,1,1,0,0,0-.34.22,1.06,1.06,0,0,0-.23.34,1.07,1.07,0,0,0-.08.4,1,1,0,0,0,.3.75,1,1,0,0,0,.75.32H38.7a1.84,1.84,0,0,1,1.35.56,1.81,1.81,0,0,1,.57,1.35A1.92,1.92,0,0,1,38.7,50H35Z"/><polygon points="45.22 49.97 45.22 44.05 42.84 44.05 42.84 43.18 48.46 43.18 48.46 44.05 46.09 44.05 46.09 49.97 45.22 49.97"/><path d="M62.93,50L61.56,47.6H59.3V50H58.44v-6.8h3.4A2.22,2.22,0,0,1,64,45.39a2.23,2.23,0,0,1-1.37,2l-0.17.07L63.93,50h-1ZM59.3,46.72h2.54a1.34,1.34,0,0,0,0-2.69H59.3v2.68Z"/><polygon points="68.53 49.97 68.53 44.05 66.15 44.05 66.15 43.18 71.77 43.18 71.77 44.05 69.4 44.05 69.4 49.97 68.53 49.97"/><path d="M76.77,50A2.78,2.78,0,0,1,74,47.17v-4h0.86v4a1.94,1.94,0,0,0,3.88,0v-4h0.87v4a2.73,2.73,0,0,1-.82,2A2.76,2.76,0,0,1,76.77,50Z"/><path d="M82.24,50v-6.8h3.4a2.22,2.22,0,0,1,2.21,2.22,2.2,2.2,0,0,1-2.21,2.21H83.1V50H82.24Zm0.86-3.24h2.54a1.34,1.34,0,0,0,0-2.69H83.1v2.69Z"/><polygon points="94.14 49.97 94.14 43.18 95 43.18 95 49.1 98.55 49.1 98.55 49.97 94.14 49.97"/><path d="M109.43,50v-6.8h3.7a1.84,1.84,0,0,1,.73.15,1.92,1.92,0,0,1,.62.41,1.94,1.94,0,0,1,.41.61,1.84,1.84,0,0,1,.15.74,1.86,1.86,0,0,1-.58,1.37l-0.12.12,0.12,0.11a1.9,1.9,0,0,1,.43,2.11,2,2,0,0,1-.41.61,2,2,0,0,1-.61.41,1.85,1.85,0,0,1-.74.15h-3.7Zm0.86-.87h2.84a1.08,1.08,0,0,0,.4-0.08,1,1,0,0,0,.34-0.22,1.05,1.05,0,0,0,.22-1.14,1.07,1.07,0,0,0-.22-0.34,1,1,0,0,0-.75-0.32h-2.84v2.1Zm0-3h2.84a1,1,0,0,0,.4-0.08,1.12,1.12,0,0,0,.34-0.23,1,1,0,0,0,.22-0.34,1.08,1.08,0,0,0,.08-0.41,1,1,0,0,0-.08-0.4,1,1,0,0,0-.22-0.34,1,1,0,0,0-.34-0.23,1.06,1.06,0,0,0-.4-0.08h-2.84v2.1Z"/><polygon points="55.16 49.97 54.57 48.78 53.34 48.78 53.34 47.92 54.13 47.92 52.83 45.31 51.52 47.92 52.33 47.92 52.33 48.78 51.1 48.78 50.49 49.97 49.53 49.97 52.83 43.38 56.13 49.97 55.16 49.97"/><polygon points="106.15 49.97 105.56 48.78 104.36 48.78 104.36 47.92 105.12 47.92 103.82 45.31 102.51 47.92 103.31 47.92 103.31 48.78 102.09 48.78 101.48 49.97 100.52 49.97 103.82 43.38 107.11 49.97 106.15 49.97"/><path d="M117.58,43.18h1.74v0.35h-0.69v1.73h-0.35V43.52h-0.7V43.18Z"/><path d="M120.22,44v1.24h-0.34V43.18l1,1,1-1v2.08h-0.35V44l-0.69.7Z"/></svg>