<?xml version="1.0" encoding="utf-8"?>
<!-- Generator: Adobe Illustrator 19.2.0, SVG Export Plug-In . SVG Version: 6.00 Build 0)  -->
<svg version="1.1" xmlns="http://www.w3.org/2000/svg" xmlns:xlink="http://www.w3.org/1999/xlink" x="0px" y="0px"
	 viewBox="0 0 244.8 334.7" style="enable-background:new 0 0 244.8 334.7;" xml:space="preserve">
<style type="text/css">
	.st0{fill:#0D1533;}
	.st1{fill:none;stroke:#FFFFFF;stroke-miterlimit:10;}
	.st2{fill:#153053;}
	.st3{fill:#FFCC06;}
	.st4{fill:#FFFFFF;}
	.st5{fill:none;stroke:#FFFFFF;stroke-width:2;stroke-linecap:round;stroke-miterlimit:10;}
	.st6{fill:none;stroke:#FFCC06;stroke-width:2;stroke-linecap:round;stroke-miterlimit:10;}
	.st7{fill:#132F53;}
	.st8{fill:none;stroke:#FFFFFF;stroke-width:2;stroke-miterlimit:10;}
	.st9{fill:none;stroke:#FFFFFF;stroke-width:2;stroke-linecap:round;stroke-linejoin:round;stroke-miterlimit:10;}
	.st10{clip-path:url(#SVGID_2_);}
</style>
<g id="Layer_2">
	<rect class="st0" width="244.8" height="334.7"/>
</g>
<g id="Layer_1">
	<g>
		<g>
			<g>
				<path class="st4" d="M116.9,141c-0.3,0-0.5-0.1-0.7-0.3s-0.3-0.4-0.3-0.7c0-0.4,0-0.4,0-0.7c0-0.4,0-0.4,0-0.7
					c0-0.4,0-0.4,0-0.7c0-0.4,0-0.4,0-0.7c0-0.4,0-0.4,0-0.7c0-0.4,0-0.4,0-0.7c0-0.4,0-0.4,0-0.7c0-0.4,0-0.4,0-0.7
					c0-0.4,0-0.4,0-0.7c0-0.4,0-0.4,0-0.7c0-0.4,0-0.4,0-0.7c0-0.4,0-0.4,0-0.7c0-0.4,0-0.4,0-0.7s0-0.4,0-0.7
					c0-0.3,0.1-0.5,0.3-0.7s0.4-0.3,0.7-0.3s0.5,0.1,0.7,0.3s0.3,0.4,0.3,0.7c0,0.4,0,0.4,0,0.7c0,0.4,0,0.4,0,0.7
					c0,0.4,0,0.4,0,0.7c0,0.4,0,0.4,0,0.7c0,0.4,0,0.4,0,0.7c0,0.4,0,0.4,0,0.7c0,0.4,0,0.4,0,0.7c0,0.4,0,0.4,0,0.7
					c0,0.4,0,0.4,0,0.7c0,0.4,0,0.4,0,0.7c0,0.4,0,0.4,0,0.7c0,0.4,0,0.4,0,0.7c0,0.4,0,0.4,0,0.7s0,0.4,0,0.7
					c0,0.3-0.1,0.5-0.3,0.7S117.2,141,116.9,141z"/>
			</g>
		</g>
	</g>
	<path class="st2" d="M126.9,84.5h49.9c2.1,0,3.8,1.7,3.8,3.8V131c0,2.1-1.7,3.8-3.8,3.8h-49.9h0.5H77.5c-2.1,0-3.8-1.7-3.8-3.8
		V88.3c0-2.1,1.7-3.8,3.8-3.8h49.9"/>
	<path class="st4" d="M171.9,130.8H72.5c-2.6,0-4.8-2.1-4.8-4.8V83.3c0-2.6,2.1-4.8,4.8-4.8h99.4c2.6,0,4.8,2.1,4.8,4.8V126
		C176.7,128.6,174.5,130.8,171.9,130.8z M122.4,128.8h49.5c1.5,0,2.8-1.2,2.8-2.8V83.3c0-1.5-1.2-2.8-2.8-2.8H72.5
		c-1.5,0-2.8,1.2-2.8,2.8V126c0,1.5,1.2,2.8,2.8,2.8H122.4z"/>
	<g>
		<g>
			<g>
				<path class="st4" d="M126.9,142c-0.3,0-0.5-0.1-0.7-0.3s-0.3-0.4-0.3-0.7c0-0.4,0-0.4,0-0.7c0-0.4,0-0.4,0-0.7
					c0-0.4,0-0.4,0-0.7c0-0.4,0-0.4,0-0.7c0-0.4,0-0.4,0-0.7c0-0.4,0-0.4,0-0.7c0-0.4,0-0.4,0-0.7c0-0.4,0-0.4,0-0.7
					c0-0.4,0-0.4,0-0.7c0-0.4,0-0.4,0-0.7c0-0.4,0-0.4,0-0.7c0-0.4,0-0.4,0-0.7c0-0.4,0-0.4,0-0.7c0-0.4,0-0.4,0-0.7
					c0-0.4,0-0.4,0-0.7c0-0.3,0.1-0.5,0.3-0.7s0.4-0.3,0.7-0.3s0.5,0.1,0.7,0.3s0.3,0.4,0.3,0.7c0,0.4,0,0.4,0,0.7
					c0,0.4,0,0.4,0,0.7c0,0.4,0,0.4,0,0.7c0,0.4,0,0.4,0,0.7c0,0.4,0,0.4,0,0.7c0,0.4,0,0.4,0,0.7c0,0.4,0,0.4,0,0.7
					c0,0.4,0,0.4,0,0.7c0,0.4,0,0.4,0,0.7c0,0.4,0,0.4,0,0.7c0,0.4,0,0.4,0,0.7c0,0.4,0,0.4,0,0.7c0,0.4,0,0.4,0,0.7
					c0,0.4,0,0.4,0,0.7c0,0.4,0,0.4,0,0.7c0,0.3-0.1,0.5-0.3,0.7S127.2,142,126.9,142z"/>
			</g>
		</g>
	</g>
	<g>
		<g>
			<g>
				<path class="st4" d="M137,155.1c-0.3,0-0.5-0.1-0.7-0.3s-0.3-0.4-0.3-0.7c0-0.2-0.1-0.5-0.1-0.7c0-0.2,0-0.5,0-0.7
					c0-0.2-0.1-0.5-0.2-0.7c0-0.2-0.1-0.5-0.1-0.7c-0.1-0.2-0.2-0.4-0.2-0.7c-0.1-0.2-0.2-0.5-0.3-0.7c-0.1-0.2-0.2-0.4-0.3-0.7
					c-0.1-0.2-0.2-0.4-0.4-0.6c-0.1-0.2-0.2-0.4-0.4-0.6c-0.1-0.2-0.3-0.4-0.4-0.6c-0.1-0.2-0.3-0.4-0.4-0.6
					c-0.2-0.2-0.3-0.3-0.5-0.5c-0.2-0.2-0.3-0.3-0.5-0.5c-0.2-0.2-0.3-0.4-0.5-0.5c-0.2-0.2-0.4-0.3-0.6-0.4
					c-0.2-0.1-0.4-0.3-0.6-0.4c-0.2-0.1-0.4-0.3-0.6-0.5c-0.2-0.1-0.4-0.2-0.6-0.4c-0.2-0.1-0.4-0.2-0.6-0.3
					c-0.2-0.1-0.4-0.3-0.6-0.4c-0.2-0.1-0.4-0.2-0.7-0.3c-0.2-0.1-0.4-0.2-0.7-0.3c-0.2-0.1-0.4-0.2-0.7-0.3
					c-0.2-0.1-0.5-0.2-0.7-0.2c-0.2-0.1-0.4-0.2-0.7-0.2c-0.2-0.1-0.5-0.1-0.7-0.2c-0.2-0.1-0.5-0.1-0.7-0.2c-0.2,0-0.5,0-0.7-0.1
					c-0.2,0-0.5-0.1-0.7-0.1c-0.2,0-0.5-0.1-0.7-0.1c-0.2,0-0.5,0-0.7,0c-0.2,0-0.5,0-0.7,0c-0.2,0-0.5,0-0.7,0c-0.2,0-0.5,0-0.7,0
					c-0.2,0-0.5,0-0.7,0c-0.2,0-0.5,0.1-0.7,0.1c-0.2,0-0.5,0.1-0.7,0.1c-0.2,0-0.5,0.1-0.7,0.1c-0.2,0-0.5,0.1-0.7,0.1
					c-0.2,0.1-0.5,0.1-0.7,0.2c-0.2,0.1-0.5,0.1-0.7,0.2c-0.2,0.1-0.5,0.1-0.7,0.2c-0.2,0.1-0.4,0.2-0.7,0.3
					c-0.2,0.1-0.5,0.1-0.7,0.2c-0.2,0.1-0.4,0.2-0.7,0.3c-0.2,0.1-0.4,0.3-0.6,0.4c-0.2,0.1-0.5,0.2-0.7,0.3
					c-0.2,0.1-0.4,0.3-0.6,0.4c-0.2,0.1-0.4,0.3-0.6,0.4c-0.2,0.1-0.4,0.2-0.6,0.4c-0.2,0.1-0.4,0.3-0.6,0.4
					c-0.2,0.2-0.3,0.3-0.5,0.5c-0.2,0.2-0.4,0.3-0.6,0.5c-0.2,0.2-0.3,0.4-0.5,0.5c-0.2,0.2-0.4,0.3-0.5,0.5
					c-0.2,0.2-0.3,0.4-0.4,0.6c-0.1,0.2-0.2,0.4-0.4,0.6c-0.1,0.2-0.3,0.4-0.4,0.6c-0.1,0.2-0.2,0.4-0.3,0.6
					c-0.1,0.2-0.2,0.4-0.3,0.7c-0.1,0.2-0.2,0.4-0.3,0.7c-0.1,0.2-0.2,0.5-0.2,0.7c-0.1,0.2-0.1,0.5-0.2,0.7c0,0.2-0.1,0.5-0.1,0.7
					c0,0.2,0,0.5-0.1,0.7c0,0.2-0.1,0.5-0.1,0.7c0,0.3-0.1,0.5-0.3,0.7s-0.4,0.3-0.7,0.3s-0.5-0.1-0.7-0.3s-0.3-0.4-0.3-0.7
					c0-0.2,0.1-0.5,0.1-0.7c0-0.2,0-0.5,0.1-0.7c0-0.2,0-0.5,0.1-0.7c0-0.2,0.1-0.5,0.2-0.7c0.1-0.2,0.1-0.5,0.2-0.7
					c0.1-0.2,0.1-0.5,0.2-0.7c0.1-0.2,0.2-0.4,0.3-0.7c0.1-0.2,0.2-0.5,0.3-0.7c0.1-0.2,0.2-0.4,0.3-0.6c0.1-0.2,0.2-0.4,0.4-0.6
					c0.1-0.2,0.3-0.4,0.4-0.6c0.1-0.2,0.2-0.4,0.4-0.6c0.1-0.2,0.3-0.4,0.5-0.5c0.2-0.2,0.3-0.3,0.5-0.5c0.2-0.2,0.3-0.3,0.5-0.5
					c0.2-0.2,0.3-0.3,0.5-0.5c0.2-0.2,0.3-0.3,0.5-0.5c0.2-0.2,0.4-0.3,0.6-0.4c0.2-0.1,0.4-0.3,0.6-0.5c0.2-0.1,0.4-0.3,0.6-0.4
					c0.2-0.1,0.4-0.2,0.6-0.4c0.2-0.1,0.4-0.3,0.6-0.4c0.2-0.1,0.4-0.2,0.6-0.3c0.2-0.1,0.4-0.2,0.7-0.3c0.2-0.1,0.4-0.2,0.7-0.3
					c0.2-0.1,0.4-0.2,0.7-0.3c0.2-0.1,0.4-0.2,0.7-0.3c0.2-0.1,0.5-0.1,0.7-0.2c0.2-0.1,0.5-0.1,0.7-0.2c0.2-0.1,0.5-0.1,0.7-0.2
					c0.2-0.1,0.5-0.2,0.7-0.2c0.2,0,0.5-0.1,0.7-0.1c0.2,0,0.5-0.1,0.7-0.2c0.2,0,0.5,0,0.7,0c0.2,0,0.5-0.1,0.7-0.1
					c0.2,0,0.5,0,0.7,0c0.2,0,0.5,0,0.7,0c0,0,0,0,0,0c0.2,0,0.2,0,0.5,0c0.2,0,0.5,0,0.7,0c0.2,0,0.5,0,0.7,0c0.2,0,0.5,0,0.7,0
					c0.2,0,0.5,0.1,0.7,0.1c0.2,0,0.5,0.1,0.7,0.1c0.2,0,0.5,0,0.7,0.1c0.2,0,0.5,0.1,0.7,0.2c0.2,0.1,0.5,0.1,0.7,0.2
					c0.2,0.1,0.5,0.1,0.7,0.1c0.2,0.1,0.5,0.1,0.7,0.2c0.2,0.1,0.5,0.2,0.7,0.2c0.2,0.1,0.4,0.2,0.6,0.3c0.2,0.1,0.4,0.2,0.7,0.3
					c0.2,0.1,0.5,0.2,0.7,0.3c0.2,0.1,0.4,0.2,0.6,0.4c0.2,0.1,0.4,0.3,0.6,0.4c0.2,0.1,0.4,0.2,0.6,0.3c0.2,0.1,0.4,0.3,0.6,0.4
					c0.2,0.1,0.4,0.3,0.6,0.4c0.2,0.1,0.4,0.3,0.6,0.5c0.2,0.2,0.4,0.3,0.6,0.5c0.2,0.2,0.3,0.4,0.5,0.5c0.2,0.2,0.4,0.3,0.5,0.5
					c0.2,0.2,0.3,0.4,0.5,0.5c0.2,0.2,0.3,0.4,0.4,0.6c0.1,0.2,0.3,0.4,0.4,0.6c0.1,0.2,0.2,0.4,0.4,0.6c0.1,0.2,0.3,0.4,0.4,0.6
					c0.1,0.2,0.2,0.4,0.3,0.7c0.1,0.2,0.2,0.4,0.3,0.7c0.1,0.2,0.2,0.4,0.3,0.6c0.1,0.2,0.1,0.5,0.2,0.7c0.1,0.2,0.1,0.5,0.1,0.7
					c0.1,0.2,0.2,0.5,0.2,0.7c0,0.2,0,0.5,0.1,0.7c0,0.2,0.1,0.5,0.1,0.7c0,0.2,0,0.5,0,0.7c0,0.3-0.1,0.5-0.2,0.7
					S137.3,155.1,137,155.1z"/>
			</g>
		</g>
	</g>
	<path class="st2" d="M119.9,245.6h35.3c3.6,0,6.8-2.4,7.7-5.9l17.5-64c3.1-11.3-5.4-22.5-17.2-22.5h-43.2h0.5H77.2
		c-11.8,0-20.3,11.2-17.2,22.5l17.5,64c0.9,3.5,4.1,5.9,7.7,5.9h35.3H119.9z"/>
	<g>
		<path class="st5" d="M53,213.5l5.7-37.9c0.3-2.2-1.7-4.3-3.9-4.7c-2.2-0.3-4.7,1.1-5,3.3l-5.7,38.2c-6.2,1-11.3,6-12.3,12.6
			c-0.3,1.9,1.2,3.7,3.1,4c1.9,0.3,3.8-1,4.1-3c0.6-4.3,4.7-7.3,9-6.7s7.3,4.7,6.7,9c-0.3,1.9,1,3.7,3,4c1.9,0.3,4-1,4.3-2.9
			C63,222.6,58.7,216,53,213.5z"/>
	</g>
	<g>
		<path class="st5" d="M195.9,213.9l-7.3-37.7c-0.4-2.2-2.7-3.6-4.9-3.2c-2.2,0.4-3.8,2.6-3.4,4.8l7.3,37.8
			c-5.5,2.9-9.2,9.5-7.9,16.2c0.4,1.9,2.2,3.2,4.1,2.8s3.2-2.2,2.8-4.1c-0.8-4.3,2-8.4,6.3-9.3c4.3-0.8,8.5,2,9.3,6.3
			c0.4,1.9,2.2,3.2,4.1,2.8c1.9-0.4,3.4-2.3,3-4.2C208,219.2,202,214.5,195.9,213.9z"/>
	</g>
	<g>
		<g>
			<g>
				<path class="st3" d="M129.6,113.3c0.4,0,0.4,0,0.7,0c0.4,0,0.4,0.1,0.7,0.1c0.4,0,0.4,0,0.7,0c0.4,0,0.4,0,0.7,0
					c0.4,0,0.4,0,0.7,0c0.4,0,0.4,0,0.7,0c0.4,0,0.4,0,0.7,0c0.4,0,0.4-0.1,0.7-0.1c0.4,0,0.4,0.1,0.7,0.1c0.4,0,0.4-0.1,0.7-0.1
					c0.4,0,0.4,0,0.7,0c0.4,0,0.4,0.1,0.7,0.1c0.4,0,0.4,0,0.7,0c0.4,0,0.4-0.1,0.7-0.1c0.4,0,0.4,0,0.7,0c0.4,0,0.4,0,0.7,0
					c0.4,0,0.4,0,0.7,0c0.4,0,0.4,0.1,0.7,0.1c0.4,0,0.4,0,0.7,0c0.4,0,0.4,0,0.7,0c0.4,0,0.4-0.1,0.7-0.1c0.4,0,0.4,0,0.7,0
					c0.4,0,0.4-0.1,0.7-0.1s0.4,0,0.7,0c0.4,0,0.4,0,0.7,0c0.4,0,0.4-0.1,0.7-0.1c0.4,0,0.4,0,0.7,0c0.4,0,0.4,0.1,0.7,0.1
					c0.4,0,0.4,0,0.7,0c0.4,0,0.4,0,0.7,0c0.4,0,0.4-0.1,0.7-0.1c0.4,0,0.4,0,0.7,0c0.2,0,0.5,0.1,0.7,0c0.2,0,0.5-0.1,0.7-0.1
					c0.2,0,0.5,0.1,0.7,0c0.2,0,0.5-0.2,0.7-0.2c0.2,0,0.5,0,0.7-0.1c0.2-0.1,0.5-0.2,0.7-0.2c0.2-0.1,0.5-0.1,0.7-0.2
					c0.2-0.1,0.4-0.3,0.6-0.4c0.2-0.1,0.5-0.1,0.7-0.2c0.2-0.1,0.4-0.3,0.6-0.4c0.2-0.1,0.4-0.2,0.6-0.4c0.2-0.1,0.4-0.3,0.6-0.4
					c0.2-0.1,0.4-0.3,0.6-0.4c0.2-0.2,0.3-0.4,0.5-0.5c0.2-0.2,0.3-0.4,0.5-0.5c0.2-0.2,0.3-0.3,0.5-0.5c0.1-0.2,0.2-0.4,0.3-0.6
					c0.1-0.2,0.2-0.4,0.3-0.7c0.1-0.2,0.2-0.4,0.3-0.7c0.1-0.2,0.2-0.5,0.2-0.7c0.1-0.2,0.1-0.5,0.1-0.7c0-0.2,0-0.5,0-0.7l-0.1,0
					c0-0.2,0-0.5,0-0.7c0-0.2-0.1-0.5-0.2-0.7c-0.1-0.2-0.1-0.5-0.2-0.7c-0.1-0.2-0.1-0.5-0.2-0.7c-0.1-0.2-0.3-0.4-0.4-0.6
					c-0.1-0.2-0.2-0.4-0.4-0.6c-0.1-0.2-0.2-0.4-0.4-0.6c-0.2-0.2-0.3-0.4-0.5-0.5c-0.2-0.2-0.4-0.3-0.5-0.5
					c-0.2-0.2-0.4-0.3-0.5-0.5c-0.2-0.1-0.4-0.3-0.6-0.4c-0.2-0.1-0.4-0.2-0.7-0.3c-0.2-0.1-0.4-0.2-0.6-0.3
					c-0.2-0.1-0.4-0.2-0.6-0.3c-0.2-0.1-0.4-0.2-0.7-0.3c-0.2-0.1-0.5-0.1-0.7-0.2c-0.2-0.1-0.5-0.2-0.7-0.2
					c-0.2-0.1-0.5-0.1-0.7-0.1c-0.2,0-0.5-0.2-0.7-0.2c-0.2,0-0.5-0.1-0.7-0.1c-0.2,0-0.5-0.1-0.7-0.1c-0.2,0-0.5,0.1-0.7,0.1
					c-0.4,0-0.4-0.1-0.7-0.1c-0.4,0-0.4,0-0.7,0c-0.4,0-0.4,0.1-0.7,0.1c-0.4,0-0.4-0.1-0.7-0.1c-0.4,0-0.4,0-0.7,0
					c-0.4,0-0.4,0.1-0.7,0.1c-0.4,0-0.4,0-0.7,0c-0.4,0-0.4-0.1-0.7-0.1c-0.4,0-0.4,0-0.7,0c-0.4,0-0.4,0-0.7,0c-0.4,0-0.4,0-0.7,0
					c-0.4,0-0.4,0.1-0.7,0.1c-0.4,0-0.4,0-0.7,0c-0.4,0-0.4,0-0.7,0c-0.4,0-0.4,0.1-0.7,0.1c-0.4,0-0.4-0.1-0.7-0.1
					c-0.4,0-0.4,0.1-0.7,0.1c-0.4,0-0.4,0-0.7,0c-0.4,0-0.4,0-0.7,0c-0.4,0-0.4,0-0.7,0c-0.4,0-0.4,0-0.7,0c-0.4,0-0.4,0-0.7,0
					c-0.4,0-0.4,0-0.7,0s-0.4-0.1-0.7-0.1c-0.4,0-0.4,0-0.7,0c-0.4,0-0.4,0.1-0.7,0.1c-0.4,0-0.4-0.1-0.7-0.1c-0.4,0-0.4,0-0.7,0
					c-0.4,0-0.4,0-0.7,0c-0.4,0-0.4,0-0.7,0c-0.4,0-0.4,0-0.7,0c-0.4,0-0.4,0-0.7,0c-0.2,0,0.6,0,0.4,0c-0.4,0-0.4,0.1-0.7,0.1
					c-0.4,0-0.4,0-0.7,0c-0.4,0-0.4-0.1-0.7-0.1c-0.4,0-0.4,0-0.7,0c-0.4,0-0.4,0.1-0.7,0.1c-0.4,0-0.4,0-0.7,0c-0.4,0-0.4,0-0.7,0
					c-0.4,0-0.4,0-0.7,0c-0.4,0-0.4-0.1-0.7-0.1c-0.4,0-0.4,0-0.7,0c-0.4,0-0.4,0-0.7,0c-0.4,0-0.4,0-0.7,0c-0.4,0-0.4,0-0.7,0
					c-0.4,0-0.4,0-0.7,0c-0.4,0-0.4,0.1-0.7,0.1c-0.4,0-0.4-0.1-0.7-0.1c-0.4,0-0.4,0.1-0.7,0.1c-0.4,0-0.4,0-0.7,0
					c-0.4,0-0.4,0-0.7,0c-0.4,0-0.4,0-0.7,0c-0.4,0-0.4,0.1-0.7,0.1c-0.4,0-0.4-0.1-0.7-0.1c-0.4,0-0.4,0.1-0.7,0.1
					c-0.4,0-0.4,0-0.7,0c-0.4,0-0.4,0.1-0.7,0.1c-0.4,0-0.4-0.1-0.7-0.1c-0.4,0-0.4,0-0.7,0c-0.4,0-0.4,0-0.7,0c-0.4,0-0.4,0-0.7,0
					c-0.4,0-0.4-0.1-0.7-0.1c-0.4,0-0.4,0-0.7,0s-0.4,0-0.7,0c-0.2,0-0.5,0.1-0.7,0.1c-0.2,0-0.5,0-0.7,0.1c-0.2,0-0.5,0-0.7,0
					c-0.2,0-0.5,0.2-0.7,0.2c-0.2,0-0.5,0-0.7,0c-0.2,0.1-0.5,0.1-0.7,0.2c-0.2,0.1-0.5,0.1-0.7,0.2c-0.2,0.1-0.4,0.2-0.7,0.3
					c-0.2,0.1-0.4,0.2-0.6,0.3c-0.2,0.1-0.4,0.2-0.7,0.3c-0.2,0.1-0.4,0.3-0.6,0.4c-0.2,0.1-0.3,0.3-0.5,0.5
					c-0.2,0.1-0.4,0.3-0.6,0.4c-0.2,0.2-0.3,0.3-0.5,0.5c-0.2,0.2-0.4,0.3-0.5,0.5c-0.2,0.2-0.3,0.4-0.4,0.6
					c-0.1,0.2-0.3,0.4-0.4,0.6c-0.1,0.2-0.2,0.5-0.3,0.7c-0.1,0.2-0.2,0.4-0.3,0.7c-0.1,0.2-0.1,0.5-0.2,0.7
					c-0.1,0.2-0.1,0.5-0.1,0.7c0,0.2-0.1,0.5-0.1,0.7l0.1,0c0,0.2,0,0.5,0,0.7c0,0.2,0.1,0.5,0.1,0.7c0.1,0.2,0,0.5,0.1,0.7
					c0.1,0.2,0.2,0.4,0.3,0.7c0.1,0.2,0.1,0.5,0.3,0.7c0.1,0.2,0.3,0.4,0.5,0.6c0.1,0.2,0.2,0.4,0.4,0.6c0.2,0.2,0.4,0.3,0.5,0.5
					c0.2,0.2,0.3,0.3,0.5,0.5c0.2,0.2,0.4,0.3,0.6,0.5c0.2,0.1,0.4,0.3,0.6,0.4c0.2,0.1,0.4,0.3,0.6,0.4c0.2,0.1,0.5,0.2,0.7,0.3
					c0.2,0.1,0.4,0.2,0.6,0.3c0.2,0.1,0.4,0.2,0.7,0.3c0.2,0.1,0.5,0.1,0.7,0.2c0.2,0.1,0.5,0.2,0.7,0.2c0.2,0.1,0.5,0.1,0.7,0.1
					c0.2,0,0.5,0.1,0.7,0.1c0.2,0,0.5,0.1,0.7,0.1c0.2,0,0.5,0,0.7,0c0.2,0,0.5,0.1,0.7,0.1c0.4,0,0.4,0,0.7,0c0.4,0,0.4,0,0.7,0
					c0.4,0,0.4-0.1,0.7-0.1c0.4,0,0.4,0,0.7,0c0.4,0,0.4,0.1,0.7,0.1c0.4,0,0.4,0.1,0.7,0.1c0.4,0,0.4,0,0.7,0
					c0.4,0,0.4-0.1,0.7-0.1c0.4,0,0.4,0.1,0.7,0.1c0.4,0,0.4-0.1,0.7-0.1c0.4,0,0.4,0,0.7,0c0.4,0,0.4,0,0.7,0c0.4,0,0.4,0,0.7,0
					c0.4,0,0.4,0,0.7,0c0.4,0,0.4,0,0.7,0c0.4,0,0.4,0,0.7,0c0.4,0,0.4-0.1,0.7-0.1c0.4,0,0.4,0,0.7,0c0.4,0,0.4,0,0.7,0
					c0.4,0,0.4,0,0.7,0c0.4,0,0.4,0.1,0.7,0.1c0.4,0,0.4,0,0.7,0c0.4,0,0.4-0.1,0.7-0.1c0.4,0,0.4,0,0.7,0c0.4,0,0.4,0,0.7,0
					c0.4,0,0.4,0.1,0.7,0.1c0.4,0,0.4-0.1,0.7-0.1c0.4,0,0.4,0.1,0.7,0.1c0.4,0,0.4-0.1,0.7-0.1c0.4,0,0.4,0.1,0.7,0.1
					c0.4,0,0.4,0,0.7,0c0.4,0,0.4,0.1,0.7,0C130.3,113.2,129.4,113.3,129.6,113.3z"/>
			</g>
		</g>
	</g>
	<g>
		<g>
			<g>
				<path class="st0" d="M136.1,105.6c0,0.2,0,0.5,0,0.7c0,0.2,0.1,0.4,0.2,0.7c0.1,0.2,0.1,0.4,0.2,0.6c0.1,0.2,0.2,0.4,0.4,0.6
					c0.1,0.2,0.3,0.4,0.4,0.5c0.2,0.2,0.3,0.3,0.5,0.5c0.2,0.1,0.4,0.2,0.6,0.3c0.2,0.1,0.4,0.2,0.6,0.3c0.2,0.1,0.4,0.1,0.7,0.1
					c0.2,0,0.5,0,0.7,0c0.2,0,0.5,0,0.7-0.1c0.2,0,0.4-0.1,0.7-0.2c0.2-0.1,0.4-0.2,0.6-0.3c0.2-0.1,0.4-0.2,0.6-0.3
					c0.2-0.1,0.3-0.3,0.5-0.5c0.2-0.2,0.3-0.3,0.5-0.5c0.1-0.2,0.2-0.4,0.3-0.6c0.1-0.2,0.2-0.4,0.3-0.6c0.1-0.2,0.1-0.4,0.2-0.7
					c0-0.2,0.1-0.4,0.1-0.7c0-0.2,0-0.5-0.1-0.7c0-0.2-0.1-0.5-0.1-0.7c-0.1-0.2-0.2-0.4-0.3-0.6c-0.1-0.2-0.2-0.4-0.4-0.6
					c-0.1-0.2-0.3-0.4-0.4-0.5c-0.2-0.2-0.3-0.3-0.5-0.5c-0.2-0.1-0.4-0.2-0.6-0.3c-0.2-0.1-0.4-0.2-0.6-0.2
					c-0.2-0.1-0.4-0.2-0.7-0.2c-0.2,0-0.5-0.1-0.7-0.1c-0.2,0-0.5,0-0.7,0c-0.2,0-0.4,0.1-0.7,0.2c-0.2,0.1-0.4,0.1-0.6,0.2
					c-0.2,0.1-0.4,0.3-0.6,0.4c-0.2,0.1-0.4,0.3-0.5,0.4c-0.2,0.2-0.3,0.3-0.5,0.5c-0.1,0.2-0.3,0.4-0.4,0.6
					c-0.1,0.2-0.2,0.4-0.2,0.6c-0.1,0.2-0.2,0.4-0.2,0.7C136.1,105.2,136.1,105.4,136.1,105.6z"/>
			</g>
		</g>
	</g>
	<g>
		<g>
			<g>
				<path class="st0" d="M115.7,104c0,0.2,0,0.5,0,0.7c0,0.2-0.1,0.4-0.2,0.7c-0.1,0.2-0.1,0.4-0.2,0.6c-0.1,0.2-0.2,0.4-0.4,0.6
					c-0.1,0.2-0.3,0.4-0.4,0.5c-0.2,0.2-0.4,0.3-0.6,0.4c-0.2,0.1-0.3,0.3-0.5,0.4c-0.2,0.1-0.4,0.1-0.6,0.2
					c-0.2,0.1-0.4,0.2-0.7,0.2c-0.2,0-0.5,0.1-0.7,0.1c-0.2,0-0.5,0-0.7-0.1c-0.2,0-0.4-0.1-0.7-0.2c-0.2-0.1-0.4-0.2-0.6-0.3
					c-0.2-0.1-0.4-0.2-0.6-0.3c-0.2-0.1-0.4-0.3-0.5-0.5c-0.2-0.2-0.3-0.4-0.4-0.5c-0.1-0.2-0.3-0.4-0.4-0.6
					c-0.1-0.2-0.2-0.4-0.3-0.6c-0.1-0.2-0.1-0.4-0.1-0.7c0-0.2-0.1-0.4-0.1-0.7c0-0.2,0-0.5,0.1-0.7c0-0.2,0.1-0.4,0.2-0.7
					c0.1-0.2,0.1-0.4,0.2-0.6c0.1-0.2,0.2-0.4,0.3-0.6c0.1-0.2,0.3-0.3,0.5-0.5c0.2-0.2,0.3-0.3,0.5-0.4c0.2-0.1,0.3-0.3,0.6-0.4
					c0.2-0.1,0.4-0.2,0.6-0.3c0.2-0.1,0.4-0.1,0.7-0.2c0.2,0,0.5,0,0.7,0c0.2,0,0.5,0,0.7,0.1c0.2,0,0.4,0.1,0.7,0.2
					c0.2,0.1,0.4,0.2,0.6,0.3c0.2,0.1,0.4,0.2,0.6,0.3c0.2,0.1,0.3,0.3,0.5,0.5c0.2,0.2,0.3,0.3,0.4,0.5c0.1,0.2,0.3,0.4,0.4,0.6
					c0.1,0.2,0.2,0.4,0.3,0.6c0.1,0.2,0.1,0.4,0.2,0.7C115.7,103.5,115.7,103.7,115.7,104z"/>
			</g>
		</g>
	</g>
	<g>
		<g>
			<g>
				<path class="st3" d="M66.7,170.9c0,0.2,0,0.5,0,0.7c0,0.2,0,0.5,0,0.7c0,0.2-0.1,0.5-0.1,0.7c0,0.2-0.1,0.5-0.1,0.7
					c-0.1,0.2-0.1,0.5-0.2,0.7c-0.1,0.2-0.2,0.4-0.2,0.7c-0.1,0.2-0.2,0.4-0.3,0.7c-0.1,0.2-0.2,0.4-0.3,0.7
					c-0.1,0.2-0.2,0.4-0.4,0.6c-0.1,0.2-0.2,0.4-0.4,0.6c-0.1,0.2-0.3,0.4-0.4,0.6c-0.1,0.2-0.3,0.4-0.5,0.5
					c-0.2,0.2-0.3,0.4-0.5,0.5c-0.2,0.2-0.3,0.3-0.5,0.5c-0.2,0.2-0.3,0.3-0.5,0.5c-0.2,0.2-0.4,0.3-0.6,0.4
					c-0.2,0.1-0.4,0.3-0.6,0.4c-0.2,0.1-0.4,0.3-0.6,0.4c-0.2,0.1-0.4,0.2-0.6,0.3c-0.2,0.1-0.4,0.2-0.6,0.3
					c-0.2,0.1-0.4,0.2-0.7,0.3c-0.2,0.1-0.4,0.2-0.7,0.2c-0.2,0.1-0.5,0.1-0.7,0.2c-0.2,0.1-0.5,0.1-0.7,0.1c-0.2,0-0.5,0.1-0.7,0.1
					c-0.2,0-0.5,0.1-0.7,0.1c-0.2,0-0.5,0-0.7,0c-0.2,0-0.5,0-0.7,0c-0.2,0-0.5-0.1-0.7-0.1c-0.2,0-0.5-0.1-0.7-0.1
					c-0.2,0-0.5-0.1-0.7-0.1c-0.2-0.1-0.5-0.1-0.7-0.2c-0.2-0.1-0.5-0.1-0.7-0.2c-0.2-0.1-0.4-0.2-0.7-0.3c-0.2-0.1-0.4-0.2-0.6-0.3
					c-0.2-0.1-0.4-0.2-0.6-0.3c-0.2-0.1-0.4-0.2-0.6-0.3c-0.2-0.1-0.4-0.3-0.6-0.4c-0.2-0.1-0.4-0.3-0.6-0.4
					c-0.2-0.2-0.4-0.3-0.5-0.5c-0.2-0.2-0.4-0.3-0.5-0.5c-0.2-0.2-0.3-0.4-0.5-0.5c-0.2-0.2-0.3-0.4-0.4-0.6
					c-0.1-0.2-0.3-0.4-0.4-0.6c-0.1-0.2-0.3-0.4-0.4-0.6c-0.1-0.2-0.2-0.4-0.3-0.6c-0.1-0.2-0.2-0.4-0.3-0.6
					c-0.1-0.2-0.2-0.4-0.3-0.7c-0.1-0.2-0.2-0.4-0.2-0.7c-0.1-0.2-0.1-0.5-0.2-0.7c-0.1-0.2-0.1-0.5-0.1-0.7c0-0.2,0-0.5-0.1-0.7
					c0-0.2-0.1-0.5-0.1-0.7c0-0.2,0-0.5,0-0.7c0-0.2,0-0.5,0.1-0.7c0-0.2,0-0.5,0-0.7c0-0.2,0.1-0.5,0.1-0.7c0-0.2,0.1-0.5,0.1-0.7
					c0.1-0.2,0.1-0.5,0.2-0.7c0.1-0.2,0.2-0.4,0.2-0.7c0.1-0.2,0.2-0.4,0.2-0.7c0.1-0.2,0.2-0.4,0.3-0.6c0.1-0.2,0.2-0.4,0.3-0.6
					c0.1-0.2,0.3-0.4,0.4-0.6c0.1-0.2,0.3-0.4,0.4-0.6c0.1-0.2,0.3-0.4,0.4-0.6c0.2-0.2,0.3-0.3,0.5-0.5c0.2-0.2,0.3-0.3,0.5-0.5
					c0.2-0.2,0.3-0.3,0.5-0.5c0.2-0.2,0.4-0.3,0.6-0.4c0.2-0.1,0.4-0.3,0.6-0.4c0.2-0.1,0.4-0.3,0.6-0.4c0.2-0.1,0.4-0.2,0.6-0.3
					c0.2-0.1,0.4-0.2,0.7-0.3c0.2-0.1,0.4-0.2,0.7-0.3c0.2-0.1,0.4-0.2,0.7-0.2c0.2-0.1,0.4-0.2,0.7-0.2c0.2-0.1,0.5-0.1,0.7-0.1
					c0.2,0,0.5-0.1,0.7-0.1c0.2,0,0.5,0,0.7,0c0.2,0,0.5-0.1,0.7-0.1c0.2,0,0.5,0,0.7,0c0.2,0,0.5,0,0.7,0.1c0.2,0,0.5,0.1,0.7,0.1
					c0.2,0,0.5,0.1,0.7,0.1c0.2,0.1,0.5,0.1,0.7,0.2c0.2,0.1,0.5,0.1,0.7,0.2c0.2,0.1,0.4,0.2,0.7,0.3c0.2,0.1,0.4,0.2,0.6,0.3
					c0.2,0.1,0.4,0.2,0.6,0.3c0.2,0.1,0.4,0.2,0.6,0.4c0.2,0.1,0.4,0.3,0.6,0.4c0.2,0.1,0.4,0.3,0.5,0.5c0.2,0.2,0.4,0.3,0.5,0.5
					c0.2,0.2,0.3,0.3,0.5,0.5c0.2,0.2,0.3,0.4,0.5,0.5c0.2,0.2,0.3,0.4,0.4,0.6c0.1,0.2,0.3,0.4,0.4,0.6c0.1,0.2,0.3,0.4,0.4,0.6
					c0.1,0.2,0.2,0.4,0.3,0.6c0.1,0.2,0.2,0.4,0.3,0.6c0.1,0.2,0.2,0.4,0.3,0.7c0.1,0.2,0.2,0.4,0.2,0.7c0.1,0.2,0.1,0.4,0.2,0.7
					c0.1,0.2,0.1,0.5,0.1,0.7c0,0.2,0.1,0.5,0.1,0.7c0,0.2,0.1,0.5,0.1,0.7C66.7,170.4,66.7,170.7,66.7,170.9z"/>
			</g>
			<g>
				<path class="st3" d="M54.5,184c-0.2,0-0.5,0-0.7,0c-0.2,0-0.5-0.1-0.7-0.1c-0.2,0-0.5-0.1-0.7-0.1c-0.2,0-0.5-0.1-0.7-0.1
					c-0.2-0.1-0.5-0.1-0.7-0.2c-0.2-0.1-0.5-0.1-0.7-0.2c-0.2-0.1-0.4-0.2-0.7-0.2c-0.2-0.1-0.4-0.2-0.6-0.3
					c-0.2-0.1-0.4-0.2-0.6-0.3c-0.2-0.1-0.4-0.2-0.6-0.3c-0.2-0.1-0.4-0.3-0.6-0.4c-0.2-0.1-0.4-0.3-0.6-0.4
					c-0.2-0.1-0.4-0.3-0.6-0.4c-0.2-0.2-0.3-0.3-0.5-0.5c-0.2-0.2-0.3-0.3-0.5-0.5c-0.2-0.2-0.3-0.4-0.5-0.5
					c-0.2-0.2-0.3-0.4-0.4-0.6c-0.1-0.2-0.3-0.4-0.4-0.6c-0.1-0.2-0.2-0.4-0.4-0.6c-0.1-0.2-0.3-0.4-0.4-0.6
					c-0.1-0.2-0.2-0.4-0.3-0.6c-0.1-0.2-0.2-0.4-0.3-0.7c-0.1-0.2-0.2-0.4-0.3-0.7c-0.1-0.2-0.1-0.5-0.2-0.7
					c-0.1-0.2-0.1-0.5-0.2-0.7c-0.1-0.2-0.1-0.5-0.1-0.7c0-0.2-0.1-0.5-0.1-0.7c0-0.2,0-0.5-0.1-0.7c0-0.2,0-0.5,0-0.7
					c0-0.2,0-0.5,0.1-0.7c0-0.2,0-0.5,0-0.7c0-0.2,0.1-0.5,0.1-0.7c0-0.2,0.1-0.5,0.1-0.7c0.1-0.2,0.2-0.5,0.2-0.7
					c0.1-0.2,0.1-0.5,0.2-0.7c0.1-0.2,0.1-0.5,0.2-0.7c0.1-0.2,0.2-0.4,0.3-0.7c0.1-0.2,0.2-0.4,0.3-0.6c0.1-0.2,0.2-0.4,0.3-0.6
					c0.1-0.2,0.3-0.4,0.4-0.6c0.1-0.2,0.2-0.4,0.4-0.6c0.1-0.2,0.3-0.4,0.4-0.6c0.2-0.2,0.3-0.4,0.5-0.5c0.2-0.2,0.4-0.3,0.5-0.5
					c0.2-0.2,0.3-0.3,0.5-0.5c0.2-0.2,0.4-0.3,0.5-0.4c0.2-0.1,0.4-0.3,0.6-0.4c0.2-0.1,0.4-0.3,0.6-0.4c0.2-0.1,0.4-0.2,0.6-0.3
					c0.2-0.1,0.4-0.2,0.6-0.3c0.2-0.1,0.4-0.2,0.6-0.3c0.2-0.1,0.5-0.1,0.7-0.2c0.2-0.1,0.4-0.1,0.7-0.2c0.2-0.1,0.4-0.2,0.7-0.2
					c0.2-0.1,0.5-0.1,0.7-0.1c0.2,0,0.5-0.1,0.7-0.1c0.2,0,0.5,0,0.7-0.1c0.2,0,0.5,0,0.7,0c0.2,0,0.5,0,0.7,0
					c0.2,0,0.5,0.1,0.7,0.1c0.2,0,0.5,0.1,0.7,0.1c0.2,0,0.5,0.1,0.7,0.1c0.2,0.1,0.5,0.1,0.7,0.2c0.2,0.1,0.5,0.1,0.7,0.2
					c0.2,0.1,0.4,0.2,0.7,0.3c0.2,0.1,0.4,0.2,0.7,0.3c0.2,0.1,0.4,0.2,0.6,0.3c0.2,0.1,0.4,0.2,0.6,0.4c0.2,0.1,0.4,0.2,0.6,0.4
					c0.2,0.1,0.4,0.3,0.6,0.4c0.2,0.1,0.4,0.3,0.6,0.4c0.2,0.2,0.4,0.3,0.5,0.5c0.2,0.2,0.3,0.3,0.5,0.5c0.2,0.2,0.3,0.4,0.4,0.6
					c0.2,0.2,0.3,0.4,0.5,0.5c0.1,0.2,0.3,0.4,0.4,0.6c0.1,0.2,0.2,0.4,0.4,0.6c0.1,0.2,0.2,0.4,0.3,0.6c0.1,0.2,0.2,0.4,0.3,0.6
					c0.1,0.2,0.2,0.4,0.3,0.7c0.1,0.2,0.2,0.4,0.2,0.7c0.1,0.2,0.1,0.5,0.2,0.7c0.1,0.2,0.1,0.5,0.2,0.7c0.1,0.2,0.1,0.5,0.1,0.7
					c0,0.2,0,0.5,0.1,0.7c0,0.2,0.1,0.5,0.1,0.7c0,0.2,0,0.5,0,0.7c0,0.2,0,0.5,0,0.7c0,0.2-0.1,0.5-0.1,0.7c0,0.2,0,0.5-0.1,0.7
					c0,0.2-0.1,0.5-0.1,0.7c-0.1,0.2-0.1,0.5-0.2,0.7c-0.1,0.2-0.1,0.4-0.2,0.7c-0.1,0.2-0.1,0.5-0.2,0.7c-0.1,0.2-0.2,0.4-0.3,0.6
					c-0.1,0.2-0.2,0.4-0.3,0.6c-0.1,0.2-0.2,0.4-0.4,0.6c-0.1,0.2-0.2,0.4-0.4,0.6c-0.1,0.2-0.3,0.4-0.4,0.6
					c-0.1,0.2-0.3,0.4-0.5,0.5c-0.2,0.2-0.3,0.4-0.5,0.5c-0.2,0.2-0.3,0.4-0.5,0.5c-0.2,0.2-0.3,0.3-0.5,0.5
					c-0.2,0.2-0.4,0.3-0.6,0.4c-0.2,0.1-0.4,0.3-0.6,0.4c-0.2,0.1-0.4,0.3-0.6,0.4c-0.2,0.1-0.4,0.2-0.6,0.3
					c-0.2,0.1-0.4,0.2-0.6,0.3c-0.2,0.1-0.4,0.2-0.6,0.3c-0.2,0.1-0.4,0.2-0.7,0.2c-0.2,0.1-0.4,0.2-0.7,0.2
					c-0.2,0.1-0.5,0.1-0.7,0.2c-0.2,0.1-0.5,0.1-0.7,0.1c-0.2,0-0.5,0.1-0.7,0.1c-0.2,0-0.5,0-0.7,0C54.9,184,54.7,184,54.5,184z
					 M54.5,159.6c-0.2,0-0.5,0-0.7,0c-0.2,0-0.5,0-0.7,0c-0.2,0-0.5,0.1-0.7,0.1c-0.2,0-0.5,0.1-0.7,0.2c-0.2,0.1-0.5,0.1-0.7,0.2
					c-0.2,0.1-0.4,0.2-0.7,0.3c-0.2,0.1-0.4,0.2-0.6,0.3c-0.2,0.1-0.4,0.2-0.6,0.3c-0.2,0.1-0.4,0.3-0.6,0.4
					c-0.2,0.1-0.4,0.3-0.6,0.4c-0.2,0.1-0.4,0.2-0.6,0.4c-0.2,0.2-0.4,0.3-0.5,0.5c-0.2,0.2-0.3,0.3-0.5,0.5
					c-0.2,0.2-0.3,0.3-0.5,0.5c-0.2,0.2-0.3,0.4-0.4,0.6c-0.1,0.2-0.3,0.4-0.4,0.6c-0.1,0.2-0.2,0.4-0.4,0.6
					c-0.1,0.2-0.2,0.4-0.3,0.6c-0.1,0.2-0.2,0.4-0.3,0.6c-0.1,0.2-0.1,0.5-0.2,0.7c-0.1,0.2-0.1,0.5-0.2,0.7
					c-0.1,0.2-0.1,0.5-0.2,0.7c0,0.2-0.1,0.5-0.1,0.7c0,0.2-0.1,0.5-0.1,0.7c0,0.2,0,0.5,0,0.7c0,0.2,0,0.5,0,0.7
					c0,0.2,0,0.5,0.1,0.7c0,0.2,0.1,0.5,0.1,0.7c0,0.2,0.1,0.5,0.2,0.7c0.1,0.2,0.1,0.5,0.2,0.7c0.1,0.2,0.2,0.4,0.3,0.7
					c0.1,0.2,0.2,0.4,0.3,0.7c0.1,0.2,0.2,0.4,0.3,0.6c0.1,0.2,0.2,0.4,0.3,0.6c0.1,0.2,0.3,0.4,0.4,0.6c0.1,0.2,0.3,0.4,0.5,0.5
					c0.2,0.2,0.3,0.4,0.5,0.5c0.2,0.2,0.3,0.4,0.5,0.5c0.2,0.2,0.4,0.3,0.5,0.5c0.2,0.2,0.4,0.3,0.5,0.5c0.2,0.1,0.4,0.2,0.6,0.4
					c0.2,0.1,0.4,0.2,0.6,0.4c0.2,0.1,0.4,0.2,0.6,0.3c0.2,0.1,0.4,0.2,0.6,0.3c0.2,0.1,0.4,0.2,0.7,0.2c0.2,0.1,0.5,0.1,0.7,0.2
					c0.2,0.1,0.5,0.1,0.7,0.1c0.2,0,0.5,0.1,0.7,0.1c0.2,0,0.5,0.1,0.7,0.1c0.2,0,0.5,0,0.7,0c0.2,0,0.5,0,0.7,0c0.2,0,0.5,0,0.7,0
					c0.2,0,0.5-0.1,0.7-0.1c0.2,0,0.5-0.1,0.7-0.2c0.2-0.1,0.5-0.1,0.7-0.2c0.2-0.1,0.4-0.2,0.7-0.3c0.2-0.1,0.4-0.2,0.6-0.3
					c0.2-0.1,0.4-0.2,0.6-0.3c0.2-0.1,0.4-0.2,0.6-0.4c0.2-0.1,0.4-0.2,0.6-0.4c0.2-0.1,0.4-0.3,0.6-0.4c0.2-0.2,0.3-0.3,0.5-0.5
					c0.2-0.2,0.3-0.3,0.5-0.5c0.2-0.2,0.3-0.3,0.5-0.5c0.2-0.2,0.3-0.4,0.4-0.6c0.1-0.2,0.3-0.4,0.4-0.6c0.1-0.2,0.2-0.4,0.3-0.6
					c0.1-0.2,0.2-0.4,0.3-0.6c0.1-0.2,0.2-0.4,0.3-0.7c0.1-0.2,0.2-0.4,0.3-0.7c0.1-0.2,0.1-0.5,0.2-0.7c0.1-0.2,0.1-0.5,0.1-0.7
					c0-0.2,0.1-0.5,0.1-0.7c0-0.2,0.1-0.5,0.1-0.7c0-0.2,0-0.5,0-0.7c0-0.2,0-0.5,0-0.7c0-0.2,0-0.5-0.1-0.7c0-0.2-0.1-0.5-0.1-0.7
					c0-0.2-0.1-0.5-0.2-0.7c-0.1-0.2-0.1-0.5-0.2-0.7c-0.1-0.2-0.2-0.4-0.2-0.7c-0.1-0.2-0.2-0.4-0.3-0.7c-0.1-0.2-0.2-0.4-0.3-0.6
					c-0.1-0.2-0.2-0.4-0.4-0.6c-0.1-0.2-0.2-0.4-0.4-0.6c-0.1-0.2-0.3-0.4-0.4-0.6c-0.2-0.2-0.3-0.4-0.5-0.5
					c-0.2-0.2-0.4-0.3-0.5-0.5c-0.2-0.2-0.3-0.3-0.5-0.5c-0.2-0.2-0.4-0.3-0.6-0.4c-0.2-0.1-0.4-0.3-0.6-0.4
					c-0.2-0.1-0.4-0.3-0.6-0.4c-0.2-0.1-0.4-0.2-0.6-0.3c-0.2-0.1-0.4-0.2-0.7-0.3c-0.2-0.1-0.4-0.2-0.7-0.3
					c-0.2-0.1-0.5-0.1-0.7-0.2c-0.2-0.1-0.5-0.1-0.7-0.2c-0.2,0-0.5-0.1-0.7-0.1c-0.2,0-0.5,0-0.7,0
					C54.9,159.6,54.7,159.6,54.5,159.6z"/>
			</g>
		</g>
	</g>
	<g>
		<g>
			<g>
				<path class="st3" d="M194.6,171.1c0,0.2,0.1,0.5,0.1,0.7c0,0.2,0.1,0.5,0.1,0.7c0,0.2,0,0.5,0,0.7c0,0.2,0,0.5,0,0.7
					c0,0.2,0,0.5-0.1,0.7c0,0.2-0.1,0.5-0.1,0.7c0,0.2-0.1,0.5-0.2,0.7c-0.1,0.2-0.1,0.5-0.2,0.7c-0.1,0.2-0.2,0.4-0.3,0.7
					c-0.1,0.2-0.2,0.4-0.3,0.6c-0.1,0.2-0.2,0.4-0.3,0.6c-0.1,0.2-0.2,0.4-0.4,0.6c-0.1,0.2-0.3,0.4-0.4,0.6
					c-0.1,0.2-0.3,0.4-0.5,0.5c-0.2,0.2-0.3,0.4-0.5,0.5c-0.2,0.2-0.4,0.3-0.5,0.5c-0.2,0.2-0.4,0.3-0.6,0.4
					c-0.2,0.1-0.4,0.3-0.6,0.4c-0.2,0.1-0.4,0.2-0.6,0.3c-0.2,0.1-0.4,0.2-0.6,0.3c-0.2,0.1-0.4,0.2-0.6,0.3
					c-0.2,0.1-0.4,0.2-0.7,0.2c-0.2,0.1-0.5,0.1-0.7,0.2c-0.2,0.1-0.5,0.1-0.7,0.2c-0.2,0-0.5,0.1-0.7,0.1c-0.2,0-0.5,0-0.7,0
					c-0.2,0-0.5,0.1-0.7,0c-0.2,0-0.5,0-0.7-0.1c-0.2,0-0.5,0-0.7-0.1c-0.2,0-0.5-0.1-0.7-0.1c-0.2,0-0.5-0.1-0.7-0.2
					c-0.2-0.1-0.5-0.1-0.7-0.2c-0.2-0.1-0.4-0.2-0.7-0.3c-0.2-0.1-0.4-0.2-0.6-0.3c-0.2-0.1-0.4-0.2-0.6-0.4
					c-0.2-0.1-0.4-0.2-0.6-0.4c-0.2-0.1-0.4-0.3-0.6-0.4c-0.2-0.1-0.4-0.3-0.5-0.5c-0.2-0.2-0.4-0.3-0.5-0.5
					c-0.2-0.2-0.3-0.3-0.5-0.5c-0.2-0.2-0.3-0.4-0.4-0.6c-0.1-0.2-0.3-0.4-0.4-0.6c-0.1-0.2-0.3-0.4-0.4-0.6
					c-0.1-0.2-0.2-0.4-0.3-0.6c-0.1-0.2-0.2-0.4-0.3-0.6c-0.1-0.2-0.2-0.4-0.2-0.7c-0.1-0.2-0.1-0.4-0.2-0.7
					c-0.1-0.2-0.1-0.5-0.2-0.7c0-0.2-0.1-0.5-0.1-0.7c0-0.2-0.1-0.5-0.1-0.7c0-0.2,0-0.5,0-0.7c0-0.2,0-0.5,0-0.7
					c0-0.2,0.1-0.5,0.1-0.7c0-0.2,0.1-0.5,0.1-0.7c0-0.2,0.1-0.5,0.2-0.7c0.1-0.2,0.1-0.5,0.2-0.7c0.1-0.2,0.2-0.4,0.2-0.7
					c0.1-0.2,0.2-0.4,0.3-0.6c0.1-0.2,0.2-0.4,0.3-0.6c0.1-0.2,0.2-0.4,0.4-0.6c0.1-0.2,0.3-0.4,0.4-0.6c0.1-0.2,0.3-0.4,0.4-0.6
					c0.2-0.2,0.3-0.4,0.5-0.5c0.2-0.2,0.4-0.3,0.5-0.5c0.2-0.2,0.3-0.3,0.5-0.5c0.2-0.1,0.4-0.3,0.6-0.4c0.2-0.1,0.4-0.3,0.6-0.4
					c0.2-0.1,0.4-0.2,0.6-0.3c0.2-0.1,0.4-0.2,0.7-0.3c0.2-0.1,0.4-0.2,0.7-0.2c0.2-0.1,0.4-0.2,0.7-0.2c0.2-0.1,0.5-0.1,0.7-0.2
					c0.2,0,0.5-0.1,0.7-0.1c0.2,0,0.5-0.1,0.7-0.1c0.2,0,0.5,0,0.7,0c0.2,0,0.5,0,0.7,0c0.2,0,0.5,0.1,0.7,0.1c0.2,0,0.5,0,0.7,0.1
					c0.2,0,0.5,0.1,0.7,0.2c0.2,0.1,0.5,0.1,0.7,0.2c0.2,0.1,0.4,0.2,0.7,0.3c0.2,0.1,0.4,0.2,0.6,0.3c0.2,0.1,0.4,0.2,0.6,0.3
					c0.2,0.1,0.4,0.2,0.6,0.4c0.2,0.1,0.4,0.3,0.6,0.4c0.2,0.1,0.4,0.3,0.5,0.5c0.2,0.2,0.3,0.3,0.5,0.5c0.2,0.2,0.3,0.3,0.5,0.5
					c0.2,0.2,0.3,0.3,0.5,0.5c0.1,0.2,0.3,0.4,0.4,0.6c0.1,0.2,0.2,0.4,0.3,0.6c0.1,0.2,0.2,0.4,0.3,0.6c0.1,0.2,0.2,0.4,0.3,0.6
					c0.1,0.2,0.2,0.4,0.2,0.7c0.1,0.2,0.1,0.5,0.2,0.7C194.5,170.6,194.6,170.8,194.6,171.1z"/>
			</g>
			<g>
				<path class="st3" d="M186.2,184.5c-0.2,0-0.5,0.1-0.7,0.1c-0.2,0-0.5,0.1-0.7,0.1c-0.2,0-0.5,0-0.7,0c-0.2,0-0.5,0-0.7,0
					c-0.2,0-0.5,0-0.7-0.1c-0.2,0-0.5-0.1-0.7-0.1c-0.2,0-0.5-0.1-0.7-0.2c-0.2-0.1-0.5-0.1-0.7-0.2c-0.2-0.1-0.5-0.2-0.7-0.2
					c-0.2-0.1-0.4-0.2-0.7-0.3c-0.2-0.1-0.4-0.2-0.6-0.3c-0.2-0.1-0.4-0.2-0.6-0.4c-0.2-0.1-0.4-0.3-0.6-0.4
					c-0.2-0.1-0.4-0.3-0.6-0.4c-0.2-0.2-0.4-0.3-0.6-0.5c-0.2-0.2-0.3-0.4-0.5-0.5c-0.2-0.2-0.4-0.3-0.5-0.5
					c-0.2-0.2-0.3-0.4-0.4-0.6c-0.1-0.2-0.3-0.4-0.4-0.6c-0.1-0.2-0.2-0.4-0.4-0.6c-0.1-0.2-0.2-0.4-0.3-0.6
					c-0.1-0.2-0.2-0.4-0.3-0.7c-0.1-0.2-0.2-0.5-0.2-0.7c-0.1-0.2-0.2-0.5-0.2-0.7c-0.1-0.2-0.1-0.5-0.1-0.7c0-0.2-0.1-0.5-0.2-0.7
					c0-0.2,0-0.5,0-0.7c0-0.2,0-0.5,0-0.7c0-0.2,0-0.5,0-0.7c0-0.2,0-0.5,0-0.7c0-0.2,0.1-0.5,0.1-0.7c0-0.2,0.1-0.5,0.2-0.7
					c0.1-0.2,0.1-0.5,0.2-0.7c0.1-0.2,0.2-0.5,0.3-0.7c0.1-0.2,0.2-0.4,0.3-0.7c0.1-0.2,0.2-0.4,0.3-0.6c0.1-0.2,0.2-0.4,0.4-0.6
					c0.1-0.2,0.3-0.4,0.4-0.6c0.1-0.2,0.3-0.4,0.4-0.6c0.2-0.2,0.3-0.4,0.5-0.5c0.2-0.2,0.3-0.4,0.5-0.5c0.2-0.2,0.4-0.3,0.6-0.5
					c0.2-0.2,0.4-0.3,0.6-0.4c0.2-0.1,0.4-0.3,0.6-0.4c0.2-0.1,0.4-0.2,0.6-0.3c0.2-0.1,0.4-0.2,0.6-0.3c0.2-0.1,0.4-0.2,0.7-0.3
					c0.2-0.1,0.4-0.2,0.7-0.3c0.2-0.1,0.5-0.1,0.7-0.2c0.2-0.1,0.5-0.1,0.7-0.1s0.5-0.1,0.7-0.1c0.2,0,0.5,0,0.7-0.1
					c0.2,0,0.5-0.1,0.7-0.1c0.2,0,0.5,0,0.7,0c0.2,0,0.5,0.1,0.7,0.1c0.2,0,0.5,0,0.7,0.1c0.2,0,0.5,0.1,0.7,0.2
					c0.2,0.1,0.5,0.1,0.7,0.2c0.2,0.1,0.5,0.2,0.7,0.3c0.2,0.1,0.4,0.2,0.7,0.3c0.2,0.1,0.5,0.2,0.7,0.3c0.2,0.1,0.4,0.3,0.6,0.4
					c0.2,0.1,0.4,0.2,0.6,0.4c0.2,0.1,0.4,0.3,0.6,0.5c0.2,0.2,0.4,0.3,0.6,0.5c0.2,0.2,0.4,0.3,0.5,0.5c0.2,0.2,0.3,0.4,0.5,0.6
					c0.2,0.2,0.3,0.4,0.4,0.6c0.1,0.2,0.3,0.4,0.4,0.6c0.1,0.2,0.2,0.4,0.4,0.6c0.1,0.2,0.3,0.4,0.4,0.6c0.1,0.2,0.2,0.4,0.3,0.7
					c0.1,0.2,0.2,0.4,0.3,0.7c0.1,0.2,0.1,0.5,0.2,0.7c0.1,0.2,0.1,0.5,0.2,0.7c0,0.2,0.1,0.5,0.1,0.7c0,0.2,0.1,0.5,0.1,0.7
					c0,0.2,0,0.5,0,0.7c0,0.2,0,0.5,0,0.7c0,0.2,0,0.5-0.1,0.7c0,0.2-0.1,0.5-0.1,0.7c0,0.2-0.1,0.5-0.2,0.7
					c-0.1,0.2-0.2,0.5-0.2,0.7c-0.1,0.2-0.1,0.5-0.2,0.7c-0.1,0.2-0.2,0.4-0.3,0.7c-0.1,0.2-0.2,0.4-0.3,0.7
					c-0.1,0.2-0.2,0.4-0.4,0.6c-0.1,0.2-0.2,0.4-0.4,0.6c-0.1,0.2-0.3,0.4-0.5,0.6c-0.2,0.2-0.3,0.4-0.5,0.5
					c-0.2,0.2-0.3,0.4-0.5,0.5c-0.2,0.2-0.4,0.3-0.6,0.5c-0.2,0.2-0.4,0.3-0.6,0.5c-0.2,0.1-0.4,0.3-0.6,0.4
					c-0.2,0.1-0.4,0.3-0.6,0.4c-0.2,0.1-0.4,0.2-0.6,0.3c-0.2,0.1-0.4,0.2-0.7,0.3c-0.2,0.1-0.4,0.2-0.7,0.3
					c-0.2,0.1-0.5,0.1-0.7,0.2C186.7,184.4,186.4,184.4,186.2,184.5z M182.1,163.3c-0.2,0-0.5,0.1-0.7,0.2c-0.2,0.1-0.4,0.2-0.7,0.2
					c-0.2,0.1-0.4,0.2-0.7,0.3c-0.2,0.1-0.4,0.2-0.7,0.3c-0.2,0.1-0.4,0.2-0.6,0.4c-0.2,0.1-0.4,0.3-0.6,0.4
					c-0.2,0.1-0.4,0.3-0.6,0.4c-0.2,0.2-0.3,0.3-0.5,0.5c-0.2,0.2-0.3,0.3-0.5,0.5c-0.2,0.2-0.3,0.3-0.5,0.5
					c-0.1,0.2-0.3,0.4-0.4,0.6c-0.1,0.2-0.3,0.4-0.4,0.6c-0.1,0.2-0.2,0.4-0.3,0.6c-0.1,0.2-0.2,0.4-0.3,0.7
					c-0.1,0.2-0.2,0.4-0.2,0.7c-0.1,0.2-0.2,0.4-0.2,0.7c-0.1,0.2-0.1,0.5-0.1,0.7c0,0.2-0.1,0.5-0.1,0.7c0,0.2,0,0.5,0,0.7
					c0,0.2,0,0.5,0,0.7c0,0.2,0,0.5,0.1,0.7c0,0.2,0.1,0.5,0.1,0.7c0,0.2,0.1,0.5,0.2,0.7c0.1,0.2,0.1,0.5,0.2,0.7
					c0.1,0.2,0.1,0.5,0.2,0.7c0.1,0.2,0.2,0.4,0.3,0.6c0.1,0.2,0.2,0.4,0.3,0.6c0.1,0.2,0.3,0.4,0.4,0.6c0.1,0.2,0.3,0.4,0.4,0.6
					c0.2,0.2,0.3,0.3,0.5,0.5c0.2,0.2,0.3,0.3,0.5,0.5c0.2,0.2,0.4,0.3,0.5,0.5c0.2,0.1,0.4,0.3,0.6,0.4c0.2,0.1,0.4,0.3,0.6,0.4
					c0.2,0.1,0.4,0.2,0.6,0.4c0.2,0.1,0.4,0.2,0.7,0.3c0.2,0.1,0.4,0.2,0.7,0.2c0.2,0.1,0.5,0.1,0.7,0.2c0.2,0.1,0.5,0.1,0.7,0.1
					c0.2,0,0.5,0.1,0.7,0.1c0.2,0,0.5,0,0.7,0c0.2,0,0.5,0,0.7,0c0.2,0,0.5,0,0.7-0.1c0.2,0,0.5-0.1,0.7-0.1c0.2,0,0.5-0.1,0.7-0.1
					c0.2-0.1,0.5-0.1,0.7-0.2c0.2-0.1,0.4-0.2,0.7-0.3c0.2-0.1,0.4-0.2,0.6-0.3c0.2-0.1,0.4-0.2,0.6-0.3c0.2-0.1,0.4-0.2,0.6-0.4
					c0.2-0.1,0.4-0.3,0.6-0.4c0.2-0.2,0.4-0.3,0.5-0.5c0.2-0.2,0.3-0.4,0.5-0.5c0.2-0.2,0.3-0.4,0.5-0.5c0.1-0.2,0.3-0.4,0.5-0.6
					c0.1-0.2,0.2-0.4,0.3-0.6c0.1-0.2,0.2-0.4,0.3-0.6c0.1-0.2,0.2-0.4,0.3-0.7c0.1-0.2,0.2-0.4,0.3-0.7c0.1-0.2,0.2-0.4,0.2-0.7
					c0.1-0.2,0.1-0.5,0.1-0.7c0-0.2,0.1-0.5,0.1-0.7c0-0.2,0-0.5,0-0.7c0-0.2,0-0.5,0-0.7c0-0.2-0.1-0.5-0.1-0.7
					c0-0.2-0.1-0.5-0.1-0.7c0-0.2-0.1-0.5-0.1-0.7c-0.1-0.2-0.1-0.5-0.2-0.7c-0.1-0.2-0.2-0.4-0.3-0.7c-0.1-0.2-0.2-0.4-0.3-0.7
					c-0.1-0.2-0.3-0.4-0.4-0.6c-0.1-0.2-0.2-0.4-0.4-0.6c-0.1-0.2-0.3-0.4-0.4-0.6c-0.2-0.2-0.3-0.4-0.5-0.6
					c-0.2-0.2-0.4-0.3-0.5-0.5c-0.2-0.2-0.4-0.3-0.5-0.5c-0.2-0.1-0.4-0.3-0.6-0.4c-0.2-0.1-0.4-0.3-0.6-0.4
					c-0.2-0.1-0.4-0.2-0.6-0.4c-0.2-0.1-0.4-0.2-0.7-0.3c-0.2-0.1-0.4-0.2-0.7-0.2c-0.2-0.1-0.5-0.1-0.7-0.2
					c-0.2-0.1-0.5-0.1-0.7-0.2c-0.2,0-0.5-0.1-0.7-0.1c-0.2,0-0.5-0.1-0.7-0.1c-0.2,0-0.5,0-0.7,0c-0.2,0-0.5,0-0.7,0.1
					C182.6,163.2,182.3,163.2,182.1,163.3z"/>
			</g>
		</g>
	</g>
	<g>
		<g>
			<g>
				<path class="st4" d="M147.8,118.5c-0.4,0-0.4,0.1-0.7,0.1c-0.4,0-0.4,0-0.7,0c-0.4,0-0.4,0-0.7,0c-0.4,0-0.4,0-0.7,0
					c-0.4,0-0.4-0.1-0.7-0.1c-0.4,0-0.4,0-0.7,0c-0.4,0-0.4,0-0.7,0c-0.4,0-0.4-0.1-0.7-0.1c-0.4,0-0.4,0-0.7,0c-0.4,0-0.4,0-0.7,0
					c-0.4,0-0.4,0-0.7,0c-0.4,0-0.4,0-0.7,0c-0.4,0-0.4-0.1-0.7-0.1c-0.4,0-0.4,0.1-0.7,0.1c-0.4,0-0.4-0.1-0.7-0.1
					c-0.4,0-0.4,0-0.7,0c-0.4,0-0.4,0-0.7,0c-0.4,0-0.4,0-0.7,0c-0.4,0-0.4,0.1-0.7,0.1c-0.4,0-0.4,0-0.7,0c-0.4,0-0.4,0-0.7,0
					c-0.4,0-0.4,0-0.7,0c-0.4,0-0.4,0-0.7,0c-0.4,0-0.4,0.1-0.7,0.1c-0.4,0-0.4-0.1-0.7-0.1c-0.4,0-0.4,0-0.7,0
					c-0.4,0-0.4,0.1-0.7,0.1c-0.4,0-0.4-0.1-0.7-0.1c-0.4,0-0.4,0.1-0.7,0.1c-0.4,0-0.4,0-0.7,0c-0.4,0-0.4,0.1-0.7,0.1
					c-0.4,0-0.4-0.1-0.7-0.1c-0.4,0-0.4-0.1-0.7-0.1c-0.4,0-0.4,0.1-0.7,0.1c-0.4,0-0.4,0-0.7,0c-0.4,0-0.4,0-0.7,0
					c-0.4,0-0.4,0-0.7,0c-0.4,0-0.4,0.1-0.7,0.1c-0.4,0-0.4,0-0.7,0c-0.4,0-0.4,0.1-0.7,0.1c-0.4,0-0.4-0.1-0.7-0.1
					c-0.4,0-0.4,0-0.7,0c-0.4,0-0.4,0-0.7,0c-0.4,0-0.4,0-0.7,0c-0.4,0-0.4,0-0.7,0c-0.4,0-0.4-0.1-0.7-0.1c-0.4,0-0.4,0.1-0.7,0.1
					c-0.4,0-0.4-0.1-0.7-0.1c-0.4,0-0.4,0.1-0.7,0.1c-0.4,0-0.4,0.1-0.7,0.1c-0.4,0-0.4-0.1-0.7-0.1c-0.4,0-0.4,0-0.7,0
					c-0.4,0-0.4,0.1-0.7,0.1c-0.4,0-0.4,0-0.7,0c-0.4,0-0.4-0.1-0.7-0.1c-0.4,0-0.4,0.1-0.7,0.1c-0.4,0-0.4,0-0.7,0
					c-0.4,0-0.4-0.1-0.7-0.1c-0.4,0-0.4,0.1-0.7,0.1c-0.4,0-0.4-0.1-0.7-0.1c-0.4,0-0.4,0.1-0.7,0.1c-0.4,0-0.4-0.1-0.7-0.1
					c-0.4,0-0.4,0-0.7,0c-0.4,0-0.4,0.1-0.7,0.1c-0.4,0-0.4-0.1-0.7-0.1c-0.4,0-0.4,0-0.7,0c-0.4,0-0.4,0.1-0.7,0.1
					c-0.4,0-0.4,0-0.7,0c-0.4,0-0.4,0-0.7,0c-0.4,0-0.4-0.1-0.7-0.1c-0.4,0-0.4,0.1-0.7,0.1c-0.2,0-0.5-0.1-0.7-0.2
					c-0.2,0-0.5,0.1-0.7,0.1c-0.2,0-0.5-0.2-0.7-0.2c-0.2,0-0.5,0-0.7-0.1c-0.2-0.1-0.5-0.2-0.7-0.2c-0.2-0.1-0.5-0.1-0.7-0.2
					c-0.2-0.1-0.5-0.2-0.7-0.2c-0.2-0.1-0.5-0.1-0.7-0.2c-0.2-0.1-0.4-0.2-0.6-0.4c-0.2-0.1-0.5-0.2-0.7-0.3
					c-0.2-0.1-0.4-0.4-0.6-0.5c-0.2-0.1-0.5-0.2-0.7-0.3c-0.2-0.1-0.3-0.4-0.5-0.5c-0.2-0.2-0.4-0.3-0.5-0.5
					c-0.2-0.2-0.4-0.2-0.6-0.4c-0.2-0.2-0.3-0.4-0.5-0.5c-0.2-0.2-0.3-0.4-0.4-0.6c-0.2-0.2-0.3-0.4-0.4-0.6
					c-0.1-0.2-0.3-0.4-0.5-0.6c-0.1-0.2-0.3-0.4-0.4-0.6c-0.1-0.2-0.2-0.5-0.3-0.7c-0.1-0.2-0.2-0.5-0.3-0.7
					c-0.1-0.2-0.2-0.4-0.3-0.7c-0.1-0.2-0.2-0.4-0.3-0.7c-0.1-0.2-0.1-0.5-0.2-0.7c-0.1-0.2-0.2-0.5-0.2-0.7
					c-0.1-0.2-0.2-0.5-0.2-0.7c0-0.2,0-0.5,0-0.7c0-0.2,0-0.5-0.1-0.7c0-0.2,0.1-0.5,0.1-0.7c0-0.2,0-0.5,0-0.7c0-0.2,0-0.5,0-0.7
					c0-0.2,0.2-0.5,0.2-0.7c0-0.2,0-0.5,0.1-0.7c0.1-0.2,0.1-0.5,0.2-0.7c0.1-0.2,0-0.5,0.1-0.7c0.1-0.2,0.2-0.5,0.3-0.7
					c0.1-0.2,0.3-0.4,0.4-0.6c0.1-0.2,0.1-0.5,0.2-0.7c0.1-0.2,0.2-0.4,0.4-0.6c0.1-0.2,0.3-0.4,0.5-0.6c0.1-0.2,0.2-0.4,0.4-0.6
					c0.1-0.2,0.2-0.4,0.4-0.6c0.2-0.2,0.3-0.4,0.5-0.6c0.2-0.2,0.4-0.3,0.6-0.5c0.2-0.2,0.4-0.3,0.6-0.5c0.2-0.2,0.3-0.4,0.5-0.5
					c0.2-0.2,0.4-0.2,0.6-0.4c0.2-0.1,0.4-0.3,0.6-0.4c0.2-0.1,0.4-0.3,0.6-0.4c0.2-0.1,0.4-0.3,0.6-0.4c0.2-0.1,0.4-0.2,0.6-0.3
					c0.2-0.1,0.4-0.2,0.7-0.3c0.2-0.1,0.5-0.2,0.7-0.2c0.2-0.1,0.5-0.1,0.7-0.1c0.2-0.1,0.5-0.1,0.7-0.1c0.2-0.1,0.5-0.2,0.7-0.2
					c0.2,0,0.5,0,0.7,0c0.2,0,0.5-0.2,0.7-0.2c0.2,0,0.5,0,0.7,0c0.4,0,0.4,0.1,0.7,0.1c0.4,0,0.4,0,0.7,0c0.4,0,0.4,0,0.7,0
					c0.4,0,0.4-0.1,0.7-0.1c0.4,0,0.4,0.1,0.7,0.1c0.4,0,0.4,0,0.7,0c0.4,0,0.4,0,0.7,0c0.4,0,0.4,0,0.7,0c0.4,0,0.4-0.1,0.7-0.1
					c0.4,0,0.4,0,0.7,0c0.4,0,0.4,0,0.7,0c0.4,0,0.4,0,0.7,0c0.4,0,0.4,0,0.7,0c0.4,0,0.4,0.1,0.7,0.1c0.4,0,0.4-0.1,0.7-0.1
					c0.4,0,0.4,0,0.7,0c0.4,0,0.4,0,0.7,0c0.4,0,0.4-0.1,0.7-0.1c0.4,0,0.4,0,0.7,0c0.4,0,0.4,0,0.7,0c0.4,0,0.4,0,0.7,0
					c0.4,0,0.4,0.1,0.7,0.1c0.4,0,0.4-0.1,0.7-0.1c0.4,0,0.4,0.1,0.7,0.1c0.4,0,0.4-0.1,0.7-0.1c0.4,0,0.4,0.1,0.7,0.1
					c0.4,0,0.4-0.1,0.7-0.1c0.4,0,0.4-0.1,0.7-0.1c0.4,0,0.4,0.1,0.7,0.1c0.4,0,0.4,0,0.7,0c0.4,0,0.4,0,0.7,0c0.4,0,0.4,0,0.7,0
					c0.4,0,0.4,0,0.7,0c0.4,0,0.4,0,0.7,0c0.4,0,0.4,0.1,0.7,0.1c0.4,0,0.4,0,0.7,0c0.4,0,0.4,0,0.7,0c0.4,0,0.4,0.1,0.7,0.1
					c0.4,0,0.4,0,0.7,0c0.4,0,0.4,0,0.7,0c0.4,0,0.4-0.1,0.7-0.1c0.4,0,0.4,0,0.7,0c0.4,0,0.4,0.1,0.7,0.1c0.4,0,0.4,0,0.7,0
					c0.4,0,0.4,0,0.7,0c0.4,0,0.4-0.1,0.7-0.1c0.4,0,0.4,0,0.7,0c0.4,0,0.4,0.1,0.7,0.1c0.4,0,0.4,0,0.7,0c0.4,0,0.4,0,0.7,0
					c0.4,0,0.4-0.1,0.7-0.1c0.4,0,0.4,0.1,0.7,0.1c0.4,0,0.4-0.1,0.7-0.1c0.4,0,0.4,0,0.7,0c0.4,0,0.4,0,0.7,0c0.4,0,0.4,0,0.7,0
					c0.4,0,0.4,0,0.7,0c0.4,0,0.4,0,0.7,0c0.4,0,0.4,0,0.7,0c0.4,0,0.4,0,0.7,0c0.4,0,0.4,0,0.7,0c0.4,0,0.4-0.1,0.7-0.1
					s0.4,0,0.7,0c0.4,0,0.4,0.1,0.7,0.1c0.4,0,0.4-0.1,0.7-0.1c0.4,0,0.4,0.1,0.7,0.1c0.4,0,0.4,0,0.7,0c0.4,0,0.4,0,0.7,0
					c0.4,0,0.4,0,0.7,0c0.4,0,0.4-0.1,0.7-0.1s0.4,0.1,0.7,0.1c0.2,0,0.5-0.1,0.7-0.1c0.2,0,0.5,0.1,0.7,0.1c0.2,0,0.5,0,0.7,0.1
					c0.2,0,0.5,0.1,0.7,0.1c0.2,0.1,0.5,0.2,0.7,0.2c0.2,0.1,0.5,0.2,0.7,0.2c0.2,0.1,0.4,0.2,0.7,0.3c0.2,0.1,0.5,0.2,0.7,0.3
					c0.2,0.1,0.5,0.1,0.7,0.2c0.2,0.1,0.4,0.3,0.6,0.4c0.2,0.1,0.5,0.2,0.7,0.3c0.2,0.1,0.3,0.4,0.5,0.5c0.2,0.1,0.4,0.2,0.6,0.4
					c0.2,0.2,0.4,0.3,0.5,0.5c0.2,0.2,0.3,0.4,0.5,0.5c0.2,0.2,0.3,0.3,0.5,0.5c0.2,0.2,0.4,0.3,0.6,0.5c0.2,0.2,0.2,0.5,0.3,0.7
					c0.1,0.2,0.3,0.4,0.5,0.6c0.1,0.2,0.2,0.4,0.4,0.6c0.1,0.2,0.3,0.4,0.4,0.6c0.1,0.2,0.1,0.5,0.2,0.7c0.1,0.2,0.2,0.5,0.3,0.7
					c0.1,0.2,0.2,0.4,0.3,0.7c0.1,0.2,0.2,0.5,0.2,0.7c0.1,0.2,0.2,0.5,0.2,0.7c0.1,0.2,0,0.5,0,0.7c0,0.2,0.2,0.5,0.2,0.7
					c0,0.2,0,0.5,0,0.7c0,0.2,0,0.5,0,0.7c0,0.2,0.1,0.5,0.1,0.7c0,0.2-0.1,0.5-0.1,0.7c0,0.2-0.1,0.5-0.2,0.7c0,0.2,0,0.5,0,0.7
					c-0.1,0.2-0.1,0.5-0.2,0.7c-0.1,0.2-0.2,0.4-0.3,0.7c-0.1,0.2-0.2,0.5-0.2,0.7c-0.1,0.2-0.2,0.5-0.3,0.7
					c-0.1,0.2-0.1,0.5-0.3,0.7c-0.1,0.2-0.3,0.4-0.4,0.6c-0.1,0.2-0.2,0.5-0.3,0.7c-0.1,0.2-0.3,0.4-0.4,0.6
					c-0.1,0.2-0.3,0.3-0.5,0.5c-0.2,0.2-0.3,0.4-0.5,0.5c-0.2,0.2-0.3,0.4-0.5,0.5c-0.2,0.2-0.3,0.4-0.5,0.5
					c-0.2,0.2-0.4,0.3-0.6,0.4c-0.2,0.2-0.3,0.4-0.5,0.5c-0.2,0.1-0.4,0.2-0.6,0.4c-0.2,0.1-0.4,0.3-0.6,0.4
					c-0.2,0.1-0.4,0.3-0.6,0.4c-0.2,0.1-0.4,0.2-0.7,0.3c-0.2,0.1-0.4,0.2-0.7,0.3c-0.2,0.1-0.5,0.1-0.7,0.2
					c-0.2,0.1-0.5,0.1-0.7,0.2c-0.2,0.1-0.5,0.1-0.7,0.2c-0.2,0.1-0.5,0.2-0.7,0.2c-0.2,0-0.5,0.1-0.7,0.1c-0.2,0-0.5-0.1-0.7-0.1
					C148.2,118.5,148,118.5,147.8,118.5z M121.9,116.6c0.4,0,0.4-0.1,0.7-0.1c0.4,0,0.4,0,0.7,0c0.4,0,0.4,0,0.7,0
					c0.4,0,0.4,0,0.7,0c0.4,0,0.4,0.1,0.7,0.1c0.4,0,0.4,0,0.7,0c0.4,0,0.4,0,0.7,0c0.4,0,0.4,0.1,0.7,0.1c0.4,0,0.4,0,0.7,0
					c0.4,0,0.4,0,0.7,0c0.4,0,0.4,0,0.7,0c0.4,0,0.4,0,0.7,0c0.4,0,0.4,0.1,0.7,0.1c0.4,0,0.4-0.1,0.7-0.1c0.4,0,0.4,0.1,0.7,0.1
					c0.4,0,0.4,0,0.7,0c0.4,0,0.4,0,0.7,0c0.4,0,0.4,0,0.7,0c0.4,0,0.4-0.1,0.7-0.1c0.4,0,0.4,0,0.7,0c0.4,0,0.4,0,0.7,0
					c0.4,0,0.4,0,0.7,0c0.4,0,0.4,0,0.7,0c0.4,0,0.4-0.1,0.7-0.1c0.4,0,0.4,0.1,0.7,0.1c0.4,0,0.4,0,0.7,0c0.4,0,0.4-0.1,0.7-0.1
					s0.4,0.1,0.7,0.1c0.4,0,0.4-0.1,0.7-0.1c0.4,0,0.4,0,0.7,0c0.4,0,0.4-0.1,0.7-0.1c0.4,0,0.4,0.1,0.7,0.1c0.4,0,0.4,0.1,0.7,0.1
					c0.4,0,0.4-0.1,0.7-0.1c0.4,0,0.4,0,0.7,0s0.4,0,0.7,0c0.2,0,0.5-0.1,0.7-0.1c0.2,0,0.5-0.1,0.7-0.1c0.2,0,0.5,0,0.7-0.1
					c0.2,0,0.5-0.2,0.7-0.2c0.2-0.1,0.5,0,0.7-0.1c0.2-0.1,0.5-0.2,0.7-0.3c0.2-0.1,0.4-0.2,0.7-0.3c0.2-0.1,0.4-0.2,0.6-0.3
					c0.2-0.1,0.4-0.2,0.6-0.4c0.2-0.1,0.5-0.2,0.7-0.3c0.2-0.1,0.4-0.3,0.5-0.5c0.2-0.1,0.4-0.3,0.6-0.4c0.2-0.2,0.3-0.4,0.5-0.5
					c0.2-0.2,0.3-0.4,0.4-0.6c0.2-0.2,0.4-0.3,0.6-0.5c0.1-0.2,0.3-0.4,0.4-0.6c0.1-0.2,0.2-0.4,0.3-0.6c0.1-0.2,0.3-0.4,0.4-0.6
					c0.1-0.2,0.3-0.4,0.4-0.6c0.1-0.2,0.1-0.5,0.2-0.7c0.1-0.2,0.2-0.4,0.2-0.7c0.1-0.2,0.2-0.4,0.2-0.7c0.1-0.2,0-0.5,0-0.7
					c0-0.2,0.2-0.5,0.2-0.7c0-0.2,0-0.5,0-0.7c0-0.2,0.1-0.5,0.1-0.7c0-0.2-0.1-0.5-0.1-0.7c0-0.2-0.1-0.5-0.1-0.7
					c0-0.2,0-0.5,0-0.7c0-0.2-0.1-0.5-0.1-0.7c-0.1-0.2-0.2-0.4-0.3-0.7c-0.1-0.2-0.2-0.4-0.3-0.7c-0.1-0.2-0.2-0.4-0.3-0.7
					c-0.1-0.2-0.1-0.5-0.3-0.7c-0.1-0.2-0.3-0.4-0.4-0.6c-0.1-0.2-0.1-0.5-0.3-0.7c-0.1-0.2-0.4-0.3-0.5-0.5
					c-0.1-0.2-0.2-0.5-0.4-0.6c-0.2-0.2-0.4-0.3-0.5-0.5c-0.2-0.2-0.3-0.4-0.5-0.5c-0.2-0.2-0.4-0.3-0.6-0.4
					c-0.2-0.1-0.4-0.3-0.6-0.4c-0.2-0.1-0.5-0.2-0.7-0.3c-0.2-0.1-0.4-0.3-0.6-0.4c-0.2-0.1-0.4-0.2-0.7-0.3
					c-0.2-0.1-0.4-0.3-0.6-0.4c-0.2-0.1-0.5,0-0.7-0.1c-0.2-0.1-0.4-0.2-0.7-0.3c-0.2-0.1-0.5-0.1-0.7-0.2c-0.2,0-0.5,0-0.7,0
					c-0.2,0-0.5-0.1-0.7-0.1c-0.2,0-0.5-0.1-0.7-0.1c-0.4,0-0.4,0-0.7,0c-0.4,0-0.4,0.1-0.7,0.1c-0.4,0-0.4,0-0.7,0
					c-0.4,0-0.4-0.1-0.7-0.1c-0.4,0-0.4-0.1-0.7-0.1c-0.4,0-0.4,0-0.7,0c-0.4,0-0.4,0-0.7,0c-0.4,0-0.4,0-0.7,0
					c-0.4,0-0.4,0.1-0.7,0.1c-0.4,0-0.4,0.1-0.7,0.1c-0.4,0-0.4-0.1-0.7-0.1c-0.4,0-0.4,0-0.7,0c-0.4,0-0.4-0.1-0.7-0.1
					c-0.4,0-0.4,0-0.7,0c-0.4,0-0.4,0.1-0.7,0.1c-0.4,0-0.4-0.1-0.7-0.1c-0.4,0-0.4,0-0.7,0c-0.4,0-0.4,0-0.7,0
					c-0.4,0-0.4,0.1-0.7,0.1c-0.4,0-0.4,0-0.7,0c-0.4,0-0.4-0.1-0.7-0.1c-0.4,0-0.4,0.1-0.7,0.1c-0.4,0-0.4,0-0.7,0
					c-0.4,0-0.4-0.1-0.7-0.1c-0.4,0-0.4,0-0.7,0c-0.4,0-0.4,0.1-0.7,0.1c-0.4,0-0.4,0-0.7,0c-0.4,0-0.4-0.1-0.7-0.1
					c-0.4,0-0.4,0-0.7,0c-0.4,0-0.4,0.1-0.7,0.1c-0.4,0-0.4-0.1-0.7-0.1c-0.4,0-0.4,0-0.7,0c-0.4,0-0.4,0-0.7,0
					c-0.4,0-0.4,0.1-0.7,0.1c-0.4,0-0.4,0-0.7,0c-0.4,0-0.4,0-0.7,0c-0.4,0-0.4,0-0.7,0c-0.4,0-0.4-0.1-0.7-0.1c-0.4,0-0.4,0-0.7,0
					c-0.4,0-0.4,0.1-0.7,0.1c-0.4,0-0.4-0.1-0.7-0.1c-0.4,0-0.4,0.2-0.7,0.2c-0.4,0-0.4,0-0.7,0c-0.4,0-0.4-0.1-0.7-0.1
					c-0.4,0-0.4,0-0.7,0c-0.4,0-0.4,0-0.7,0c-0.4,0-0.4,0.1-0.7,0.1c-0.4,0-0.4-0.1-0.7-0.1c-0.4,0-0.4,0-0.7,0c-0.4,0-0.4,0-0.7,0
					c-0.4,0-0.4,0-0.7,0c-0.4,0-0.4,0.1-0.7,0.1c-0.4,0-0.4,0-0.7,0c-0.4,0-0.4,0-0.7,0c-0.4,0-0.4,0-0.7,0c-0.4,0-0.4,0-0.7,0
					c-0.4,0-0.4-0.1-0.7-0.1c-0.4,0-0.4,0.1-0.7,0.1c-0.4,0-0.4,0-0.7,0c-0.4,0-0.4,0-0.7,0c-0.4,0-0.4,0.1-0.7,0.1
					c-0.4,0-0.4,0-0.7,0c-0.4,0-0.4,0-0.7,0c-0.4,0-0.4,0-0.7,0c-0.4,0-0.4-0.1-0.7-0.1c-0.4,0-0.4,0.1-0.7,0.1
					c-0.4,0-0.4-0.1-0.7-0.1c-0.4,0-0.4,0.1-0.7,0.1c-0.4,0-0.4-0.1-0.7-0.1c-0.4,0-0.4,0.1-0.7,0.1c-0.4,0-0.4,0.1-0.7,0.1
					c-0.2,0-0.5-0.1-0.7-0.1c-0.2,0-0.5,0-0.7,0.1c-0.2,0-0.5,0.1-0.7,0.1c-0.2,0-0.5,0.1-0.7,0.2c-0.2,0.1-0.5,0.1-0.7,0.2
					c-0.2,0.1-0.4,0.2-0.7,0.3c-0.2,0.1-0.5,0.1-0.7,0.2c-0.2,0.1-0.4,0.2-0.6,0.3c-0.2,0.1-0.4,0.3-0.6,0.4
					c-0.2,0.1-0.5,0.2-0.6,0.3c-0.2,0.1-0.4,0.3-0.6,0.5c-0.2,0.1-0.4,0.3-0.6,0.4c-0.2,0.2-0.3,0.4-0.5,0.5
					c-0.2,0.2-0.3,0.4-0.5,0.6c-0.2,0.2-0.4,0.3-0.5,0.5c-0.1,0.2-0.3,0.4-0.5,0.6c-0.1,0.2-0.3,0.4-0.4,0.6
					c-0.1,0.2-0.2,0.5-0.3,0.7c-0.1,0.2-0.2,0.4-0.3,0.6c-0.1,0.2-0.3,0.4-0.4,0.6c-0.1,0.2-0.2,0.5-0.2,0.7
					c-0.1,0.2-0.1,0.5-0.2,0.7c-0.1,0.2,0,0.5-0.1,0.7c0,0.2-0.2,0.5-0.2,0.7c0,0.2,0.1,0.5,0.1,0.7c0,0.2-0.1,0.5-0.1,0.7
					c0,0.2,0,0.5,0,0.7c0,0.2,0,0.5,0,0.7c0,0.2,0.1,0.5,0.1,0.7c0,0.2,0.1,0.5,0.2,0.7c0.1,0.2,0.1,0.5,0.2,0.7
					c0.1,0.2,0.1,0.5,0.2,0.7c0.1,0.2,0.2,0.4,0.3,0.7c0.1,0.2,0.3,0.4,0.4,0.6c0.1,0.2,0.2,0.4,0.3,0.6c0.1,0.2,0.2,0.4,0.3,0.6
					c0.1,0.2,0.4,0.3,0.5,0.5c0.1,0.2,0.2,0.5,0.4,0.6c0.2,0.2,0.3,0.3,0.5,0.5c0.2,0.2,0.3,0.3,0.5,0.5c0.2,0.2,0.4,0.3,0.6,0.5
					c0.2,0.1,0.5,0.2,0.7,0.3c0.2,0.1,0.4,0.3,0.6,0.5c0.2,0.1,0.4,0.2,0.7,0.3c0.2,0.1,0.4,0.2,0.6,0.3c0.2,0.1,0.4,0.2,0.7,0.3
					c0.2,0.1,0.4,0.2,0.7,0.2c0.2,0.1,0.4,0.2,0.7,0.2c0.2,0.1,0.5,0.1,0.7,0.2c0.2,0,0.5,0.1,0.7,0.2c0.2,0,0.5,0,0.7,0
					c0.2,0,0.5-0.1,0.7-0.1c0.4,0,0.4,0.1,0.7,0.1c0.4,0,0.4-0.1,0.7-0.1c0.4,0,0.4,0.1,0.7,0.1c0.4,0,0.4-0.1,0.7-0.1
					c0.4,0,0.4,0,0.7,0c0.4,0,0.4,0.1,0.7,0.1c0.4,0,0.4,0,0.7,0c0.4,0,0.4-0.1,0.7-0.1c0.4,0,0.4,0.1,0.7,0.1
					c0.4,0,0.4-0.1,0.7-0.1c0.4,0,0.4,0,0.7,0c0.4,0,0.4-0.1,0.7-0.1c0.4,0,0.4,0.1,0.7,0.1c0.4,0,0.4,0,0.7,0c0.4,0,0.4,0,0.7,0
					c0.4,0,0.4,0,0.7,0c0.4,0,0.4-0.1,0.7-0.1c0.4,0,0.4,0.1,0.7,0.1c0.4,0,0.4-0.1,0.7-0.1c0.4,0,0.4,0,0.7,0c0.4,0,0.4,0,0.7,0
					c0.4,0,0.4-0.1,0.7-0.1c0.4,0,0.4,0.1,0.7,0.1c0.4,0,0.4,0.1,0.7,0.1c0.4,0,0.4-0.1,0.7-0.1c0.4,0,0.4,0,0.7,0
					c0.4,0,0.4,0.1,0.7,0.1c0.4,0,0.4,0,0.7,0c0.4,0,0.4,0,0.7,0c0.4,0,0.4-0.1,0.7-0.1c0.4,0,0.4,0.1,0.7,0.1
					c0.4,0,0.4-0.1,0.7-0.1c0.4,0,0.4,0,0.7,0c0.4,0,0.4,0,0.7,0.1C121.6,116.6,121.6,116.6,121.9,116.6z"/>
			</g>
		</g>
	</g>
</g>
</svg>
