<svg id="Layer_1" data-name="Layer 1" xmlns="http://www.w3.org/2000/svg" viewBox="0 0 150 70"><title>partner-logos</title><path d="M21.7,22.62H15.4L29.69,47.38H36Zm-0.18,9.33-2.23-3.87h4.46ZM24.3,28.4l2.23,3.87H22.07Zm2.23,4.51L24.3,36.78l-2.23-3.87h4.46Zm0.55,0.32,2.23,3.87H24.86Zm2.23,4.51L27.09,41.6l-2.23-3.87h4.46ZM29.87,38l2.24,3.87H27.64Zm2.23,4.51-2.23,3.86-2.23-3.86H32.1Zm0.56,0.31,2.23,3.87H30.42ZM23.75,27.44H19.28l2.23-3.87ZM21,23.26l-2.23,3.86L16.5,23.26H21Z"/><path d="M47.48,35a3.5,3.5,0,0,1-.73,1.34l1.08,1-1,1.07-1.13-1.07a4.74,4.74,0,0,1-.89.44,4.8,4.8,0,0,1-1.51.21,4.33,4.33,0,0,1-3-1.1A5,5,0,0,1,38.77,33a4.93,4.93,0,0,1,1.49-3.9,4.41,4.41,0,0,1,3-1.08,4.35,4.35,0,0,1,3.06,1.14,4.78,4.78,0,0,1,1.43,3.7A6.26,6.26,0,0,1,47.48,35Zm-3.57,1.26a3.22,3.22,0,0,0,.44-0.16l-1-.91,1-1.05,1,0.9a4.45,4.45,0,0,0,.31-0.8A4.63,4.63,0,0,0,45.82,33a4,4,0,0,0-.65-2.45,2.22,2.22,0,0,0-1.89-.86,2.31,2.31,0,0,0-1.86.83,3.79,3.79,0,0,0-.7,2.48,3.43,3.43,0,0,0,1,2.77,2.32,2.32,0,0,0,1.55.54A2.52,2.52,0,0,0,43.92,36.25Z"/><path d="M54,28.33h2v5.78a3.27,3.27,0,0,0,.23,1.42,1.91,1.91,0,0,0,3.1,0,3.27,3.27,0,0,0,.23-1.42V28.33h2v5.78a4.85,4.85,0,0,1-.47,2.34Q60.24,38,57.8,38a3.48,3.48,0,0,1-3.31-1.53A4.85,4.85,0,0,1,54,34.11V28.33Z"/><path d="M70.54,28.33h2.22l3.33,9.41H74L73.34,35.8H69.88l-0.64,1.93H67.18Zm-0.13,5.85h2.41l-1.19-3.7Z"/><path d="M82.37,28.33h2.06l3.73,6.56V28.33H90v9.41H88L84.2,31.06v6.68H82.37V28.33Z"/><path d="M104.08,28.33V30h-2.82v7.74h-2V30H96.46V28.33h7.62Z"/><path d="M111,28.33h2v5.78a3.27,3.27,0,0,0,.23,1.42,1.91,1.91,0,0,0,3.1,0,3.27,3.27,0,0,0,.23-1.42V28.33h2v5.78a4.85,4.85,0,0,1-.47,2.34Q117.25,38,114.81,38a3.48,3.48,0,0,1-3.31-1.53,4.85,4.85,0,0,1-.47-2.34V28.33Z"/><path d="M131.77,28.33h2.83v9.41h-1.83V31.37q0-.27,0-0.77t0-.76L131,37.74h-1.91l-1.77-7.9q0,0.27,0,.76t0,0.77v6.36H125.5V28.33h2.86l1.71,7.4Z"/></svg>