<svg id="Layer_1" data-name="Layer 1" xmlns="http://www.w3.org/2000/svg" viewBox="0 0 150 70"><title>partner-logos</title><path d="M21.32,33.14c-0.15-1.15-1.25-1.28-2.21-1.28s-1.63.45-1.63,1a1,1,0,0,0,1,.83l3,0.48c1.61,0.26,2.83.87,2.83,2.48s-1.11,3-4.58,3c-2.15,0-4.94-.27-5-3h2.69c0,1.21,1.23,1.43,2.27,1.43s1.89-.33,1.89-1.1-0.55-.87-1.5-1l-2.19-.34c-1.53-.24-3-0.69-3-2.5,0-2,1.61-2.77,4.37-2.77,1.82,0,4.51.31,4.67,2.81H21.32Z"/><path d="M25.17,30.58h6.41c2.45,0,2.85,1.5,2.85,2.4A2,2,0,0,1,33,35.11v0c1,0.16,1.21,1.5,1.21,2.37a3.27,3.27,0,0,0,.46,1.92H32a3.27,3.27,0,0,1-.23-1.7c0-1.24-.53-1.55-1.27-1.55h-3v3.25h-2.4V30.58Zm2.4,3.91h3.18a1.07,1.07,0,0,0,1.15-1.13,1.1,1.1,0,0,0-1.27-1.1H27.56v2.23Z"/><rect x="35.62" y="30.58" width="2.4" height="8.85"/><rect x="43.07" y="30.58" width="2.4" height="8.85"/><path d="M52.22,35.66a1.24,1.24,0,0,0-1.46-1.36,1.71,1.71,0,0,0-1.87,1.92v3.21H46.73V32.78h2.1v1h0a3.45,3.45,0,0,1,2.71-1.14c1.12,0,2.84.43,2.84,2.39v4.42H52.22V35.66Z"/><path d="M56.2,30.73h2.17v2.06h1.76v1.46H58.38v3.1c0,0.52.16,0.69,0.73,0.69,0.38,0,.72,0,1.06,0v1.46c-0.41,0-1.22.12-1.71,0.12-2.06,0-2.26-.77-2.26-2V34.24H54.83V32.78H56.2V30.73Z"/><path d="M69,37.44c-0.63,1.57-2.14,2.23-4.13,2.23-2.62,0-4.37-1.06-4.37-3.57s1.76-3.57,4.37-3.57c2.87,0,4.25,1.45,4.25,4v0.2H62.79v0a2.25,2.25,0,0,0,3.93.73H69Zm-2.12-2v0a1.84,1.84,0,0,0-2.05-1.48,1.91,1.91,0,0,0-2.08,1.48v0h4.13Z"/><path d="M70,32.78h2.1v1.3h0a3,3,0,0,1,2.65-1.48,4.21,4.21,0,0,1,.79.06v2a4.45,4.45,0,0,0-1.2-.2,1.89,1.89,0,0,0-2.19,2v2.86H70V32.78Z"/><path d="M81.79,35.66a1.24,1.24,0,0,0-1.46-1.36,1.71,1.71,0,0,0-1.87,1.92v3.21H76.29V32.78h2.1v1h0a3.45,3.45,0,0,1,2.71-1.14C82.25,32.61,84,33,84,35v4.42H81.79V35.66Z"/><path d="M85.21,34.81c0.26-2,2.14-2.28,3.92-2.28,3.11,0,3.78,1,3.78,2.26v3.29a3.22,3.22,0,0,0,.25,1.34H91a2.91,2.91,0,0,1-.15-0.71,4.64,4.64,0,0,1-3.1,1c-1.73,0-2.94-.61-2.94-2.16s1.42-2,2.74-2l2.31-.16c0.67,0,.89-0.16.89-0.69s-0.44-.79-1.71-0.79c-0.93,0-1.41.07-1.72,1h-2.1Zm5.6,1.38a3.66,3.66,0,0,1-1.28.29l-1.26.11c-0.77.06-1.15,0.27-1.15,0.87s0.56,0.93,1.37.93c1.1,0,2.32-.53,2.32-1.65V36.19Z"/><path d="M94.79,30.73H97v2.06h1.75v1.46H97v3.1c0,0.52.16,0.69,0.73,0.69,0.38,0,.72,0,1.06,0v1.46c-0.41,0-1.22.12-1.7,0.12-2.06,0-2.26-.77-2.26-2V34.24H93.42V32.78h1.37V30.73Z"/><path d="M99.62,39.42h2.18V32.78H99.62v6.64Zm0-7.46h2.18V30.43H99.62V32Z"/><path d="M106.9,32.54c2.62,0,4.37,1.06,4.37,3.57s-1.75,3.57-4.37,3.57-4.37-1.07-4.37-3.57,1.75-3.57,4.37-3.57m0,5.6a2,2,0,1,0-2.13-2,1.89,1.89,0,0,0,2.13,2"/><path d="M117.44,35.66A1.24,1.24,0,0,0,116,34.29a1.71,1.71,0,0,0-1.87,1.92v3.21h-2.18V32.78H114v1h0a3.46,3.46,0,0,1,2.71-1.14c1.12,0,2.84.43,2.84,2.39v4.42h-2.17V35.66Z"/><path d="M120.86,34.81c0.26-2,2.14-2.28,3.92-2.28,3.11,0,3.78,1,3.78,2.26v3.29a3.22,3.22,0,0,0,.25,1.34h-2.18a2.89,2.89,0,0,1-.15-0.71,4.64,4.64,0,0,1-3.1,1c-1.73,0-2.94-.61-2.94-2.16s1.42-2,2.74-2l2.31-.16c0.67,0,.89-0.16.89-0.69s-0.45-.79-1.71-0.79c-0.93,0-1.41.07-1.72,1h-2.1Zm5.6,1.38a3.65,3.65,0,0,1-1.29.29l-1.26.11c-0.77.06-1.15,0.27-1.15,0.87s0.55,0.93,1.37.93c1.1,0,2.32-.53,2.32-1.65V36.19Z"/><rect x="129.79" y="30.43" width="2.18" height="8.99"/><path d="M133.87,31.37H134c0.15,0,.27,0,0.27-0.16S134.18,31,134,31h-0.15v0.31Zm0,0.62h-0.27V30.9a2.44,2.44,0,0,1,.44,0,0.76,0.76,0,0,1,.4.08,0.3,0.3,0,0,1,.11.24,0.28,0.28,0,0,1-.24.25h0a0.32,0.32,0,0,1,.21.26,0.8,0.8,0,0,0,.08.27h-0.29a0.88,0.88,0,0,1-.09-0.27,0.2,0.2,0,0,0-.24-0.17h-0.13V32Zm-0.71-.57a0.87,0.87,0,0,0,.9.87,0.87,0.87,0,1,0,0-1.74,0.87,0.87,0,0,0-.89.87m2.08,0A1.19,1.19,0,1,1,134,30.33a1.13,1.13,0,0,1,1.18,1.09"/></svg>