<svg id="Layer_1" data-name="Layer 1" xmlns="http://www.w3.org/2000/svg" viewBox="0 0 150 70"><title>partner-logos</title><path d="M32.35,30.4c2.31,0,4.13,0,6.47-.11,0.4,0,.37,1,0.11,1.17l-0.54.09a2,2,0,0,0-1.35.51,2.74,2.74,0,0,0,.29,1c0.67,1.6,1.68,3.75,2.5,5.35,0.88-1.92,1.46-3.55,2-5.09a4.43,4.43,0,0,0,.33-1.3,1,1,0,0,0-.92-0.46l-0.62-.13a0.88,0.88,0,0,1,.14-1.17c1.21,0.06,2.08.1,3,.1s2,0,2.81-.11a0.84,0.84,0,0,1,.11,1.17l-0.52.1c-1.2.23-1.46,0.57-2,1.8-1.68,3.39-3.35,7.05-4.88,10.58a1.64,1.64,0,0,1-1.69,0c-0.77-1.79-2.68-5.69-3.78-7.8-0.94,1.72-3.13,6.15-4,7.81a1.61,1.61,0,0,1-1.68,0c-1.76-3.75-3.56-7.57-5.35-11a2,2,0,0,0-1.51-1.26l-0.67-.16a0.86,0.86,0,0,1,.12-1.17c1.5,0.07,2.67.1,4.21,0.1h7.38Zm-1,1.37a9.21,9.21,0,0,0-1.75-.13c-1.18,0-1.87.14-1.87,0.5a3.19,3.19,0,0,0,.33,1.09c0.51,1.17,2,4.16,2.6,5.22a32.87,32.87,0,0,0,1.93-4,3.47,3.47,0,0,0,.11-1A2.1,2.1,0,0,0,31.36,31.77Z"/><path d="M50.2,35.8c-0.84,0-.92.07-0.92,0.6a4.83,4.83,0,0,0,5.16,4.91,3.71,3.71,0,0,0,3.4-1.73,0.81,0.81,0,0,1,.95.77,7.09,7.09,0,0,1-6.39,3.79c-4.94,0-7.6-3.15-7.61-6.77,0-4.19,3.32-7.45,7.89-7.45,3.81,0,5.85,2.22,5.85,4.78,0,0.62-.18,1.09-1.32,1.09h-7Zm2.41-1.47a3.18,3.18,0,0,0,1.5-.3,0.92,0.92,0,0,0,.26-0.77,1.75,1.75,0,0,0-1.94-1.82,2.9,2.9,0,0,0-2.85,2.39c0,0.47.51,0.5,1.69,0.5h1.36Z"/><path d="M70.48,30.35c2.3,0,4.13,0,6.47-.11,0.4,0,.36,1,0.1,1.17l-0.54.09a2.06,2.06,0,0,0-1.35.5,2.86,2.86,0,0,0,.29,1c0.66,1.6,1.69,3.76,2.49,5.35,0.88-1.93,1.46-3.56,2-5.1A4.77,4.77,0,0,0,80.32,32a1,1,0,0,0-.92-0.46l-0.62-.13a0.88,0.88,0,0,1,.14-1.17c1.21,0.07,2.08.1,3,.09s2,0,2.81-.1a0.83,0.83,0,0,1,.12,1.16l-0.51.11c-1.21.23-1.46,0.56-2,1.79-1.68,3.39-3.36,7.06-4.89,10.58a1.62,1.62,0,0,1-1.68,0C75,42.08,73,38.19,72,36.07c-1,1.73-3.13,6.16-4,7.82a1.6,1.6,0,0,1-1.68,0c-1.76-3.75-3.57-7.57-5.35-11a2,2,0,0,0-1.5-1.26l-0.66-.16a0.83,0.83,0,0,1,.11-1.16c1.5,0.06,2.67.09,4.21,0.09h7.39Zm-1,1.37a9.26,9.26,0,0,0-1.75-.13c-1.18,0-1.87.13-1.87,0.49a3.36,3.36,0,0,0,.34,1.1c0.51,1.17,2,4.16,2.6,5.22a31.32,31.32,0,0,0,1.93-4,3.58,3.58,0,0,0,.11-1A2.09,2.09,0,0,0,69.49,31.72Z"/><path d="M83,37.25c0-4.75,4.09-7.39,8.4-7.39s8.2,2.38,8.2,7.06c0,4.86-3.9,7.16-8.4,7.16S83.05,41.84,83,37.25Zm5.26-.74c0,3.48,1.22,6,3.34,6s2.78-2.16,2.73-5.15c0-3.23-1.06-6-3.14-6C89.58,31.4,88.27,32.9,88.27,36.52Z"/><path d="M100.48,34.81c0-1.33,0-1.73-.7-2.13l-0.52-.29a0.75,0.75,0,0,1,0-1,26.77,26.77,0,0,0,5.34-2,0.76,0.76,0,0,1,.65.3c-0.07.67-.14,1.13-0.14,1.43a0.36,0.36,0,0,0,.36.4c1-.57,2-1.66,3.58-1.67a2,2,0,0,1,2,2A2.12,2.12,0,0,1,108.74,34a2.14,2.14,0,0,1-1.43-.6,2.28,2.28,0,0,0-1.39-.67c-0.52,0-.7.73-0.7,2v5.12c0,2.32.16,2.59,1.36,2.69l1.17,0.1a0.85,0.85,0,0,1,0,1.16c-1.76-.06-3.22-0.09-4.94-0.09-1.5,0-3.11,0-4.32.11a0.85,0.85,0,0,1,0-1.16l0.7-.06c1.21-.1,1.35-0.4,1.35-2.73v-5Z"/><path d="M111.68,25.11c0-1.34,0-1.69-.74-2.09l-0.62-.33a0.75,0.75,0,0,1,0-1,45.06,45.06,0,0,0,5.59-1.86,0.81,0.81,0,0,1,.62.23c-0.07,1.36-.1,2.75-0.1,4.86V35.34c0,0.37.11,0.47,0.52,0.47a2.81,2.81,0,0,0,2.12-.93l1.53-1.64a2.68,2.68,0,0,0,.88-1.33,0.76,0.76,0,0,0-.7-0.32l-0.91-.14a0.77,0.77,0,0,1,.07-1.16h0.88a60.38,60.38,0,0,0,6.91-.47,0.84,0.84,0,0,1,.15,1.16l-1.17.23a6.44,6.44,0,0,0-2.45,1.17,19.3,19.3,0,0,0-2.45,1.93,0.64,0.64,0,0,0-.22.43,1.2,1.2,0,0,0,.26.56,54.47,54.47,0,0,0,4.8,6.34,4.38,4.38,0,0,0,2.15.76l0.54,0.1a0.82,0.82,0,0,1-.14,1.16c-1.13-.06-2.49-0.1-4.6-0.1s-3.48,0-4.51.11a0.8,0.8,0,0,1-.14-1.16l0.48-.11a0.63,0.63,0,0,0,.58-0.26,4.05,4.05,0,0,0-.62-1.07l-2.61-3.59a1,1,0,0,0-.92-0.5c-0.25,0-.44.17-0.43,0.8v1.92c0,2.33.15,2.6,1.44,2.72l0.58,0.07a0.83,0.83,0,0,1,0,1.16c-1.17-.06-2.7-0.1-4.38-0.1s-3.18,0-4.46.11a0.84,0.84,0,0,1,0-1.16l0.7-.07c1.32-.13,1.47-0.4,1.46-2.73Z"/></svg>